<?xml version="1.0" encoding="UTF-8" standalone="no"?>
<!-- Created with Inkscape (http://www.inkscape.org/) -->

<svg
   width="303.27893mm"
   height="109.23297mm"
   viewBox="0 0 303.27893 109.23296"
   version="1.1"
   id="svg1"
   xml:space="preserve"
   inkscape:version="1.3.2 (091e20ef0f, 2023-11-25, custom)"
   sodipodi:docname="future-works.svg"
   xmlns:inkscape="http://www.inkscape.org/namespaces/inkscape"
   xmlns:sodipodi="http://sodipodi.sourceforge.net/DTD/sodipodi-0.dtd"
   xmlns="http://www.w3.org/2000/svg"
   xmlns:svg="http://www.w3.org/2000/svg"><sodipodi:namedview
     id="namedview1"
     pagecolor="#ffffff"
     bordercolor="#000000"
     borderopacity="0.25"
     inkscape:showpageshadow="2"
     inkscape:pageopacity="0.0"
     inkscape:pagecheckerboard="0"
     inkscape:deskcolor="#d1d1d1"
     inkscape:document-units="mm"
     inkscape:zoom="1.7313098"
     inkscape:cx="687.34087"
     inkscape:cy="219.487"
     inkscape:window-width="1920"
     inkscape:window-height="1128"
     inkscape:window-x="0"
     inkscape:window-y="0"
     inkscape:window-maximized="1"
     inkscape:current-layer="g9"
     showguides="true"><sodipodi:guide
       position="27.198473,25.278156"
       orientation="0,-1"
       id="guide26"
       inkscape:locked="false" /><sodipodi:guide
       position="91.024699,49.039843"
       orientation="0,-1"
       id="guide27"
       inkscape:locked="false" /></sodipodi:namedview><defs
     id="defs1" /><g
     inkscape:label="Layer 1"
     inkscape:groupmode="layer"
     id="layer1"
     transform="translate(29.8827,4.1732386)"><path
       style="fill:none;fill-rule:evenodd;stroke:#23373b;stroke-width:3;stroke-linecap:butt;stroke-linejoin:miter;stroke-dasharray:none;stroke-opacity:1"
       d="M 32.524782,53.388472 C 42.40177,43.805416 54.289392,47.283841 64.033014,41.658359"
       id="path2"
       inkscape:connector-type="polyline"
       inkscape:connector-curvature="0"
       sodipodi:nodetypes="cc" /><path
       style="fill:none;fill-rule:evenodd;stroke:#23373b;stroke-width:3;stroke-linecap:butt;stroke-linejoin:miter;stroke-dasharray:none;stroke-opacity:1"
       d="m 96.596347,40.952113 c 16.101403,0 22.258013,12.83957 39.669173,12.83957"
       id="path5"
       inkscape:connector-type="polyline"
       inkscape:connector-curvature="0"
       sodipodi:nodetypes="cc" /><g
       id="g13"
       transform="translate(-14.601687,18.3351)"><circle
         style="fill:#23373b;stroke:#23373b;stroke-width:1;stroke-linecap:round"
         id="path1"
         cx="30.967472"
         cy="41.06916"
         r="17.242525" /><g
         style="fill:#eda720;fill-opacity:1"
         id="g5"
         transform="matrix(0.3030338,0,0,0.3030338,21.876458,31.978146)"><g
           id="g12"
           style="fill:#eda720;fill-opacity:1">
	<path
   d="M 0,20 H 6 V 6 H 20 V 0 H 0 Z"
   id="path1-0"
   style="fill:#eda720;fill-opacity:1" />
	<path
   d="m 40,0 v 6 h 14 v 14 h 6 V 0 Z"
   id="path2-9"
   style="fill:#eda720;fill-opacity:1" />
	<path
   d="M 54,54 H 40 v 6 H 60 V 40 h -6 z"
   id="path3"
   style="fill:#eda720;fill-opacity:1" />
	<path
   d="M 6,40 H 0 V 60 H 20 V 54 H 6 Z"
   id="path4-3"
   style="fill:#eda720;fill-opacity:1" />
	<path
   d="m 30,4 c -4.963,0 -9,4.037 -9,9 v 12 c 0,1.654 1.346,3 3,3 1.654,0 3,-1.346 3,-3 V 13 c 0,-1.654 1.346,-3 3,-3 1.654,0 3,1.346 3,3 v 12 c 0,1.654 1.346,3 3,3 1.654,0 3,-1.346 3,-3 V 13 C 39,8.037 34.963,4 30,4 Z"
   id="path5-6"
   style="fill:#eda720;fill-opacity:1" />
	<path
   d="m 36,32 c -1.654,0 -3,1.346 -3,3 v 12 c 0,1.654 -1.346,3 -3,3 -1.654,0 -3,-1.346 -3,-3 V 35 c 0,-1.654 -1.346,-3 -3,-3 -1.654,0 -3,1.346 -3,3 v 12 c 0,4.963 4.037,9 9,9 4.963,0 9,-4.037 9,-9 V 35 c 0,-1.654 -1.346,-3 -3,-3 z"
   id="path6"
   style="fill:#eda720;fill-opacity:1" />
	<path
   d="m 46.535,21.051 -4.242,4.242 c -0.391,0.391 -0.391,1.023 0,1.414 C 42.488,26.902 42.744,27 43,27 c 0.256,0 0.512,-0.098 0.707,-0.293 l 4.242,-4.242 c 0.391,-0.391 0.391,-1.023 0,-1.414 -0.391,-0.391 -1.023,-0.391 -1.414,0 z"
   id="path7"
   style="fill:#eda720;fill-opacity:1" />
	<path
   d="m 43,30 c 0,0.553 0.447,1 1,1 h 6 c 0.553,0 1,-0.447 1,-1 0,-0.553 -0.447,-1 -1,-1 h -6 c -0.553,0 -1,0.447 -1,1 z"
   id="path8"
   style="fill:#eda720;fill-opacity:1" />
	<path
   d="m 42.293,34.707 4.242,4.242 c 0.195,0.195 0.451,0.293 0.707,0.293 0.256,0 0.512,-0.098 0.707,-0.293 0.391,-0.391 0.391,-1.023 0,-1.414 l -4.242,-4.242 c -0.391,-0.391 -1.023,-0.391 -1.414,0 -0.391,0.391 -0.391,1.023 0,1.414 z"
   id="path9"
   style="fill:#eda720;fill-opacity:1" />
	<path
   d="m 16.293,33.293 -4.242,4.242 c -0.391,0.391 -0.391,1.023 0,1.414 0.195,0.195 0.451,0.293 0.707,0.293 0.256,0 0.512,-0.098 0.707,-0.293 l 4.242,-4.242 c 0.391,-0.391 0.391,-1.023 0,-1.414 -0.391,-0.391 -1.023,-0.391 -1.414,0 z"
   id="path10"
   style="fill:#eda720;fill-opacity:1" />
	<path
   d="m 9,30 c 0,0.553 0.447,1 1,1 h 6 c 0.553,0 1,-0.447 1,-1 0,-0.553 -0.447,-1 -1,-1 h -6 c -0.553,0 -1,0.447 -1,1 z"
   id="path11"
   style="fill:#eda720;fill-opacity:1" />
	<path
   d="m 17.707,25.293 -4.242,-4.242 c -0.391,-0.391 -1.023,-0.391 -1.414,0 -0.391,0.391 -0.391,1.023 0,1.414 l 4.242,4.242 C 16.488,26.902 16.744,27 17,27 c 0.256,0 0.512,-0.098 0.707,-0.293 0.391,-0.391 0.391,-1.023 0,-1.414 z"
   id="path12"
   style="fill:#eda720;fill-opacity:1" />
</g></g></g><g
       id="g11"
       transform="translate(-7.9896452,17.68313)"><circle
         style="fill:#23373b;stroke:#23373b;stroke-width:1;stroke-linecap:round"
         id="path1-5"
         cx="88.181656"
         cy="17.95944"
         r="17.242525" /><g
         style="fill:none;fill-opacity:1;stroke:#eda720;stroke-opacity:1"
         id="g6"
         transform="matrix(0.75758451,0,0,0.75758451,79.090642,8.8646381)"><path
           d="M 12,5.56006 H 22"
           stroke="#292d32"
           stroke-width="1.5"
           stroke-miterlimit="10"
           stroke-linecap="round"
           stroke-linejoin="round"
           id="path1-06"
           style="fill:none;fill-opacity:1;stroke:#eda720;stroke-opacity:1" /><path
           d="m 14.22,2 h 5.56 C 21.56,2 22,2.44 22,4.2 v 4.11 c 0,1.76 -0.44,2.2 -2.22,2.2 H 14.22 C 12.44,10.51 12,10.07 12,8.31 V 4.2 C 12,2.44 12.44,2 14.22,2 Z"
           stroke="#292d32"
           stroke-width="1.5"
           stroke-linecap="round"
           stroke-linejoin="round"
           id="path2-2"
           style="fill:none;fill-opacity:1;stroke:#eda720;stroke-opacity:1" /><path
           d="M 2,17.0601 H 12"
           stroke="#292d32"
           stroke-width="1.5"
           stroke-miterlimit="10"
           stroke-linecap="round"
           stroke-linejoin="round"
           id="path3-6"
           style="fill:none;fill-opacity:1;stroke:#eda720;stroke-opacity:1" /><path
           d="m 4.22,13.5 h 5.56 c 1.78,0 2.22,0.44 2.22,2.2 v 4.11 c 0,1.76 -0.44,2.2 -2.22,2.2 H 4.22 C 2.44,22.01 2,21.57 2,19.81 V 15.7 c 0,-1.76 0.44,-2.2 2.22,-2.2 z"
           stroke="#292d32"
           stroke-width="1.5"
           stroke-linecap="round"
           stroke-linejoin="round"
           id="path4-1"
           style="fill:none;fill-opacity:1;stroke:#eda720;stroke-opacity:1" /><path
           d="m 22,15 c 0,3.87 -3.13,7 -7,7 l 1.05,-1.75"
           stroke="#292d32"
           stroke-width="1.5"
           stroke-linecap="round"
           stroke-linejoin="round"
           id="path5-8"
           style="fill:none;fill-opacity:1;stroke:#eda720;stroke-opacity:1" /><path
           d="M 2,9 C 2,5.13 5.13,2 9,2 L 7.95001,3.75"
           stroke="#292d32"
           stroke-width="1.5"
           stroke-linecap="round"
           stroke-linejoin="round"
           id="path6-7"
           style="fill:none;fill-opacity:1;stroke:#eda720;stroke-opacity:1" /></g></g><g
       id="g10"
       transform="translate(12.975527,0.28954255)"><circle
         style="fill:#23373b;stroke:#23373b;stroke-width:1;stroke-linecap:round"
         id="path1-5-2"
         cx="131.04271"
         cy="58.811684"
         r="17.242525" /><g
         style="fill:none;stroke:none;stroke-opacity:1"
         id="g7"
         transform="matrix(1.420471,0,0,1.420471,119.67945,47.447916)"><path
           fill="#000000"
           fill-rule="evenodd"
           d="M 5.374,15 C 5.039,15 4.714,14.847 4.5,14.569 L 1.246,10.397 A 1.15,1.15 0 0 1 1.032,9.419 L 2.197,4.212 C 2.271,3.867 2.495,3.589 2.802,3.436 L 7.517,1.116 C 7.667,1.038 7.834,1 8.002,1 8.17,1 8.337,1.038 8.487,1.115 L 13.2,3.426 c 0.308,0.153 0.532,0.432 0.606,0.777 l 1.165,5.207 c 0.074,0.345 0,0.7 -0.214,0.978 L 11.5,14.566 C 11.286,14.834 10.96,15 10.625,15 h -5.25 z m 7.718,-5.835 0.031,0.008 a 0.308,0.308 0 0 1 0.26,0.371 0.306,0.306 0 0 1 -0.396,0.223 H 12.983 L 12.98,9.766 12.977,9.765 12.947,9.758 12.897,9.748 A 2.548,2.548 0 0 1 12.623,9.642 2.87,2.87 0 0 0 12.09,9.486 0.242,0.242 0 0 0 11.919,9.549 4.76,4.76 0 0 0 11.788,9.526 3.972,3.972 0 0 1 10.024,11.738 c 0.015,0.042 0.032,0.083 0.051,0.123 a 0.239,0.239 0 0 0 -0.023,0.18 c 0.074,0.17 0.165,0.332 0.271,0.484 0.06,0.078 0.114,0.16 0.164,0.244 l 0.028,0.057 0.012,0.025 a 0.306,0.306 0 0 1 -0.381,0.44 0.307,0.307 0 0 1 -0.172,-0.18 2.608,2.608 0 0 0 -0.01,-0.02 L 9.936,13.033 A 2.545,2.545 0 0 1 9.847,12.753 2.835,2.835 0 0 0 9.637,12.241 0.242,0.242 0 0 0 9.481,12.146 5.926,5.926 0 0 1 9.451,12.093 L 9.416,12.029 A 3.97,3.97 0 0 1 6.592,12.022 l -0.069,0.125 a 0.249,0.249 0 0 0 -0.132,0.064 c -0.104,0.17 -0.184,0.355 -0.237,0.548 a 2.525,2.525 0 0 1 -0.088,0.28 l -0.025,0.05 -0.013,0.027 v 0.001 A 0.307,0.307 0 1 1 5.475,12.856 l 0.014,-0.03 0.026,-0.052 c 0.05,-0.085 0.104,-0.166 0.164,-0.244 0.108,-0.156 0.2,-0.322 0.277,-0.496 A 0.302,0.302 0 0 0 5.928,11.861 L 5.984,11.728 A 3.972,3.972 0 0 1 4.22,9.532 L 4.086,9.555 A 0.34,0.34 0 0 0 3.91,9.493 2.872,2.872 0 0 0 3.377,9.649 C 3.287,9.689 3.196,9.724 3.103,9.754 L 3.053,9.765 3.023,9.772 H 3.02 L 3.018,9.774 H 3.013 A 0.308,0.308 0 0 1 2.616,9.425 0.306,0.306 0 0 1 2.877,9.18 L 2.881,9.179 H 2.884 L 2.89,9.177 C 2.914,9.171 2.944,9.163 2.966,9.159 3.063,9.146 3.161,9.138 3.259,9.136 3.445,9.123 3.629,9.093 3.808,9.046 A 0.422,0.422 0 0 0 3.939,8.913 L 4.067,8.876 A 3.938,3.938 0 0 1 4.691,6.124 L 4.594,6.037 A 0.338,0.338 0 0 0 4.532,5.861 2.854,2.854 0 0 0 4.077,5.542 2.557,2.557 0 0 1 3.823,5.394 1.129,1.129 0 0 1 3.76,5.344 L 3.756,5.34 A 0.323,0.323 0 0 1 3.68,4.89 0.295,0.295 0 0 1 3.924,4.783 0.365,0.365 0 0 1 4.137,4.863 L 4.159,4.88 C 4.175,4.893 4.193,4.906 4.205,4.917 4.276,4.984 4.344,5.056 4.407,5.13 4.532,5.267 4.67,5.392 4.819,5.502 4.875,5.532 4.94,5.538 5.001,5.52 l 0.11,0.078 A 3.938,3.938 0 0 1 7.663,4.374 L 7.67,4.245 A 0.332,0.332 0 0 0 7.77,4.088 2.844,2.844 0 0 0 7.736,3.534 2.555,2.555 0 0 1 7.694,3.244 V 3.191 3.166 3.162 3.158 A 0.306,0.306 0 0 1 8,2.82 0.308,0.308 0 0 1 8.306,3.157 V 3.244 A 2.53,2.53 0 0 1 8.265,3.534 2.85,2.85 0 0 0 8.23,4.087 0.242,0.242 0 0 0 8.33,4.24 v 0.007 l 0.007,0.13 c 0.967,0.087 1.87,0.522 2.54,1.223 l 0.116,-0.083 a 0.34,0.34 0 0 0 0.186,-0.02 c 0.149,-0.11 0.287,-0.235 0.412,-0.373 a 2.53,2.53 0 0 1 0.202,-0.213 l 0.051,-0.04 0.017,-0.014 a 0.308,0.308 0 0 1 0.472,0.388 0.307,0.307 0 0 1 -0.09,0.09 c -0.008,0.005 -0.017,0.012 -0.025,0.02 l -0.043,0.033 a 2.549,2.549 0 0 1 -0.254,0.148 2.865,2.865 0 0 0 -0.455,0.32 0.24,0.24 0 0 0 -0.058,0.172 4.458,4.458 0 0 1 -0.05,0.044 L 11.3,6.125 c 0.542,0.806 0.769,1.783 0.637,2.745 l 0.123,0.036 c 0.031,0.056 0.077,0.101 0.132,0.132 0.18,0.048 0.364,0.078 0.55,0.09 0.097,0.003 0.195,0.01 0.292,0.024 z M 10.217,6.065 8.909,6.99 8.905,6.988 A 0.27,0.27 0 0 1 8.475,6.783 V 6.782 L 8.384,5.184 a 3.183,3.183 0 0 1 1.833,0.882 z M 7.754,7.818 H 8.246 L 8.552,8.199 8.442,8.675 8,8.886 7.557,8.673 7.447,8.198 7.754,7.817 Z M 7.29,5.24 C 7.397,5.216 7.506,5.197 7.616,5.184 l -0.09,1.6 -0.008,0.004 A 0.268,0.268 0 0 1 7.225,7.044 0.27,0.27 0 0 1 7.09,6.994 L 7.088,6.995 5.772,6.065 C 6.191,5.655 6.717,5.369 7.29,5.24 Z M 5.296,6.663 6.497,7.734 6.496,7.741 A 0.269,0.269 0 0 1 6.39,8.203 L 6.389,8.208 4.849,8.651 A 3.134,3.134 0 0 1 5.296,6.663 Z M 6.904,9.509 6.292,10.983 A 3.16,3.16 0 0 1 5.022,9.397 L 6.6,9.13 6.603,9.133 A 0.265,0.265 0 0 1 6.783,9.162 0.27,0.27 0 0 1 6.9,9.503 Z m 1.806,1.896 c -0.572,0.13 -1.17,0.1 -1.726,-0.088 l 0.777,-1.4 H 7.762 A 0.27,0.27 0 0 1 8.237,9.916 h 0.006 l 0.779,1.402 A 3.286,3.286 0 0 1 8.71,11.405 Z M 9.714,10.989 9.096,9.5 9.097,9.497 A 0.269,0.269 0 0 1 9.393,9.127 L 9.396,9.123 10.989,9.392 A 3.147,3.147 0 0 1 9.714,10.989 Z M 11.156,8.646 9.61,8.201 9.608,8.195 A 0.27,0.27 0 0 1 9.423,7.852 0.27,0.27 0 0 1 9.503,7.732 L 9.5,7.73 10.695,6.663 c 0.366,0.594 0.527,1.29 0.46,1.983 z"
           clip-rule="evenodd"
           id="path1-2"
           style="fill:#eda720;fill-opacity:1;stroke:none;stroke-opacity:1" /></g></g><g
       id="g9"
       transform="translate(-29.392896,-13.444752)"><circle
         style="fill:#23373b;stroke:#23373b;stroke-width:1;stroke-linecap:round"
         id="path1-5-2-7"
         cx="237.23735"
         cy="48.522923"
         r="17.242525" /><path
         fill="#000000"
         d="m 237.21794,48.944765 c -0.0602,0.08295 -0.11136,0.151138 -0.16023,0.220457 l -2.34889,3.336402 c -0.72728,1.034103 -1.45683,2.068206 -2.18639,3.102309 a 0.14545623,0.14545623 0 0 1 -0.10454,0.05795 c -1.02956,-0.008 -2.06025,-0.01932 -3.08981,-0.03182 -0.0114,0 -0.0227,-0.0034 -0.0455,-0.0068 a 0.51705144,0.51705144 0 0 1 0.0284,-0.06023 15883.702,15883.702 0 0 1 6.18871,-9.256925 c 0.10455,-0.15682 0.21364,-0.310231 0.3125,-0.469324 a 0.18750217,0.18750217 0 0 0 0.0205,-0.140911 c -0.18978,-0.585234 -0.3841,-1.170468 -0.57728,-1.753429 -0.083,-0.250003 -0.17046,-0.500006 -0.24773,-0.750009 -0.025,-0.08182 -0.067,-0.106819 -0.15228,-0.105683 -0.64773,0.0023 -1.29092,0.0011 -1.93638,0.0011 -0.12273,0 -0.12273,0 -0.12273,-0.117047 0,-0.765918 0,-1.5307 -0.002,-2.296618 0,-0.08523 0.0295,-0.104546 0.1125,-0.104546 1.29888,0.0023 2.59776,0.0023 3.89777,0 a 0.12841058,0.12841058 0 0 1 0.0864,0.01932 0.12159232,0.12159232 0 0 1 0.0511,0.06932 20757.268,20757.268 0 0 0 4.4546,10.806943 c 0.24773,0.60228 0.49773,1.203423 0.74319,1.80684 0.0296,0.07273 0.0602,0.08636 0.13637,0.06364 0.68182,-0.202275 1.36365,-0.400005 2.04547,-0.603416 0.0852,-0.02614 0.11591,-0.0091 0.14319,0.07273 0.23182,0.704553 0.46818,1.407971 0.70455,2.111388 l 0.0227,0.08295 c -0.0489,0.01705 -0.0943,0.03636 -0.14091,0.04886 l -4.6421,1.420471 c -0.0739,0.02273 -0.0966,0 -0.12046,-0.06136 l -1.42047,-3.463676 -1.3932,-3.390949 -0.20795,-0.510233 c -0.0114,-0.02955 -0.0261,-0.05455 -0.0489,-0.09886 z"
         id="path1-9"
         style="fill:#eda720;fill-opacity:1;stroke-width:1.13638" /><text
         xml:space="preserve"
         style="font-weight:bold;font-size:6.35px;line-height:1;font-family:'Fira Sans';-inkscape-font-specification:'Fira Sans, Bold';white-space:pre;inline-size:71.6859;display:inline;fill:#23373b;fill-opacity:1;stroke:none;stroke-width:3;stroke-linecap:round;stroke-dasharray:none;stroke-opacity:1"
         x="98.763031"
         y="100.73711"
         id="text13"
         transform="translate(-52.887543,-2.1166667)"><tspan
           x="98.763031"
           y="100.73711"
           id="tspan5"><tspan
             style="font-weight:normal;-inkscape-font-specification:'Fira Sans, Normal';text-align:center;text-anchor:middle"
             id="tspan1">Introduce </tspan><tspan
             style="text-align:center;text-anchor:middle"
             id="tspan2">capabilities</tspan><tspan
             style="font-weight:normal;-inkscape-font-specification:'Fira Sans, Normal';text-align:center;text-anchor:middle"
             id="tspan4"> to </tspan></tspan><tspan
           x="98.763031"
           y="107.0871"
           id="tspan8"><tspan
             style="font-style:italic;text-align:center;text-anchor:middle"
             id="tspan6">constrain</tspan><tspan
             style="font-weight:normal;-inkscape-font-specification:'Fira Sans, Normal';text-align:center;text-anchor:middle"
             id="tspan7"> components' </tspan></tspan><tspan
           x="98.763031"
           y="113.4371"
           id="tspan10"><tspan
             style="font-weight:normal;-inkscape-font-specification:'Fira Sans, Normal';text-align:center;text-anchor:middle"
             id="tspan9">execution</tspan></tspan></text><text
         xml:space="preserve"
         style="font-weight:bold;font-size:6.35px;line-height:1;font-family:'Fira Sans';-inkscape-font-specification:'Fira Sans, Bold';white-space:pre;inline-size:67.3199;display:inline;fill:#23373b;fill-opacity:1;stroke:none;stroke-width:3;stroke-linecap:round;stroke-dasharray:none;stroke-opacity:1"
         x="145.09581"
         y="100.73711"
         id="text13-1"
         transform="translate(-37.900926,-85.949001)"><tspan
           x="145.09581"
           y="100.73711"
           id="tspan13"><tspan
             style="text-align:center;text-anchor:middle"
             id="tspan11">Dynamic</tspan><tspan
             style="font-weight:normal;-inkscape-font-specification:'Fira Sans, Normal';text-align:center;text-anchor:middle"
             id="tspan12"> components' </tspan></tspan><tspan
           x="145.09581"
           y="107.0871"
           id="tspan17"><tspan
             style="font-weight:normal;-inkscape-font-specification:'Fira Sans, Normal';text-align:center;text-anchor:middle"
             id="tspan14">relocation (</tspan><tspan
             style="font-style:italic;text-align:center;text-anchor:middle"
             id="tspan15">AI</tspan><tspan
             style="font-weight:normal;-inkscape-font-specification:'Fira Sans, Normal';text-align:center;text-anchor:middle"
             id="tspan16"> </tspan></tspan><tspan
           x="145.09581"
           y="113.4371"
           id="tspan28"><tspan
             style="font-weight:normal;-inkscape-font-specification:'Fira Sans, Normal';text-align:center;text-anchor:middle"
             id="tspan27">supported)</tspan></tspan></text><text
         xml:space="preserve"
         style="font-weight:bold;font-size:6.35px;line-height:1;font-family:'Fira Sans';-inkscape-font-specification:'Fira Sans, Bold';white-space:pre;inline-size:76.192;display:inline;fill:#23373b;fill-opacity:1;stroke:none;stroke-width:3;stroke-linecap:round;stroke-dasharray:none;stroke-opacity:1"
         x="174.63353"
         y="100.73711"
         id="text13-1-0"
         transform="translate(64.497734,-86.512593)"><tspan
           x="174.63353"
           y="100.73711"
           id="tspan32"><tspan
             style="font-weight:normal;text-align:center;text-anchor:middle"
             id="tspan29">Exploit </tspan><tspan
             style="text-align:center;text-anchor:middle"
             id="tspan30">FaaS</tspan><tspan
             style="font-weight:normal;text-align:center;text-anchor:middle"
             id="tspan31"> paradigm for </tspan></tspan><tspan
           x="174.63353"
           y="107.0871"
           id="tspan36"><tspan
             style="font-weight:normal;text-align:center;text-anchor:middle"
             id="tspan33">components' </tspan><tspan
             style="font-style:italic;text-align:center;text-anchor:middle"
             id="tspan34">offloading</tspan><tspan
             style="font-weight:normal;text-align:center;text-anchor:middle"
             id="tspan35"> </tspan></tspan><tspan
           x="174.63353"
           y="113.4371"
           id="tspan39"><tspan
             style="font-weight:normal;text-align:center;text-anchor:middle"
             id="tspan37">and </tspan><tspan
             style="font-style:italic;text-align:center;text-anchor:middle"
             id="tspan38">execution</tspan></tspan></text><text
         xml:space="preserve"
         style="font-weight:bold;font-size:6.35px;line-height:1;font-family:'Fira Sans';-inkscape-font-specification:'Fira Sans, Bold';white-space:pre;inline-size:66.2162;display:inline;fill:#23373b;fill-opacity:1;stroke:none;stroke-width:3;stroke-linecap:round;stroke-dasharray:none;stroke-opacity:1"
         x="174.11037"
         y="100.73711"
         id="text13-1-1"
         transform="translate(2.1176985,-2.9153598)"><tspan
           x="174.11037"
           y="100.73711"
           id="tspan41"><tspan
             style="font-weight:normal;font-family:Sans;-inkscape-font-specification:'Sans, Bold';text-align:center;text-anchor:middle"
             id="tspan40">Integrate with </tspan></tspan><tspan
           x="174.11037"
           y="107.12335"
           id="tspan44"><tspan
             style="text-align:center;text-anchor:middle"
             id="tspan42">orchestration tools</tspan><tspan
             style="font-weight:normal;font-family:Sans;-inkscape-font-specification:'Sans, Bold';text-align:center;text-anchor:middle"
             id="tspan43"> </tspan></tspan><tspan
           x="174.11037"
           y="113.5096"
           id="tspan47"><tspan
             style="font-weight:normal;font-family:Sans;-inkscape-font-specification:'Sans, Bold';text-align:center;text-anchor:middle"
             id="tspan45">achieving </tspan><tspan
             style="font-style:italic;text-align:center;text-anchor:middle"
             id="tspan46">real </tspan></tspan><tspan
           x="174.11037"
           y="119.89585"
           id="tspan49"><tspan
             style="font-style:italic;text-align:center;text-anchor:middle"
             id="tspan48">deployments</tspan></tspan></text><path
         style="fill:none;fill-rule:evenodd;stroke:#23373b;stroke-width:3;stroke-linecap:butt;stroke-linejoin:miter;stroke-dasharray:none;stroke-opacity:1"
         d="m 189.5482,66.472274 c 13.7787,0 16.58464,-7.865132 31.55209,-11.875647"
         id="path27"
         inkscape:connector-type="polyline"
         inkscape:connector-curvature="0"
         inkscape:connection-start="#g10"
         inkscape:connection-end="#path1-5-2-7"
         sodipodi:nodetypes="cc" /></g></g></svg>
