<?xml version="1.0" encoding="UTF-8" standalone="no"?>
<!-- Created with Inkscape (http://www.inkscape.org/) -->

<svg
   version="1.1"
   id="svg1"
   width="2531.6692"
   height="468.63583"
   viewBox="0 0 2531.6692 468.63583"
   sodipodi:docname="gradient_convergence_error.svg"
   inkscape:version="1.3.2 (091e20ef0f, 2023-11-25, custom)"
   xmlns:inkscape="http://www.inkscape.org/namespaces/inkscape"
   xmlns:sodipodi="http://sodipodi.sourceforge.net/DTD/sodipodi-0.dtd"
   xmlns="http://www.w3.org/2000/svg"
   xmlns:svg="http://www.w3.org/2000/svg">
  <defs
     id="defs1">
    <clipPath
       clipPathUnits="userSpaceOnUse"
       id="clipPath4">
      <path
         d="M 48.621875,54.575 H 615.67854 v 273.78 H 48.621875 Z"
         id="path4" />
    </clipPath>
    <clipPath
       clipPathUnits="userSpaceOnUse"
       id="clipPath6">
      <path
         d="M 48.621875,54.575 H 615.67854 v 273.78 H 48.621875 Z"
         id="path6" />
    </clipPath>
    <clipPath
       clipPathUnits="userSpaceOnUse"
       id="clipPath8">
      <path
         d="M 48.621875,54.575 H 615.67854 v 273.78 H 48.621875 Z"
         id="path8" />
    </clipPath>
    <clipPath
       clipPathUnits="userSpaceOnUse"
       id="clipPath10">
      <path
         d="M 48.621875,54.575 H 615.67854 v 273.78 H 48.621875 Z"
         id="path10" />
    </clipPath>
    <clipPath
       clipPathUnits="userSpaceOnUse"
       id="clipPath12">
      <path
         d="M 48.621875,54.575 H 615.67854 v 273.78 H 48.621875 Z"
         id="path12" />
    </clipPath>
    <clipPath
       clipPathUnits="userSpaceOnUse"
       id="clipPath14">
      <path
         d="M 48.621875,54.575 H 615.67854 v 273.78 H 48.621875 Z"
         id="path14" />
    </clipPath>
    <clipPath
       clipPathUnits="userSpaceOnUse"
       id="clipPath16">
      <path
         d="M 48.621875,54.575 H 615.67854 v 273.78 H 48.621875 Z"
         id="path16" />
    </clipPath>
    <clipPath
       clipPathUnits="userSpaceOnUse"
       id="clipPath18">
      <path
         d="M 48.621875,54.575 H 615.67854 v 273.78 H 48.621875 Z"
         id="path18" />
    </clipPath>
    <clipPath
       clipPathUnits="userSpaceOnUse"
       id="clipPath20">
      <path
         d="M 48.621875,54.575 H 615.67854 v 273.78 H 48.621875 Z"
         id="path20" />
    </clipPath>
    <clipPath
       clipPathUnits="userSpaceOnUse"
       id="clipPath22">
      <path
         d="M 48.621875,54.575 H 615.67854 v 273.78 H 48.621875 Z"
         id="path22" />
    </clipPath>
    <clipPath
       clipPathUnits="userSpaceOnUse"
       id="clipPath24">
      <path
         d="M 48.621875,54.575 H 615.67854 v 273.78 H 48.621875 Z"
         id="path24" />
    </clipPath>
    <clipPath
       clipPathUnits="userSpaceOnUse"
       id="clipPath27">
      <path
         d="M 48.621875,54.575 H 615.67854 v 273.78 H 48.621875 Z"
         id="path27" />
    </clipPath>
    <clipPath
       clipPathUnits="userSpaceOnUse"
       id="clipPath32">
      <path
         d="m 686.55854,54.575 h 567.05666 v 273.78 H 686.55854 Z"
         id="path32" />
    </clipPath>
    <clipPath
       clipPathUnits="userSpaceOnUse"
       id="clipPath34">
      <path
         d="m 686.55854,54.575 h 567.05666 v 273.78 H 686.55854 Z"
         id="path34" />
    </clipPath>
    <clipPath
       clipPathUnits="userSpaceOnUse"
       id="clipPath36">
      <path
         d="m 686.55854,54.575 h 567.05666 v 273.78 H 686.55854 Z"
         id="path36" />
    </clipPath>
    <clipPath
       clipPathUnits="userSpaceOnUse"
       id="clipPath38">
      <path
         d="m 686.55854,54.575 h 567.05666 v 273.78 H 686.55854 Z"
         id="path38" />
    </clipPath>
    <clipPath
       clipPathUnits="userSpaceOnUse"
       id="clipPath40">
      <path
         d="m 686.55854,54.575 h 567.05666 v 273.78 H 686.55854 Z"
         id="path40" />
    </clipPath>
    <clipPath
       clipPathUnits="userSpaceOnUse"
       id="clipPath42">
      <path
         d="m 686.55854,54.575 h 567.05666 v 273.78 H 686.55854 Z"
         id="path42" />
    </clipPath>
    <clipPath
       clipPathUnits="userSpaceOnUse"
       id="clipPath44">
      <path
         d="m 686.55854,54.575 h 567.05666 v 273.78 H 686.55854 Z"
         id="path44" />
    </clipPath>
    <clipPath
       clipPathUnits="userSpaceOnUse"
       id="clipPath46">
      <path
         d="m 686.55854,54.575 h 567.05666 v 273.78 H 686.55854 Z"
         id="path46" />
    </clipPath>
    <clipPath
       clipPathUnits="userSpaceOnUse"
       id="clipPath48">
      <path
         d="m 686.55854,54.575 h 567.05666 v 273.78 H 686.55854 Z"
         id="path48" />
    </clipPath>
    <clipPath
       clipPathUnits="userSpaceOnUse"
       id="clipPath50">
      <path
         d="m 686.55854,54.575 h 567.05666 v 273.78 H 686.55854 Z"
         id="path50" />
    </clipPath>
    <clipPath
       clipPathUnits="userSpaceOnUse"
       id="clipPath52">
      <path
         d="m 686.55854,54.575 h 567.05666 v 273.78 H 686.55854 Z"
         id="path52" />
    </clipPath>
    <clipPath
       clipPathUnits="userSpaceOnUse"
       id="clipPath54">
      <path
         d="m 686.55854,54.575 h 567.05666 v 273.78 H 686.55854 Z"
         id="path54" />
    </clipPath>
    <clipPath
       clipPathUnits="userSpaceOnUse"
       id="clipPath56">
      <path
         d="m 686.55854,54.575 h 567.05666 v 273.78 H 686.55854 Z"
         id="path56" />
    </clipPath>
    <clipPath
       clipPathUnits="userSpaceOnUse"
       id="clipPath61">
      <path
         d="m 1324.4952,54.575 h 567.0567 v 273.78 h -567.0567 z"
         id="path61" />
    </clipPath>
    <clipPath
       clipPathUnits="userSpaceOnUse"
       id="clipPath63">
      <path
         d="m 1324.4952,54.575 h 567.0567 v 273.78 h -567.0567 z"
         id="path63" />
    </clipPath>
    <clipPath
       clipPathUnits="userSpaceOnUse"
       id="clipPath65">
      <path
         d="m 1324.4952,54.575 h 567.0567 v 273.78 h -567.0567 z"
         id="path65" />
    </clipPath>
    <clipPath
       clipPathUnits="userSpaceOnUse"
       id="clipPath67">
      <path
         d="m 1324.4952,54.575 h 567.0567 v 273.78 h -567.0567 z"
         id="path67" />
    </clipPath>
    <clipPath
       clipPathUnits="userSpaceOnUse"
       id="clipPath69">
      <path
         d="m 1324.4952,54.575 h 567.0567 v 273.78 h -567.0567 z"
         id="path69" />
    </clipPath>
    <clipPath
       clipPathUnits="userSpaceOnUse"
       id="clipPath71">
      <path
         d="m 1324.4952,54.575 h 567.0567 v 273.78 h -567.0567 z"
         id="path71" />
    </clipPath>
    <clipPath
       clipPathUnits="userSpaceOnUse"
       id="clipPath73">
      <path
         d="m 1324.4952,54.575 h 567.0567 v 273.78 h -567.0567 z"
         id="path73" />
    </clipPath>
    <clipPath
       clipPathUnits="userSpaceOnUse"
       id="clipPath75">
      <path
         d="m 1324.4952,54.575 h 567.0567 v 273.78 h -567.0567 z"
         id="path75" />
    </clipPath>
    <clipPath
       clipPathUnits="userSpaceOnUse"
       id="clipPath77">
      <path
         d="m 1324.4952,54.575 h 567.0567 v 273.78 h -567.0567 z"
         id="path77" />
    </clipPath>
    <clipPath
       clipPathUnits="userSpaceOnUse"
       id="clipPath79">
      <path
         d="m 1324.4952,54.575 h 567.0567 v 273.78 h -567.0567 z"
         id="path79" />
    </clipPath>
    <clipPath
       clipPathUnits="userSpaceOnUse"
       id="clipPath81">
      <path
         d="m 1324.4952,54.575 h 567.0567 v 273.78 h -567.0567 z"
         id="path81" />
    </clipPath>
    <clipPath
       clipPathUnits="userSpaceOnUse"
       id="clipPath83">
      <path
         d="m 1324.4952,54.575 h 567.0567 v 273.78 h -567.0567 z"
         id="path83" />
    </clipPath>
    <clipPath
       clipPathUnits="userSpaceOnUse"
       id="clipPath85">
      <path
         d="m 1324.4952,54.575 h 567.0567 v 273.78 h -567.0567 z"
         id="path85" />
    </clipPath>
    <clipPath
       clipPathUnits="userSpaceOnUse"
       id="clipPath87">
      <path
         d="m 1324.4952,54.575 h 567.0567 v 273.78 h -567.0567 z"
         id="path87" />
    </clipPath>
    <clipPath
       clipPathUnits="userSpaceOnUse"
       id="clipPath89">
      <path
         d="m 1324.4952,54.575 h 567.0567 v 273.78 h -567.0567 z"
         id="path89" />
    </clipPath>
  </defs>
  <sodipodi:namedview
     id="namedview1"
     pagecolor="#ffffff"
     bordercolor="#000000"
     borderopacity="0.25"
     inkscape:showpageshadow="2"
     inkscape:pageopacity="0.0"
     inkscape:pagecheckerboard="0"
     inkscape:deskcolor="#d1d1d1"
     inkscape:zoom="1.0313354"
     inkscape:cx="1265.8346"
     inkscape:cy="234.64724"
     inkscape:window-width="3440"
     inkscape:window-height="1358"
     inkscape:window-x="0"
     inkscape:window-y="0"
     inkscape:window-maximized="1"
     inkscape:current-layer="g1">
    <inkscape:page
       x="0"
       y="0"
       inkscape:label="1"
       id="page1"
       width="2531.6692"
       height="468.63583"
       margin="0"
       bleed="0" />
  </sodipodi:namedview>
  <g
     id="g1"
     inkscape:groupmode="layer"
     inkscape:label="1">
    <path
       id="path2"
       d="M 48.621875,54.575 H 615.67854 v 273.78 H 48.621875 Z"
       style="fill:#ffffff;fill-opacity:1;fill-rule:nonzero;stroke:none"
       transform="matrix(1.3333333,0,0,-1.3333333,0,468.63583)" />
    <path
       id="path3"
       d="m 49.84927,54.575 v 273.78"
       style="fill:none;stroke:#cccccc;stroke-width:1;stroke-linecap:round;stroke-linejoin:round;stroke-miterlimit:10;stroke-dasharray:none;stroke-opacity:1"
       transform="matrix(1.3333333,0,0,-1.3333333,0,468.63583)"
       clip-path="url(#clipPath4)" />
    <text
       id="text4"
       xml:space="preserve"
       transform="matrix(1.3333333,0,0,1.3333333,59.465694,425.765)"><tspan
         style="font-variant:normal;font-weight:normal;font-size:16.5px;font-family:'DejaVu Sans';writing-mode:lr-tb;fill:#262626;fill-opacity:1;fill-rule:nonzero;stroke:none"
         x="0"
         y="0"
         id="tspan4">0</tspan></text>
    <path
       id="path5"
       d="m 148.0409,54.575 v 273.78"
       style="fill:none;stroke:#cccccc;stroke-width:1;stroke-linecap:round;stroke-linejoin:round;stroke-miterlimit:10;stroke-dasharray:none;stroke-opacity:1"
       transform="matrix(1.3333333,0,0,-1.3333333,0,468.63583)"
       clip-path="url(#clipPath6)" />
    <text
       id="text6"
       xml:space="preserve"
       transform="matrix(1.3333333,0,0,1.3333333,176.38787,425.765)"><tspan
         style="font-variant:normal;font-weight:normal;font-size:16.5px;font-family:'DejaVu Sans';writing-mode:lr-tb;fill:#262626;fill-opacity:1;fill-rule:nonzero;stroke:none"
         x="0 10.494 20.988001"
         y="0"
         sodipodi:role="line"
         id="tspan6">200</tspan></text>
    <path
       id="path7"
       d="m 246.23253,54.575 v 273.78"
       style="fill:none;stroke:#cccccc;stroke-width:1;stroke-linecap:round;stroke-linejoin:round;stroke-miterlimit:10;stroke-dasharray:none;stroke-opacity:1"
       transform="matrix(1.3333333,0,0,-1.3333333,0,468.63583)"
       clip-path="url(#clipPath8)" />
    <text
       id="text8"
       xml:space="preserve"
       transform="matrix(1.3333333,0,0,1.3333333,307.31004,425.765)"><tspan
         style="font-variant:normal;font-weight:normal;font-size:16.5px;font-family:'DejaVu Sans';writing-mode:lr-tb;fill:#262626;fill-opacity:1;fill-rule:nonzero;stroke:none"
         x="0 10.494 20.988001"
         y="0"
         sodipodi:role="line"
         id="tspan8">400</tspan></text>
    <path
       id="path9"
       d="m 344.42416,54.575 v 273.78"
       style="fill:none;stroke:#cccccc;stroke-width:1;stroke-linecap:round;stroke-linejoin:round;stroke-miterlimit:10;stroke-dasharray:none;stroke-opacity:1"
       transform="matrix(1.3333333,0,0,-1.3333333,0,468.63583)"
       clip-path="url(#clipPath10)" />
    <text
       id="text10"
       xml:space="preserve"
       transform="matrix(1.3333333,0,0,1.3333333,438.23222,425.765)"><tspan
         style="font-variant:normal;font-weight:normal;font-size:16.5px;font-family:'DejaVu Sans';writing-mode:lr-tb;fill:#262626;fill-opacity:1;fill-rule:nonzero;stroke:none"
         x="0 10.494 20.988001"
         y="0"
         sodipodi:role="line"
         id="tspan10">600</tspan></text>
    <path
       id="path11"
       d="m 442.61579,54.575 v 273.78"
       style="fill:none;stroke:#cccccc;stroke-width:1;stroke-linecap:round;stroke-linejoin:round;stroke-miterlimit:10;stroke-dasharray:none;stroke-opacity:1"
       transform="matrix(1.3333333,0,0,-1.3333333,0,468.63583)"
       clip-path="url(#clipPath12)" />
    <text
       id="text12"
       xml:space="preserve"
       transform="matrix(1.3333333,0,0,1.3333333,569.15439,425.765)"><tspan
         style="font-variant:normal;font-weight:normal;font-size:16.5px;font-family:'DejaVu Sans';writing-mode:lr-tb;fill:#262626;fill-opacity:1;fill-rule:nonzero;stroke:none"
         x="0 10.494 20.988001"
         y="0"
         sodipodi:role="line"
         id="tspan12">800</tspan></text>
    <path
       id="path13"
       d="m 540.80742,54.575 v 273.78"
       style="fill:none;stroke:#cccccc;stroke-width:1;stroke-linecap:round;stroke-linejoin:round;stroke-miterlimit:10;stroke-dasharray:none;stroke-opacity:1"
       transform="matrix(1.3333333,0,0,-1.3333333,0,468.63583)"
       clip-path="url(#clipPath14)" />
    <text
       id="text14"
       xml:space="preserve"
       transform="matrix(1.3333333,0,0,1.3333333,693.07656,425.765)"><tspan
         style="font-variant:normal;font-weight:normal;font-size:16.5px;font-family:'DejaVu Sans';writing-mode:lr-tb;fill:#262626;fill-opacity:1;fill-rule:nonzero;stroke:none"
         x="0 10.494 20.988001 31.482"
         y="0"
         sodipodi:role="line"
         id="tspan14">1000</tspan></text>
    <text
       id="text15"
       xml:space="preserve"
       transform="matrix(1.3333333,0,0,1.3333333,415.75236,454.03583)"><tspan
         style="font-variant:normal;font-weight:normal;font-size:18px;font-family:'DejaVu Sans';writing-mode:lr-tb;fill:#262626;fill-opacity:1;fill-rule:nonzero;stroke:none"
         x="0 7.0560002 12.06 29.591999"
         y="0"
         sodipodi:role="line"
         id="tspan15">time</tspan></text>
    <path
       id="path15"
       d="M 48.621875,67.019545 H 615.67854"
       style="fill:none;stroke:#cccccc;stroke-width:1;stroke-linecap:round;stroke-linejoin:round;stroke-miterlimit:10;stroke-dasharray:none;stroke-opacity:1"
       transform="matrix(1.3333333,0,0,-1.3333333,0,468.63583)"
       clip-path="url(#clipPath16)" />
    <text
       id="text16"
       xml:space="preserve"
       transform="matrix(1.3333333,0,0,1.3333333,38.1625,387.89102)"><tspan
         style="font-variant:normal;font-weight:normal;font-size:16.5px;font-family:'DejaVu Sans';writing-mode:lr-tb;fill:#262626;fill-opacity:1;fill-rule:nonzero;stroke:none"
         x="0"
         y="0"
         id="tspan16">0</tspan></text>
    <path
       id="path17"
       d="M 48.621875,124.3267 H 615.67854"
       style="fill:none;stroke:#cccccc;stroke-width:1;stroke-linecap:round;stroke-linejoin:round;stroke-miterlimit:10;stroke-dasharray:none;stroke-opacity:1"
       transform="matrix(1.3333333,0,0,-1.3333333,0,468.63583)"
       clip-path="url(#clipPath18)" />
    <text
       id="text18"
       xml:space="preserve"
       transform="matrix(1.3333333,0,0,1.3333333,38.1625,311.48148)"><tspan
         style="font-variant:normal;font-weight:normal;font-size:16.5px;font-family:'DejaVu Sans';writing-mode:lr-tb;fill:#262626;fill-opacity:1;fill-rule:nonzero;stroke:none"
         x="0"
         y="0"
         id="tspan18">2</tspan></text>
    <path
       id="path19"
       d="M 48.621875,181.63386 H 615.67854"
       style="fill:none;stroke:#cccccc;stroke-width:1;stroke-linecap:round;stroke-linejoin:round;stroke-miterlimit:10;stroke-dasharray:none;stroke-opacity:1"
       transform="matrix(1.3333333,0,0,-1.3333333,0,468.63583)"
       clip-path="url(#clipPath20)" />
    <text
       id="text20"
       xml:space="preserve"
       transform="matrix(1.3333333,0,0,1.3333333,38.1625,235.07194)"><tspan
         style="font-variant:normal;font-weight:normal;font-size:16.5px;font-family:'DejaVu Sans';writing-mode:lr-tb;fill:#262626;fill-opacity:1;fill-rule:nonzero;stroke:none"
         x="0"
         y="0"
         id="tspan20">4</tspan></text>
    <path
       id="path21"
       d="M 48.621875,238.94101 H 615.67854"
       style="fill:none;stroke:#cccccc;stroke-width:1;stroke-linecap:round;stroke-linejoin:round;stroke-miterlimit:10;stroke-dasharray:none;stroke-opacity:1"
       transform="matrix(1.3333333,0,0,-1.3333333,0,468.63583)"
       clip-path="url(#clipPath22)" />
    <text
       id="text22"
       xml:space="preserve"
       transform="matrix(1.3333333,0,0,1.3333333,38.1625,158.6624)"><tspan
         style="font-variant:normal;font-weight:normal;font-size:16.5px;font-family:'DejaVu Sans';writing-mode:lr-tb;fill:#262626;fill-opacity:1;fill-rule:nonzero;stroke:none"
         x="0"
         y="0"
         id="tspan22">6</tspan></text>
    <path
       id="path23"
       d="M 48.621875,296.24817 H 615.67854"
       style="fill:none;stroke:#cccccc;stroke-width:1;stroke-linecap:round;stroke-linejoin:round;stroke-miterlimit:10;stroke-dasharray:none;stroke-opacity:1"
       transform="matrix(1.3333333,0,0,-1.3333333,0,468.63583)"
       clip-path="url(#clipPath24)" />
    <text
       id="text24"
       xml:space="preserve"
       transform="matrix(1.3333333,0,0,1.3333333,38.1625,82.252861)"><tspan
         style="font-variant:normal;font-weight:normal;font-size:16.5px;font-family:'DejaVu Sans';writing-mode:lr-tb;fill:#262626;fill-opacity:1;fill-rule:nonzero;stroke:none"
         x="0"
         y="0"
         id="tspan24">8</tspan></text>
    <text
       id="text25"
       xml:space="preserve"
       transform="matrix(0,-1.3333333,1.3333333,0,27.829167,242.58875)"><tspan
         style="font-variant:normal;font-weight:normal;font-size:18px;font-family:'DejaVu Sans';writing-mode:lr-tb;fill:#262626;fill-opacity:1;fill-rule:nonzero;stroke:none"
         x="0 11.376 18.4615 25.468876 36.484875"
         y="0"
         sodipodi:role="line"
         id="tspan25">Error</tspan></text>
    <text
       id="text26"
       xml:space="preserve"
       transform="matrix(1.3333333,0,0,1.3333333,64.829167,26.829167)"><tspan
         style="font-variant:normal;font-weight:normal;font-size:16.5px;font-family:'DejaVu Sans';writing-mode:lr-tb;fill:#262626;fill-opacity:1;fill-rule:nonzero;stroke:none"
         x="0 10.494 20.6415"
         y="0"
         sodipodi:role="line"
         id="tspan26">1e2</tspan></text>
    <path
       id="path26"
       d="m 74.397178,90.850329 0.516022,5.5612 0.516022,-1.136878 1.032044,-13.458489 0.516022,-0.609102 1.032045,-1.747664 0.516022,-1.492001 0.516022,-2.152529 0.516022,-3.094014 1.032044,-2.896364 1.032044,-1.887747 0.516022,-0.401191 0.516022,-0.143261 0.516022,1.043847 1.032045,1.096235 0.516022,0.397641 0.516022,0.791482 1.032044,1.034339 0.516022,0.531253 0.516022,0.806106 0.516022,0.458713 1.032044,1.519661 0.516022,0.201194 0.516023,-0.745911 1.548066,-0.724407 0.516022,-0.02388 0.516022,-0.296356 0.516022,-0.882293 0.516022,-1.608241 0.516022,-2.564985 0.516022,-1.036394 0.516022,0.243442 0.516022,0.660375 0.516023,1.27563 1.032044,4.635608 1.548066,8.500087 0.516022,1.637351 0.516022,-0.973359 0.51602,-8.227478 0.51602,-4.066198 0.51603,1.228292 0.51602,7.619391 1.03204,8.478927 0.51603,8.584537 1.03204,23.115832 1.54807,36.26435 1.03204,19.45344 1.54807,21.66237 0.51602,3.88947 0.51602,2.54202 0.51602,1.32514 0.51602,0.29616 1.03205,-0.0855 0.51602,-1.18049 0.51602,-2.8024 0.51602,-4.58551 1.54807,-21.72916 1.03204,-18.12378 1.54807,-29.52813 0.51602,-13.09189 0.51603,-15.92032 0.51602,-21.235748 0.51602,3.818445 0.51602,26.778943 0.51602,49.05237 1.03205,37.10027 1.03204,25.66202 1.03205,16.26835 0.51602,5.10593 0.51602,2.8971 0.51602,1.86803 0.51602,-0.30197 0.51603,-1.34098 0.51602,-6.55338 0.51602,-8.90984 1.03204,-30.95548 1.54807,-54.92031 0.51602,-26.78897 1.03205,-30.843697 0.51602,-13.00288 0.51602,2.608933 1.03204,21.229074 1.03205,14.36673 1.54807,15.95038 1.03204,23.25278 1.03204,34.18902 1.03205,48.18466 0.51602,16.40484 0.51602,9.79284 0.51602,20.89765 0.51603,11.01052 1.03204,15.16511 0.51602,4.86451 1.03205,5.80673 0.51602,-1.03162 0.51602,-4.04676 0.51602,-11.24518 0.51602,-17.98172 1.03205,-55.48501 2.06409,-136.129522 0.51602,-12.180703 0.51602,31.735255 1.03205,93.25377 1.03204,44.79805 0.51602,12.29373 0.51602,7.11807 0.51603,0.0764 1.03204,-7.5335 1.03204,-10.85512 2.58011,-25.81177 0.51603,-1.06315 0.51602,-1.95062 0.51602,-2.76849 0.51602,-8.47062 0.51603,-30.70332 0.51602,-21.84231 1.54806,-81.058968 0.51603,8.691279 1.03204,43.374169 0.51602,18.4471 1.03205,27.6527 0.51602,9.83138 0.51602,7.28774 0.51602,5.04127 0.51602,3.717 1.03205,2.59046 0.51602,0.60626 0.51602,-0.11271 0.51602,0.10014 0.51603,-0.59088 1.03204,-3.5077 0.51602,-2.60017 0.51603,-3.20706 1.03204,-12.51697 1.03204,-18.01848 2.06409,-39.23016 0.51602,-13.24706 0.51603,-17.01775 0.51602,-21.941207 0.51602,17.219609 1.03204,47.041078 0.51603,37.56885 0.51602,19.07486 1.03204,25.45317 1.03205,16.70054 0.51602,5.50651 0.51602,4.25121 0.51602,2.96861 0.51603,-0.29426 0.51602,-4.59623 0.51602,-11.55526 0.51602,-16.37564 1.54807,-66.88352 1.54807,-63.139718 0.51602,-14.27388 0.51602,27.062873 1.03204,19.155425 1.03205,12.70578 0.51602,3.27909 1.54806,13.40337 0.51603,8.69 1.03204,25.03566 2.58011,76.09172 1.03205,22.28578 0.51602,9.96073 0.51602,2.59171 0.51602,-1.66175 0.51602,-4.48675 0.51603,-7.08154 0.51602,-9.16976 0.51602,-13.76507 0.51602,-17.03895 1.03205,-51.00075 1.54806,-94.34107 0.51602,-18.672518 1.54807,85.222048 1.03205,47.8592 1.03204,31.34137 0.51602,0.62995 0.51602,-2.0918 0.51603,-4.55879 1.03204,-4.94817 2.58011,-15.80144 0.51602,-1.9556 0.51602,-1.51427 0.51603,-5.90739 0.51602,-2.43031 0.51602,-3.11435 0.51602,-6.43073 0.51602,-13.66661 0.51603,-17.49179 0.51602,-23.2504 0.51602,-49.725734 0.51602,-11.108497 0.51603,22.868158 1.03204,35.241123 1.03204,26.71775 0.51603,9.9059 0.51602,6.78844 1.03204,8.40735 0.51602,2.53147 1.03205,2.97632 0.51602,0.6828 1.54807,2.96924 0.51602,-0.71501 0.51602,-3.92231 0.51602,-2.8403 0.51602,-4.43709 0.51603,-5.45213 3.61215,-62.28931 0.51602,-12.45348 1.03205,-29.719036 1.54806,66.722956 1.03205,35.21512 0.51602,13.27479 0.51602,20.81337 0.51602,7.44368 0.51603,5.04507 0.51602,3.52793 0.51602,2.26581 0.51602,0.34935 0.51602,0.50296 0.51603,-0.80257 0.51602,0.0922 0.51602,-0.84024 0.51602,-0.0868 0.51603,-2.75487 0.51602,-4.60466 0.51602,-9.66926 0.51602,-12.90137 1.54807,-54.5449 0.51602,-19.44377 0.51602,-41.105549 0.51602,9.201424 1.54807,70.409035 1.03204,34.7674 0.51603,13.71253 1.03204,19.94264 1.03204,13.16377 1.03205,7.62998 0.51602,2.60899 0.51602,1.75467 0.51603,1.34588 0.51602,-0.17008 0.51602,-1.5591 0.51602,-5.46285 0.51602,-24.90062 1.03205,-41.15439 2.58011,-102.551035 0.51602,-0.758712 2.06409,68.081027 1.03204,25.06915 1.03205,18.12041 1.03204,10.98463 1.03205,8.00638 0.51602,1.79834 0.51602,1.10635 0.51602,-0.29403 1.03205,-3.79257 0.51602,0.11876 0.51602,0.77894 0.51602,3.08813 0.51602,0.51198 0.51603,-4.68594 0.51602,-12.73591 0.51602,-15.99261 1.54807,-58.92535 1.03204,-33.247799 0.51602,-13.29653 1.03205,21.161311 0.51602,5.430569 0.51602,3.206409 0.51602,1.90531 0.51603,1.32883 0.51602,-0.34233 0.51602,-0.19476 0.51602,-0.44709 0.51602,0.0315 0.51603,0.1825 0.51602,0.47526 0.51602,0.16435 0.51602,-1.05447 0.51602,-1.78108 0.51603,-2.369309 1.03204,-2.491688 0.51602,-0.911251 0.51603,-1.310186 2.06408,-3.617123 1.03205,-1.736259 0.51602,-1.242326 1.03204,-1.076144 1.54807,0.31076 1.03204,-0.01082 1.03205,-0.76068 0.51602,-0.917997 0.51602,0.247188 0.51602,0.517733 0.51603,2.868091 0.51602,1.824881 0.51602,1.226517 0.51602,0.790716 0.51602,0.242976 0.51603,-0.140032 0.51602,-0.837346 0.51602,-1.946158 0.51602,-3.204894 1.03205,-9.831553 1.03204,-9.829369 1.03205,9.349889 1.03204,7.450681 1.03204,5.077806 0.51603,1.75206 0.51602,2.564289 0.51602,1.369078 0.51602,2.041537 0.51602,2.505659 0.51603,4.487754 0.51602,2.09267 0.51602,1.0345 0.51602,0.66267 0.51602,0.44326 0.51603,-1.03935 0.51602,0.59854 0.51602,-0.35724 0.51602,0.94637 1.03205,4.2229 0.51602,0.39626 0.51602,-0.47216 0.51602,-1.91943 0.51603,-2.62164 0.51602,-12.540269 0.51602,-16.369784 0.51602,-2.137393 0.51602,4.210797 0.51603,-0.958016 0.51602,-2.138528 0.51602,-3.241882 1.03204,-4.368998 1.03205,-2.920074 0.51602,-0.259622 0.51602,-0.115933 0.51602,0.203601 0.51603,0.0087 0.51602,0.926223 0.51602,0.212813 0.51602,0.408547 0.51602,-0.391291 1.03205,-0.973619 0.51602,0.751055 0.51602,-0.51593 0.51603,0.0426 0.51602,0.618424 1.03204,7.545168 1.03205,9.379519 0.51602,3.012181 0.51602,0.687051 0.51602,0.0055 1.54807,-7.009062 0.51602,-1.535374 0.51602,-2.715213 1.03205,-2.767833 0.51602,-1.057381 0.51602,-2.616135 0.51602,-0.730121 0.51602,-0.26416 0.51603,0.722497 0.51602,0.304086 0.51602,0.932485 1.03205,1.345578 0.51602,0.374323 0.51602,0.121465 0.51602,-0.243482 0.51602,0.537337 0.51603,1.018452 0.51602,1.303668 1.03204,-0.02523 0.51602,-1.008838 1.03205,-3.121449 0.51602,-2.943431 0.51602,-1.319419 1.03205,-1.097342 0.51602,-0.0871 1.03204,0.571559 0.51603,0.03655 0.51602,-0.143821 3.09613,1.225688 0.51602,0.172907 0.51602,-0.0065 1.54807,0.370669 1.03204,-0.0257 1.03205,-2.327817 0.51602,3.18965 1.54807,13.209089 0.51602,4.774198 1.54806,10.776851 0.51603,2.683526 0.51602,1.98612 0.51602,3.12552 1.03205,3.48075 2.58011,3.80623 0.51602,0.54273 0.51602,0.73799 1.03204,1.1684 1.03205,1.89646 0.51602,1.43369 0.51602,-0.23135 0.51602,0.51163 0.51603,-0.49855 0.51602,0.56564 0.51602,-1.81623 0.51602,-0.19318 0.51602,1.53591 0.51603,2.00581 0.51602,-1.62353 0.51602,-2.72491 0.51602,-15.10668 1.54807,-31.969486 0.51602,2.043746 0.51602,6.219716 0.51603,3.161865 0.51602,2.046413 0.51602,0.433898 1.03204,7.437571 1.03205,12.186297 1.54806,22.72725 1.54807,26.52334 0.51602,6.11503 0.51602,3.35804 1.03205,-14.62468 2.06409,-37.91596 1.03204,-16.161469 0.51602,-6.707993 0.51603,-8.398724 1.03204,-8.767905 0.51602,-1.9031 0.51602,-0.9342 0.51603,0.554987 0.51602,-0.409365 0.51602,0.631163 0.51602,-0.336383 0.51603,0.349469 0.51602,0.201475 0.51602,-0.360137 0.51602,-0.222128 0.51602,0.258999 0.51602,-0.187482 0.51603,0.251049 0.51602,-0.07079 0.51602,0.698227 1.03205,0.79312 0.51602,0.285263 0.51602,1.156685 0.51602,0.534888 0.51602,0.872266 0.51603,0.301884 0.51602,0.813039 0.51602,0.458927 0.51602,0.875023 0.51602,0.03359 0.51603,-0.258724 0.51602,-0.02572 1.03204,-0.326511 0.51602,-0.380535 0.51603,0.352247 1.03204,-0.845877 0.51602,-1.182113 0.51603,-0.733512 0.51602,-0.931783 1.03204,-1.420867 1.03205,-0.09704 1.03204,2.623475 0.51602,2.765519 1.03205,3.726556 0.51602,0.492013 1.54806,-7.926936 0.51603,-2.739188 0.51602,-0.466076 1.03204,3.262821 0.51602,-0.365107 0.51603,1.198948 0.51602,2.717926 0.51602,1.996115 0.51602,2.582326 0.51602,1.138165 0.51603,0.560895 0.51602,-0.840468 0.51602,0.419469 0.51602,-0.656339 0.51602,-1.512688 1.03205,-4.177926 0.51602,-1.090458 1.03205,-3.037169 0.51602,-0.518388 0.51602,1.070502 0.51602,1.783327 0.51602,-0.812105 0.51603,-2.3041 0.51602,-1.650917 0.51602,1.23935 2.06409,6.754645 0.51602,0.651759 0.51602,0.446793 0.51602,0.906672 0.51603,2.56321 2.58011,38.070176 0.51602,5.49514 0.51602,3.37718 0.51602,0.036 0.51603,-2.74573 2.06408,-16.06768 0.51603,-2.05026 0.51602,-0.44049 1.03204,-4.20464 0.51602,-0.83696 0.51603,-0.546593 0.51602,-0.738452 0.51602,-0.190637 1.54807,-1.134684 0.51602,-0.581311 1.03204,-0.207796 0.51602,-1.695172 0.51603,-3.899114 0.51602,-5.086121 0.51602,-7.355275 0.51602,-4.594763 1.03205,-5.541918 0.51602,0.281938 1.03204,9.932147 0.51603,3.569425 0.51602,5.637146 0.51602,14.19886 0.51602,6.62706 0.51602,1.55696 0.51603,1.02663 0.51602,0.47921 0.51602,0.72038 0.51602,-4.50713 0.51602,-6.05975 1.03205,-23.872395 0.51602,-2.554546 0.51602,-0.380366 0.51602,0.909156 0.51603,2.626171 0.51602,6.07035 2.06409,35.84009 0.51602,12.16682 0.51602,8.5974 0.51602,6.36818 0.51603,4.87693 0.51602,1.30526 0.51602,0.17822 1.03204,2.0862 0.51603,0.46579 1.54806,10.68976 2.06409,19.7112 0.51602,1.6708 0.51603,0.78626 0.51602,-0.6748 0.51602,-0.0531 1.03204,-3.25393 0.51603,-0.26657 1.03204,-2.89857 0.51602,-2.01671 0.51602,-0.93709 0.51603,-1.54945 0.51602,-0.4084 0.51602,-1.70207 0.51602,-2.45162 0.51602,-3.05363 0.51603,-6.60144 1.54806,-37.50315 1.03205,-27.663267 1.54806,-31.040363 1.03205,4.040427 1.03204,0.414078 0.51602,-0.514794 1.54807,-2.631806 1.03204,-1.194312 1.03205,-0.511966 1.03204,-0.174129 2.58011,-0.03616 h 85.65967 v 0"
       style="fill:none;stroke:#ff0000;stroke-width:2;stroke-linecap:round;stroke-linejoin:round;stroke-miterlimit:10;stroke-dasharray:none;stroke-opacity:1"
       transform="matrix(1.3333333,0,0,-1.3333333,0,468.63583)"
       clip-path="url(#clipPath27)" />
    <path
       id="path28"
       d="m 48.621875,54.575 v 273.78"
       style="fill:none;stroke:#cccccc;stroke-width:1.25;stroke-linecap:square;stroke-linejoin:miter;stroke-miterlimit:10;stroke-dasharray:none;stroke-opacity:1"
       transform="matrix(1.3333333,0,0,-1.3333333,0,468.63583)" />
    <path
       id="path29"
       d="M 48.621875,54.575 H 615.67854"
       style="fill:none;stroke:#cccccc;stroke-width:1.25;stroke-linecap:square;stroke-linejoin:miter;stroke-miterlimit:10;stroke-dasharray:none;stroke-opacity:1"
       transform="matrix(1.3333333,0,0,-1.3333333,0,468.63583)" />
    <path
       id="path30"
       d="m 686.55854,54.575 h 567.05666 v 273.78 H 686.55854 Z"
       style="fill:#ffffff;fill-opacity:1;fill-rule:nonzero;stroke:none"
       transform="matrix(1.3333333,0,0,-1.3333333,0,468.63583)" />
    <path
       id="path31"
       d="m 687.78594,54.575 v 273.78"
       style="fill:none;stroke:#cccccc;stroke-width:1;stroke-linecap:round;stroke-linejoin:round;stroke-miterlimit:10;stroke-dasharray:none;stroke-opacity:1"
       transform="matrix(1.3333333,0,0,-1.3333333,0,468.63583)"
       clip-path="url(#clipPath32)" />
    <text
       id="text32"
       xml:space="preserve"
       transform="matrix(1.3333333,0,0,1.3333333,910.04792,425.765)"><tspan
         style="font-variant:normal;font-weight:normal;font-size:16.5px;font-family:'DejaVu Sans';writing-mode:lr-tb;fill:#262626;fill-opacity:1;fill-rule:nonzero;stroke:none"
         x="0"
         y="0"
         id="tspan32">0</tspan></text>
    <path
       id="path33"
       d="m 785.97757,54.575 v 273.78"
       style="fill:none;stroke:#cccccc;stroke-width:1;stroke-linecap:round;stroke-linejoin:round;stroke-miterlimit:10;stroke-dasharray:none;stroke-opacity:1"
       transform="matrix(1.3333333,0,0,-1.3333333,0,468.63583)"
       clip-path="url(#clipPath34)" />
    <text
       id="text34"
       xml:space="preserve"
       transform="matrix(1.3333333,0,0,1.3333333,1026.9701,425.765)"><tspan
         style="font-variant:normal;font-weight:normal;font-size:16.5px;font-family:'DejaVu Sans';writing-mode:lr-tb;fill:#262626;fill-opacity:1;fill-rule:nonzero;stroke:none"
         x="0 10.494 20.988001"
         y="0"
         sodipodi:role="line"
         id="tspan34">200</tspan></text>
    <path
       id="path35"
       d="m 884.1692,54.575 v 273.78"
       style="fill:none;stroke:#cccccc;stroke-width:1;stroke-linecap:round;stroke-linejoin:round;stroke-miterlimit:10;stroke-dasharray:none;stroke-opacity:1"
       transform="matrix(1.3333333,0,0,-1.3333333,0,468.63583)"
       clip-path="url(#clipPath36)" />
    <text
       id="text36"
       xml:space="preserve"
       transform="matrix(1.3333333,0,0,1.3333333,1157.8923,425.765)"><tspan
         style="font-variant:normal;font-weight:normal;font-size:16.5px;font-family:'DejaVu Sans';writing-mode:lr-tb;fill:#262626;fill-opacity:1;fill-rule:nonzero;stroke:none"
         x="0 10.494 20.988001"
         y="0"
         sodipodi:role="line"
         id="tspan36">400</tspan></text>
    <path
       id="path37"
       d="m 982.36083,54.575 v 273.78"
       style="fill:none;stroke:#cccccc;stroke-width:1;stroke-linecap:round;stroke-linejoin:round;stroke-miterlimit:10;stroke-dasharray:none;stroke-opacity:1"
       transform="matrix(1.3333333,0,0,-1.3333333,0,468.63583)"
       clip-path="url(#clipPath38)" />
    <text
       id="text38"
       xml:space="preserve"
       transform="matrix(1.3333333,0,0,1.3333333,1288.8144,425.765)"><tspan
         style="font-variant:normal;font-weight:normal;font-size:16.5px;font-family:'DejaVu Sans';writing-mode:lr-tb;fill:#262626;fill-opacity:1;fill-rule:nonzero;stroke:none"
         x="0 10.494 20.988001"
         y="0"
         sodipodi:role="line"
         id="tspan38">600</tspan></text>
    <path
       id="path39"
       d="m 1080.5525,54.575 v 273.78"
       style="fill:none;stroke:#cccccc;stroke-width:1;stroke-linecap:round;stroke-linejoin:round;stroke-miterlimit:10;stroke-dasharray:none;stroke-opacity:1"
       transform="matrix(1.3333333,0,0,-1.3333333,0,468.63583)"
       clip-path="url(#clipPath40)" />
    <text
       id="text40"
       xml:space="preserve"
       transform="matrix(1.3333333,0,0,1.3333333,1419.7366,425.765)"><tspan
         style="font-variant:normal;font-weight:normal;font-size:16.5px;font-family:'DejaVu Sans';writing-mode:lr-tb;fill:#262626;fill-opacity:1;fill-rule:nonzero;stroke:none"
         x="0 10.494 20.988001"
         y="0"
         sodipodi:role="line"
         id="tspan40">800</tspan></text>
    <path
       id="path41"
       d="m 1178.7441,54.575 v 273.78"
       style="fill:none;stroke:#cccccc;stroke-width:1;stroke-linecap:round;stroke-linejoin:round;stroke-miterlimit:10;stroke-dasharray:none;stroke-opacity:1"
       transform="matrix(1.3333333,0,0,-1.3333333,0,468.63583)"
       clip-path="url(#clipPath42)" />
    <text
       id="text42"
       xml:space="preserve"
       transform="matrix(1.3333333,0,0,1.3333333,1543.6588,425.765)"><tspan
         style="font-variant:normal;font-weight:normal;font-size:16.5px;font-family:'DejaVu Sans';writing-mode:lr-tb;fill:#262626;fill-opacity:1;fill-rule:nonzero;stroke:none"
         x="0 10.494 20.988001 31.482"
         y="0"
         sodipodi:role="line"
         id="tspan42">1000</tspan></text>
    <text
       id="text43"
       xml:space="preserve"
       transform="matrix(1.3333333,0,0,1.3333333,1266.3346,454.03583)"><tspan
         style="font-variant:normal;font-weight:normal;font-size:18px;font-family:'DejaVu Sans';writing-mode:lr-tb;fill:#262626;fill-opacity:1;fill-rule:nonzero;stroke:none"
         x="0 7.0560002 12.06 29.591999"
         y="0"
         sodipodi:role="line"
         id="tspan43">time</tspan></text>
    <path
       id="path43"
       d="M 686.55854,67.019545 H 1253.6152"
       style="fill:none;stroke:#cccccc;stroke-width:1;stroke-linecap:round;stroke-linejoin:round;stroke-miterlimit:10;stroke-dasharray:none;stroke-opacity:1"
       transform="matrix(1.3333333,0,0,-1.3333333,0,468.63583)"
       clip-path="url(#clipPath44)" />
    <text
       id="text44"
       xml:space="preserve"
       transform="matrix(1.3333333,0,0,1.3333333,867.74472,387.89102)"><tspan
         style="font-variant:normal;font-weight:normal;font-size:16.5px;font-family:'DejaVu Sans';writing-mode:lr-tb;fill:#262626;fill-opacity:1;fill-rule:nonzero;stroke:none"
         x="0 10.494 15.741"
         y="0"
         sodipodi:role="line"
         id="tspan44">0.0</tspan></text>
    <path
       id="path45"
       d="M 686.55854,111.03674 H 1253.6152"
       style="fill:none;stroke:#cccccc;stroke-width:1;stroke-linecap:round;stroke-linejoin:round;stroke-miterlimit:10;stroke-dasharray:none;stroke-opacity:1"
       transform="matrix(1.3333333,0,0,-1.3333333,0,468.63583)"
       clip-path="url(#clipPath46)" />
    <text
       id="text46"
       xml:space="preserve"
       transform="matrix(1.3333333,0,0,1.3333333,867.74472,329.20144)"><tspan
         style="font-variant:normal;font-weight:normal;font-size:16.5px;font-family:'DejaVu Sans';writing-mode:lr-tb;fill:#262626;fill-opacity:1;fill-rule:nonzero;stroke:none"
         x="0 10.494 15.741"
         y="0"
         sodipodi:role="line"
         id="tspan46">0.5</tspan></text>
    <path
       id="path47"
       d="M 686.55854,155.05393 H 1253.6152"
       style="fill:none;stroke:#cccccc;stroke-width:1;stroke-linecap:round;stroke-linejoin:round;stroke-miterlimit:10;stroke-dasharray:none;stroke-opacity:1"
       transform="matrix(1.3333333,0,0,-1.3333333,0,468.63583)"
       clip-path="url(#clipPath48)" />
    <text
       id="text48"
       xml:space="preserve"
       transform="matrix(1.3333333,0,0,1.3333333,867.74472,270.51185)"><tspan
         style="font-variant:normal;font-weight:normal;font-size:16.5px;font-family:'DejaVu Sans';writing-mode:lr-tb;fill:#262626;fill-opacity:1;fill-rule:nonzero;stroke:none"
         x="0 10.494 15.741"
         y="0"
         sodipodi:role="line"
         id="tspan48">1.0</tspan></text>
    <path
       id="path49"
       d="M 686.55854,199.07112 H 1253.6152"
       style="fill:none;stroke:#cccccc;stroke-width:1;stroke-linecap:round;stroke-linejoin:round;stroke-miterlimit:10;stroke-dasharray:none;stroke-opacity:1"
       transform="matrix(1.3333333,0,0,-1.3333333,0,468.63583)"
       clip-path="url(#clipPath50)" />
    <text
       id="text50"
       xml:space="preserve"
       transform="matrix(1.3333333,0,0,1.3333333,867.74472,211.82226)"><tspan
         style="font-variant:normal;font-weight:normal;font-size:16.5px;font-family:'DejaVu Sans';writing-mode:lr-tb;fill:#262626;fill-opacity:1;fill-rule:nonzero;stroke:none"
         x="0 10.494 15.741"
         y="0"
         sodipodi:role="line"
         id="tspan50">1.5</tspan></text>
    <path
       id="path51"
       d="M 686.55854,243.08831 H 1253.6152"
       style="fill:none;stroke:#cccccc;stroke-width:1;stroke-linecap:round;stroke-linejoin:round;stroke-miterlimit:10;stroke-dasharray:none;stroke-opacity:1"
       transform="matrix(1.3333333,0,0,-1.3333333,0,468.63583)"
       clip-path="url(#clipPath52)" />
    <text
       id="text52"
       xml:space="preserve"
       transform="matrix(1.3333333,0,0,1.3333333,867.74472,153.13267)"><tspan
         style="font-variant:normal;font-weight:normal;font-size:16.5px;font-family:'DejaVu Sans';writing-mode:lr-tb;fill:#262626;fill-opacity:1;fill-rule:nonzero;stroke:none"
         x="0 10.494 15.741"
         y="0"
         sodipodi:role="line"
         id="tspan52">2.0</tspan></text>
    <path
       id="path53"
       d="M 686.55854,287.1055 H 1253.6152"
       style="fill:none;stroke:#cccccc;stroke-width:1;stroke-linecap:round;stroke-linejoin:round;stroke-miterlimit:10;stroke-dasharray:none;stroke-opacity:1"
       transform="matrix(1.3333333,0,0,-1.3333333,0,468.63583)"
       clip-path="url(#clipPath54)" />
    <text
       id="text54"
       xml:space="preserve"
       transform="matrix(1.3333333,0,0,1.3333333,867.74472,94.443087)"><tspan
         style="font-variant:normal;font-weight:normal;font-size:16.5px;font-family:'DejaVu Sans';writing-mode:lr-tb;fill:#262626;fill-opacity:1;fill-rule:nonzero;stroke:none"
         x="0 10.494 15.741"
         y="0"
         sodipodi:role="line"
         id="tspan54">2.5</tspan></text>
    <text
       id="text55"
       xml:space="preserve"
       transform="matrix(1.3333333,0,0,1.3333333,915.41139,26.829167)"><tspan
         style="font-variant:normal;font-weight:normal;font-size:16.5px;font-family:'DejaVu Sans';writing-mode:lr-tb;fill:#262626;fill-opacity:1;fill-rule:nonzero;stroke:none"
         x="0 10.494 20.6415"
         y="0"
         sodipodi:role="line"
         id="tspan55">1e3</tspan></text>
    <path
       id="path55"
       d="m 712.33384,69.773449 0.51603,0.325262 1.54806,-0.114959 0.51602,-0.04223 0.51603,-0.228407 0.51602,0.137337 0.51602,-0.01686 1.03205,1.312789 0.51602,-0.498815 0.51602,-0.134201 0.51602,-0.258558 0.51602,-0.100625 0.51603,-0.54142 0.51602,-0.74755 0.51602,-1.183348 0.51602,-0.550147 1.54807,2.406392 0.51602,0.209217 0.51602,-0.140749 0.51603,-1.452553 0.51602,-0.986039 0.51602,0.664107 1.03204,0.412628 0.51603,-0.293185 0.51602,-0.871292 1.54806,0.197291 0.51603,-0.16954 1.03204,0.606088 0.51602,0.307083 0.51602,-0.06151 0.51603,0.105667 0.51602,-0.08748 0.51602,0.210897 0.51602,0.003 0.51602,0.333195 0.51603,0.04592 0.51602,0.216812 0.51602,0.01506 0.51602,0.223114 0.51602,-0.0024 1.03205,0.935648 0.51602,0.06854 1.03205,0.749955 0.51602,2.217 0.51602,4.150489 1.03204,15.582548 2.06409,36.15673 1.03205,14.72353 0.51602,6.06453 1.03204,7.92598 1.03205,4.52073 0.51602,3.29515 0.51602,0.55433 0.51602,1.05072 0.51602,0.34141 0.51603,0.47478 0.51602,-1.18425 0.51602,-1.74775 1.03204,-7.04113 1.03205,-11.60133 2.06409,-29.77373 0.51602,-9.15829 0.51602,-12.342586 0.51602,-15.353216 0.51603,-6.64783 0.51602,19.271894 0.51602,36.897418 1.03204,28.56236 0.51603,11.42507 1.03204,14.55003 1.03204,7.39943 1.03205,2.41328 0.51602,-0.0438 0.51602,0.1927 0.51602,-1.71672 0.51603,-4.33057 0.51602,-7.85765 0.51602,-10.95593 1.54807,-40.88726 1.03204,-60.848861 0.51602,17.134494 0.51603,3.663368 0.51602,-4.621128 0.51602,-3.25197 0.51602,4.597286 1.03205,10.180973 1.54806,11.979758 0.51602,6.67624 1.03205,20.86192 2.58011,67.96107 0.51602,19.31461 1.03204,12.91766 1.03205,7.04381 1.03204,2.93195 0.51603,-0.5145 0.51602,-2.35776 0.51602,-6.98611 1.54807,-65.05478 0.51602,-14.23791 1.54806,-76.371194 0.51603,0.247043 0.51602,24.633971 1.03204,66.1268 0.51602,17.46865 0.51603,13.10819 0.51602,9.29701 0.51602,4.1216 0.51602,0.616 1.03205,-6.77037 2.06409,-22.78879 0.51602,-5.7081 0.51602,-3.95038 0.51602,-2.85622 0.51602,0.0884 0.51603,1.54547 0.51602,0.39239 0.51602,-3.60519 2.06409,-76.296579 1.03204,-18.946265 1.03205,31.679404 1.03204,23.14551 1.03205,15.54708 1.03204,9.44627 1.03204,5.89708 1.03205,2.96661 1.03204,1.18777 0.51602,0.44659 0.51603,-0.57971 0.51602,-0.94411 0.51602,-1.77639 0.51602,-2.31293 0.51602,-3.51444 0.51603,-4.8792 1.03204,-13.72486 2.58011,-39.292181 1.03205,-29.230341 0.51602,13.663108 1.03204,37.493954 0.51602,31.58456 1.03205,21.81046 1.03204,13.49147 1.03205,7.329 1.03204,2.59473 0.51602,-1.41145 0.51603,-4.4479 0.51602,-8.16118 1.03204,-25.30903 3.09613,-86.613662 0.51602,8.675956 0.51603,6.6912 1.03204,8.867925 1.03205,5.297381 1.03204,5.00774 0.51602,3.85582 0.51602,6.74747 0.51603,9.23819 3.61215,85.24792 1.03204,16.41002 0.51603,1.7355 0.51602,-1.49212 0.51602,-3.07954 1.03204,-10.73037 0.51603,-8.14195 0.51602,-11.30181 0.51602,-16.16107 1.03205,-42.88256 1.54806,-68.393103 2.06409,79.078983 1.03204,29.66298 0.51603,13.78326 0.51602,1.24495 0.51602,-0.613 2.06409,-14.43349 0.51602,-4.30869 1.54807,-10.01936 0.51602,-2.00169 0.51602,0.3537 0.51602,1.25711 0.51603,2.36611 0.51602,0.15984 0.51602,-3.11119 0.51602,-7.7913 0.51602,-11.63043 0.51603,-14.71876 0.51602,-34.648301 0.51602,-18.75645 0.51602,26.45308 0.51602,-28.099705 1.03205,46.869046 1.03204,16.6864 1.03205,10.14407 1.03204,5.90021 1.03204,3.04889 1.03205,1.6052 0.51602,0.4949 0.51602,0.79443 0.51603,-0.552 0.51602,-3.9032 0.51602,-2.4712 0.51602,-3.43826 0.51602,-4.22657 1.54807,-18.96914 2.06409,-24.770068 0.51602,-9.113184 0.51602,-11.518593 0.51602,-7.484898 2.58011,80.073093 0.51603,11.7748 0.51602,15.03446 1.03204,8.26984 1.03205,3.39502 0.51602,-0.002 0.51602,0.54757 0.51602,-0.54011 0.51603,0.26368 0.51602,-0.65872 0.51602,-0.008 0.51602,-1.65744 0.51602,-3.35811 0.51603,-6.83708 0.51602,-9.95456 1.03204,-27.00742 1.03205,-31.23356 0.51602,-35.844538 0.51602,8.46892 1.54807,55.347338 1.03204,27.46678 1.03205,19.13835 0.51602,6.74397 0.51602,4.98428 0.51602,3.06606 0.51602,2.02397 1.03205,1.17908 0.51602,-0.15136 0.51602,0.20672 0.51602,-0.96883 0.51603,-1.64881 0.51602,-4.16109 0.51602,-19.88964 1.54807,-49.20067 1.54806,-47.587351 0.51602,-7.130294 1.54807,38.912225 1.03205,20.77133 0.51602,8.82 1.03204,13.03311 1.03205,8.60371 1.03204,4.96072 0.51602,1.60161 0.51602,-0.24099 0.51603,0.0256 0.51602,-0.68039 0.51602,-0.38285 0.51602,0.14029 0.51602,2.1069 0.51603,2.89488 0.51602,4.3413 0.51602,2.16406 0.51602,-1.85191 0.51602,-7.52566 0.51603,-11.38545 2.58011,-67.144562 1.03204,-19.656049 0.51602,5.354668 0.51603,3.707371 0.51602,2.441868 0.51602,1.792477 1.03204,2.736033 3.09614,5.561196 0.51602,0.552106 0.51602,0.171566 0.51602,-0.154948 0.51602,-0.359079 0.51603,-0.0091 0.51602,-0.193417 0.51602,-0.567196 0.51602,-1.47579 1.03205,-2.048333 0.51602,-1.184051 1.03204,-1.592603 1.54807,-1.606673 1.03204,-0.611546 1.54807,0.133713 0.51602,0.280501 0.51602,0.611979 1.03205,0.708339 0.51602,0.336019 0.51602,1.165318 1.03205,1.299046 0.51602,0.222792 0.51602,-0.401634 0.51602,-0.249426 0.51603,-1.009519 0.51602,-1.967962 0.51602,-2.837054 1.03204,-7.867963 0.51603,-4.385625 0.51602,0.200355 1.54806,10.664344 0.51603,2.815236 0.51602,1.930453 0.51602,0.525227 0.51602,1.112266 0.51602,3.113945 0.51603,0.596411 1.03204,2.501715 0.51602,1.96276 0.51602,1.24631 1.03205,1.298067 0.51602,0.396717 0.51602,-0.203046 0.51603,0.289033 0.51602,-0.426894 0.51602,-0.05436 0.51602,0.581983 0.51602,1.216174 1.03205,0.726495 0.51602,-0.190883 0.51602,-1.548101 2.06409,-15.835178 1.03204,-6.006034 0.51603,-2.443977 0.51602,-1.727439 0.51602,-1.25473 0.51602,-0.737053 0.51602,17.331314 0.51603,50.683918 0.51602,65.14087 0.51602,-11.59226 0.51602,-25.65684 1.03205,-85.630861 0.51602,-9.241114 0.51602,-2.245633 0.51602,-0.394265 0.51603,3.159029 0.51602,-0.553526 0.51602,-1.652414 0.51602,-1.2253 0.51602,1.591656 0.51603,0.403423 0.51602,-1.88176 0.51602,1.841094 1.03205,5.812958 0.51602,1.511591 0.51602,22.238202 1.03204,-2.67139 0.51602,-24.084419 0.51603,-3.254617 0.51602,-2.154888 0.51602,2.011844 0.51602,1.508291 0.51603,0.737449 0.51602,1.002272 0.51602,0.120183 0.51602,-0.296679 4.12818,-5.103831 1.03204,4.225361 0.51602,-1.227975 0.51603,-2.118892 0.51602,-0.738801 0.51602,0.267532 1.03204,2.763738 1.03205,-2.677099 0.51602,-0.362016 1.03205,15.30946 0.51602,-11.412785 0.51602,3.686438 0.51602,0.954657 0.51602,-0.544312 0.51603,-1.390134 1.03204,-5.860035 1.03204,2.145904 0.51603,-2.031304 0.51602,-0.265532 0.51602,1.681494 0.51602,0.351842 0.51603,0.667396 0.51605,-0.111178 0.516,-1.249237 1.032,0.461095 0.5161,0.266871 0.516,-0.249106 1.032,-2.524117 0.516,1.81542 0.5161,2.300876 0.516,3.112617 1.5481,6.62574 0.516,1.505087 0.516,1.055105 0.516,0.218519 0.516,1.199654 0.5161,2.945487 0.516,1.037574 0.516,3.142798 1.0321,3.17419 1.548,3.233045 1.0321,1.420302 1.032,0.685236 1.0321,-0.970265 0.516,-0.692579 0.516,-0.308968 0.516,-1.026126 0.516,-0.547262 1.0321,-3.217173 1.032,-6.097028 0.516,-8.350072 0.5161,-5.293024 0.516,-6.455622 0.516,5.586749 0.516,7.646439 0.5161,3.158187 0.516,1.473336 0.516,0.05231 0.516,-2.467422 0.516,-1.312015 0.5161,1.102634 0.516,3.898424 1.032,14.215777 2.0641,32.53972 0.516,16.73284 0.5161,30.29416 0.516,39.8776 0.516,-1.8587 0.516,-18.07843 1.0321,-56.44617 0.516,-19.63923 0.516,-11.23493 1.0321,-12.7585 1.032,-9.039787 0.516,-2.561162 0.5161,-1.528444 0.516,-1.091064 0.516,-0.512065 0.516,0.106355 0.516,-0.126013 0.5161,0.07681 1.032,-0.300761 0.516,-0.382554 0.5161,-0.898712 1.032,-2.625529 1.032,-4.23066 1.5481,-8.886506 0.516,0.5008 0.5161,3.134149 0.516,0.839193 0.516,-1.136437 0.516,-1.916703 0.516,-2.759618 1.0321,5.661888 0.516,1.096184 0.516,-0.2051 0.5161,0.265869 0.516,1.099255 0.516,1.660272 0.516,0.948894 0.516,-0.02701 0.5161,-0.660205 1.548,-2.661097 0.5161,-0.718679 0.516,-0.506714 1.548,-0.601529 2.0641,-1.490241 0.5161,0.02149 1.032,1.587632 0.516,0.549612 1.5481,0.797953 0.516,0.768003 1.032,0.129802 0.5161,4.732553 0.516,50.021306 0.516,101.41795 0.516,68.6636 0.5161,15.72761 0.516,0.59393 1.548,-183.54602 0.5161,-32.760209 0.516,-9.565322 0.516,-2.128564 1.0321,20.036845 0.516,8.7019 0.516,5.69284 0.516,1.87282 1.0321,0.1789 1.032,-3.07126 0.516,-3.47946 0.5161,-6.81633 1.032,-19.336966 0.516,-6.640449 0.516,-2.096395 0.5161,1.427426 1.032,4.28586 0.516,3.962424 0.5161,6.684943 0.516,3.685037 2.0641,19.29699 0.516,2.02432 0.516,0.40817 0.516,-1.45798 0.5161,-3.01285 1.032,-7.8519 1.5481,-13.893704 1.032,-6.827017 0.516,-1.976301 0.5161,0.408347 0.516,3.148979 0.516,1.773935 0.516,-1.303895 0.516,-4.347837 0.5161,-11.390392 0.516,-7.101611 0.516,3.571158 0.516,-5.940448 0.5161,3.362067 0.516,6.127741 1.032,9.092921 0.516,3.64512 0.5161,1.863249 0.516,1.286477 0.516,-0.386448 0.516,-0.710549 0.5161,-1.746521 0.516,-3.085949 0.516,-4.614562 0.516,-9.688069 0.516,-3.479409 0.5161,-1.158836 0.516,0.837127 0.516,1.847401 1.5481,8.799842 0.516,1.258331 0.516,-2.227205 0.516,-4.819166 0.5161,-7.287788 0.516,9.113318 3.0961,66.839314 0.516,5.04088 0.5161,3.50871 0.516,-0.22683 0.516,-1.8565 2.5801,-15.74129 1.0321,-3.43852 0.516,-1.07497 1.032,-0.66075 0.516,-1.52831 2.0641,-2.6865 0.5161,-0.49017 0.516,-0.95593 0.516,-0.21504 0.516,0.51021 0.516,0.10775 0.5161,-0.0163 0.516,-0.42208 0.516,0.15124 0.516,1.76923 0.5161,7.29557 1.032,11.17725 1.032,4.065 0.5161,-4.41651 0.516,-8.95046 0.516,-11.41586 1.0321,-42.560216 0.516,-4.392467 0.516,8.809513 0.516,-5.072051 2.0641,-6.198243 1.0321,-3.622032 0.516,-1.092422 1.032,-1.067376 1.0321,-0.501468 1.032,-0.178222 3.0961,-0.03013 h 85.6597 v 0"
       style="fill:none;stroke:#ff0000;stroke-width:2;stroke-linecap:round;stroke-linejoin:round;stroke-miterlimit:10;stroke-dasharray:none;stroke-opacity:1"
       transform="matrix(1.3333333,0,0,-1.3333333,0,468.63583)"
       clip-path="url(#clipPath56)" />
    <path
       id="path57"
       d="m 686.55854,54.575 v 273.78"
       style="fill:none;stroke:#cccccc;stroke-width:1.25;stroke-linecap:square;stroke-linejoin:miter;stroke-miterlimit:10;stroke-dasharray:none;stroke-opacity:1"
       transform="matrix(1.3333333,0,0,-1.3333333,0,468.63583)" />
    <path
       id="path58"
       d="M 686.55854,54.575 H 1253.6152"
       style="fill:none;stroke:#cccccc;stroke-width:1.25;stroke-linecap:square;stroke-linejoin:miter;stroke-miterlimit:10;stroke-dasharray:none;stroke-opacity:1"
       transform="matrix(1.3333333,0,0,-1.3333333,0,468.63583)" />
    <path
       id="path59"
       d="m 1324.4952,54.575 h 567.0567 v 273.78 h -567.0567 z"
       style="fill:#ffffff;fill-opacity:1;fill-rule:nonzero;stroke:none"
       transform="matrix(1.3333333,0,0,-1.3333333,0,468.63583)" />
    <path
       id="path60"
       d="m 1325.7226,54.575 v 273.78"
       style="fill:none;stroke:#cccccc;stroke-width:1;stroke-linecap:round;stroke-linejoin:round;stroke-miterlimit:10;stroke-dasharray:none;stroke-opacity:1"
       transform="matrix(1.3333333,0,0,-1.3333333,0,468.63583)"
       clip-path="url(#clipPath61)" />
    <text
       id="text61"
       xml:space="preserve"
       transform="matrix(1.3333333,0,0,1.3333333,1760.6301,425.765)"><tspan
         style="font-variant:normal;font-weight:normal;font-size:16.5px;font-family:'DejaVu Sans';writing-mode:lr-tb;fill:#262626;fill-opacity:1;fill-rule:nonzero;stroke:none"
         x="0"
         y="0"
         id="tspan61">0</tspan></text>
    <path
       id="path62"
       d="m 1423.9142,54.575 v 273.78"
       style="fill:none;stroke:#cccccc;stroke-width:1;stroke-linecap:round;stroke-linejoin:round;stroke-miterlimit:10;stroke-dasharray:none;stroke-opacity:1"
       transform="matrix(1.3333333,0,0,-1.3333333,0,468.63583)"
       clip-path="url(#clipPath63)" />
    <text
       id="text63"
       xml:space="preserve"
       transform="matrix(1.3333333,0,0,1.3333333,1877.5523,425.765)"><tspan
         style="font-variant:normal;font-weight:normal;font-size:16.5px;font-family:'DejaVu Sans';writing-mode:lr-tb;fill:#262626;fill-opacity:1;fill-rule:nonzero;stroke:none"
         x="0 10.494 20.988001"
         y="0"
         sodipodi:role="line"
         id="tspan63">200</tspan></text>
    <path
       id="path64"
       d="m 1522.1059,54.575 v 273.78"
       style="fill:none;stroke:#cccccc;stroke-width:1;stroke-linecap:round;stroke-linejoin:round;stroke-miterlimit:10;stroke-dasharray:none;stroke-opacity:1"
       transform="matrix(1.3333333,0,0,-1.3333333,0,468.63583)"
       clip-path="url(#clipPath65)" />
    <text
       id="text65"
       xml:space="preserve"
       transform="matrix(1.3333333,0,0,1.3333333,2008.4745,425.765)"><tspan
         style="font-variant:normal;font-weight:normal;font-size:16.5px;font-family:'DejaVu Sans';writing-mode:lr-tb;fill:#262626;fill-opacity:1;fill-rule:nonzero;stroke:none"
         x="0 10.494 20.988001"
         y="0"
         sodipodi:role="line"
         id="tspan65">400</tspan></text>
    <path
       id="path66"
       d="m 1620.2975,54.575 v 273.78"
       style="fill:none;stroke:#cccccc;stroke-width:1;stroke-linecap:round;stroke-linejoin:round;stroke-miterlimit:10;stroke-dasharray:none;stroke-opacity:1"
       transform="matrix(1.3333333,0,0,-1.3333333,0,468.63583)"
       clip-path="url(#clipPath67)" />
    <text
       id="text67"
       xml:space="preserve"
       transform="matrix(1.3333333,0,0,1.3333333,2139.3967,425.765)"><tspan
         style="font-variant:normal;font-weight:normal;font-size:16.5px;font-family:'DejaVu Sans';writing-mode:lr-tb;fill:#262626;fill-opacity:1;fill-rule:nonzero;stroke:none"
         x="0 10.494 20.988001"
         y="0"
         sodipodi:role="line"
         id="tspan67">600</tspan></text>
    <path
       id="path68"
       d="m 1718.4891,54.575 v 273.78"
       style="fill:none;stroke:#cccccc;stroke-width:1;stroke-linecap:round;stroke-linejoin:round;stroke-miterlimit:10;stroke-dasharray:none;stroke-opacity:1"
       transform="matrix(1.3333333,0,0,-1.3333333,0,468.63583)"
       clip-path="url(#clipPath69)" />
    <text
       id="text69"
       xml:space="preserve"
       transform="matrix(1.3333333,0,0,1.3333333,2270.3188,425.765)"><tspan
         style="font-variant:normal;font-weight:normal;font-size:16.5px;font-family:'DejaVu Sans';writing-mode:lr-tb;fill:#262626;fill-opacity:1;fill-rule:nonzero;stroke:none"
         x="0 10.494 20.988001"
         y="0"
         sodipodi:role="line"
         id="tspan69">800</tspan></text>
    <path
       id="path70"
       d="m 1816.6808,54.575 v 273.78"
       style="fill:none;stroke:#cccccc;stroke-width:1;stroke-linecap:round;stroke-linejoin:round;stroke-miterlimit:10;stroke-dasharray:none;stroke-opacity:1"
       transform="matrix(1.3333333,0,0,-1.3333333,0,468.63583)"
       clip-path="url(#clipPath71)" />
    <text
       id="text71"
       xml:space="preserve"
       transform="matrix(1.3333333,0,0,1.3333333,2394.241,425.765)"><tspan
         style="font-variant:normal;font-weight:normal;font-size:16.5px;font-family:'DejaVu Sans';writing-mode:lr-tb;fill:#262626;fill-opacity:1;fill-rule:nonzero;stroke:none"
         x="0 10.494 20.988001 31.482"
         y="0"
         sodipodi:role="line"
         id="tspan71">1000</tspan></text>
    <text
       id="text72"
       xml:space="preserve"
       transform="matrix(1.3333333,0,0,1.3333333,2116.9168,454.03583)"><tspan
         style="font-variant:normal;font-weight:normal;font-size:18px;font-family:'DejaVu Sans';writing-mode:lr-tb;fill:#262626;fill-opacity:1;fill-rule:nonzero;stroke:none"
         x="0 7.0560002 12.06 29.591999"
         y="0"
         sodipodi:role="line"
         id="tspan72">time</tspan></text>
    <path
       id="path72"
       d="m 1324.4952,67.019545 h 567.0567"
       style="fill:none;stroke:#cccccc;stroke-width:1;stroke-linecap:round;stroke-linejoin:round;stroke-miterlimit:10;stroke-dasharray:none;stroke-opacity:1"
       transform="matrix(1.3333333,0,0,-1.3333333,0,468.63583)"
       clip-path="url(#clipPath73)" />
    <text
       id="text73"
       xml:space="preserve"
       transform="matrix(1.3333333,0,0,1.3333333,1739.3269,387.89102)"><tspan
         style="font-variant:normal;font-weight:normal;font-size:16.5px;font-family:'DejaVu Sans';writing-mode:lr-tb;fill:#262626;fill-opacity:1;fill-rule:nonzero;stroke:none"
         x="0"
         y="0"
         id="tspan73">0</tspan></text>
    <path
       id="path74"
       d="m 1324.4952,103.2748 h 567.0567"
       style="fill:none;stroke:#cccccc;stroke-width:1;stroke-linecap:round;stroke-linejoin:round;stroke-miterlimit:10;stroke-dasharray:none;stroke-opacity:1"
       transform="matrix(1.3333333,0,0,-1.3333333,0,468.63583)"
       clip-path="url(#clipPath75)" />
    <text
       id="text75"
       xml:space="preserve"
       transform="matrix(1.3333333,0,0,1.3333333,1739.3269,339.55069)"><tspan
         style="font-variant:normal;font-weight:normal;font-size:16.5px;font-family:'DejaVu Sans';writing-mode:lr-tb;fill:#262626;fill-opacity:1;fill-rule:nonzero;stroke:none"
         x="0"
         y="0"
         id="tspan75">1</tspan></text>
    <path
       id="path76"
       d="m 1324.4952,139.53005 h 567.0567"
       style="fill:none;stroke:#cccccc;stroke-width:1;stroke-linecap:round;stroke-linejoin:round;stroke-miterlimit:10;stroke-dasharray:none;stroke-opacity:1"
       transform="matrix(1.3333333,0,0,-1.3333333,0,468.63583)"
       clip-path="url(#clipPath77)" />
    <text
       id="text77"
       xml:space="preserve"
       transform="matrix(1.3333333,0,0,1.3333333,1739.3269,291.21035)"><tspan
         style="font-variant:normal;font-weight:normal;font-size:16.5px;font-family:'DejaVu Sans';writing-mode:lr-tb;fill:#262626;fill-opacity:1;fill-rule:nonzero;stroke:none"
         x="0"
         y="0"
         id="tspan77">2</tspan></text>
    <path
       id="path78"
       d="m 1324.4952,175.7853 h 567.0567"
       style="fill:none;stroke:#cccccc;stroke-width:1;stroke-linecap:round;stroke-linejoin:round;stroke-miterlimit:10;stroke-dasharray:none;stroke-opacity:1"
       transform="matrix(1.3333333,0,0,-1.3333333,0,468.63583)"
       clip-path="url(#clipPath79)" />
    <text
       id="text79"
       xml:space="preserve"
       transform="matrix(1.3333333,0,0,1.3333333,1739.3269,242.87002)"><tspan
         style="font-variant:normal;font-weight:normal;font-size:16.5px;font-family:'DejaVu Sans';writing-mode:lr-tb;fill:#262626;fill-opacity:1;fill-rule:nonzero;stroke:none"
         x="0"
         y="0"
         id="tspan79">3</tspan></text>
    <path
       id="path80"
       d="m 1324.4952,212.04055 h 567.0567"
       style="fill:none;stroke:#cccccc;stroke-width:1;stroke-linecap:round;stroke-linejoin:round;stroke-miterlimit:10;stroke-dasharray:none;stroke-opacity:1"
       transform="matrix(1.3333333,0,0,-1.3333333,0,468.63583)"
       clip-path="url(#clipPath81)" />
    <text
       id="text81"
       xml:space="preserve"
       transform="matrix(1.3333333,0,0,1.3333333,1739.3269,194.52968)"><tspan
         style="font-variant:normal;font-weight:normal;font-size:16.5px;font-family:'DejaVu Sans';writing-mode:lr-tb;fill:#262626;fill-opacity:1;fill-rule:nonzero;stroke:none"
         x="0"
         y="0"
         id="tspan81">4</tspan></text>
    <path
       id="path82"
       d="m 1324.4952,248.2958 h 567.0567"
       style="fill:none;stroke:#cccccc;stroke-width:1;stroke-linecap:round;stroke-linejoin:round;stroke-miterlimit:10;stroke-dasharray:none;stroke-opacity:1"
       transform="matrix(1.3333333,0,0,-1.3333333,0,468.63583)"
       clip-path="url(#clipPath83)" />
    <text
       id="text83"
       xml:space="preserve"
       transform="matrix(1.3333333,0,0,1.3333333,1739.3269,146.18935)"><tspan
         style="font-variant:normal;font-weight:normal;font-size:16.5px;font-family:'DejaVu Sans';writing-mode:lr-tb;fill:#262626;fill-opacity:1;fill-rule:nonzero;stroke:none"
         x="0"
         y="0"
         id="tspan83">5</tspan></text>
    <path
       id="path84"
       d="m 1324.4952,284.55105 h 567.0567"
       style="fill:none;stroke:#cccccc;stroke-width:1;stroke-linecap:round;stroke-linejoin:round;stroke-miterlimit:10;stroke-dasharray:none;stroke-opacity:1"
       transform="matrix(1.3333333,0,0,-1.3333333,0,468.63583)"
       clip-path="url(#clipPath85)" />
    <text
       id="text85"
       xml:space="preserve"
       transform="matrix(1.3333333,0,0,1.3333333,1739.3269,97.849012)"><tspan
         style="font-variant:normal;font-weight:normal;font-size:16.5px;font-family:'DejaVu Sans';writing-mode:lr-tb;fill:#262626;fill-opacity:1;fill-rule:nonzero;stroke:none"
         x="0"
         y="0"
         id="tspan85">6</tspan></text>
    <path
       id="path86"
       d="m 1324.4952,320.8063 h 567.0567"
       style="fill:none;stroke:#cccccc;stroke-width:1;stroke-linecap:round;stroke-linejoin:round;stroke-miterlimit:10;stroke-dasharray:none;stroke-opacity:1"
       transform="matrix(1.3333333,0,0,-1.3333333,0,468.63583)"
       clip-path="url(#clipPath87)" />
    <text
       id="text87"
       xml:space="preserve"
       transform="matrix(1.3333333,0,0,1.3333333,1739.3269,49.508677)"><tspan
         style="font-variant:normal;font-weight:normal;font-size:16.5px;font-family:'DejaVu Sans';writing-mode:lr-tb;fill:#262626;fill-opacity:1;fill-rule:nonzero;stroke:none"
         x="0"
         y="0"
         id="tspan87">7</tspan></text>
    <text
       id="text88"
       xml:space="preserve"
       transform="matrix(1.3333333,0,0,1.3333333,1765.9936,26.829167)"><tspan
         style="font-variant:normal;font-weight:normal;font-size:16.5px;font-family:'DejaVu Sans';writing-mode:lr-tb;fill:#262626;fill-opacity:1;fill-rule:nonzero;stroke:none"
         x="0 10.494 20.6415"
         y="0"
         sodipodi:role="line"
         id="tspan88">1e3</tspan></text>
    <path
       id="path88"
       d="m 1350.2705,70.008987 0.516,0.15913 0.5161,-0.443415 0.516,3.351885 0.516,11.7507 0.516,26.137773 0.516,12.19962 0.5161,-9.81607 0.516,-26.740951 0.516,-17.685964 0.516,0.121899 0.5161,0.314545 0.516,0.13231 1.548,-0.08264 0.5161,-0.221832 0.516,-0.471772 0.516,-0.2826 0.516,-0.438492 0.5161,-0.03855 0.516,0.23641 1.032,1.153339 1.5481,2.873554 1.032,2.683848 0.5161,0.840108 0.516,-0.723645 0.516,-1.183306 1.032,-2.837409 0.5161,-1.132035 0.516,-0.708443 0.516,-0.07144 0.516,0.235749 1.0321,1.614016 1.032,1.014429 0.516,0.06749 0.5161,0.244198 1.548,-0.05321 0.516,-0.133442 1.5481,-1.287989 0.516,-0.04927 0.5161,0.299863 0.516,0.770628 0.516,1.7775 0.516,2.982913 0.516,4.692019 1.0321,12.848685 3.6121,50.680607 1.0321,10.03267 0.516,3.96222 0.516,5.74707 1.0321,3.61013 1.032,1.80757 0.516,-0.17356 0.5161,-0.58528 0.516,-1.77863 0.516,-2.46486 0.516,-3.73566 1.0321,-10.06101 1.548,-17.91906 0.5161,-7.94432 0.516,-10.92875 0.516,-13.88234 1.0321,-32.022502 0.516,35.012952 1.032,27.52929 0.516,10.51115 1.0321,14.68674 0.516,4.44116 0.516,3.16996 0.5161,1.99164 0.516,1.34311 0.516,0.63763 0.516,0.10945 0.516,-1.44067 0.5161,-3.06418 0.516,-5.65362 0.516,-8.18466 1.0321,-21.32092 0.516,-11.59869 0.516,-21.788897 1.032,-20.348087 0.5161,-5.030157 1.032,14.593675 0.516,5.04191 2.5801,16.965286 0.5161,4.9575 0.516,6.20581 1.032,16.90013 2.0641,42.14669 0.516,19.85076 1.5481,24.45595 1.032,13.8039 0.5161,6.61867 1.032,8.49483 0.516,0.29637 0.5161,-5.57443 0.516,-8.05773 1.032,-25.53089 1.0321,-36.59496 1.032,-42.09616 0.516,-23.35209 0.5161,-36.775895 1.032,52.787715 1.032,34.82117 0.5161,11.07047 0.516,6.34255 0.516,2.94737 0.516,-0.0386 0.5161,-2.3482 1.032,-8.75244 1.032,-8.88109 0.5161,-2.46613 0.516,-1.1216 1.5481,6.72236 0.516,-1.62899 1.548,-39.00014 1.5481,-49.882552 0.516,5.107379 1.0321,26.795103 1.032,20.00922 0.516,9.01592 1.5481,19.36183 0.516,5.10641 0.5161,2.99159 0.516,1.95176 0.516,1.01719 1.032,0.43352 0.5161,-0.15405 0.516,-0.40354 0.516,-0.76759 0.516,-1.33539 0.5161,-2.02583 0.516,-3.22482 0.516,-4.23405 1.032,-11.45526 1.5481,-20.93967 0.516,-9.38097 0.5161,-12.126689 1.032,-29.762159 1.032,35.344948 0.5161,29.80532 1.032,21.85597 0.516,7.65154 0.516,5.685 0.5161,3.75762 0.516,2.57871 0.516,1.47683 0.516,0.58368 0.5161,-1.5341 0.516,-3.89722 0.516,-7.05698 1.032,-21.68704 2.5802,-64.906922 0.516,-10.602259 0.516,15.310609 1.032,10.525786 0.5161,3.43854 0.516,2.59159 1.5481,5.052606 0.516,2.59653 0.516,4.09414 0.516,5.49554 1.0321,16.38183 2.5801,50.13576 0.516,8.59109 0.516,14.8887 0.516,5.72003 0.5161,3.98682 0.516,2.69973 0.516,1.13826 0.516,-0.49 0.5161,-2.96859 0.516,-5.77801 0.516,-9.59549 1.032,-29.37517 2.0641,-77.360177 0.5161,-20.34249 0.516,6.576024 1.032,40.190833 0.516,17.10555 0.5161,22.89746 0.516,5.854 0.516,2.51716 0.516,-0.14811 0.5161,-1.51015 0.516,-2.89849 1.548,-10.50156 0.5161,-2.597 1.032,-2.96541 0.516,-0.36191 0.5161,-0.0316 0.516,0.8861 0.516,-0.7836 0.516,-3.06042 0.516,-5.9981 0.5161,-9.10302 0.516,-11.16128 0.516,-26.517097 0.516,-14.140216 0.516,-8.807732 1.0321,23.718525 1.032,17.66924 1.0321,12.66419 1.032,9.17464 1.0321,6.76322 1.032,5.63123 0.516,11.07681 1.0321,15.24023 0.516,-1.12381 0.516,-3.10893 0.516,-4.10961 0.5161,-10.87531 1.032,-27.55203 0.516,6.13428 0.5161,9.74582 0.516,4.71886 0.516,2.35044 0.516,-4.12032 0.516,-7.80163 0.5161,-9.78211 0.516,-12.91671 1.032,-32.256674 0.5161,-8.817518 1.032,34.134452 1.5481,43.66725 0.516,5.94737 0.516,4.64292 1.0321,4.83813 1.032,1.71501 0.516,-0.14026 0.516,0.17553 0.5161,-0.42275 0.516,-0.27364 0.516,-1.60177 0.516,-2.93218 0.5161,-5.62602 0.516,-8.07948 1.032,-21.22865 1.0321,-24.37077 0.516,-27.512298 0.516,-1.063996 1.5481,43.921884 1.032,24.65981 1.0321,20.15729 1.032,15.41168 1.0321,12.11484 1.032,8.45868 1.032,5.80923 0.5161,1.30634 0.516,0.47334 0.516,-1.39863 2.0641,-47.62372 2.5801,-73.725527 0.516,-14.798258 1.0321,23.742423 1.032,22.046432 1.0321,16.50732 1.032,12.14052 0.516,4.44379 0.516,2.86086 0.5161,1.29679 1.032,-0.69821 1.5481,-2.02283 0.516,1.02695 0.516,1.87838 0.516,3.20165 0.5161,1.19763 0.516,-1.49913 0.516,-5.40658 1.0321,-19.72596 2.064,-44.650776 1.0321,-16.485597 0.516,3.501755 0.516,2.231914 0.5161,1.709487 0.516,1.104987 1.032,1.419119 1.0321,0.93885 1.548,1.105205 0.5161,0.297112 1.032,0.264597 0.516,-0.08621 1.5481,0.354614 0.516,1.677514 0.516,13.711502 0.5161,5.485037 1.548,10.99327 0.516,0.61606 0.5161,0.33803 0.516,-1.53896 3.0961,-15.509294 1.0321,-3.673667 0.516,-1.884399 0.516,-0.959336 0.516,-1.273408 0.5161,-0.04185 1.032,1.289786 0.516,0.833442 0.516,0.199661 0.5161,-0.366635 0.516,-0.810093 0.516,-1.511602 0.516,-2.338757 1.0321,-6.029449 1.548,-10.716336 0.5161,-2.340945 1.032,5.691342 1.032,4.022687 0.5161,1.601476 0.516,2.902953 1.032,2.995875 2.5801,8.236741 0.5161,0.951902 2.0641,2.160573 0.516,0.113764 1.548,0.746575 0.5161,-0.720172 0.516,-1.460186 1.032,-8.87075 1.5481,-10.038292 1.032,-5.125407 0.5161,-1.904517 0.516,-1.321004 0.516,0.08792 0.516,0.665685 0.5161,0.353957 0.516,0.135542 1.032,-0.126241 1.0321,-0.455217 0.516,0.187552 1.5481,2.778493 0.516,-0.675151 1.032,-2.935891 1.0321,-0.04716 0.516,0.457992 2.0641,10.104954 0.516,-2.069416 0.516,-0.266923 0.516,-0.628989 0.5161,1.102538 2.0641,-7.635811 0.516,-1.259792 0.516,1.591944 1.032,1.34924 0.5161,0.51093 0.516,0.275436 0.516,0.128026 1.032,-0.233519 1.0321,-0.421029 1.032,-1.667072 0.5161,-0.769803 0.516,0.117342 0.516,0.389895 0.516,0.0515 0.516,-0.259185 1.0321,-1.171914 1.032,0.891849 0.5161,0.272226 0.516,0.803053 0.516,-1.943445 0.516,1.995659 0.516,0.676593 0.5161,-0.119821 0.516,-0.568038 0.516,-0.917672 0.516,-0.673043 0.5161,2.385649 0.516,1.827397 0.516,1.10458 1.032,0.454967 0.5161,-0.152765 1.032,-0.759672 0.516,0.339536 0.5161,1.065483 0.516,-0.04477 1.032,0.388289 0.516,0.658999 0.5161,1.063372 1.032,3.633724 1.0321,4.609797 1.032,4.684154 0.516,2.127082 0.516,1.473104 0.5161,1.037139 0.516,0.762829 1.032,2.017611 1.0321,0.766413 3.0961,-0.09715 2.5801,1.188757 2.0641,0.828154 1.0321,-0.547663 0.516,-0.484789 0.516,-0.81238 1.032,-8.15705 1.5481,-17.074339 0.516,-2.841454 0.516,-0.524746 0.5161,2.027633 0.516,1.118368 1.032,4.176802 0.5161,3.437782 1.548,14.490599 1.5481,16.685016 0.516,9.27714 0.516,13.49408 0.5161,21.28499 0.516,-1.62441 0.516,-3.81741 1.5481,-27.52965 1.548,-28.398706 0.5161,-6.48359 0.516,-4.864135 0.516,-2.349515 0.516,-1.489732 1.0321,-1.101725 1.032,-0.436502 2.5801,-0.188688 1.0321,-0.342532 0.516,-0.450958 0.516,-0.871866 1.0321,-2.744007 1.032,-4.290124 1.032,2.476666 0.5161,-0.02429 0.516,-0.744043 0.516,-1.847328 1.5481,3.622021 0.516,0.121004 0.516,0.442449 0.516,0.645878 1.0321,1.884012 0.516,0.05255 0.516,-0.566302 2.0641,-3.147836 1.0321,-0.585673 1.032,-0.251569 1.5481,-1.03664 0.516,-0.294199 0.516,0.0039 1.0321,0.885042 0.516,0.199554 1.5481,0.258451 0.516,0.219068 1.032,-0.06218 0.516,4.719064 0.5161,36.045521 1.032,155.39985 0.516,44.54219 0.516,5.4622 0.5161,-30.4875 1.032,-123.63297 0.516,-31.37159 1.0321,-39.955349 1.032,-5.959563 0.516,0.09991 0.5161,0.39359 1.548,2.189392 0.5161,-0.185464 0.516,-1.023103 1.032,-4.588347 1.0321,-6.02372 0.516,-2.140593 0.516,-0.890894 0.516,0.153328 0.5161,0.856575 0.516,0.37711 0.516,1.992056 1.032,8.928482 1.0321,8.769816 0.516,3.573581 0.516,2.000278 0.5161,1.334885 0.516,-0.21107 0.516,-1.820866 1.032,-6.339022 2.0641,-12.211323 0.5161,-1.170095 0.516,-0.703113 0.516,-0.252282 0.516,0.304165 0.516,0.538761 0.5161,0.0381 0.516,-0.919779 0.516,-2.986846 0.516,-6.787759 1.0321,17.242225 0.516,11.182451 0.516,4.894923 0.516,2.37339 0.5161,-2.11282 1.032,-10.943779 1.0321,-13.462105 0.516,-5.228329 0.516,-3.830661 0.516,2.661381 0.516,1.87022 0.5161,0.788061 0.516,-1.461513 0.516,-1.046569 0.516,-0.696964 0.5161,-0.256598 0.516,-0.03273 1.032,0.932805 0.516,0.50283 0.5161,0.0324 0.516,-1.434332 0.516,-2.299346 0.516,5.021379 0.516,7.466409 1.0321,35.631291 1.032,30.2958 1.0321,9.47967 0.516,1.17533 0.516,0.0661 0.516,-2.26538 0.5161,-0.33683 1.032,-6.94284 1.5481,-9.74272 0.516,-1.85716 0.516,-2.44341 1.0321,-1.96452 0.516,-0.60436 0.516,-1.15004 1.0321,-0.92903 0.516,-0.18929 0.516,-0.8234 0.516,-0.41457 0.516,-0.74098 0.5161,-0.28226 0.516,0.25887 0.516,-0.2053 0.516,0.16823 0.5161,-0.41492 0.516,0.23303 0.516,0.67788 0.516,2.98804 0.516,3.74406 0.5161,2.6838 0.516,1.81208 0.516,0.5445 0.516,-2.48585 0.5161,-5.0048 0.516,-8.19741 0.516,-10.68685 1.5481,-41.041384 0.516,-0.873565 0.516,-1.251775 0.516,-0.951182 0.5161,-0.244123 0.516,-0.105697 1.032,1.143856 1.0321,0.489995 1.032,-0.03071 1.0321,0.337802 1.032,0.02507 4.6442,-0.472818 1.5481,-0.143266 3.6121,-0.32497 2.0641,-0.126941 2.0641,-0.215033 4.1282,-0.329994 4.6442,-0.290309 5.6762,-0.272076 2.0641,-0.06308 12.3845,-0.18496 8.7724,-0.05904 28.3812,-0.03496 h 8.2564 v 0"
       style="fill:none;stroke:#ff0000;stroke-width:2;stroke-linecap:round;stroke-linejoin:round;stroke-miterlimit:10;stroke-dasharray:none;stroke-opacity:1"
       transform="matrix(1.3333333,0,0,-1.3333333,0,468.63583)"
       clip-path="url(#clipPath89)" />
    <path
       id="path90"
       d="m 1324.4952,54.575 v 273.78"
       style="fill:none;stroke:#cccccc;stroke-width:1.25;stroke-linecap:square;stroke-linejoin:miter;stroke-miterlimit:10;stroke-dasharray:none;stroke-opacity:1"
       transform="matrix(1.3333333,0,0,-1.3333333,0,468.63583)" />
    <path
       id="path91"
       d="m 1324.4952,54.575 h 567.0567"
       style="fill:none;stroke:#cccccc;stroke-width:1.25;stroke-linecap:square;stroke-linejoin:miter;stroke-miterlimit:10;stroke-dasharray:none;stroke-opacity:1"
       transform="matrix(1.3333333,0,0,-1.3333333,0,468.63583)" />
  </g>
</svg>
