<?xml version="1.0" encoding="UTF-8" standalone="no"?>
<svg
   width="1898.74875pt"
   height="350.606953pt"
   viewBox="0 0 1898.74875 350.606953"
   version="1.1"
   id="svg120"
   sodipodi:docname="gradient_convergence_error.svg"
   inkscape:version="1.3.2 (091e20ef0f, 2023-11-25, custom)"
   xmlns:inkscape="http://www.inkscape.org/namespaces/inkscape"
   xmlns:sodipodi="http://sodipodi.sourceforge.net/DTD/sodipodi-0.dtd"
   xmlns:xlink="http://www.w3.org/1999/xlink"
   xmlns="http://www.w3.org/2000/svg"
   xmlns:svg="http://www.w3.org/2000/svg"
   xmlns:rdf="http://www.w3.org/1999/02/22-rdf-syntax-ns#"
   xmlns:cc="http://creativecommons.org/ns#"
   xmlns:dc="http://purl.org/dc/elements/1.1/">
  <sodipodi:namedview
     id="namedview120"
     pagecolor="#ffffff"
     bordercolor="#999999"
     borderopacity="1"
     inkscape:showpageshadow="2"
     inkscape:pageopacity="0"
     inkscape:pagecheckerboard="0"
     inkscape:deskcolor="#d1d1d1"
     inkscape:document-units="pt"
     inkscape:zoom="0.93219283"
     inkscape:cx="1265.8325"
     inkscape:cy="233.85719"
     inkscape:window-width="3840"
     inkscape:window-height="2120"
     inkscape:window-x="3840"
     inkscape:window-y="0"
     inkscape:window-maximized="1"
     inkscape:current-layer="svg120" />
  <metadata
     id="metadata1">
    <rdf:RDF>
      <cc:Work>
        <dc:type
           rdf:resource="http://purl.org/dc/dcmitype/StillImage" />
        <dc:date>2024-08-09T11:00:08.207057</dc:date>
        <dc:format>image/svg+xml</dc:format>
        <dc:creator>
          <cc:Agent>
            <dc:title>Matplotlib v3.8.4, https://matplotlib.org/</dc:title>
          </cc:Agent>
        </dc:creator>
      </cc:Work>
    </rdf:RDF>
  </metadata>
  <defs
     id="defs1">
    <style
       type="text/css"
       id="style1">*{stroke-linejoin: round; stroke-linecap: butt}</style>
  </defs>
  <g
     id="figure_1">
    <g
       id="axes_1">
      <g
         id="matplotlib.axis_1">
        <g
           id="xtick_1">
          <g
             id="line2d_1">
            <path
               d="M 49.846145 296.517422  L 49.846145 22.737422  "
               clip-path="url(#p624b508041)"
               style="fill: none; stroke: #cccccc; stroke-linecap: round"
               id="path3" />
          </g>
          <g
             id="text_1">
            <!-- 0 -->
            <g
               style="fill: #262626"
               transform="translate(44.597083 318.554844) scale(0.165 -0.165)"
               id="g3">
              <defs
                 id="defs3">
                <path
                   id="DejaVuSans-30"
                   d="M 2034 4250  Q 1547 4250 1301 3770  Q 1056 3291 1056 2328  Q 1056 1369 1301 889  Q 1547 409 2034 409  Q 2525 409 2770 889  Q 3016 1369 3016 2328  Q 3016 3291 2770 3770  Q 2525 4250 2034 4250  z M 2034 4750  Q 2819 4750 3233 4129  Q 3647 3509 3647 2328  Q 3647 1150 3233 529  Q 2819 -91 2034 -91  Q 1250 -91 836 529  Q 422 1150 422 2328  Q 422 3509 836 4129  Q 1250 4750 2034 4750  z "
                   transform="scale(0.015625)" />
              </defs>
              <use
                 xlink:href="#DejaVuSans-30"
                 id="use3" />
            </g>
          </g>
        </g>
        <g
           id="xtick_2">
          <g
             id="line2d_2">
            <path
               d="M 148.037776 296.517422  L 148.037776 22.737422  "
               clip-path="url(#p624b508041)"
               style="fill: none; stroke: #cccccc; stroke-linecap: round"
               id="path4" />
          </g>
          <g
             id="text_2">
            <!-- 200 -->
            <g
               style="fill: #262626"
               transform="translate(132.290588 318.554844) scale(0.165 -0.165)"
               id="g6">
              <defs
                 id="defs4">
                <path
                   id="DejaVuSans-32"
                   d="M 1228 531  L 3431 531  L 3431 0  L 469 0  L 469 531  Q 828 903 1448 1529  Q 2069 2156 2228 2338  Q 2531 2678 2651 2914  Q 2772 3150 2772 3378  Q 2772 3750 2511 3984  Q 2250 4219 1831 4219  Q 1534 4219 1204 4116  Q 875 4013 500 3803  L 500 4441  Q 881 4594 1212 4672  Q 1544 4750 1819 4750  Q 2544 4750 2975 4387  Q 3406 4025 3406 3419  Q 3406 3131 3298 2873  Q 3191 2616 2906 2266  Q 2828 2175 2409 1742  Q 1991 1309 1228 531  z "
                   transform="scale(0.015625)" />
              </defs>
              <use
                 xlink:href="#DejaVuSans-32"
                 id="use4" />
              <use
                 xlink:href="#DejaVuSans-30"
                 x="63.623047"
                 id="use5" />
              <use
                 xlink:href="#DejaVuSans-30"
                 x="127.246094"
                 id="use6" />
            </g>
          </g>
        </g>
        <g
           id="xtick_3">
          <g
             id="line2d_3">
            <path
               d="M 246.229407 296.517422  L 246.229407 22.737422  "
               clip-path="url(#p624b508041)"
               style="fill: none; stroke: #cccccc; stroke-linecap: round"
               id="path6" />
          </g>
          <g
             id="text_3">
            <!-- 400 -->
            <g
               style="fill: #262626"
               transform="translate(230.482219 318.554844) scale(0.165 -0.165)"
               id="g9">
              <defs
                 id="defs6">
                <path
                   id="DejaVuSans-34"
                   d="M 2419 4116  L 825 1625  L 2419 1625  L 2419 4116  z M 2253 4666  L 3047 4666  L 3047 1625  L 3713 1625  L 3713 1100  L 3047 1100  L 3047 0  L 2419 0  L 2419 1100  L 313 1100  L 313 1709  L 2253 4666  z "
                   transform="scale(0.015625)" />
              </defs>
              <use
                 xlink:href="#DejaVuSans-34"
                 id="use7" />
              <use
                 xlink:href="#DejaVuSans-30"
                 x="63.623047"
                 id="use8" />
              <use
                 xlink:href="#DejaVuSans-30"
                 x="127.246094"
                 id="use9" />
            </g>
          </g>
        </g>
        <g
           id="xtick_4">
          <g
             id="line2d_4">
            <path
               d="M 344.421037 296.517422  L 344.421037 22.737422  "
               clip-path="url(#p624b508041)"
               style="fill: none; stroke: #cccccc; stroke-linecap: round"
               id="path9" />
          </g>
          <g
             id="text_4">
            <!-- 600 -->
            <g
               style="fill: #262626"
               transform="translate(328.67385 318.554844) scale(0.165 -0.165)"
               id="g12">
              <defs
                 id="defs9">
                <path
                   id="DejaVuSans-36"
                   d="M 2113 2584  Q 1688 2584 1439 2293  Q 1191 2003 1191 1497  Q 1191 994 1439 701  Q 1688 409 2113 409  Q 2538 409 2786 701  Q 3034 994 3034 1497  Q 3034 2003 2786 2293  Q 2538 2584 2113 2584  z M 3366 4563  L 3366 3988  Q 3128 4100 2886 4159  Q 2644 4219 2406 4219  Q 1781 4219 1451 3797  Q 1122 3375 1075 2522  Q 1259 2794 1537 2939  Q 1816 3084 2150 3084  Q 2853 3084 3261 2657  Q 3669 2231 3669 1497  Q 3669 778 3244 343  Q 2819 -91 2113 -91  Q 1303 -91 875 529  Q 447 1150 447 2328  Q 447 3434 972 4092  Q 1497 4750 2381 4750  Q 2619 4750 2861 4703  Q 3103 4656 3366 4563  z "
                   transform="scale(0.015625)" />
              </defs>
              <use
                 xlink:href="#DejaVuSans-36"
                 id="use10" />
              <use
                 xlink:href="#DejaVuSans-30"
                 x="63.623047"
                 id="use11" />
              <use
                 xlink:href="#DejaVuSans-30"
                 x="127.246094"
                 id="use12" />
            </g>
          </g>
        </g>
        <g
           id="xtick_5">
          <g
             id="line2d_5">
            <path
               d="M 442.612668 296.517422  L 442.612668 22.737422  "
               clip-path="url(#p624b508041)"
               style="fill: none; stroke: #cccccc; stroke-linecap: round"
               id="path12" />
          </g>
          <g
             id="text_5">
            <!-- 800 -->
            <g
               style="fill: #262626"
               transform="translate(426.86548 318.554844) scale(0.165 -0.165)"
               id="g15">
              <defs
                 id="defs12">
                <path
                   id="DejaVuSans-38"
                   d="M 2034 2216  Q 1584 2216 1326 1975  Q 1069 1734 1069 1313  Q 1069 891 1326 650  Q 1584 409 2034 409  Q 2484 409 2743 651  Q 3003 894 3003 1313  Q 3003 1734 2745 1975  Q 2488 2216 2034 2216  z M 1403 2484  Q 997 2584 770 2862  Q 544 3141 544 3541  Q 544 4100 942 4425  Q 1341 4750 2034 4750  Q 2731 4750 3128 4425  Q 3525 4100 3525 3541  Q 3525 3141 3298 2862  Q 3072 2584 2669 2484  Q 3125 2378 3379 2068  Q 3634 1759 3634 1313  Q 3634 634 3220 271  Q 2806 -91 2034 -91  Q 1263 -91 848 271  Q 434 634 434 1313  Q 434 1759 690 2068  Q 947 2378 1403 2484  z M 1172 3481  Q 1172 3119 1398 2916  Q 1625 2713 2034 2713  Q 2441 2713 2670 2916  Q 2900 3119 2900 3481  Q 2900 3844 2670 4047  Q 2441 4250 2034 4250  Q 1625 4250 1398 4047  Q 1172 3844 1172 3481  z "
                   transform="scale(0.015625)" />
              </defs>
              <use
                 xlink:href="#DejaVuSans-38"
                 id="use13" />
              <use
                 xlink:href="#DejaVuSans-30"
                 x="63.623047"
                 id="use14" />
              <use
                 xlink:href="#DejaVuSans-30"
                 x="127.246094"
                 id="use15" />
            </g>
          </g>
        </g>
        <g
           id="xtick_6">
          <g
             id="line2d_6">
            <path
               d="M 540.804298 296.517422  L 540.804298 22.737422  "
               clip-path="url(#p624b508041)"
               style="fill: none; stroke: #cccccc; stroke-linecap: round"
               id="path15" />
          </g>
          <g
             id="text_6">
            <!-- 1000 -->
            <g
               style="fill: #262626"
               transform="translate(519.808048 318.554844) scale(0.165 -0.165)"
               id="g19">
              <defs
                 id="defs15">
                <path
                   id="DejaVuSans-31"
                   d="M 794 531  L 1825 531  L 1825 4091  L 703 3866  L 703 4441  L 1819 4666  L 2450 4666  L 2450 531  L 3481 531  L 3481 0  L 794 0  L 794 531  z "
                   transform="scale(0.015625)" />
              </defs>
              <use
                 xlink:href="#DejaVuSans-31"
                 id="use16" />
              <use
                 xlink:href="#DejaVuSans-30"
                 x="63.623047"
                 id="use17" />
              <use
                 xlink:href="#DejaVuSans-30"
                 x="127.246094"
                 id="use18" />
              <use
                 xlink:href="#DejaVuSans-30"
                 x="190.869141"
                 id="use19" />
            </g>
          </g>
        </g>
        <g
           id="text_7">
          <!-- time -->
          <g
             style="fill: #262626"
             transform="translate(311.814115 339.663516) scale(0.18 -0.18)"
             id="g23">
            <defs
               id="defs19">
              <path
                 id="DejaVuSans-74"
                 d="M 1172 4494  L 1172 3500  L 2356 3500  L 2356 3053  L 1172 3053  L 1172 1153  Q 1172 725 1289 603  Q 1406 481 1766 481  L 2356 481  L 2356 0  L 1766 0  Q 1100 0 847 248  Q 594 497 594 1153  L 594 3053  L 172 3053  L 172 3500  L 594 3500  L 594 4494  L 1172 4494  z "
                 transform="scale(0.015625)" />
              <path
                 id="DejaVuSans-69"
                 d="M 603 3500  L 1178 3500  L 1178 0  L 603 0  L 603 3500  z M 603 4863  L 1178 4863  L 1178 4134  L 603 4134  L 603 4863  z "
                 transform="scale(0.015625)" />
              <path
                 id="DejaVuSans-6d"
                 d="M 3328 2828  Q 3544 3216 3844 3400  Q 4144 3584 4550 3584  Q 5097 3584 5394 3201  Q 5691 2819 5691 2113  L 5691 0  L 5113 0  L 5113 2094  Q 5113 2597 4934 2840  Q 4756 3084 4391 3084  Q 3944 3084 3684 2787  Q 3425 2491 3425 1978  L 3425 0  L 2847 0  L 2847 2094  Q 2847 2600 2669 2842  Q 2491 3084 2119 3084  Q 1678 3084 1418 2786  Q 1159 2488 1159 1978  L 1159 0  L 581 0  L 581 3500  L 1159 3500  L 1159 2956  Q 1356 3278 1631 3431  Q 1906 3584 2284 3584  Q 2666 3584 2933 3390  Q 3200 3197 3328 2828  z "
                 transform="scale(0.015625)" />
              <path
                 id="DejaVuSans-65"
                 d="M 3597 1894  L 3597 1613  L 953 1613  Q 991 1019 1311 708  Q 1631 397 2203 397  Q 2534 397 2845 478  Q 3156 559 3463 722  L 3463 178  Q 3153 47 2828 -22  Q 2503 -91 2169 -91  Q 1331 -91 842 396  Q 353 884 353 1716  Q 353 2575 817 3079  Q 1281 3584 2069 3584  Q 2775 3584 3186 3129  Q 3597 2675 3597 1894  z M 3022 2063  Q 3016 2534 2758 2815  Q 2500 3097 2075 3097  Q 1594 3097 1305 2825  Q 1016 2553 972 2059  L 3022 2063  z "
                 transform="scale(0.015625)" />
            </defs>
            <use
               xlink:href="#DejaVuSans-74"
               id="use20" />
            <use
               xlink:href="#DejaVuSans-69"
               x="39.208984"
               id="use21" />
            <use
               xlink:href="#DejaVuSans-6d"
               x="66.992188"
               id="use22" />
            <use
               xlink:href="#DejaVuSans-65"
               x="164.404297"
               id="use23" />
          </g>
        </g>
      </g>
      <g
         id="matplotlib.axis_2">
        <g
           id="ytick_1">
          <g
             id="line2d_7">
            <path
               d="M 48.61875 284.072876  L 615.675417 284.072876  "
               clip-path="url(#p624b508041)"
               style="fill: none; stroke: #cccccc; stroke-linecap: round"
               id="path23" />
          </g>
          <g
             id="text_8">
            <!-- 0 -->
            <g
               style="fill: #262626"
               transform="translate(28.620625 290.341587) scale(0.165 -0.165)"
               id="g24">
              <use
                 xlink:href="#DejaVuSans-30"
                 id="use24" />
            </g>
          </g>
        </g>
        <g
           id="ytick_2">
          <g
             id="line2d_8">
            <path
               d="M 48.61875 226.765721  L 615.675417 226.765721  "
               clip-path="url(#p624b508041)"
               style="fill: none; stroke: #cccccc; stroke-linecap: round"
               id="path24" />
          </g>
          <g
             id="text_9">
            <!-- 2 -->
            <g
               style="fill: #262626"
               transform="translate(28.620625 233.034432) scale(0.165 -0.165)"
               id="g25">
              <use
                 xlink:href="#DejaVuSans-32"
                 id="use25" />
            </g>
          </g>
        </g>
        <g
           id="ytick_3">
          <g
             id="line2d_9">
            <path
               d="M 48.61875 169.458566  L 615.675417 169.458566  "
               clip-path="url(#p624b508041)"
               style="fill: none; stroke: #cccccc; stroke-linecap: round"
               id="path25" />
          </g>
          <g
             id="text_10">
            <!-- 4 -->
            <g
               style="fill: #262626"
               transform="translate(28.620625 175.727277) scale(0.165 -0.165)"
               id="g26">
              <use
                 xlink:href="#DejaVuSans-34"
                 id="use26" />
            </g>
          </g>
        </g>
        <g
           id="ytick_4">
          <g
             id="line2d_10">
            <path
               d="M 48.61875 112.15141  L 615.675417 112.15141  "
               clip-path="url(#p624b508041)"
               style="fill: none; stroke: #cccccc; stroke-linecap: round"
               id="path26" />
          </g>
          <g
             id="text_11">
            <!-- 6 -->
            <g
               style="fill: #262626"
               transform="translate(28.620625 118.420121) scale(0.165 -0.165)"
               id="g27">
              <use
                 xlink:href="#DejaVuSans-36"
                 id="use27" />
            </g>
          </g>
        </g>
        <g
           id="ytick_5">
          <g
             id="line2d_11">
            <path
               d="M 48.61875 54.844255  L 615.675417 54.844255  "
               clip-path="url(#p624b508041)"
               style="fill: none; stroke: #cccccc; stroke-linecap: round"
               id="path27" />
          </g>
          <g
             id="text_12">
            <!-- 8 -->
            <g
               style="fill: #262626"
               transform="translate(28.620625 61.112966) scale(0.165 -0.165)"
               id="g28">
              <use
                 xlink:href="#DejaVuSans-38"
                 id="use28" />
            </g>
          </g>
        </g>
        <g
           id="text_13">
          <!-- Error -->
          <g
             style="fill: #262626"
             transform="translate(20.877187 181.560703) rotate(-90) scale(0.18 -0.18)"
             id="g33">
            <defs
               id="defs28">
              <path
                 id="DejaVuSans-45"
                 d="M 628 4666  L 3578 4666  L 3578 4134  L 1259 4134  L 1259 2753  L 3481 2753  L 3481 2222  L 1259 2222  L 1259 531  L 3634 531  L 3634 0  L 628 0  L 628 4666  z "
                 transform="scale(0.015625)" />
              <path
                 id="DejaVuSans-72"
                 d="M 2631 2963  Q 2534 3019 2420 3045  Q 2306 3072 2169 3072  Q 1681 3072 1420 2755  Q 1159 2438 1159 1844  L 1159 0  L 581 0  L 581 3500  L 1159 3500  L 1159 2956  Q 1341 3275 1631 3429  Q 1922 3584 2338 3584  Q 2397 3584 2469 3576  Q 2541 3569 2628 3553  L 2631 2963  z "
                 transform="scale(0.015625)" />
              <path
                 id="DejaVuSans-6f"
                 d="M 1959 3097  Q 1497 3097 1228 2736  Q 959 2375 959 1747  Q 959 1119 1226 758  Q 1494 397 1959 397  Q 2419 397 2687 759  Q 2956 1122 2956 1747  Q 2956 2369 2687 2733  Q 2419 3097 1959 3097  z M 1959 3584  Q 2709 3584 3137 3096  Q 3566 2609 3566 1747  Q 3566 888 3137 398  Q 2709 -91 1959 -91  Q 1206 -91 779 398  Q 353 888 353 1747  Q 353 2609 779 3096  Q 1206 3584 1959 3584  z "
                 transform="scale(0.015625)" />
            </defs>
            <use
               xlink:href="#DejaVuSans-45"
               id="use29" />
            <use
               xlink:href="#DejaVuSans-72"
               x="63.183594"
               id="use30" />
            <use
               xlink:href="#DejaVuSans-72"
               x="102.546875"
               id="use31" />
            <use
               xlink:href="#DejaVuSans-6f"
               x="141.410156"
               id="use32" />
            <use
               xlink:href="#DejaVuSans-72"
               x="202.591797"
               id="use33" />
          </g>
        </g>
        <g
           id="text_14">
          <!-- 1e2 -->
          <g
             style="fill: #262626"
             transform="translate(48.61875 19.737422) scale(0.165 -0.165)"
             id="g36">
            <use
               xlink:href="#DejaVuSans-31"
               id="use34" />
            <use
               xlink:href="#DejaVuSans-65"
               x="63.623047"
               id="use35" />
            <use
               xlink:href="#DejaVuSans-32"
               x="125.146484"
               id="use36" />
          </g>
        </g>
      </g>
      <g
         id="PolyCollection_1" />
      <g
         id="line2d_12">
        <path
           d="M 74.394053 260.242093  L 74.910075 254.680893  L 75.426097 255.81777  L 76.458141 269.27626  L 76.974163 269.885362  L 78.006208 271.633026  L 78.52223 273.125027  L 79.038252 275.277556  L 79.554274 278.37157  L 80.586318 281.267934  L 81.618362 283.155681  L 82.134384 283.556872  L 82.650406 283.700133  L 83.166428 282.656285  L 84.198473 281.560051  L 84.714495 281.16241  L 85.230517 280.370928  L 86.262561 279.336588  L 86.778583 278.805336  L 87.294605 277.99923  L 87.810627 277.540517  L 88.842671 276.020856  L 89.358693 275.819662  L 89.874716 276.565573  L 91.422782 277.289979  L 91.938804 277.313862  L 92.454826 277.610218  L 92.970848 278.492511  L 93.48687 280.100752  L 94.002892 282.665737  L 94.518914 283.702131  L 95.034936 283.458689  L 95.550958 282.798314  L 96.066981 281.522684  L 97.099025 276.887076  L 98.647091 268.386989  L 99.163113 266.749638  L 99.679135 267.722997  L 100.195157 275.950475  L 100.711179 280.016673  L 101.227201 278.788381  L 101.743223 271.16899  L 102.775268 262.690062  L 103.29129 254.105526  L 104.323334 230.989688  L 105.8714 194.725345  L 106.903444 175.271898  L 108.45151 153.609528  L 108.967533 149.720066  L 109.483555 147.178037  L 109.999577 145.8529  L 110.515599 145.556744  L 111.547643 145.642267  L 112.063665 146.82276  L 112.579687 149.625159  L 113.095709 154.210673  L 114.643775 175.939835  L 115.67582 194.063613  L 117.223886 223.591743  L 117.739908 236.683634  L 118.25593 252.603954  L 118.771952 273.839702  L 119.287974 270.021257  L 119.803996 243.242311  L 120.320018 194.189944  L 121.352063 157.089674  L 122.384107 131.427655  L 123.416151 115.1593  L 123.932173 110.053374  L 124.448195 107.156268  L 124.964217 105.288242  L 125.480239 105.590211  L 125.996261 106.931192  L 126.512283 113.484568  L 127.028305 122.394408  L 128.06035 153.349891  L 129.608416 208.270206  L 130.124438 235.059174  L 131.156482 265.902871  L 131.672504 278.905751  L 132.188526 276.296818  L 133.22057 255.067744  L 134.252615 240.70101  L 135.800681 224.750637  L 136.832725 201.497847  L 137.864769 167.308829  L 138.896813 119.124172  L 139.412835 102.719332  L 139.928858 92.926496  L 140.44488 72.02884  L 140.960902 61.018321  L 141.992946 45.853212  L 142.508968 40.988702  L 143.541012 35.181967  L 144.057034 36.213588  L 144.573056 40.260348  L 145.089078 51.505529  L 145.6051 69.487254  L 146.637145 124.972257  L 148.701233 261.101786  L 149.217255 273.282489  L 149.733277 241.547235  L 150.765321 148.293458  L 151.797365 103.495413  L 152.313388 91.201679  L 152.82941 84.083608  L 153.345432 84.00725  L 154.377476 91.540755  L 155.40952 102.395872  L 157.98963 128.207639  L 158.505653 129.270795  L 159.021675 131.22141  L 159.537697 133.989903  L 160.053719 142.460524  L 160.569741 173.16384  L 161.085763 195.006153  L 162.633829 276.065122  L 163.149851 267.373843  L 164.181895 223.999669  L 164.697918 205.55257  L 165.729962 177.899876  L 166.245984 168.068491  L 166.762006 160.780756  L 167.278028 155.739483  L 167.79405 152.022485  L 168.826094 149.432017  L 169.342116 148.825757  L 169.858138 148.938472  L 170.37416 148.838332  L 170.890182 149.429216  L 171.922227 152.936914  L 172.438249 155.537085  L 172.954271 158.744145  L 173.986315 171.261116  L 175.018359 189.279586  L 177.082447 228.509757  L 177.59847 241.756811  L 178.114492 258.774564  L 178.630514 280.715771  L 179.146536 263.496162  L 180.17858 216.455085  L 180.694602 178.886231  L 181.210624 159.811374  L 182.242668 134.3582  L 183.274712 117.657665  L 183.790735 112.151147  L 184.306757 107.899939  L 184.822779 104.931331  L 185.338801 105.22559  L 185.854823 109.82182  L 186.370845 121.377076  L 186.886867 137.752725  L 188.434933 204.636244  L 189.983 267.775962  L 190.499022 282.049842  L 191.015044 254.986969  L 192.047088 235.831547  L 193.079132 223.125767  L 193.595154 219.846671  L 195.14322 206.4433  L 195.659242 197.753306  L 196.691287 172.717643  L 199.271397 96.625917  L 200.303441 74.340143  L 200.819463 64.379408  L 201.335485 61.787703  L 201.851507 63.449456  L 202.36753 67.936203  L 202.883552 75.017738  L 203.399574 84.187499  L 203.915596 97.952574  L 204.431618 114.991517  L 205.463662 165.992274  L 207.011728 260.333344  L 207.52775 279.005861  L 209.075817 193.783812  L 210.107861 145.924611  L 211.139905 114.583245  L 211.655927 113.953291  L 212.171949 116.045093  L 212.687971 120.603877  L 213.720015 125.552049  L 216.300126 141.353489  L 216.816148 143.309093  L 217.33217 144.823364  L 217.848192 150.730755  L 218.364214 153.161065  L 218.880236 156.275415  L 219.396258 162.706142  L 219.91228 176.372747  L 220.428302 193.864541  L 220.944325 217.114942  L 221.460347 266.840678  L 221.976369 277.949175  L 222.492391 255.081017  L 223.524435 219.839891  L 224.556479 193.122144  L 225.072501 183.216246  L 225.588523 176.427803  L 226.620567 168.020447  L 227.13659 165.488979  L 228.168634 162.512661  L 228.684656 161.829861  L 230.232722 158.860618  L 230.748744 159.575636  L 231.264766 163.497938  L 231.780788 166.338244  L 232.29681 170.775327  L 232.812832 176.227459  L 236.424987 238.51677  L 236.941009 250.970251  L 237.973053 280.68929  L 239.521119 213.966335  L 240.553164 178.751214  L 241.069186 165.47642  L 241.585208 144.663054  L 242.10123 137.219368  L 242.617252 132.174302  L 243.133274 128.646371  L 243.649296 126.380558  L 244.165318 126.031207  L 244.68134 125.528252  L 245.197362 126.33082  L 245.713384 126.238653  L 246.229407 127.078893  L 246.745429 127.165746  L 247.261451 129.920616  L 247.777473 134.525267  L 248.293495 144.194528  L 248.809517 157.095899  L 250.357583 211.640804  L 250.873605 231.084568  L 251.389627 272.190122  L 251.905649 262.988699  L 253.453716 192.579659  L 254.48576 157.812263  L 255.001782 144.099731  L 256.033826 124.157094  L 257.06587 110.993322  L 258.097914 103.363337  L 258.613937 100.754348  L 259.129959 98.999681  L 259.645981 97.653806  L 260.162003 97.823879  L 260.678025 99.382977  L 261.194047 104.845832  L 261.710069 129.746455  L 262.742113 170.900842  L 265.322224 273.451879  L 265.838246 274.21059  L 267.902334 206.129563  L 268.934378 181.060411  L 269.966422 162.940002  L 270.998467 151.95537  L 272.030511 143.948988  L 272.546533 142.150653  L 273.062555 141.044299  L 273.578577 141.338336  L 274.610621 145.130905  L 275.126643 145.012137  L 275.642665 144.233203  L 276.158687 141.145076  L 276.674709 140.633089  L 277.190732 145.319034  L 277.706754 158.054938  L 278.222776 174.047547  L 279.770842 232.9729  L 280.802886 266.220703  L 281.318908 279.517233  L 282.350952 258.355922  L 282.866974 252.925353  L 283.382997 249.718943  L 283.899019 247.81363  L 284.415041 246.484798  L 284.931063 246.827135  L 285.447085 247.021892  L 285.963107 247.468981  L 286.479129 247.437521  L 286.995151 247.255026  L 287.511173 246.779765  L 288.027195 246.615417  L 288.543217 247.669879  L 289.059239 249.45096  L 289.575262 251.820273  L 290.607306 254.311961  L 291.123328 255.223212  L 291.63935 256.533398  L 293.703438 260.150521  L 294.735482 261.886779  L 295.251504 263.129106  L 296.283549 264.20525  L 297.831615 263.89449  L 298.863659 263.905309  L 299.895703 264.665988  L 300.411725 265.583986  L 300.927747 265.336798  L 301.443769 264.819065  L 301.959791 261.950974  L 302.475814 260.126093  L 302.991836 258.899576  L 303.507858 258.10886  L 304.02388 257.865884  L 304.539902 258.005915  L 305.055924 258.843262  L 305.571946 260.78942  L 306.087968 263.994314  L 307.120012 273.825867  L 308.152056 283.655236  L 309.184101 274.305347  L 310.216145 266.854666  L 311.248189 261.77686  L 311.764211 260.0248  L 312.280233 257.460511  L 312.796255 256.091432  L 313.312277 254.049896  L 313.828299 251.544237  L 314.344321 247.056486  L 314.860344 244.963807  L 315.376366 243.92931  L 315.892388 243.266639  L 316.40841 242.823381  L 316.924432 243.86273  L 317.440454 243.264195  L 317.956476 243.621434  L 318.472498 242.675063  L 319.504542 238.452159  L 320.020564 238.055902  L 320.536586 238.52806  L 321.052609 240.447492  L 321.568631 243.069131  L 322.084653 255.609402  L 322.600675 271.979186  L 323.116697 274.116579  L 323.632719 269.905782  L 324.148741 270.863798  L 324.664763 273.002326  L 325.180785 276.244207  L 326.212829 280.613206  L 327.244874 283.53328  L 327.760896 283.792902  L 328.276918 283.908835  L 328.79294 283.705234  L 329.308962 283.696577  L 329.824984 282.770353  L 330.341006 282.557541  L 330.857028 282.148994  L 331.37305 282.540285  L 332.405094 283.513904  L 332.921116 282.762849  L 333.437139 283.278778  L 333.953161 283.236184  L 334.469183 282.61776  L 335.501227 275.072592  L 336.533271 265.693073  L 337.049293 262.680891  L 337.565315 261.993841  L 338.081337 261.988365  L 339.629404 268.997427  L 340.145426 270.532801  L 340.661448 273.248014  L 341.693492 276.015846  L 342.209514 277.073227  L 342.725536 279.689363  L 343.241558 280.419484  L 343.75758 280.683644  L 344.273602 279.961147  L 344.789624 279.657061  L 345.305646 278.724576  L 346.337691 277.378998  L 346.853713 277.004675  L 347.369735 276.88321  L 347.885757 277.126691  L 348.401779 276.589355  L 348.917801 275.570903  L 349.433823 274.267235  L 350.465867 274.292467  L 350.981889 275.301305  L 352.013934 278.422754  L 352.529956 281.366185  L 353.045978 282.685604  L 354.078022 283.782946  L 354.594044 283.870041  L 355.626088 283.298482  L 356.14211 283.261932  L 356.658132 283.405753  L 359.754265 282.180064  L 360.270287 282.007158  L 360.786309 282.013684  L 362.334375 281.643015  L 363.366419 281.668713  L 364.398464 283.99653  L 364.914486 280.80688  L 366.462552 267.597791  L 366.978574 262.823593  L 368.52664 252.046742  L 369.042662 249.363209  L 369.558684 247.377096  L 370.074706 244.251568  L 371.106751 240.77082  L 373.686861 236.964597  L 374.202883 236.421863  L 374.718905 235.683872  L 375.750949 234.515468  L 376.782993 232.619011  L 377.299016 231.185326  L 377.815038 231.416671  L 378.33106 230.905037  L 378.847082 231.403596  L 379.363104 230.837951  L 379.879126 232.654182  L 380.395148 232.847363  L 380.91117 231.311451  L 381.427192 229.305646  L 381.943214 230.929171  L 382.459236 233.654076  L 382.975258 248.760765  L 384.523325 280.730252  L 385.039347 278.686506  L 385.555369 272.46679  L 386.071391 269.304925  L 386.587413 267.258512  L 387.103435 266.824614  L 388.135479 259.387042  L 389.167523 247.200742  L 390.71559 224.473495  L 392.263656 197.950153  L 392.779678 191.835121  L 393.2957 188.477079  L 394.327744 203.101766  L 396.391833 241.017727  L 397.423877 257.179195  L 397.939899 263.887188  L 398.455921 272.285912  L 399.487965 281.053817  L 400.003987 282.956917  L 400.520009 283.891117  L 401.036031 283.33613  L 401.552053 283.745495  L 402.068076 283.114332  L 402.584098 283.450715  L 403.10012 283.101246  L 403.616142 282.89977  L 404.132164 283.259908  L 404.648186 283.482036  L 405.164208 283.223037  L 405.68023 283.410519  L 406.196252 283.15947  L 406.712274 283.230261  L 407.228296 282.532035  L 408.260341 281.738914  L 408.776363 281.453651  L 409.292385 280.296967  L 409.808407 279.762079  L 410.324429 278.889813  L 410.840451 278.587928  L 411.356473 277.774889  L 411.872495 277.315963  L 412.388517 276.440939  L 412.904539 276.407352  L 413.420561 276.666076  L 413.936583 276.691796  L 414.968628 277.018307  L 415.48465 277.398841  L 416.000672 277.046595  L 417.032716 277.892472  L 417.548738 279.074584  L 418.06476 279.808097  L 418.580782 280.73988  L 419.612826 282.160746  L 420.644871 282.257784  L 421.676915 279.634308  L 422.192937 276.86879  L 423.224981 273.142233  L 423.741003 272.650221  L 425.289069 280.577157  L 425.805091 283.316345  L 426.321113 283.782421  L 427.353158 280.5196  L 427.86918 280.884707  L 428.385202 279.685759  L 428.901224 276.967833  L 429.417246 274.971718  L 429.933268 272.389391  L 430.44929 271.251227  L 430.965312 270.690332  L 431.481334 271.530799  L 431.997356 271.111331  L 432.513378 271.76767  L 433.0294 273.280358  L 434.061445 277.458284  L 434.577467 278.548741  L 435.609511 281.585911  L 436.125533 282.104299  L 436.641555 281.033797  L 437.157577 279.25047  L 437.673599 280.062575  L 438.189621 282.366675  L 438.705643 284.017592  L 439.221665 282.778242  L 441.285754 276.023597  L 441.801776 275.371838  L 442.317798 274.925045  L 442.83382 274.018373  L 443.349842 271.455163  L 445.929953 233.384978  L 446.445975 227.889838  L 446.961997 224.512657  L 447.478019 224.47663  L 447.994041 227.222363  L 450.058129 243.290043  L 450.574151 245.340303  L 451.090173 245.780788  L 452.122218 249.985428  L 452.63824 250.822388  L 453.154262 251.36899  L 453.670284 252.107442  L 454.186306 252.298079  L 455.734372 253.432763  L 456.250394 254.014074  L 457.282438 254.22187  L 457.79846 255.917042  L 458.314483 259.816156  L 458.830505 264.902276  L 459.346527 272.257551  L 459.862549 276.852315  L 460.894593 282.394233  L 461.410615 282.112295  L 462.442659 272.180148  L 462.958681 268.610723  L 463.474703 262.973577  L 463.990725 248.774713  L 464.506748 242.14765  L 465.02277 240.590694  L 465.538792 239.564065  L 466.054814 239.08485  L 466.570836 238.364475  L 467.086858 242.8716  L 467.60288 248.931355  L 468.634924 272.803751  L 469.150946 275.358298  L 469.666968 275.738664  L 470.18299 274.829508  L 470.699013 272.203337  L 471.215035 266.132987  L 473.279123 230.292891  L 473.795145 218.126067  L 474.311167 209.528667  L 474.827189 203.160496  L 475.343211 198.283565  L 475.859233 196.978299  L 476.375255 196.800084  L 477.4073 194.713885  L 477.923322 194.248091  L 479.471388 183.558331  L 481.535476 163.847131  L 482.051498 162.176333  L 482.56752 161.390071  L 483.083543 162.064876  L 483.599565 162.117953  L 484.631609 165.371878  L 485.147631 165.638452  L 486.179675 168.537025  L 486.695697 170.553728  L 487.211719 171.490818  L 487.727741 173.040275  L 488.243763 173.44867  L 488.759785 175.150737  L 489.275808 177.60236  L 489.79183 180.655993  L 490.307852 187.257427  L 491.855918 224.760581  L 492.887962 252.423854  L 494.436028 283.464216  L 495.468073 279.42379  L 496.500117 279.009712  L 497.016139 279.524506  L 498.564205 282.156312  L 499.596249 283.350624  L 500.628293 283.86259  L 501.660337 284.036719  L 504.240448 284.072876  L 589.900114 284.072876  L 589.900114 284.072876  "
           clip-path="url(#p624b508041)"
           style="fill: none; stroke: #4c72b0; stroke-width: 2; stroke-linecap: round"
           id="path36" />
      </g>
      <g
         id="patch_3">
        <path
           d="M 48.61875 296.517422  L 48.61875 22.737422  "
           style="fill: none; stroke: #cccccc; stroke-width: 1.25; stroke-linejoin: miter; stroke-linecap: square"
           id="path37" />
      </g>
      <g
         id="patch_4">
        <path
           d="M 48.61875 296.517422  L 615.675417 296.517422  "
           style="fill: none; stroke: #cccccc; stroke-width: 1.25; stroke-linejoin: miter; stroke-linecap: square"
           id="path38" />
      </g>
    </g>
    <g
       id="axes_2">
      <g
         id="matplotlib.axis_3">
        <g
           id="xtick_7">
          <g
             id="line2d_13">
            <path
               d="M 687.782812 296.517422  L 687.782812 22.737422  "
               clip-path="url(#p6279fff3ee)"
               style="fill: none; stroke: #cccccc; stroke-linecap: round"
               id="path40" />
          </g>
          <g
             id="text_15">
            <!-- 0 -->
            <g
               style="fill: #262626"
               transform="translate(682.53375 318.554844) scale(0.165 -0.165)"
               id="g40">
              <use
                 xlink:href="#DejaVuSans-30"
                 id="use40" />
            </g>
          </g>
        </g>
        <g
           id="xtick_8">
          <g
             id="line2d_14">
            <path
               d="M 785.974443 296.517422  L 785.974443 22.737422  "
               clip-path="url(#p6279fff3ee)"
               style="fill: none; stroke: #cccccc; stroke-linecap: round"
               id="path41" />
          </g>
          <g
             id="text_16">
            <!-- 200 -->
            <g
               style="fill: #262626"
               transform="translate(770.227255 318.554844) scale(0.165 -0.165)"
               id="g43">
              <use
                 xlink:href="#DejaVuSans-32"
                 id="use41" />
              <use
                 xlink:href="#DejaVuSans-30"
                 x="63.623047"
                 id="use42" />
              <use
                 xlink:href="#DejaVuSans-30"
                 x="127.246094"
                 id="use43" />
            </g>
          </g>
        </g>
        <g
           id="xtick_9">
          <g
             id="line2d_15">
            <path
               d="M 884.166073 296.517422  L 884.166073 22.737422  "
               clip-path="url(#p6279fff3ee)"
               style="fill: none; stroke: #cccccc; stroke-linecap: round"
               id="path43" />
          </g>
          <g
             id="text_17">
            <!-- 400 -->
            <g
               style="fill: #262626"
               transform="translate(868.418886 318.554844) scale(0.165 -0.165)"
               id="g46">
              <use
                 xlink:href="#DejaVuSans-34"
                 id="use44" />
              <use
                 xlink:href="#DejaVuSans-30"
                 x="63.623047"
                 id="use45" />
              <use
                 xlink:href="#DejaVuSans-30"
                 x="127.246094"
                 id="use46" />
            </g>
          </g>
        </g>
        <g
           id="xtick_10">
          <g
             id="line2d_16">
            <path
               d="M 982.357704 296.517422  L 982.357704 22.737422  "
               clip-path="url(#p6279fff3ee)"
               style="fill: none; stroke: #cccccc; stroke-linecap: round"
               id="path46" />
          </g>
          <g
             id="text_18">
            <!-- 600 -->
            <g
               style="fill: #262626"
               transform="translate(966.610516 318.554844) scale(0.165 -0.165)"
               id="g49">
              <use
                 xlink:href="#DejaVuSans-36"
                 id="use47" />
              <use
                 xlink:href="#DejaVuSans-30"
                 x="63.623047"
                 id="use48" />
              <use
                 xlink:href="#DejaVuSans-30"
                 x="127.246094"
                 id="use49" />
            </g>
          </g>
        </g>
        <g
           id="xtick_11">
          <g
             id="line2d_17">
            <path
               d="M 1080.549334 296.517422  L 1080.549334 22.737422  "
               clip-path="url(#p6279fff3ee)"
               style="fill: none; stroke: #cccccc; stroke-linecap: round"
               id="path49" />
          </g>
          <g
             id="text_19">
            <!-- 800 -->
            <g
               style="fill: #262626"
               transform="translate(1064.802147 318.554844) scale(0.165 -0.165)"
               id="g52">
              <use
                 xlink:href="#DejaVuSans-38"
                 id="use50" />
              <use
                 xlink:href="#DejaVuSans-30"
                 x="63.623047"
                 id="use51" />
              <use
                 xlink:href="#DejaVuSans-30"
                 x="127.246094"
                 id="use52" />
            </g>
          </g>
        </g>
        <g
           id="xtick_12">
          <g
             id="line2d_18">
            <path
               d="M 1178.740965 296.517422  L 1178.740965 22.737422  "
               clip-path="url(#p6279fff3ee)"
               style="fill: none; stroke: #cccccc; stroke-linecap: round"
               id="path52" />
          </g>
          <g
             id="text_20">
            <!-- 1000 -->
            <g
               style="fill: #262626"
               transform="translate(1157.744715 318.554844) scale(0.165 -0.165)"
               id="g56">
              <use
                 xlink:href="#DejaVuSans-31"
                 id="use53" />
              <use
                 xlink:href="#DejaVuSans-30"
                 x="63.623047"
                 id="use54" />
              <use
                 xlink:href="#DejaVuSans-30"
                 x="127.246094"
                 id="use55" />
              <use
                 xlink:href="#DejaVuSans-30"
                 x="190.869141"
                 id="use56" />
            </g>
          </g>
        </g>
        <g
           id="text_21">
          <!-- time -->
          <g
             style="fill: #262626"
             transform="translate(949.750781 339.663516) scale(0.18 -0.18)"
             id="g60">
            <use
               xlink:href="#DejaVuSans-74"
               id="use57" />
            <use
               xlink:href="#DejaVuSans-69"
               x="39.208984"
               id="use58" />
            <use
               xlink:href="#DejaVuSans-6d"
               x="66.992188"
               id="use59" />
            <use
               xlink:href="#DejaVuSans-65"
               x="164.404297"
               id="use60" />
          </g>
        </g>
      </g>
      <g
         id="matplotlib.axis_4">
        <g
           id="ytick_6">
          <g
             id="line2d_19">
            <path
               d="M 686.555417 284.072876  L 1253.612083 284.072876  "
               clip-path="url(#p6279fff3ee)"
               style="fill: none; stroke: #cccccc; stroke-linecap: round"
               id="path60" />
          </g>
          <g
             id="text_22">
            <!-- 0.0 -->
            <g
               style="fill: #262626"
               transform="translate(650.81526 290.341587) scale(0.165 -0.165)"
               id="g63">
              <defs
                 id="defs60">
                <path
                   id="DejaVuSans-2e"
                   d="M 684 794  L 1344 794  L 1344 0  L 684 0  L 684 794  z "
                   transform="scale(0.015625)" />
              </defs>
              <use
                 xlink:href="#DejaVuSans-30"
                 id="use61" />
              <use
                 xlink:href="#DejaVuSans-2e"
                 x="63.623047"
                 id="use62" />
              <use
                 xlink:href="#DejaVuSans-30"
                 x="95.410156"
                 id="use63" />
            </g>
          </g>
        </g>
        <g
           id="ytick_7">
          <g
             id="line2d_20">
            <path
               d="M 686.555417 240.055686  L 1253.612083 240.055686  "
               clip-path="url(#p6279fff3ee)"
               style="fill: none; stroke: #cccccc; stroke-linecap: round"
               id="path63" />
          </g>
          <g
             id="text_23">
            <!-- 0.5 -->
            <g
               style="fill: #262626"
               transform="translate(650.81526 246.324397) scale(0.165 -0.165)"
               id="g66">
              <defs
                 id="defs63">
                <path
                   id="DejaVuSans-35"
                   d="M 691 4666  L 3169 4666  L 3169 4134  L 1269 4134  L 1269 2991  Q 1406 3038 1543 3061  Q 1681 3084 1819 3084  Q 2600 3084 3056 2656  Q 3513 2228 3513 1497  Q 3513 744 3044 326  Q 2575 -91 1722 -91  Q 1428 -91 1123 -41  Q 819 9 494 109  L 494 744  Q 775 591 1075 516  Q 1375 441 1709 441  Q 2250 441 2565 725  Q 2881 1009 2881 1497  Q 2881 1984 2565 2268  Q 2250 2553 1709 2553  Q 1456 2553 1204 2497  Q 953 2441 691 2322  L 691 4666  z "
                   transform="scale(0.015625)" />
              </defs>
              <use
                 xlink:href="#DejaVuSans-30"
                 id="use64" />
              <use
                 xlink:href="#DejaVuSans-2e"
                 x="63.623047"
                 id="use65" />
              <use
                 xlink:href="#DejaVuSans-35"
                 x="95.410156"
                 id="use66" />
            </g>
          </g>
        </g>
        <g
           id="ytick_8">
          <g
             id="line2d_21">
            <path
               d="M 686.555417 196.038496  L 1253.612083 196.038496  "
               clip-path="url(#p6279fff3ee)"
               style="fill: none; stroke: #cccccc; stroke-linecap: round"
               id="path66" />
          </g>
          <g
             id="text_24">
            <!-- 1.0 -->
            <g
               style="fill: #262626"
               transform="translate(650.81526 202.307207) scale(0.165 -0.165)"
               id="g69">
              <use
                 xlink:href="#DejaVuSans-31"
                 id="use67" />
              <use
                 xlink:href="#DejaVuSans-2e"
                 x="63.623047"
                 id="use68" />
              <use
                 xlink:href="#DejaVuSans-30"
                 x="95.410156"
                 id="use69" />
            </g>
          </g>
        </g>
        <g
           id="ytick_9">
          <g
             id="line2d_22">
            <path
               d="M 686.555417 152.021306  L 1253.612083 152.021306  "
               clip-path="url(#p6279fff3ee)"
               style="fill: none; stroke: #cccccc; stroke-linecap: round"
               id="path69" />
          </g>
          <g
             id="text_25">
            <!-- 1.5 -->
            <g
               style="fill: #262626"
               transform="translate(650.81526 158.290016) scale(0.165 -0.165)"
               id="g72">
              <use
                 xlink:href="#DejaVuSans-31"
                 id="use70" />
              <use
                 xlink:href="#DejaVuSans-2e"
                 x="63.623047"
                 id="use71" />
              <use
                 xlink:href="#DejaVuSans-35"
                 x="95.410156"
                 id="use72" />
            </g>
          </g>
        </g>
        <g
           id="ytick_10">
          <g
             id="line2d_23">
            <path
               d="M 686.555417 108.004115  L 1253.612083 108.004115  "
               clip-path="url(#p6279fff3ee)"
               style="fill: none; stroke: #cccccc; stroke-linecap: round"
               id="path72" />
          </g>
          <g
             id="text_26">
            <!-- 2.0 -->
            <g
               style="fill: #262626"
               transform="translate(650.81526 114.272826) scale(0.165 -0.165)"
               id="g75">
              <use
                 xlink:href="#DejaVuSans-32"
                 id="use73" />
              <use
                 xlink:href="#DejaVuSans-2e"
                 x="63.623047"
                 id="use74" />
              <use
                 xlink:href="#DejaVuSans-30"
                 x="95.410156"
                 id="use75" />
            </g>
          </g>
        </g>
        <g
           id="ytick_11">
          <g
             id="line2d_24">
            <path
               d="M 686.555417 63.986925  L 1253.612083 63.986925  "
               clip-path="url(#p6279fff3ee)"
               style="fill: none; stroke: #cccccc; stroke-linecap: round"
               id="path75" />
          </g>
          <g
             id="text_27">
            <!-- 2.5 -->
            <g
               style="fill: #262626"
               transform="translate(650.81526 70.255636) scale(0.165 -0.165)"
               id="g78">
              <use
                 xlink:href="#DejaVuSans-32"
                 id="use76" />
              <use
                 xlink:href="#DejaVuSans-2e"
                 x="63.623047"
                 id="use77" />
              <use
                 xlink:href="#DejaVuSans-35"
                 x="95.410156"
                 id="use78" />
            </g>
          </g>
        </g>
        <g
           id="text_28">
          <!-- 1e3 -->
          <g
             style="fill: #262626"
             transform="translate(686.555417 19.737422) scale(0.165 -0.165)"
             id="g81">
            <defs
               id="defs78">
              <path
                 id="DejaVuSans-33"
                 d="M 2597 2516  Q 3050 2419 3304 2112  Q 3559 1806 3559 1356  Q 3559 666 3084 287  Q 2609 -91 1734 -91  Q 1441 -91 1130 -33  Q 819 25 488 141  L 488 750  Q 750 597 1062 519  Q 1375 441 1716 441  Q 2309 441 2620 675  Q 2931 909 2931 1356  Q 2931 1769 2642 2001  Q 2353 2234 1838 2234  L 1294 2234  L 1294 2753  L 1863 2753  Q 2328 2753 2575 2939  Q 2822 3125 2822 3475  Q 2822 3834 2567 4026  Q 2313 4219 1838 4219  Q 1578 4219 1281 4162  Q 984 4106 628 3988  L 628 4550  Q 988 4650 1302 4700  Q 1616 4750 1894 4750  Q 2613 4750 3031 4423  Q 3450 4097 3450 3541  Q 3450 3153 3228 2886  Q 3006 2619 2597 2516  z "
                 transform="scale(0.015625)" />
            </defs>
            <use
               xlink:href="#DejaVuSans-31"
               id="use79" />
            <use
               xlink:href="#DejaVuSans-65"
               x="63.623047"
               id="use80" />
            <use
               xlink:href="#DejaVuSans-33"
               x="125.146484"
               id="use81" />
          </g>
        </g>
      </g>
      <g
         id="PolyCollection_2" />
      <g
         id="line2d_25">
        <path
           d="M 712.33072 281.318973  L 712.846742 280.993711  L 714.394808 281.10867  L 714.91083 281.150905  L 715.426852 281.379312  L 715.942874 281.241975  L 716.458896 281.258837  L 717.490941 279.946048  L 718.006963 280.444863  L 718.522985 280.579064  L 719.039007 280.837622  L 719.555029 280.938246  L 720.071051 281.479666  L 720.587073 282.227217  L 721.103095 283.410565  L 721.619117 283.960712  L 723.167183 281.55432  L 723.683206 281.345103  L 724.199228 281.485852  L 724.71525 282.938405  L 725.231272 283.924444  L 725.747294 283.260336  L 726.779338 282.847709  L 727.29536 283.140894  L 727.811382 284.012186  L 729.359448 283.814895  L 729.875471 283.984435  L 730.907515 283.378347  L 731.423537 283.071264  L 731.939559 283.13277  L 732.455581 283.027102  L 732.971603 283.114583  L 733.487625 282.903686  L 734.003647 282.90064  L 734.519669 282.567444  L 735.035691 282.521521  L 735.551713 282.304709  L 736.067736 282.289645  L 736.583758 282.066531  L 737.09978 282.068936  L 738.131824 281.133288  L 738.647846 281.064748  L 739.67989 280.314793  L 740.195912 278.097793  L 740.711934 273.947303  L 741.743978 258.364756  L 743.808067 222.20802  L 744.840111 207.484494  L 745.356133 201.419957  L 746.388177 193.493986  L 747.420221 188.973256  L 747.936243 185.678097  L 748.452265 185.123775  L 748.968288 184.073055  L 749.48431 183.731641  L 750.000332 183.256859  L 750.516354 184.441111  L 751.032376 186.188862  L 752.06442 193.229995  L 753.096464 204.831325  L 755.160553 234.605056  L 755.676575 243.763346  L 756.192597 256.105932  L 756.708619 271.459148  L 757.224641 278.106978  L 757.740663 258.835084  L 758.256685 221.937658  L 759.288729 193.375304  L 759.804751 181.950231  L 760.836795 167.400205  L 761.86884 160.000771  L 762.900884 157.58749  L 763.416906 157.63129  L 763.932928 157.438595  L 764.44895 159.155311  L 764.964972 163.485885  L 765.480994 171.343534  L 765.997016 182.299462  L 767.545083 223.18672  L 768.577127 284.035587  L 769.093149 266.901093  L 769.609171 263.237725  L 770.125193 267.858853  L 770.641215 271.110823  L 771.157237 266.513537  L 772.189281 256.332564  L 773.737348 244.352804  L 774.25337 237.676564  L 775.285414 216.814646  L 777.865524 148.853569  L 778.381546 129.538959  L 779.41359 116.621303  L 780.445635 109.577491  L 781.477679 106.645545  L 781.993701 107.160045  L 782.509723 109.517803  L 783.025745 116.503913  L 784.573811 181.558691  L 785.089833 195.796598  L 786.6379 272.167799  L 787.153922 271.920757  L 787.669944 247.286778  L 788.701988 181.159977  L 789.21801 163.691334  L 789.734032 150.583142  L 790.250054 141.286131  L 790.766076 137.164531  L 791.282098 136.548532  L 792.314143 143.318898  L 794.378231 166.10769  L 794.894253 171.815787  L 795.410275 175.766169  L 795.926297 178.62239  L 796.442319 178.533996  L 796.958341 176.988525  L 797.474363 176.596133  L 797.990385 180.201326  L 800.054474 256.497905  L 801.086518 275.44417  L 802.118562 243.764767  L 803.150606 220.619253  L 804.18265 205.072177  L 805.214695 195.625905  L 806.246739 189.728821  L 807.278783 186.76221  L 808.310827 185.574445  L 808.826849 185.127848  L 809.342871 185.707564  L 809.858893 186.65167  L 810.374915 188.428063  L 810.890937 190.74099  L 811.40696 194.255427  L 811.922982 199.134629  L 812.955026 212.859489  L 815.535136 252.151677  L 816.56718 281.382018  L 817.083202 267.71891  L 818.115247 230.224956  L 818.631269 198.64039  L 819.663313 176.829933  L 820.695357 163.338464  L 821.727401 156.00946  L 822.759445 153.414735  L 823.275467 154.826186  L 823.79149 159.27408  L 824.307512 167.435266  L 825.339556 192.74429  L 828.435688 279.357958  L 828.95171 270.682002  L 829.467732 263.990802  L 830.499777 255.122877  L 831.531821 249.825495  L 832.563865 244.81775  L 833.079887 240.961931  L 833.595909 234.21446  L 834.111931 224.976271  L 837.724086 139.728352  L 838.75613 123.318335  L 839.272152 121.582834  L 839.788174 123.074948  L 840.304196 126.154495  L 841.33624 136.884865  L 841.852262 145.026807  L 842.368285 156.328619  L 842.884307 172.489692  L 843.916351 215.372249  L 845.464417 283.765359  L 847.528505 204.686368  L 848.56055 175.023395  L 849.076572 161.240135  L 849.592594 159.995178  L 850.108616 160.608182  L 852.172704 175.041666  L 852.688726 179.35036  L 854.236792 189.36972  L 854.752815 191.37141  L 855.268837 191.017714  L 855.784859 189.760597  L 856.300881 187.394488  L 856.816903 187.234648  L 857.332925 190.345838  L 857.848947 198.137143  L 858.364969 209.767568  L 858.880991 224.486327  L 859.397013 259.134637  L 859.913035 277.891087  L 860.429057 251.438007  L 860.94508 279.537712  L 861.977124 232.668665  L 863.009168 215.982261  L 864.041212 205.838196  L 865.073256 199.937983  L 866.1053 196.889089  L 867.137345 195.283888  L 867.653367 194.788988  L 868.169389 193.994557  L 868.685411 194.546561  L 869.201433 198.449758  L 869.717455 200.920959  L 870.233477 204.359217  L 870.749499 208.585795  L 872.297565 227.554927  L 874.361654 252.325004  L 874.877676 261.438188  L 875.393698 272.956781  L 875.90972 280.441679  L 878.48983 200.368582  L 879.005852 188.593786  L 879.521874 173.559321  L 880.553919 165.289485  L 881.585963 161.894461  L 882.101985 161.896306  L 882.618007 161.348728  L 883.134029 161.888842  L 883.650051 161.625164  L 884.166073 162.283881  L 884.682095 162.291832  L 885.198117 163.949268  L 885.714139 167.307378  L 886.230162 174.144458  L 886.746184 184.099025  L 887.778228 211.106444  L 888.810272 242.340005  L 889.326294 278.184544  L 889.842316 269.715624  L 891.390382 214.36828  L 892.422427 186.901502  L 893.454471 167.763151  L 893.970493 161.019178  L 894.486515 156.034899  L 895.002537 152.968839  L 895.518559 150.944875  L 896.550603 149.765788  L 897.066625 149.917156  L 897.582647 149.710433  L 898.098669 150.679265  L 898.614692 152.328074  L 899.130714 156.489163  L 899.646736 176.378805  L 901.194802 225.579469  L 902.742868 273.166827  L 903.25889 280.297121  L 904.806957 241.384889  L 905.839001 220.61356  L 906.355023 211.793557  L 907.387067 198.760447  L 908.419111 190.156746  L 909.451155 185.196026  L 909.967177 183.594409  L 910.483199 183.835401  L 910.999222 183.809802  L 911.515244 184.490193  L 912.031266 184.873038  L 912.547288 184.732754  L 913.06331 182.62585  L 913.579332 179.730971  L 914.095354 175.389675  L 914.611376 173.225614  L 915.127398 175.077524  L 915.64342 182.603178  L 916.159442 193.988634  L 918.739553 261.133198  L 919.771597 280.789247  L 920.287619 275.434579  L 920.803641 271.727208  L 921.319663 269.28534  L 921.835685 267.492863  L 922.867729 264.75683  L 925.963862 259.195633  L 926.479884 258.643528  L 926.995906 258.471962  L 927.511928 258.62691  L 928.02795 258.985989  L 928.543972 258.995075  L 929.059994 259.188492  L 929.576017 259.755688  L 930.092039 261.231478  L 931.124083 263.279811  L 931.640105 264.463862  L 932.672149 266.056465  L 934.220215 267.663138  L 935.252259 268.274683  L 936.800326 268.140971  L 937.316348 267.86047  L 937.83237 267.248491  L 938.864414 266.540152  L 939.380436 266.204133  L 939.896458 265.038815  L 940.928502 263.739769  L 941.444524 263.516977  L 941.960546 263.918611  L 942.476569 264.168037  L 942.992591 265.177556  L 943.508613 267.145518  L 944.024635 269.982572  L 945.056679 277.850535  L 945.572701 282.23616  L 946.088723 282.035805  L 947.636789 271.371461  L 948.152811 268.556225  L 948.668834 266.625772  L 949.184856 266.100544  L 949.700878 264.988279  L 950.2169 261.874334  L 950.732922 261.277923  L 951.764966 258.776208  L 952.280988 256.813448  L 952.79701 255.567138  L 953.829054 254.269071  L 954.345076 253.872354  L 954.861099 254.075399  L 955.377121 253.786367  L 955.893143 254.213261  L 956.409165 254.267622  L 956.925187 253.685639  L 957.441209 252.469465  L 958.473253 251.74297  L 958.989275 251.933853  L 959.505297 253.481954  L 961.569386 269.317132  L 962.60143 275.323165  L 963.117452 277.767143  L 963.633474 279.494582  L 964.149496 280.749312  L 964.665518 281.486365  L 965.18154 264.155051  L 965.697562 213.471131  L 966.213584 148.330265  L 966.729606 159.922523  L 967.245629 185.57936  L 968.277673 271.210224  L 968.793695 280.451338  L 969.309717 282.696971  L 969.825739 283.091235  L 970.341761 279.932207  L 970.857783 280.485733  L 971.373805 282.138147  L 971.889827 283.363446  L 972.405849 281.771791  L 972.921871 281.368368  L 973.437894 283.250127  L 973.953916 281.409033  L 974.98596 275.596076  L 975.501982 274.084485  L 976.018004 251.846283  L 977.050048 254.517673  L 977.56607 278.602092  L 978.082092 281.856709  L 978.598114 284.011597  L 979.114136 281.999752  L 979.630159 280.491462  L 980.146181 279.754013  L 980.662203 278.751741  L 981.178225 278.631558  L 981.694247 278.928237  L 985.822424 284.032068  L 986.854468 279.806707  L 987.37049 281.034682  L 987.886512 283.153574  L 988.402534 283.892375  L 988.918556 283.624842  L 989.9506 280.861105  L 990.982644 283.538204  L 991.498666 283.90022  L 992.530711 268.59076  L 993.046733 280.003544  L 993.562755 276.317107  L 994.078777 275.36245  L 994.594799 275.906762  L 995.110821 277.296896  L 996.142865 283.156931  L 997.174909 281.011027  L 997.690931 283.042331  L 998.206954 283.307863  L 998.722976 281.626369  L 999.238998 281.274527  L 999.75502 280.607131  L 1000.271042 280.718309  L 1000.787064 281.967546  L 1001.819108 281.506451  L 1002.33513 281.23958  L 1002.851152 281.488686  L 1003.883196 284.012803  L 1004.399218 282.197383  L 1004.915241 279.896507  L 1005.431263 276.783889  L 1006.979329 270.15815  L 1007.495351 268.653063  L 1008.011373 267.597958  L 1008.527395 267.379438  L 1009.043417 266.179785  L 1009.559439 263.234298  L 1010.075461 262.196724  L 1010.591483 259.053926  L 1011.623528 255.879736  L 1013.171594 252.646691  L 1014.203638 251.226389  L 1015.235682 250.541151  L 1016.267726 251.511417  L 1016.783748 252.203997  L 1017.299771 252.512965  L 1017.815793 253.539091  L 1018.331815 254.086353  L 1019.363859 257.303526  L 1020.395903 263.400554  L 1020.911925 271.750626  L 1021.427947 277.04365  L 1021.943969 283.499271  L 1022.459991 277.912523  L 1022.976013 270.266084  L 1023.492036 267.107897  L 1024.008058 265.634561  L 1024.52408 265.58225  L 1025.040102 268.049672  L 1025.556124 269.361687  L 1026.072146 268.259053  L 1026.588168 264.360629  L 1027.620212 250.144853  L 1029.684301 217.605136  L 1030.200323 200.872295  L 1030.716345 170.578128  L 1031.232367 130.700534  L 1031.748389 132.559229  L 1032.264411 150.637657  L 1033.296455 207.083833  L 1033.812477 226.723059  L 1034.328499 237.957988  L 1035.360543 250.716492  L 1036.392588 259.756279  L 1036.90861 262.31744  L 1037.424632 263.845885  L 1037.940654 264.936949  L 1038.456676 265.449014  L 1038.972698 265.342659  L 1039.48872 265.468672  L 1040.004742 265.39186  L 1041.036786 265.692621  L 1041.552808 266.075175  L 1042.068831 266.973887  L 1043.100875 269.599416  L 1044.132919 273.830076  L 1045.680985 282.716582  L 1046.197007 282.215782  L 1046.713029 279.081632  L 1047.229051 278.24244  L 1047.745073 279.378877  L 1048.261096 281.29558  L 1048.777118 284.055198  L 1049.809162 278.39331  L 1050.325184 277.297126  L 1050.841206 277.502225  L 1051.357228 277.236357  L 1051.87325 276.137101  L 1052.389272 274.47683  L 1052.905294 273.527936  L 1053.421316 273.554949  L 1053.937338 274.215154  L 1055.485405 276.876251  L 1056.001427 277.59493  L 1056.517449 278.101644  L 1058.065515 278.703173  L 1060.129603 280.193414  L 1060.645626 280.171923  L 1061.67767 278.584292  L 1062.193692 278.03468  L 1063.741758 277.236727  L 1064.25778 276.468724  L 1065.289824 276.338922  L 1065.805846 271.606369  L 1066.321868 221.585061  L 1066.837891 120.16711  L 1067.353913 51.503515  L 1067.869935 35.775902  L 1068.385957 35.181967  L 1069.934023 218.727989  L 1070.450045 251.488202  L 1070.966067 261.053524  L 1071.482089 263.182088  L 1072.514133 243.145243  L 1073.030155 234.443337  L 1073.546178 228.750506  L 1074.0622 226.877681  L 1075.094244 226.698778  L 1076.126288 229.770038  L 1076.64231 233.249498  L 1077.158332 240.065834  L 1078.190376 259.402799  L 1078.706398 266.043247  L 1079.22242 268.139643  L 1079.738443 266.712217  L 1080.770487 262.426356  L 1081.286509 258.463932  L 1081.802531 251.77899  L 1082.318553 248.093955  L 1084.382641 228.796964  L 1084.898663 226.772644  L 1085.414685 226.364471  L 1085.930708 227.822452  L 1086.44673 230.835304  L 1087.478774 238.687203  L 1089.02684 252.580907  L 1090.058884 259.407924  L 1090.574906 261.384225  L 1091.090928 260.975878  L 1091.60695 257.826899  L 1092.122973 256.052964  L 1092.638995 257.356858  L 1093.155017 261.704696  L 1093.671039 273.095088  L 1094.187061 280.196699  L 1094.703083 276.625541  L 1095.219105 282.565989  L 1095.735127 279.203922  L 1096.251149 273.076181  L 1097.283193 263.98326  L 1097.799215 260.33814  L 1098.315238 258.474891  L 1098.83126 257.188414  L 1099.347282 257.574862  L 1099.863304 258.285411  L 1100.379326 260.031932  L 1100.895348 263.117881  L 1101.41137 267.732443  L 1101.927392 277.420512  L 1102.443414 280.899921  L 1102.959436 282.058757  L 1103.475458 281.22163  L 1103.99148 279.374228  L 1105.539547 270.574387  L 1106.055569 269.316056  L 1106.571591 271.543261  L 1107.087613 276.362427  L 1107.603635 283.650215  L 1108.119657 274.536897  L 1111.21579 207.69758  L 1111.731812 202.6567  L 1112.247834 199.147993  L 1112.763856 199.374826  L 1113.279878 201.231319  L 1115.859988 216.972614  L 1116.892033 220.411135  L 1117.408055 221.486101  L 1118.440099 222.146847  L 1118.956121 223.675161  L 1121.020209 226.361665  L 1121.536231 226.851835  L 1122.052253 227.807759  L 1122.568275 228.022798  L 1123.084298 227.512591  L 1123.60032 227.404838  L 1124.116342 227.421145  L 1124.632364 227.843218  L 1125.148386 227.691978  L 1125.664408 225.922751  L 1126.18043 218.627178  L 1127.212474 207.449936  L 1128.244518 203.384934  L 1128.76054 207.80144  L 1129.276563 216.751897  L 1129.792585 228.167766  L 1130.824629 270.727978  L 1131.340651 275.120446  L 1131.856673 266.310933  L 1132.372695 271.382984  L 1134.436783 277.581227  L 1135.468828 281.203259  L 1135.98485 282.295681  L 1137.016894 283.363057  L 1138.048938 283.864525  L 1139.080982 284.042747  L 1142.177115 284.072876  L 1227.83678 284.072876  L 1227.83678 284.072876  "
           clip-path="url(#p6279fff3ee)"
           style="fill: none; stroke: #4c72b0; stroke-width: 2; stroke-linecap: round"
           id="path81" />
      </g>
      <g
         id="patch_6">
        <path
           d="M 686.555417 296.517422  L 686.555417 22.737422  "
           style="fill: none; stroke: #cccccc; stroke-width: 1.25; stroke-linejoin: miter; stroke-linecap: square"
           id="path82" />
      </g>
      <g
         id="patch_7">
        <path
           d="M 686.555417 296.517422  L 1253.612083 296.517422  "
           style="fill: none; stroke: #cccccc; stroke-width: 1.25; stroke-linejoin: miter; stroke-linecap: square"
           id="path83" />
      </g>
    </g>
    <g
       id="axes_3">
      <g
         id="matplotlib.axis_5">
        <g
           id="xtick_13">
          <g
             id="line2d_26">
            <path
               d="M 1325.719479 296.517422  L 1325.719479 22.737422  "
               clip-path="url(#p464cb05e58)"
               style="fill: none; stroke: #cccccc; stroke-linecap: round"
               id="path85" />
          </g>
          <g
             id="text_29">
            <!-- 0 -->
            <g
               style="fill: #262626"
               transform="translate(1320.470416 318.554844) scale(0.165 -0.165)"
               id="g85">
              <use
                 xlink:href="#DejaVuSans-30"
                 id="use85" />
            </g>
          </g>
        </g>
        <g
           id="xtick_14">
          <g
             id="line2d_27">
            <path
               d="M 1423.911109 296.517422  L 1423.911109 22.737422  "
               clip-path="url(#p464cb05e58)"
               style="fill: none; stroke: #cccccc; stroke-linecap: round"
               id="path86" />
          </g>
          <g
             id="text_30">
            <!-- 200 -->
            <g
               style="fill: #262626"
               transform="translate(1408.163922 318.554844) scale(0.165 -0.165)"
               id="g88">
              <use
                 xlink:href="#DejaVuSans-32"
                 id="use86" />
              <use
                 xlink:href="#DejaVuSans-30"
                 x="63.623047"
                 id="use87" />
              <use
                 xlink:href="#DejaVuSans-30"
                 x="127.246094"
                 id="use88" />
            </g>
          </g>
        </g>
        <g
           id="xtick_15">
          <g
             id="line2d_28">
            <path
               d="M 1522.10274 296.517422  L 1522.10274 22.737422  "
               clip-path="url(#p464cb05e58)"
               style="fill: none; stroke: #cccccc; stroke-linecap: round"
               id="path88" />
          </g>
          <g
             id="text_31">
            <!-- 400 -->
            <g
               style="fill: #262626"
               transform="translate(1506.355552 318.554844) scale(0.165 -0.165)"
               id="g91">
              <use
                 xlink:href="#DejaVuSans-34"
                 id="use89" />
              <use
                 xlink:href="#DejaVuSans-30"
                 x="63.623047"
                 id="use90" />
              <use
                 xlink:href="#DejaVuSans-30"
                 x="127.246094"
                 id="use91" />
            </g>
          </g>
        </g>
        <g
           id="xtick_16">
          <g
             id="line2d_29">
            <path
               d="M 1620.29437 296.517422  L 1620.29437 22.737422  "
               clip-path="url(#p464cb05e58)"
               style="fill: none; stroke: #cccccc; stroke-linecap: round"
               id="path91" />
          </g>
          <g
             id="text_32">
            <!-- 600 -->
            <g
               style="fill: #262626"
               transform="translate(1604.547183 318.554844) scale(0.165 -0.165)"
               id="g94">
              <use
                 xlink:href="#DejaVuSans-36"
                 id="use92" />
              <use
                 xlink:href="#DejaVuSans-30"
                 x="63.623047"
                 id="use93" />
              <use
                 xlink:href="#DejaVuSans-30"
                 x="127.246094"
                 id="use94" />
            </g>
          </g>
        </g>
        <g
           id="xtick_17">
          <g
             id="line2d_30">
            <path
               d="M 1718.486001 296.517422  L 1718.486001 22.737422  "
               clip-path="url(#p464cb05e58)"
               style="fill: none; stroke: #cccccc; stroke-linecap: round"
               id="path94" />
          </g>
          <g
             id="text_33">
            <!-- 800 -->
            <g
               style="fill: #262626"
               transform="translate(1702.738814 318.554844) scale(0.165 -0.165)"
               id="g97">
              <use
                 xlink:href="#DejaVuSans-38"
                 id="use95" />
              <use
                 xlink:href="#DejaVuSans-30"
                 x="63.623047"
                 id="use96" />
              <use
                 xlink:href="#DejaVuSans-30"
                 x="127.246094"
                 id="use97" />
            </g>
          </g>
        </g>
        <g
           id="xtick_18">
          <g
             id="line2d_31">
            <path
               d="M 1816.677632 296.517422  L 1816.677632 22.737422  "
               clip-path="url(#p464cb05e58)"
               style="fill: none; stroke: #cccccc; stroke-linecap: round"
               id="path97" />
          </g>
          <g
             id="text_34">
            <!-- 1000 -->
            <g
               style="fill: #262626"
               transform="translate(1795.681382 318.554844) scale(0.165 -0.165)"
               id="g101">
              <use
                 xlink:href="#DejaVuSans-31"
                 id="use98" />
              <use
                 xlink:href="#DejaVuSans-30"
                 x="63.623047"
                 id="use99" />
              <use
                 xlink:href="#DejaVuSans-30"
                 x="127.246094"
                 id="use100" />
              <use
                 xlink:href="#DejaVuSans-30"
                 x="190.869141"
                 id="use101" />
            </g>
          </g>
        </g>
        <g
           id="text_35">
          <!-- time -->
          <g
             style="fill: #262626"
             transform="translate(1587.687448 339.663516) scale(0.18 -0.18)"
             id="g105">
            <use
               xlink:href="#DejaVuSans-74"
               id="use102" />
            <use
               xlink:href="#DejaVuSans-69"
               x="39.208984"
               id="use103" />
            <use
               xlink:href="#DejaVuSans-6d"
               x="66.992188"
               id="use104" />
            <use
               xlink:href="#DejaVuSans-65"
               x="164.404297"
               id="use105" />
          </g>
        </g>
      </g>
      <g
         id="matplotlib.axis_6">
        <g
           id="ytick_12">
          <g
             id="line2d_32">
            <path
               d="M 1324.492083 284.072876  L 1891.54875 284.072876  "
               clip-path="url(#p464cb05e58)"
               style="fill: none; stroke: #cccccc; stroke-linecap: round"
               id="path105" />
          </g>
          <g
             id="text_36">
            <!-- 0 -->
            <g
               style="fill: #262626"
               transform="translate(1304.493958 290.341587) scale(0.165 -0.165)"
               id="g106">
              <use
                 xlink:href="#DejaVuSans-30"
                 id="use106" />
            </g>
          </g>
        </g>
        <g
           id="ytick_13">
          <g
             id="line2d_33">
            <path
               d="M 1324.492083 247.817625  L 1891.54875 247.817625  "
               clip-path="url(#p464cb05e58)"
               style="fill: none; stroke: #cccccc; stroke-linecap: round"
               id="path106" />
          </g>
          <g
             id="text_37">
            <!-- 1 -->
            <g
               style="fill: #262626"
               transform="translate(1304.493958 254.086336) scale(0.165 -0.165)"
               id="g107">
              <use
                 xlink:href="#DejaVuSans-31"
                 id="use107" />
            </g>
          </g>
        </g>
        <g
           id="ytick_14">
          <g
             id="line2d_34">
            <path
               d="M 1324.492083 211.562374  L 1891.54875 211.562374  "
               clip-path="url(#p464cb05e58)"
               style="fill: none; stroke: #cccccc; stroke-linecap: round"
               id="path107" />
          </g>
          <g
             id="text_38">
            <!-- 2 -->
            <g
               style="fill: #262626"
               transform="translate(1304.493958 217.831085) scale(0.165 -0.165)"
               id="g108">
              <use
                 xlink:href="#DejaVuSans-32"
                 id="use108" />
            </g>
          </g>
        </g>
        <g
           id="ytick_15">
          <g
             id="line2d_35">
            <path
               d="M 1324.492083 175.307123  L 1891.54875 175.307123  "
               clip-path="url(#p464cb05e58)"
               style="fill: none; stroke: #cccccc; stroke-linecap: round"
               id="path108" />
          </g>
          <g
             id="text_39">
            <!-- 3 -->
            <g
               style="fill: #262626"
               transform="translate(1304.493958 181.575833) scale(0.165 -0.165)"
               id="g109">
              <use
                 xlink:href="#DejaVuSans-33"
                 id="use109" />
            </g>
          </g>
        </g>
        <g
           id="ytick_16">
          <g
             id="line2d_36">
            <path
               d="M 1324.492083 139.051871  L 1891.54875 139.051871  "
               clip-path="url(#p464cb05e58)"
               style="fill: none; stroke: #cccccc; stroke-linecap: round"
               id="path109" />
          </g>
          <g
             id="text_40">
            <!-- 4 -->
            <g
               style="fill: #262626"
               transform="translate(1304.493958 145.320582) scale(0.165 -0.165)"
               id="g110">
              <use
                 xlink:href="#DejaVuSans-34"
                 id="use110" />
            </g>
          </g>
        </g>
        <g
           id="ytick_17">
          <g
             id="line2d_37">
            <path
               d="M 1324.492083 102.79662  L 1891.54875 102.79662  "
               clip-path="url(#p464cb05e58)"
               style="fill: none; stroke: #cccccc; stroke-linecap: round"
               id="path110" />
          </g>
          <g
             id="text_41">
            <!-- 5 -->
            <g
               style="fill: #262626"
               transform="translate(1304.493958 109.065331) scale(0.165 -0.165)"
               id="g111">
              <use
                 xlink:href="#DejaVuSans-35"
                 id="use111" />
            </g>
          </g>
        </g>
        <g
           id="ytick_18">
          <g
             id="line2d_38">
            <path
               d="M 1324.492083 66.541369  L 1891.54875 66.541369  "
               clip-path="url(#p464cb05e58)"
               style="fill: none; stroke: #cccccc; stroke-linecap: round"
               id="path111" />
          </g>
          <g
             id="text_42">
            <!-- 6 -->
            <g
               style="fill: #262626"
               transform="translate(1304.493958 72.81008) scale(0.165 -0.165)"
               id="g112">
              <use
                 xlink:href="#DejaVuSans-36"
                 id="use112" />
            </g>
          </g>
        </g>
        <g
           id="ytick_19">
          <g
             id="line2d_39">
            <path
               d="M 1324.492083 30.286117  L 1891.54875 30.286117  "
               clip-path="url(#p464cb05e58)"
               style="fill: none; stroke: #cccccc; stroke-linecap: round"
               id="path112" />
          </g>
          <g
             id="text_43">
            <!-- 7 -->
            <g
               style="fill: #262626"
               transform="translate(1304.493958 36.554828) scale(0.165 -0.165)"
               id="g113">
              <defs
                 id="defs112">
                <path
                   id="DejaVuSans-37"
                   d="M 525 4666  L 3525 4666  L 3525 4397  L 1831 0  L 1172 0  L 2766 4134  L 525 4134  L 525 4666  z "
                   transform="scale(0.015625)" />
              </defs>
              <use
                 xlink:href="#DejaVuSans-37"
                 id="use113" />
            </g>
          </g>
        </g>
        <g
           id="text_44">
          <!-- 1e3 -->
          <g
             style="fill: #262626"
             transform="translate(1324.492083 19.737422) scale(0.165 -0.165)"
             id="g116">
            <use
               xlink:href="#DejaVuSans-31"
               id="use114" />
            <use
               xlink:href="#DejaVuSans-65"
               x="63.623047"
               id="use115" />
            <use
               xlink:href="#DejaVuSans-33"
               x="125.146484"
               id="use116" />
          </g>
        </g>
      </g>
      <g
         id="PolyCollection_3" />
      <g
         id="line2d_40">
        <path
           d="M 1350.267386 281.083434  L 1350.783408 280.924305  L 1351.299431 281.36772  L 1351.815453 278.015835  L 1352.331475 266.265134  L 1352.847497 240.127361  L 1353.363519 227.927747  L 1353.879541 237.743809  L 1354.395563 264.484762  L 1354.911585 282.170727  L 1355.427607 282.048828  L 1355.943629 281.734283  L 1356.459651 281.601973  L 1358.007718 281.684618  L 1358.52374 281.90645  L 1359.039762 282.378222  L 1359.555784 282.660821  L 1360.071806 283.099314  L 1360.587828 283.137863  L 1361.10385 282.901453  L 1362.135894 281.748114  L 1363.683961 278.87456  L 1364.716005 276.190712  L 1365.232027 275.350604  L 1365.748049 276.074249  L 1366.264071 277.257555  L 1367.296115 280.094964  L 1367.812137 281.226999  L 1368.328159 281.935442  L 1368.844181 282.00688  L 1369.360203 281.771131  L 1370.392248 280.157115  L 1371.424292 279.142685  L 1371.940314 279.075192  L 1372.456336 278.830995  L 1374.004402 278.884205  L 1374.520424 279.017647  L 1376.06849 280.305636  L 1376.584513 280.354908  L 1377.100535 280.055045  L 1377.616557 279.284416  L 1378.132579 277.506917  L 1378.648601 274.524004  L 1379.164623 269.831985  L 1380.196667 256.9833  L 1383.808822 206.302695  L 1384.840866 196.270023  L 1385.356888 192.307799  L 1385.87291 186.560728  L 1386.904954 182.950602  L 1387.936998 181.143031  L 1388.45302 181.316589  L 1388.969043 181.90187  L 1389.485065 183.680501  L 1390.001087 186.145357  L 1390.517109 189.881016  L 1391.549153 199.942028  L 1393.097219 217.861087  L 1393.613241 225.805415  L 1394.129263 236.734162  L 1394.645285 250.616498  L 1395.67733 282.639005  L 1396.193352 247.626054  L 1397.225396 220.09676  L 1397.741418 209.585612  L 1398.773462 194.898876  L 1399.289484 190.45771  L 1399.805506 187.287749  L 1400.321528 185.296114  L 1400.83755 183.953004  L 1401.353573 183.315366  L 1401.869595 183.205926  L 1402.385617 184.646596  L 1402.901639 187.710774  L 1403.417661 193.364391  L 1403.933683 201.54905  L 1404.965727 222.869974  L 1405.481749 234.468657  L 1405.997771 256.25756  L 1407.029815 276.605647  L 1407.545838 281.635804  L 1408.577882 267.042129  L 1409.093904 262.000219  L 1411.674014 245.034937  L 1412.190036 240.077432  L 1412.706058 233.871619  L 1413.738103 216.971495  L 1415.802191 174.824799  L 1416.318213 154.974045  L 1417.866279 130.518086  L 1418.898323 116.714196  L 1419.414345 110.095518  L 1420.44639 101.600694  L 1420.962412 101.30432  L 1421.478434 106.878748  L 1421.994456 114.936483  L 1423.0265 140.467374  L 1424.058544 177.062329  L 1425.090588 219.158494  L 1425.60661 242.51058  L 1426.122633 279.286478  L 1427.154677 226.49876  L 1428.186721 191.677595  L 1428.702743 180.607118  L 1429.218765 174.264575  L 1429.734787 171.317206  L 1430.250809 171.355757  L 1430.766831 173.703958  L 1431.798875 182.456403  L 1432.83092 191.337494  L 1433.346942 193.803619  L 1433.862964 194.925222  L 1435.41103 188.202866  L 1435.927052 189.831851  L 1437.475118 228.831997  L 1439.023185 278.714545  L 1439.539207 273.607166  L 1440.571251 246.812063  L 1441.603295 226.80284  L 1442.119317 217.786918  L 1443.667383 198.425095  L 1444.183405 193.318679  L 1444.699427 190.327094  L 1445.21545 188.375327  L 1445.731472 187.358146  L 1446.763516 186.924623  L 1447.279538 187.078674  L 1447.79556 187.482208  L 1448.311582 188.249801  L 1448.827604 189.585188  L 1449.343626 191.611021  L 1449.859648 194.835837  L 1450.37567 199.069892  L 1451.407715 210.525154  L 1452.955781 231.464826  L 1453.471803 240.845795  L 1453.987825 252.972482  L 1455.019869 282.734641  L 1456.051913 247.389687  L 1456.567935 217.584373  L 1457.59998 195.728399  L 1458.116002 188.076865  L 1458.632024 182.391859  L 1459.148046 178.634244  L 1459.664068 176.055527  L 1460.18009 174.578698  L 1460.696112 173.995021  L 1461.212134 175.529118  L 1461.728156 179.426338  L 1462.244178 186.483324  L 1463.276222 208.170364  L 1465.856333 273.077285  L 1466.372355 283.679544  L 1466.888377 268.368934  L 1467.920421 257.843149  L 1468.436443 254.404609  L 1468.952465 251.813019  L 1470.500532 246.760412  L 1471.016554 244.163883  L 1471.532576 240.069745  L 1472.048598 234.574201  L 1473.080642 218.192371  L 1475.660752 168.056607  L 1476.176775 159.46552  L 1476.692797 144.576818  L 1477.208819 138.856791  L 1477.724841 134.869968  L 1478.240863 132.170239  L 1478.756885 131.031985  L 1479.272907 131.521981  L 1479.788929 134.490574  L 1480.304951 140.268581  L 1480.820973 149.864075  L 1481.853017 179.239245  L 1483.917106 256.599419  L 1484.433128 276.94191  L 1484.94915 270.365886  L 1485.981194 230.175057  L 1486.497216 213.069501  L 1487.013238 190.17204  L 1487.52926 184.318046  L 1488.045282 181.800877  L 1488.561305 181.948994  L 1489.077327 183.459139  L 1489.593349 186.357627  L 1491.141415 196.859187  L 1491.657437 199.456192  L 1492.689481 202.421602  L 1493.205503 202.783511  L 1493.721525 202.815136  L 1494.237547 201.929032  L 1494.75357 202.712635  L 1495.269592 205.773054  L 1495.785614 211.771149  L 1496.301636 220.874173  L 1496.817658 232.035448  L 1497.33368 258.55255  L 1497.849702 272.692766  L 1498.365724 281.500498  L 1499.397768 257.781973  L 1500.429812 240.112737  L 1501.461857 227.448538  L 1502.493901 218.273906  L 1503.525945 211.51068  L 1504.557989 205.87945  L 1505.074011 194.80264  L 1506.106055 179.562416  L 1506.622077 180.686221  L 1507.1381 183.795149  L 1507.654122 187.904765  L 1508.170144 198.780073  L 1509.202188 226.332105  L 1509.71821 220.197817  L 1510.234232 210.452004  L 1510.750254 205.733137  L 1511.266276 203.382702  L 1511.782298 207.503026  L 1512.29832 215.304648  L 1512.814342 225.086762  L 1513.330364 238.003468  L 1514.362409 270.260147  L 1514.878431 279.077665  L 1515.910475 244.943211  L 1517.458541 201.275964  L 1517.974563 195.328592  L 1518.490585 190.685669  L 1519.522629 185.847542  L 1520.554674 184.132531  L 1521.070696 184.272793  L 1521.586718 184.097262  L 1522.10274 184.520012  L 1522.618762 184.793651  L 1523.134784 186.395417  L 1523.650806 189.327601  L 1524.166828 194.953618  L 1524.68285 203.033099  L 1525.714894 224.26175  L 1526.746939 248.632527  L 1527.262961 276.144821  L 1527.778983 277.208817  L 1529.327049 233.286927  L 1530.359093 208.627123  L 1531.391137 188.469829  L 1532.423182 173.058154  L 1533.455226 160.943315  L 1534.48727 152.484631  L 1535.519314 146.675401  L 1536.035336 145.369065  L 1536.551358 144.895725  L 1537.06738 146.294348  L 1539.131469 193.91807  L 1541.711579 267.6436  L 1542.227601 282.441858  L 1543.259645 258.699435  L 1544.291689 236.653006  L 1545.323734 220.145682  L 1546.355778 208.005156  L 1546.8718 203.561368  L 1547.387822 200.700511  L 1547.903844 199.403723  L 1548.935888 200.101928  L 1550.483954 202.124761  L 1550.999977 201.097815  L 1551.515999 199.21943  L 1552.032021 196.017783  L 1552.548043 194.820147  L 1553.064065 196.319284  L 1553.580087 201.72586  L 1554.612131 221.451826  L 1556.676219 266.102599  L 1557.708264 282.588195  L 1558.224286 279.086441  L 1558.740308 276.854527  L 1559.25633 275.14504  L 1559.772352 274.040053  L 1560.804396 272.620934  L 1561.83644 271.682084  L 1563.384507 270.576879  L 1563.900529 270.279767  L 1564.932573 270.01517  L 1565.448595 270.101384  L 1566.996661 269.74677  L 1567.512683 268.069256  L 1568.028705 254.357753  L 1568.544727 248.87271  L 1570.092794 237.879441  L 1570.608816 237.263381  L 1571.124838 236.925353  L 1571.64086 238.464315  L 1574.736992 253.973611  L 1575.769036 257.647278  L 1576.285059 259.531676  L 1576.801081 260.491013  L 1577.317103 261.764421  L 1577.833125 261.806269  L 1578.865169 260.516482  L 1579.381191 259.683041  L 1579.897213 259.48338  L 1580.413235 259.850015  L 1580.929257 260.660107  L 1581.445279 262.17171  L 1581.961301 264.510467  L 1582.993346 270.539916  L 1584.541412 281.256252  L 1585.057434 283.597197  L 1586.089478 277.905855  L 1587.121522 273.883168  L 1587.637544 272.281692  L 1588.153566 269.378739  L 1589.185611 266.382864  L 1591.765721 258.146123  L 1592.281743 257.194221  L 1594.345831 255.033647  L 1594.861854 254.919884  L 1596.40992 254.173308  L 1596.925942 254.893481  L 1597.441964 256.353667  L 1598.474008 265.224417  L 1600.022074 275.262709  L 1601.054119 280.388116  L 1601.570141 282.292633  L 1602.086163 283.613637  L 1602.602185 283.525718  L 1603.118207 282.860033  L 1603.634229 282.506075  L 1604.150251 282.370534  L 1605.182295 282.496775  L 1606.214339 282.951992  L 1606.730361 282.76444  L 1608.278428 279.985947  L 1608.79445 280.661098  L 1609.826494 283.596989  L 1610.858538 283.644145  L 1611.37456 283.186153  L 1613.438649 273.081199  L 1613.954671 275.150615  L 1614.470693 275.417538  L 1614.986715 276.046527  L 1615.502737 274.943989  L 1617.566825 282.579799  L 1618.082847 283.839592  L 1618.598869 282.247648  L 1619.630914 280.898408  L 1620.146936 280.387478  L 1620.662958 280.112041  L 1621.17898 279.984016  L 1622.211024 280.217535  L 1623.243068 280.638564  L 1624.275112 282.305636  L 1624.791134 283.075439  L 1625.307156 282.958097  L 1625.823179 282.568202  L 1626.339201 282.516706  L 1626.855223 282.77589  L 1627.887267 283.947805  L 1628.919311 283.055956  L 1629.435333 282.78373  L 1629.951355 281.980677  L 1630.467377 283.924122  L 1630.983399 281.928463  L 1631.499421 281.25187  L 1632.015444 281.371691  L 1632.531466 281.939729  L 1633.047488 282.857401  L 1633.56351 283.530444  L 1634.079532 281.144795  L 1634.595554 279.317398  L 1635.111576 278.212818  L 1636.14362 277.757851  L 1636.659642 277.910616  L 1637.691686 278.670288  L 1638.207709 278.330752  L 1638.723731 277.265269  L 1639.239753 277.310038  L 1640.271797 276.921749  L 1640.787819 276.262749  L 1641.303841 275.199378  L 1642.335885 271.565654  L 1643.367929 266.955857  L 1644.399973 262.271703  L 1644.915996 260.144621  L 1645.432018 258.671517  L 1645.94804 257.634378  L 1646.464062 256.871549  L 1647.496106 254.853938  L 1648.52815 254.087524  L 1651.624283 254.184676  L 1654.204393 252.995919  L 1656.268481 252.167765  L 1657.300526 252.715428  L 1657.816548 253.200217  L 1658.33257 254.012597  L 1659.364614 262.169647  L 1660.91268 279.243986  L 1661.428702 282.08544  L 1661.944724 282.610186  L 1662.460746 280.582553  L 1662.976768 279.464185  L 1664.008813 275.287383  L 1664.524835 271.8496  L 1666.072901 257.359001  L 1667.620967 240.673981  L 1668.136989 231.396845  L 1668.653011 217.902765  L 1669.169033 196.617768  L 1669.685056 198.242179  L 1670.201078 202.059593  L 1671.749144 229.589247  L 1673.29721 257.987952  L 1673.813232 264.471541  L 1674.329254 269.335677  L 1674.845276 271.685191  L 1675.361298 273.174923  L 1676.393343 274.276649  L 1677.425387 274.713151  L 1680.005497 274.901839  L 1681.037541 275.244371  L 1681.553563 275.695329  L 1682.069586 276.567195  L 1683.10163 279.311202  L 1684.133674 283.601326  L 1685.165718 281.124659  L 1685.68174 281.148947  L 1686.197762 281.89299  L 1686.713784 283.740318  L 1688.261851 280.118297  L 1688.777873 279.997293  L 1689.293895 279.554844  L 1689.809917 278.908966  L 1690.841961 277.024954  L 1691.357983 276.972405  L 1691.874005 277.538708  L 1693.938093 280.686544  L 1694.970138 281.272217  L 1696.002182 281.523786  L 1697.550248 282.560426  L 1698.06627 282.854625  L 1698.582292 282.850731  L 1699.614336 281.965688  L 1700.130358 281.766134  L 1701.678425 281.507684  L 1702.194447 281.288616  L 1703.226491 281.350797  L 1703.742513 276.631733  L 1704.258535 240.586215  L 1705.290579 85.186365  L 1705.806601 40.64417  L 1706.322623 35.181967  L 1706.838646 65.669476  L 1707.87069 189.302439  L 1708.386712 220.674031  L 1709.418756 260.629381  L 1710.4508 266.588944  L 1710.966822 266.489036  L 1711.482844 266.095447  L 1713.03091 263.906055  L 1713.546933 264.091519  L 1714.062955 265.114622  L 1715.094999 269.702969  L 1716.127043 275.726688  L 1716.643065 277.867282  L 1717.159087 278.758176  L 1717.675109 278.604848  L 1718.191131 277.748273  L 1718.707153 277.371163  L 1719.223175 275.379107  L 1720.25522 266.450625  L 1721.287264 257.680809  L 1721.803286 254.107228  L 1722.319308 252.106949  L 1722.83533 250.772066  L 1723.351352 250.983133  L 1723.867374 252.804001  L 1724.899418 259.143022  L 1726.963507 271.354346  L 1727.479529 272.524441  L 1727.995551 273.227554  L 1728.511573 273.479836  L 1729.027595 273.175671  L 1729.543617 272.63691  L 1730.059639 272.598809  L 1730.575661 273.518588  L 1731.091683 276.505434  L 1731.607705 283.293193  L 1732.63975 266.050968  L 1733.155772 254.868517  L 1733.671794 249.973594  L 1734.187816 247.600205  L 1734.703838 249.713025  L 1735.735882 260.656803  L 1736.767926 274.118907  L 1737.283948 279.347237  L 1737.79997 283.177898  L 1738.315993 280.516517  L 1738.832015 278.646296  L 1739.348037 277.858235  L 1739.864059 279.319748  L 1740.380081 280.366318  L 1740.896103 281.063282  L 1741.412125 281.31988  L 1741.928147 281.352607  L 1742.960191 280.419801  L 1743.476213 279.916972  L 1743.992235 279.884575  L 1744.508258 281.318908  L 1745.02428 283.618254  L 1745.540302 278.596875  L 1746.056324 271.130466  L 1747.088368 235.499171  L 1748.120412 205.203367  L 1749.152456 195.723698  L 1749.668478 194.548374  L 1750.1845 194.48227  L 1750.700523 196.747653  L 1751.216545 197.084486  L 1752.248589 204.027324  L 1753.796655 213.770038  L 1754.312677 215.627197  L 1754.828699 218.070616  L 1755.860743 220.035136  L 1756.376765 220.639496  L 1756.892788 221.789532  L 1757.924832 222.718563  L 1758.440854 222.907851  L 1758.956876 223.731251  L 1759.472898 224.145822  L 1759.98892 224.886798  L 1760.504942 225.169063  L 1761.020964 224.910196  L 1761.536986 225.115494  L 1762.053008 224.947267  L 1762.56903 225.362185  L 1763.085053 225.129154  L 1763.601075 224.451272  L 1764.117097 221.463229  L 1764.633119 217.719171  L 1765.149141 215.035377  L 1765.665163 213.223289  L 1766.181185 212.678794  L 1766.697207 215.16464  L 1767.213229 220.169446  L 1767.729251 228.36685  L 1768.245273 239.053699  L 1769.79334 280.095089  L 1770.309362 280.968654  L 1770.825384 282.220429  L 1771.341406 283.171611  L 1771.857428 283.415734  L 1772.37345 283.521431  L 1773.405494 282.377575  L 1774.437538 281.88758  L 1775.469582 281.918293  L 1776.501627 281.580492  L 1777.533671 281.555424  L 1782.17787 282.028242  L 1783.725936 282.171507  L 1787.33809 282.496478  L 1789.402179 282.623419  L 1791.466267 282.838452  L 1795.594444 283.168446  L 1800.238642 283.458755  L 1805.914885 283.730831  L 1807.978974 283.793915  L 1820.363504 283.978875  L 1829.135879 284.037919  L 1857.517094 284.072876  L 1865.773447 284.072876  L 1865.773447 284.072876  "
           clip-path="url(#p464cb05e58)"
           style="fill: none; stroke: #4c72b0; stroke-width: 2; stroke-linecap: round"
           id="path116" />
      </g>
      <g
         id="patch_9">
        <path
           d="M 1324.492083 296.517422  L 1324.492083 22.737422  "
           style="fill: none; stroke: #cccccc; stroke-width: 1.25; stroke-linejoin: miter; stroke-linecap: square"
           id="path117" />
      </g>
      <g
         id="patch_10">
        <path
           d="M 1324.492083 296.517422  L 1891.54875 296.517422  "
           style="fill: none; stroke: #cccccc; stroke-width: 1.25; stroke-linejoin: miter; stroke-linecap: square"
           id="path118" />
      </g>
    </g>
  </g>
  <defs
     id="defs120">
    <clipPath
       id="p624b508041">
      <rect
         x="48.61875"
         y="22.737422"
         width="567.056667"
         height="273.78"
         id="rect118" />
    </clipPath>
    <clipPath
       id="p6279fff3ee">
      <rect
         x="686.555417"
         y="22.737422"
         width="567.056667"
         height="273.78"
         id="rect119" />
    </clipPath>
    <clipPath
       id="p464cb05e58">
      <rect
         x="1324.492083"
         y="22.737422"
         width="567.056667"
         height="273.78"
         id="rect120" />
    </clipPath>
  </defs>
</svg>
