<?xml version="1.0" encoding="UTF-8" standalone="no"?>
<!-- Created with Inkscape (http://www.inkscape.org/) -->

<svg
   width="300.00787mm"
   height="123.37331mm"
   viewBox="0 0 300.00787 123.37331"
   version="1.1"
   id="svg1"
   inkscape:version="1.3.2 (091e20ef0f, 2023-11-25, custom)"
   sodipodi:docname="macro-program-requirements.svg"
   xmlns:inkscape="http://www.inkscape.org/namespaces/inkscape"
   xmlns:sodipodi="http://sodipodi.sourceforge.net/DTD/sodipodi-0.dtd"
   xmlns="http://www.w3.org/2000/svg"
   xmlns:svg="http://www.w3.org/2000/svg">
  <sodipodi:namedview
     id="namedview1"
     pagecolor="#ffffff"
     bordercolor="#999999"
     borderopacity="1"
     inkscape:showpageshadow="2"
     inkscape:pageopacity="0"
     inkscape:pagecheckerboard="0"
     inkscape:deskcolor="#d1d1d1"
     inkscape:document-units="mm"
     inkscape:zoom="1.5297317"
     inkscape:cx="514.14245"
     inkscape:cy="343.85115"
     inkscape:window-width="3840"
     inkscape:window-height="2120"
     inkscape:window-x="3840"
     inkscape:window-y="0"
     inkscape:window-maximized="1"
     inkscape:current-layer="layer1" />
  <defs
     id="defs1">
    <rect
       x="599.49762"
       y="278.47946"
       width="329.92334"
       height="79.655663"
       id="rect36" />
    <rect
       x="597.84186"
       y="298.8168"
       width="191.743"
       height="38.346149"
       id="rect35" />
    <inkscape:path-effect
       effect="spiro"
       id="path-effect6"
       is_visible="true"
       lpeversion="1" />
    <inkscape:path-effect
       effect="spiro"
       id="path-effect5"
       is_visible="true"
       lpeversion="1" />
    <inkscape:path-effect
       effect="spiro"
       id="path-effect4"
       is_visible="true"
       lpeversion="1" />
    <inkscape:path-effect
       effect="fillet_chamfer"
       id="path-effect1"
       is_visible="true"
       lpeversion="1"
       nodesatellites_param="F,0,0,1,0,1.3229167,0,1 @ F,0,0,1,0,1.3229167,0,1 @ F,0,0,1,0,1.3229167,0,1 @ F,0,0,1,0,1.3229167,0,1 @ F,0,0,1,0,1.3229167,0,1 @ F,0,0,1,0,1.3229167,0,1 @ F,0,0,1,0,1.3229167,0,1 @ F,0,0,1,0,1.3229167,0,1"
       radius="5"
       unit="px"
       method="auto"
       mode="F"
       chamfer_steps="1"
       flexible="false"
       use_knot_distance="true"
       apply_no_radius="true"
       apply_with_radius="true"
       only_selected="false"
       hide_knots="false" />
    <rect
       x="599.49762"
       y="278.47946"
       width="329.92334"
       height="79.655663"
       id="rect36-7" />
    <rect
       x="599.49762"
       y="278.47946"
       width="329.92334"
       height="79.655663"
       id="rect36-7-5" />
  </defs>
  <g
     inkscape:label="Layer 1"
     inkscape:groupmode="layer"
     id="layer1"
     transform="translate(34.87175,6.8284142)">
    <rect
       style="opacity:1;fill:#23373b;fill-opacity:0.103679;stroke:#23373b;stroke-width:1;stroke-linecap:round;stroke-linejoin:round;stroke-dasharray:none;stroke-opacity:1"
       id="rect1"
       width="130.55763"
       height="108.75903"
       x="41.87487"
       y="7.2858615"
       rx="4.2271557"
       ry="4.2271557"
       sodipodi:type="rect" />
    <rect
       style="opacity:1;fill:#ed811b;fill-opacity:0.101961;stroke:#23373b;stroke-width:1;stroke-linecap:round;stroke-linejoin:round;stroke-dasharray:none;stroke-opacity:1"
       id="rect2"
       width="120.81861"
       height="19.167007"
       x="46.744381"
       y="91.500702"
       rx="1.190625"
       ry="1.190625" />
    <rect
       style="fill:#ed811b;fill-opacity:0.101961;stroke:#23373b;stroke-width:1;stroke-linecap:round;stroke-linejoin:round;stroke-dasharray:none;stroke-opacity:1"
       id="rect2-5"
       width="82.001915"
       height="19.167007"
       x="46.744381"
       y="12.008644"
       rx="1.190625"
       ry="1.190625" />
    <rect
       style="opacity:1;fill:#ed811b;fill-opacity:0.101961;stroke:#23373b;stroke-width:1;stroke-linecap:round;stroke-linejoin:round;stroke-dasharray:none;stroke-opacity:1"
       id="rect3"
       width="66.112213"
       height="42.565533"
       x="90.538513"
       y="40.055412"
       rx="1.190625"
       ry="1.190625" />
    <path
       style="opacity:1;fill:#ed811b;fill-opacity:0.101961;stroke:#23373b;stroke-width:0.5;stroke-linecap:round;stroke-linejoin:round;stroke-dasharray:none;stroke-opacity:1"
       d="M 66.189391,91.5007 V 31.17565"
       id="path4"
       inkscape:path-effect="#path-effect4"
       inkscape:original-d="m 66.189391,91.5007 c 0,-20.108349 0,-40.216698 0,-60.32505" />
    <path
       style="opacity:1;fill:#ed811b;fill-opacity:0.101961;stroke:#23373b;stroke-width:0.5;stroke-linecap:round;stroke-linejoin:round;stroke-dasharray:none;stroke-opacity:1"
       d="M 123.59462,82.620939 V 91.5007"
       id="path5"
       inkscape:path-effect="#path-effect5"
       inkscape:original-d="m 123.59462,82.620939 c 0,2.95992 0,5.91984 0,8.879761" />
    <path
       style="opacity:1;fill:#ed811b;fill-opacity:0.101961;stroke:#23373b;stroke-width:0.5;stroke-linecap:round;stroke-linejoin:round;stroke-dasharray:none;stroke-opacity:1"
       d="M 113.01678,40.055411 V 31.17565"
       id="path6"
       inkscape:path-effect="#path-effect6"
       inkscape:original-d="m 113.01678,40.055411 c 0,-2.959921 0,-5.919841 0,-8.879761" />
    <path
       sodipodi:type="star"
       style="opacity:1;fill:#23373b;fill-opacity:1;stroke:#23373b;stroke-width:0.499999;stroke-linecap:round;stroke-linejoin:round;stroke-dasharray:none;stroke-opacity:1"
       id="path7"
       inkscape:flatsided="true"
       sodipodi:sides="3"
       sodipodi:cx="66.189392"
       sodipodi:cy="33.239464"
       sodipodi:r1="2.063812"
       sodipodi:r2="1.031906"
       sodipodi:arg1="-1.5707963"
       sodipodi:arg2="-0.52359878"
       inkscape:rounded="0"
       inkscape:randomized="0"
       d="m 66.189392,31.175652 1.787314,3.095718 -3.574628,0 z"
       inkscape:transform-center-y="-0.51595343" />
    <path
       sodipodi:type="star"
       style="fill:#23373b;fill-opacity:1;stroke:#23373b;stroke-width:0.499999;stroke-linecap:round;stroke-linejoin:round;stroke-dasharray:none;stroke-opacity:1"
       id="path7-2"
       inkscape:flatsided="true"
       sodipodi:sides="3"
       sodipodi:cx="66.189392"
       sodipodi:cy="33.239464"
       sodipodi:r1="2.063812"
       sodipodi:r2="1.031906"
       sodipodi:arg1="-1.5707963"
       sodipodi:arg2="-0.52359878"
       inkscape:rounded="0"
       inkscape:randomized="0"
       d="m 66.189392,31.175652 1.787314,3.095718 -3.574628,0 z"
       inkscape:transform-center-y="-0.51595343"
       transform="translate(46.827388)" />
    <path
       sodipodi:type="star"
       style="fill:#23373b;fill-opacity:1;stroke:#23373b;stroke-width:0.499999;stroke-linecap:round;stroke-linejoin:round;stroke-dasharray:none;stroke-opacity:1"
       id="path7-2-0"
       inkscape:flatsided="true"
       sodipodi:sides="3"
       sodipodi:cx="66.189392"
       sodipodi:cy="33.239464"
       sodipodi:r1="2.063812"
       sodipodi:r2="1.031906"
       sodipodi:arg1="-1.5707963"
       sodipodi:arg2="-0.52359878"
       inkscape:rounded="0"
       inkscape:randomized="0"
       d="m 66.189392,31.175652 1.787314,3.095718 -3.574628,0 z"
       inkscape:transform-center-y="-0.51595343"
       transform="translate(57.405228,51.445287)" />
    <g
       inkscape:label=""
       transform="translate(103.67739,97.517884)"
       id="g25">
      <g
         fill="#000000"
         fill-opacity="1"
         id="g3"
         transform="matrix(0.352778,0,0,0.352778,-1.05035,-0.600604)">
        <g
           id="use2"
           transform="translate(1.993,17.139999)">
          <path
             d="m 11.75,-14.5 c 0,-0.390625 0,-0.9375 -0.703125,-0.9375 -0.4375,0 -0.5625,0.265625 -0.65625,0.4375 -0.07813,0.203125 -0.28125,0.65625 -0.359375,0.828125 C 9.015625,-15.0625 7.875,-15.4375 6.84375,-15.4375 c -3.203125,0 -5.859375,3.421875 -5.859375,7.859375 0,4.53125 2.734375,7.875 5.859375,7.875 C 9.734375,0.296875 11.75,-2 11.75,-4.1875 c 0,-0.765625 -0.53125,-0.765625 -0.828125,-0.765625 -0.34375,0 -0.734375,0.125 -0.78125,0.546875 -0.203125,3.09375 -2.703125,3.265625 -3.125,3.265625 -2.3125,0 -4.40625,-2.703125 -4.40625,-6.4375 0,-3.75 2.125,-6.421875 4.375,-6.421875 1.34375,0 2.796875,1.0625 3.15625,3.34375 0.0625,0.546875 0.296875,0.6875 0.78125,0.6875 0.828125,0 0.828125,-0.4375 0.828125,-0.9375 z m 0,0"
             id="path24" />
        </g>
      </g>
      <g
         fill="#000000"
         fill-opacity="1"
         id="g4"
         transform="matrix(0.352778,0,0,0.352778,-1.05035,-0.600604)">
        <g
           id="use3"
           transform="translate(14.748,21.921)">
          <path
             d="m 5.5,-13.203125 c 0,-0.4375 -0.03125,-0.453125 -0.3125,-0.453125 C 4.375,-12.6875 3.15625,-12.375 2,-12.328125 c -0.0625,0 -0.15625,0 -0.1875,0.03125 -0.015625,0.04687 -0.015625,0.09375 -0.015625,0.515625 0.640625,0 1.71875,-0.109375 2.546875,-0.609375 v 10.875 c 0,0.734375 -0.046875,0.984375 -1.828125,0.984375 H 1.90625 V 0 C 2.890625,-0.015625 3.921875,-0.046875 4.921875,-0.046875 5.90625,-0.046875 6.9375,-0.015625 7.9375,0 V -0.53125 H 7.3125 C 5.53125,-0.53125 5.5,-0.765625 5.5,-1.515625 Z m 0,0"
             id="path25" />
        </g>
      </g>
    </g>
    <g
       inkscape:label=""
       transform="translate(119.99981,57.771857)"
       id="g30">
      <g
         fill="#000000"
         fill-opacity="1"
         id="g27"
         transform="matrix(0.352778,0,0,0.352778,-1.05035,-0.600604)">
        <g
           id="g26"
           transform="translate(1.993,17.139999)">
          <path
             d="m 11.75,-14.5 c 0,-0.390625 0,-0.9375 -0.703125,-0.9375 -0.4375,0 -0.5625,0.265625 -0.65625,0.4375 -0.07813,0.203125 -0.28125,0.65625 -0.359375,0.828125 C 9.015625,-15.0625 7.875,-15.4375 6.84375,-15.4375 c -3.203125,0 -5.859375,3.421875 -5.859375,7.859375 0,4.53125 2.734375,7.875 5.859375,7.875 C 9.734375,0.296875 11.75,-2 11.75,-4.1875 c 0,-0.765625 -0.53125,-0.765625 -0.828125,-0.765625 -0.34375,0 -0.734375,0.125 -0.78125,0.546875 -0.203125,3.09375 -2.703125,3.265625 -3.125,3.265625 -2.3125,0 -4.40625,-2.703125 -4.40625,-6.4375 0,-3.75 2.125,-6.421875 4.375,-6.421875 1.34375,0 2.796875,1.0625 3.15625,3.34375 0.0625,0.546875 0.296875,0.6875 0.78125,0.6875 0.828125,0 0.828125,-0.4375 0.828125,-0.9375 z m 0,0"
             id="path26" />
        </g>
      </g>
      <g
         fill="#000000"
         fill-opacity="1"
         id="g29"
         transform="matrix(0.352778,0,0,0.352778,-1.05035,-0.600604)">
        <g
           id="g28"
           transform="translate(14.748,21.921)">
          <path
             d="m 8.609375,-3.203125 h -0.375 c -0.203125,1.46875 -0.359375,1.71875 -0.453125,1.84375 -0.09375,0.15625 -1.578125,0.15625 -1.875,0.15625 H 1.9375 C 2.6875,-2 4.125,-3.46875 5.890625,-5.171875 c 1.25,-1.1875 2.71875,-2.59375 2.71875,-4.640625 0,-2.4375 -1.9375,-3.84375 -4.109375,-3.84375 -2.265625,0 -3.65625,2 -3.65625,3.859375 0,0.8125 0.609375,0.921875 0.84375,0.921875 0.21875,0 0.828125,-0.125 0.828125,-0.859375 0,-0.640625 -0.53125,-0.828125 -0.828125,-0.828125 -0.125,0 -0.234375,0.03125 -0.328125,0.0625 0.390625,-1.75 1.59375,-2.609375 2.859375,-2.609375 1.796875,0 2.96875,1.421875 2.96875,3.296875 0,1.796875 -1.046875,3.34375 -2.234375,4.6875 L 0.84375,-0.46875 V 0 H 8.125 Z m 0,0"
             id="path27" />
        </g>
      </g>
    </g>
    <g
       inkscape:label=""
       transform="translate(84.120211,17.967949)"
       id="g35">
      <g
         fill="#000000"
         fill-opacity="1"
         id="g32"
         transform="matrix(0.352778,0,0,0.352778,-1.05035,-0.600604)">
        <g
           id="g31"
           transform="translate(1.993,17.139999)">
          <path
             d="m 11.75,-14.5 c 0,-0.390625 0,-0.9375 -0.703125,-0.9375 -0.4375,0 -0.5625,0.265625 -0.65625,0.4375 -0.07813,0.203125 -0.28125,0.65625 -0.359375,0.828125 C 9.015625,-15.0625 7.875,-15.4375 6.84375,-15.4375 c -3.203125,0 -5.859375,3.421875 -5.859375,7.859375 0,4.53125 2.734375,7.875 5.859375,7.875 C 9.734375,0.296875 11.75,-2 11.75,-4.1875 c 0,-0.765625 -0.53125,-0.765625 -0.828125,-0.765625 -0.34375,0 -0.734375,0.125 -0.78125,0.546875 -0.203125,3.09375 -2.703125,3.265625 -3.125,3.265625 -2.3125,0 -4.40625,-2.703125 -4.40625,-6.4375 0,-3.75 2.125,-6.421875 4.375,-6.421875 1.34375,0 2.796875,1.0625 3.15625,3.34375 0.0625,0.546875 0.296875,0.6875 0.78125,0.6875 0.828125,0 0.828125,-0.4375 0.828125,-0.9375 z m 0,0"
             id="path30" />
        </g>
      </g>
      <g
         fill="#000000"
         fill-opacity="1"
         id="g34"
         transform="matrix(0.352778,0,0,0.352778,-1.05035,-0.600604)">
        <g
           id="g33"
           transform="translate(14.748,21.921)">
          <path
             d="m 4.5625,-7.015625 c 1.84375,0 2.640625,1.578125 2.640625,3.421875 0,2.484375 -1.3125,3.421875 -2.515625,3.421875 -1.09375,0 -2.875,-0.53125 -3.421875,-2.125 C 1.359375,-2.25 1.46875,-2.25 1.5625,-2.25 c 0.5,0 0.875,-0.328125 0.875,-0.875 0,-0.59375 -0.453125,-0.859375 -0.875,-0.859375 -0.34375,0 -0.875,0.15625 -0.875,0.921875 0,1.90625 1.859375,3.390625 4.046875,3.390625 2.28125,0 4.046875,-1.796875 4.046875,-3.90625 0,-2 -1.65625,-3.4375 -3.609375,-3.671875 1.5625,-0.328125 3.0625,-1.734375 3.0625,-3.609375 0,-1.609375 -1.625,-2.796875 -3.484375,-2.796875 -1.875,0 -3.53125,1.15625 -3.53125,2.8125 0,0.71875 0.53125,0.84375 0.8125,0.84375 0.421875,0 0.796875,-0.265625 0.796875,-0.796875 0,-0.546875 -0.375,-0.8125 -0.796875,-0.8125 -0.09375,0 -0.1875,0 -0.28125,0.04687 0.609375,-1.375 2.234375,-1.609375 2.953125,-1.609375 0.734375,0 2.09375,0.34375 2.09375,2.328125 0,0.578125 -0.078125,1.609375 -0.78125,2.515625 C 5.390625,-7.515625 4.6875,-7.484375 4,-7.421875 3.90625,-7.421875 3.421875,-7.375 3.34375,-7.375 3.203125,-7.359375 3.125,-7.328125 3.125,-7.1875 c 0,0.140625 0.015625,0.171875 0.421875,0.171875 z m 0,0"
             id="path32" />
        </g>
      </g>
    </g>
    <path
       style="opacity:1;fill:none;fill-opacity:1;stroke:#23373b;stroke-width:0.499999;stroke-linecap:round;stroke-linejoin:round;stroke-dasharray:none;stroke-opacity:1"
       d="m 160.87563,102.64098 c 0,0 14.28682,-0.26918 19.99612,-3.565448 5.3466,-3.086863 8.23,-6.595328 13.03704,-8.588667 1.2917,-0.535627 4.10835,-0.848419 4.10835,-0.848419"
       id="path35"
       sodipodi:nodetypes="csac" />
    <path
       style="fill:none;fill-opacity:1;stroke:#23373b;stroke-width:0.499999;stroke-linecap:round;stroke-linejoin:round;stroke-dasharray:none;stroke-opacity:1"
       d="m 152.43638,63.395927 c 0,0 14.28682,-0.26918 19.99612,-3.565444 5.3466,-3.086863 8.23,-6.595328 13.03704,-8.588667 1.2917,-0.535627 4.10835,-0.848419 4.10835,-0.848419"
       id="path35-8"
       sodipodi:nodetypes="csac" />
    <path
       style="fill:none;fill-opacity:1;stroke:#23373b;stroke-width:0.499999;stroke-linecap:round;stroke-linejoin:round;stroke-dasharray:none;stroke-opacity:1"
       d="m 51.179663,21.625892 c 0,0 -14.286819,-0.26918 -19.996119,-3.565444 -5.3466,-3.086863 -8.23,-6.595328 -13.03704,-8.5886679 -1.2917,-0.535627 -4.10835,-0.848419 -4.10835,-0.848419"
       id="path35-8-0"
       sodipodi:nodetypes="csac" />
    <text
       xml:space="preserve"
       transform="matrix(0.26458333,0,0,0.26458333,30.799996,6.144702)"
       id="text36"
       style="font-style:normal;font-variant:normal;font-weight:normal;font-stretch:normal;font-size:29.3333px;font-family:'Fira Sans';-inkscape-font-specification:'Fira Sans, Normal';font-variant-ligatures:normal;font-variant-caps:normal;font-variant-numeric:normal;font-variant-east-asian:normal;text-align:center;white-space:pre;shape-inside:url(#rect36);display:inline;opacity:1;fill:#23373b;fill-opacity:1;stroke:none;stroke-width:1.88976;stroke-linecap:round;stroke-linejoin:round;stroke-dasharray:none;stroke-opacity:1"><tspan
         x="642.21336"
         y="305.00071"
         id="tspan1">Sensors/Actuators
</tspan><tspan
         x="675.63871"
         y="341.66733"
         id="tspan2">requirements</tspan></text>
    <text
       xml:space="preserve"
       transform="matrix(0.26458333,0,0,0.26458333,20.781348,-33.205122)"
       id="text36-4"
       style="font-style:normal;font-variant:normal;font-weight:normal;font-stretch:normal;font-size:29.3333px;font-family:'Fira Sans';-inkscape-font-specification:'Fira Sans, Normal';font-variant-ligatures:normal;font-variant-caps:normal;font-variant-numeric:normal;font-variant-east-asian:normal;text-align:center;white-space:pre;shape-inside:url(#rect36-7);display:inline;fill:#23373b;fill-opacity:1;stroke:none;stroke-width:1.88976;stroke-linecap:round;stroke-linejoin:round;stroke-dasharray:none;stroke-opacity:1"><tspan
         x="645.98275"
         y="305.00071"
         id="tspan3">High computation
</tspan><tspan
         x="675.63871"
         y="341.66733"
         id="tspan4">requirements</tspan></text>
    <text
       xml:space="preserve"
       transform="matrix(0.26458333,0,0,0.26458333,-214.34851,-75.280194)"
       id="text36-4-0"
       style="font-style:normal;font-variant:normal;font-weight:normal;font-stretch:normal;font-size:29.3333px;font-family:'Fira Sans';-inkscape-font-specification:'Fira Sans, Normal';font-variant-ligatures:normal;font-variant-caps:normal;font-variant-numeric:normal;font-variant-east-asian:normal;text-align:center;white-space:pre;shape-inside:url(#rect36-7-5);display:inline;fill:#23373b;fill-opacity:1;stroke:none;stroke-width:1.88976;stroke-linecap:round;stroke-linejoin:round;stroke-dasharray:none;stroke-opacity:1"><tspan
         x="680.84542"
         y="305.00071"
         id="tspan5">Data storage
</tspan><tspan
         x="675.63871"
         y="341.66733"
         id="tspan6">requirements</tspan></text>
    <text
       xml:space="preserve"
       style="font-style:normal;font-variant:normal;font-weight:normal;font-stretch:normal;font-size:9.87778px;font-family:'Fira Sans';-inkscape-font-specification:'Fira Sans, Normal';font-variant-ligatures:normal;font-variant-caps:normal;font-variant-numeric:normal;font-variant-east-asian:normal;text-align:center;text-anchor:middle;opacity:1;fill:#23373b;fill-opacity:1;stroke:none;stroke-width:0.499999;stroke-linecap:round;stroke-linejoin:round;stroke-dasharray:none;stroke-opacity:1"
       x="107.27222"
       y="-0.022623761"
       id="text37"><tspan
         sodipodi:role="line"
         id="tspan36"
         style="font-style:normal;font-variant:normal;font-weight:normal;font-stretch:normal;font-size:9.87778px;font-family:'Fira Sans';-inkscape-font-specification:'Fira Sans, Normal';font-variant-ligatures:normal;font-variant-caps:normal;font-variant-numeric:normal;font-variant-east-asian:normal;stroke-width:0.5"
         x="107.27222"
         y="-0.022623761">Macro-program</tspan></text>
  </g>
</svg>
