<?xml version="1.0" encoding="UTF-8" standalone="no"?>
<!-- Created with Inkscape (http://www.inkscape.org/) -->

<svg
   width="165.07033mm"
   height="163.95641mm"
   viewBox="0 0 165.07033 163.95641"
   version="1.1"
   id="svg1"
   inkscape:version="1.3.2 (091e20ef0f, 2023-11-25, custom)"
   sodipodi:docname="partitioned-macro-program.svg"
   xmlns:inkscape="http://www.inkscape.org/namespaces/inkscape"
   xmlns:sodipodi="http://sodipodi.sourceforge.net/DTD/sodipodi-0.dtd"
   xmlns="http://www.w3.org/2000/svg"
   xmlns:svg="http://www.w3.org/2000/svg">
  <sodipodi:namedview
     id="namedview1"
     pagecolor="#ffffff"
     bordercolor="#000000"
     borderopacity="0.25"
     inkscape:showpageshadow="2"
     inkscape:pageopacity="0.0"
     inkscape:pagecheckerboard="0"
     inkscape:deskcolor="#d1d1d1"
     inkscape:document-units="mm"
     inkscape:zoom="0.82346442"
     inkscape:cx="-219.19587"
     inkscape:cy="287.80843"
     inkscape:window-width="3440"
     inkscape:window-height="1358"
     inkscape:window-x="0"
     inkscape:window-y="0"
     inkscape:window-maximized="1"
     inkscape:current-layer="layer1" />
  <defs
     id="defs1">
    <inkscape:path-effect
       effect="fillet_chamfer"
       id="path-effect23"
       is_visible="true"
       lpeversion="1"
       nodesatellites_param="F,0,0,1,0,3.96875,0,1 @ F,0,0,1,0,3.96875,0,1 @ F,0,0,1,0,3.96875,0,1 @ F,0,0,1,0,3.96875,0,1 @ F,0,0,1,0,3.96875,0,1 @ F,0,0,1,0,3.96875,0,1"
       radius="15"
       unit="px"
       method="auto"
       mode="F"
       chamfer_steps="1"
       flexible="false"
       use_knot_distance="true"
       apply_no_radius="true"
       apply_with_radius="true"
       only_selected="false"
       hide_knots="false" />
    <inkscape:path-effect
       effect="fillet_chamfer"
       id="path-effect2"
       is_visible="true"
       lpeversion="1"
       nodesatellites_param="F,0,0,1,0,3.96875,0,1 @ F,0,0,1,0,3.96875,0,1 @ F,0,0,1,0,3.96875,0,1 @ F,0,0,1,0,3.96875,0,1"
       radius="15"
       unit="px"
       method="auto"
       mode="F"
       chamfer_steps="1"
       flexible="false"
       use_knot_distance="true"
       apply_no_radius="true"
       apply_with_radius="true"
       only_selected="false"
       hide_knots="false" />
    <inkscape:path-effect
       effect="fillet_chamfer"
       id="path-effect1"
       is_visible="true"
       lpeversion="1"
       nodesatellites_param="F,0,0,1,0,3.96875,0,1 @ F,0,0,1,0,3.96875,0,1 @ F,0,0,1,0,3.96875,0,1 @ F,0,0,1,0,3.96875,0,1"
       radius="15"
       unit="px"
       method="auto"
       mode="F"
       chamfer_steps="1"
       flexible="false"
       use_knot_distance="true"
       apply_no_radius="true"
       apply_with_radius="true"
       only_selected="false"
       hide_knots="false" />
    <inkscape:path-effect
       effect="fillet_chamfer"
       id="path-effect2-7"
       is_visible="true"
       lpeversion="1"
       nodesatellites_param="F,0,0,1,0,3.96875,0,1 @ F,0,0,1,0,3.96875,0,1 @ F,0,0,1,0,3.96875,0,1 @ F,0,0,1,0,3.96875,0,1"
       radius="15"
       unit="px"
       method="auto"
       mode="F"
       chamfer_steps="1"
       flexible="false"
       use_knot_distance="true"
       apply_no_radius="true"
       apply_with_radius="true"
       only_selected="false"
       hide_knots="false" />
    <inkscape:path-effect
       effect="fillet_chamfer"
       id="path-effect2-7-2"
       is_visible="true"
       lpeversion="1"
       nodesatellites_param="F,0,0,1,0,3.96875,0,1 @ F,0,0,1,0,3.96875,0,1 @ F,0,0,1,0,3.96875,0,1 @ F,0,0,1,0,3.96875,0,1"
       radius="15"
       unit="px"
       method="auto"
       mode="F"
       chamfer_steps="1"
       flexible="false"
       use_knot_distance="true"
       apply_no_radius="true"
       apply_with_radius="true"
       only_selected="false"
       hide_knots="false" />
    <inkscape:path-effect
       effect="fillet_chamfer"
       id="path-effect2-0"
       is_visible="true"
       lpeversion="1"
       nodesatellites_param="F,0,0,1,0,3.96875,0,1 @ F,0,0,1,0,3.96875,0,1 @ F,0,0,1,0,3.96875,0,1 @ F,0,0,1,0,3.96875,0,1"
       radius="15"
       unit="px"
       method="auto"
       mode="F"
       chamfer_steps="1"
       flexible="false"
       use_knot_distance="true"
       apply_no_radius="true"
       apply_with_radius="true"
       only_selected="false"
       hide_knots="false" />
    <inkscape:path-effect
       effect="fillet_chamfer"
       id="path-effect1-5"
       is_visible="true"
       lpeversion="1"
       nodesatellites_param="F,0,0,1,0,2.6458333,0,1 @ F,0,0,1,0,2.6458333,0,1 @ F,0,0,1,0,2.6458333,0,1 @ F,0,0,1,0,2.6458333,0,1 @ F,0,0,1,0,2.6458333,0,1 @ F,0,0,1,0,2.6458333,0,1"
       radius="10"
       unit="px"
       method="auto"
       mode="F"
       chamfer_steps="1"
       flexible="false"
       use_knot_distance="true"
       apply_no_radius="true"
       apply_with_radius="true"
       only_selected="false"
       hide_knots="false" />
    <inkscape:path-effect
       effect="fillet_chamfer"
       id="path-effect1-5-5"
       is_visible="true"
       lpeversion="1"
       nodesatellites_param="F,0,0,1,0,2.6458333,0,1 @ F,0,0,1,0,2.6458333,0,1 @ F,0,0,1,0,2.6458333,0,1 @ F,0,0,1,0,2.6458333,0,1 @ F,0,0,1,0,2.6458333,0,1 @ F,0,0,1,0,2.6458333,0,1"
       radius="10"
       unit="px"
       method="auto"
       mode="F"
       chamfer_steps="1"
       flexible="false"
       use_knot_distance="true"
       apply_no_radius="true"
       apply_with_radius="true"
       only_selected="false"
       hide_knots="false" />
    <inkscape:path-effect
       effect="fillet_chamfer"
       id="path-effect1-5-5-2"
       is_visible="true"
       lpeversion="1"
       nodesatellites_param="F,0,0,1,0,2.6458333,0,1 @ F,0,0,1,0,2.6458333,0,1 @ F,0,0,1,0,2.6458333,0,1 @ F,0,0,1,0,2.6458333,0,1 @ F,0,0,1,0,2.6458333,0,1 @ F,0,0,1,0,2.6458333,0,1"
       radius="10"
       unit="px"
       method="auto"
       mode="F"
       chamfer_steps="1"
       flexible="false"
       use_knot_distance="true"
       apply_no_radius="true"
       apply_with_radius="true"
       only_selected="false"
       hide_knots="false" />
    <inkscape:path-effect
       effect="fillet_chamfer"
       id="path-effect1-5-5-2-6"
       is_visible="true"
       lpeversion="1"
       nodesatellites_param="F,0,0,1,0,2.6458333,0,1 @ F,0,0,1,0,2.6458333,0,1 @ F,0,0,1,0,2.6458333,0,1 @ F,0,0,1,0,2.6458333,0,1 @ F,0,0,1,0,2.6458333,0,1 @ F,0,0,1,0,2.6458333,0,1"
       radius="10"
       unit="px"
       method="auto"
       mode="F"
       chamfer_steps="1"
       flexible="false"
       use_knot_distance="true"
       apply_no_radius="true"
       apply_with_radius="true"
       only_selected="false"
       hide_knots="false" />
  </defs>
  <g
     inkscape:label="Layer 1"
     inkscape:groupmode="layer"
     id="layer1"
     transform="translate(-43.481722,45.069609)">
    <path
       style="fill:#22373b;fill-opacity:0.1;stroke:#22373b;stroke-width:1;stroke-linecap:round;stroke-dasharray:none;stroke-opacity:1"
       id="rect1"
       width="133.74625"
       height="68.537064"
       x="26.853275"
       y="23.395168"
       inkscape:path-effect="#path-effect1"
       sodipodi:type="rect"
       d="M 30.822025,23.395168 H 156.63077 a 3.96875,3.96875 45 0 1 3.96875,3.96875 v 60.599564 a 3.96875,3.96875 135 0 1 -3.96875,3.96875 H 30.822025 a 3.96875,3.96875 45 0 1 -3.96875,-3.96875 V 27.363918 a 3.96875,3.96875 135 0 1 3.96875,-3.96875 z"
       transform="rotate(90,117.215,53.550709)" />
    <path
       style="fill:none;fill-opacity:0.501961;stroke:#21373b;stroke-width:0.750001;stroke-linecap:round;stroke-dasharray:none;stroke-opacity:1"
       d="m 113.608,95.239533 v 7.549847"
       id="path21"
       sodipodi:nodetypes="cc" />
    <path
       style="fill:none;fill-opacity:0.501961;stroke:#21373b;stroke-width:0.750001;stroke-linecap:round;stroke-dasharray:none;stroke-opacity:1"
       d="m 117.30201,102.78938 h -7.38803"
       id="path22" />
    <path
       style="fill:none;fill-opacity:0.501961;stroke:#21373b;stroke-width:0.75;stroke-linecap:round;stroke-dasharray:none;stroke-opacity:1"
       d="m 113.60803,-5.1936181 c 0,10.824274 16.31838,6.06496969 16.31838,16.8892451"
       id="path17"
       sodipodi:nodetypes="cc" />
    <path
       style="fill:none;fill-opacity:0.501961;stroke:#21373b;stroke-width:0.750001;stroke-linecap:round;stroke-dasharray:none;stroke-opacity:1"
       d="m 113.60803,-3.418016 c 0,10.824274 -16.818354,4.27633559 -16.818354,15.100611"
       id="path18"
       sodipodi:nodetypes="cc" />
    <g
       id="g17"
       transform="rotate(90,117.35155,53.920143)">
      <path
         d="m 34.526058,27.052612 c -2.191878,0 -3.96875,1.776872 -3.96875,3.96875 v 53.284603 c 0,2.191878 1.776872,3.96875 3.96875,3.96875 h 19.742981 c 2.191878,0 3.96875,-1.776872 3.96875,-3.96875 V 59.439266 h -1.775602 v -3.551204 h 1.775602 v -24.8667 c 0,-2.191878 -1.776872,-3.96875 -3.96875,-3.96875 z"
         style="fill:#eb801a;fill-opacity:0.101961;stroke:#eb801a;stroke-linecap:round"
         id="path4" />
      <path
         d="m 56.462187,55.888062 v 3.551204 h 3.551204 v -3.551204 z"
         style="fill:#eb801a;fill-opacity:0.5;stroke:#eb801a;stroke-width:1;stroke-linecap:round;stroke-dasharray:none"
         id="path3" />
    </g>
    <path
       style="fill:none;fill-opacity:0.501961;stroke:#21373b;stroke-width:0.750001;stroke-linecap:round;stroke-dasharray:none;stroke-opacity:1"
       d="m 129.92641,45.910753 c 0,10.04024 -2.02575,3.497016 -2.02575,15.113646"
       id="path19"
       sodipodi:nodetypes="cc" />
    <g
       id="g15"
       transform="rotate(90,117.35155,53.920143)">
      <path
         d="m 83.85483,27.052612 c -2.191878,0 -3.96875,1.776872 -3.96875,3.96875 v 8.548316 h 1.776119 v 3.551204 H 79.88608 v 8.548316 c 0,2.191877 1.776872,3.96875 3.96875,3.96875 h 19.74298 c 2.19188,0 3.96875,-1.776873 3.96875,-3.96875 v -8.548316 h -1.7756 v -3.551204 h 1.7756 v -8.548316 c 0,-2.191878 -1.77687,-3.96875 -3.96875,-3.96875 z"
         style="fill:#eb801a;fill-opacity:0.101961;stroke:#eb801a;stroke-linecap:round"
         id="path7" />
      <path
         d="m 78.110478,39.569678 v 3.551204 h 3.551721 v -3.551204 z"
         style="fill:#eb801a;fill-opacity:0.5;stroke:#eb801a;stroke-width:1;stroke-linecap:round;stroke-dasharray:none"
         id="path6" />
      <path
         d="m 105.79096,39.569678 v 3.551204 h 3.5512 v -3.551204 z"
         style="fill:#eb801a;fill-opacity:0.5;stroke:#eb801a;stroke-width:1;stroke-linecap:round;stroke-dasharray:none"
         id="path5" />
    </g>
    <path
       style="fill:none;fill-opacity:0.501961;stroke:#21373b;stroke-width:0.750001;stroke-linecap:round;stroke-dasharray:none;stroke-opacity:1"
       d="m 96.789676,45.910753 c 0,11.37179 2.02568,4.854796 2.02568,15.113646"
       id="path20"
       sodipodi:nodetypes="cc" />
    <g
       id="g16"
       transform="rotate(90,117.35155,53.920143)">
      <path
         d="m 83.85483,60.189608 c -2.191878,0 -3.96875,1.776872 -3.96875,3.96875 v 8.547798 h 1.776119 v 3.551722 H 79.88608 v 8.548315 c 0,2.191878 1.776872,3.96875 3.96875,3.96875 h 19.74298 c 2.19188,0 3.96875,-1.776872 3.96875,-3.96875 v -8.548315 h -1.7756 v -3.551722 h 1.7756 v -8.547798 c 0,-2.191878 -1.77687,-3.96875 -3.96875,-3.96875 z"
         style="fill:#eb801a;fill-opacity:0.101961;stroke:#eb801a;stroke-linecap:round"
         id="path10" />
      <path
         d="m 78.110478,72.706156 v 3.551722 h 3.551721 v -3.551722 z"
         style="fill:#eb801a;fill-opacity:0.5;stroke:#eb801a;stroke-width:1;stroke-linecap:round;stroke-dasharray:none"
         id="path9" />
      <path
         d="m 105.79096,72.706156 v 3.551722 h 3.5512 v -3.551722 z"
         style="fill:#eb801a;fill-opacity:0.5;stroke:#eb801a;stroke-width:1;stroke-linecap:round;stroke-dasharray:none"
         id="path8" />
    </g>
    <g
       id="g14"
       transform="rotate(90,118.36439,54.932983)">
      <path
         d="m 133.18412,36.518701 c -2.19188,0 -3.96875,1.776872 -3.96875,3.96875 v 3.133659 h 1.7756 v 3.551204 h -1.7756 v 25.533842 h 1.7756 v 3.551722 h -1.7756 v 2.633431 c 0,2.191878 1.77687,3.96875 3.96875,3.96875 h 19.74246 c 2.19188,0 3.96875,-1.776872 3.96875,-3.96875 V 61.464982 h -1.7756 v -3.551204 h 1.7756 V 40.487451 c 0,-2.191878 -1.77687,-3.96875 -3.96875,-3.96875 z"
         style="fill:#eb801a;fill-opacity:0.101961;stroke:#eb801a;stroke-linecap:round"
         id="path14" />
      <path
         d="m 127.43925,43.62111 v 3.551204 h 3.55172 V 43.62111 Z"
         style="fill:#eb801a;fill-opacity:0.5;stroke:#eb801a;stroke-width:1;stroke-linecap:round;stroke-dasharray:none"
         id="path13" />
      <path
         d="m 155.11973,57.913778 v 3.551204 h 3.55121 v -3.551204 z"
         style="fill:#eb801a;fill-opacity:0.5;stroke:#eb801a;stroke-width:1;stroke-linecap:round;stroke-dasharray:none"
         id="path12" />
      <path
         d="m 127.43925,72.706156 v 3.551722 h 3.55172 v -3.551722 z"
         style="fill:#eb801a;fill-opacity:0.5;stroke:#eb801a;stroke-width:1;stroke-linecap:round;stroke-dasharray:none"
         id="path11" />
    </g>
    <circle
       style="fill:#22373b;fill-opacity:1;stroke:none;stroke-width:0.25;stroke-linecap:round;stroke-dasharray:none;stroke-opacity:1"
       id="path24"
       cx="14.179074"
       cy="-132.90027"
       r="0.46961063"
       transform="rotate(90)" />
    <circle
       style="fill:#22373b;fill-opacity:1;stroke:none;stroke-width:0.25;stroke-linecap:round;stroke-dasharray:none;stroke-opacity:1"
       id="path24-4"
       cx="52.09782"
       cy="-95.624428"
       r="0.46961063"
       transform="rotate(90)" />
    <circle
       style="fill:#22373b;fill-opacity:1;stroke:none;stroke-width:0.25;stroke-linecap:round;stroke-dasharray:none;stroke-opacity:1"
       id="path24-4-6"
       cx="104.60026"
       cy="-113.60799"
       r="0.46961063"
       transform="rotate(90)" />
    <path
       style="fill:none;fill-opacity:1;stroke:#22373b;stroke-width:0.25;stroke-linecap:round;stroke-dasharray:none;stroke-opacity:1"
       d="m 75.267823,59.994783 c 7.749899,0 14.669491,-7.89696 20.356609,-7.89696"
       id="path34"
       sodipodi:nodetypes="cc" />
    <g
       inkscape:label=""
       transform="translate(109.85972,-45.069609)"
       id="g36">
      <g
         fill="#000000"
         fill-opacity="1"
         id="g3"
         transform="matrix(0.352778,0,0,0.352778,-0.851914,-0.705335)">
        <g
           id="use2"
           transform="translate(1.993,17.139999)">
          <path
             d="M 7.234375,-9.765625 C 6.90625,-8.75 6.515625,-7.5625 6.375,-6.734375 H 6.34375 c -0.203125,-1.25 -2.359375,-7.734375 -2.40625,-7.84375 -0.265625,-0.5625 -0.765625,-0.5625 -1.1875,-0.5625 H 1.4375 c -0.34375,0 -1.015625,0 -1.015625,0.71875 0,0.71875 0.625,0.71875 1.265625,0.71875 V -1.4375 c -0.640625,0 -1.265625,0 -1.265625,0.71875 C 0.421875,0 1.09375,0 1.4375,0 h 1.890625 c 0.34375,0 1.015625,0 1.015625,-0.71875 0,-0.71875 -0.625,-0.71875 -1.265625,-0.71875 V -13.40625 H 3.09375 c 0.15625,0.765625 0.234375,1.046875 0.53125,1.9375 l 1.75,5.515625 c 0.046875,0.203125 0.28125,0.890625 1,0.890625 0.296875,0 0.71875,-0.1875 0.90625,-0.640625 0.125,-0.375 2.390625,-7.3125 2.390625,-7.65625 V -1.4375 c -0.65625,0 -1.265625,0 -1.265625,0.71875 C 8.40625,0 9.0625,0 9.421875,0 h 1.875 c 0.34375,0 1.015625,0 1.015625,-0.71875 0,-0.71875 -0.609375,-0.71875 -1.265625,-0.71875 v -12.265625 c 0.65625,0 1.265625,0 1.265625,-0.71875 0,-0.71875 -0.671875,-0.71875 -1.015625,-0.71875 h -1.3125 c -0.96875,0 -1.109375,0.296875 -1.3125,0.9375 z m 0,0"
             id="path35" />
        </g>
        <g
           id="use3"
           transform="translate(14.748442,17.139999)">
          <path
             d="M 3.984375,-6.140625 H 7.0625 c 2.875,0 4.609375,-2.28125 4.609375,-4.484375 0,-2.3125 -1.78125,-4.515625 -4.609375,-4.515625 H 1.703125 c -0.34375,0 -1.015625,0 -1.015625,0.71875 0,0.71875 0.671875,0.71875 1.015625,0.71875 H 2.375 V -1.4375 H 1.703125 c -0.34375,0 -1.015625,0 -1.015625,0.71875 C 0.6875,0 1.359375,0 1.703125,0 H 4.65625 C 5,0 5.671875,0 5.671875,-0.71875 5.671875,-1.4375 5,-1.4375 4.65625,-1.4375 H 3.984375 Z m 0,-7.5625 h 2.625 c 2.390625,0 3.453125,1.734375 3.453125,3.046875 0,1.40625 -1.109375,3.078125 -3.453125,3.078125 h -2.625 z m 0,0"
             id="path36" />
        </g>
      </g>
    </g>
    <g
       inkscape:label=""
       transform="translate(110.366,-22.412678)"
       id="g40">
      <g
         fill="#000000"
         fill-opacity="1"
         id="g38"
         transform="matrix(0.352778,0,0,0.352778,-1.05035,-0.600604)">
        <g
           id="g37"
           transform="translate(1.993,17.139999)">
          <path
             d="m 11.75,-14.5 c 0,-0.390625 0,-0.9375 -0.703125,-0.9375 -0.4375,0 -0.5625,0.265625 -0.65625,0.4375 -0.07813,0.203125 -0.28125,0.65625 -0.359375,0.828125 C 9.015625,-15.0625 7.875,-15.4375 6.84375,-15.4375 c -3.203125,0 -5.859375,3.421875 -5.859375,7.859375 0,4.53125 2.734375,7.875 5.859375,7.875 C 9.734375,0.296875 11.75,-2 11.75,-4.1875 c 0,-0.765625 -0.53125,-0.765625 -0.828125,-0.765625 -0.34375,0 -0.734375,0.125 -0.78125,0.546875 -0.203125,3.09375 -2.703125,3.265625 -3.125,3.265625 -2.3125,0 -4.40625,-2.703125 -4.40625,-6.4375 0,-3.75 2.125,-6.421875 4.375,-6.421875 1.34375,0 2.796875,1.0625 3.15625,3.34375 0.0625,0.546875 0.296875,0.6875 0.78125,0.6875 0.828125,0 0.828125,-0.4375 0.828125,-0.9375 z m 0,0"
             id="path37" />
        </g>
      </g>
      <g
         fill="#000000"
         fill-opacity="1"
         id="g4"
         transform="matrix(0.352778,0,0,0.352778,-1.05035,-0.600604)">
        <g
           id="g39"
           transform="translate(14.748,20.858)">
          <path
             d="m 4.578125,-11 c 0,-0.359375 -0.015625,-0.375 -0.25,-0.375 -0.671875,0.796875 -1.6875,1.0625 -2.65625,1.09375 -0.046875,0 -0.140625,0 -0.15625,0.03125 C 1.5,-10.203125 1.5,-10.171875 1.5,-9.8125 c 0.53125,0 1.421875,-0.109375 2.109375,-0.515625 V -1.25 c 0,0.59375 -0.03125,0.796875 -1.515625,0.796875 H 1.578125 V 0 c 0.828125,-0.015625 1.6875,-0.03125 2.515625,-0.03125 0.828125,0 1.6875,0.015625 2.515625,0.03125 V -0.453125 H 6.09375 c -1.484375,0 -1.515625,-0.1875 -1.515625,-0.796875 z m 0,0"
             id="path38" />
        </g>
      </g>
    </g>
    <g
       inkscape:label=""
       transform="translate(127.09517,27.029974)"
       id="g45">
      <g
         fill="#000000"
         fill-opacity="1"
         id="g42"
         transform="matrix(0.352778,0,0,0.352778,-1.05035,-0.600604)">
        <g
           id="g41"
           transform="translate(1.993,17.139999)">
          <path
             d="m 11.75,-14.5 c 0,-0.390625 0,-0.9375 -0.703125,-0.9375 -0.4375,0 -0.5625,0.265625 -0.65625,0.4375 -0.07813,0.203125 -0.28125,0.65625 -0.359375,0.828125 C 9.015625,-15.0625 7.875,-15.4375 6.84375,-15.4375 c -3.203125,0 -5.859375,3.421875 -5.859375,7.859375 0,4.53125 2.734375,7.875 5.859375,7.875 C 9.734375,0.296875 11.75,-2 11.75,-4.1875 c 0,-0.765625 -0.53125,-0.765625 -0.828125,-0.765625 -0.34375,0 -0.734375,0.125 -0.78125,0.546875 -0.203125,3.09375 -2.703125,3.265625 -3.125,3.265625 -2.3125,0 -4.40625,-2.703125 -4.40625,-6.4375 0,-3.75 2.125,-6.421875 4.375,-6.421875 1.34375,0 2.796875,1.0625 3.15625,3.34375 0.0625,0.546875 0.296875,0.6875 0.78125,0.6875 0.828125,0 0.828125,-0.4375 0.828125,-0.9375 z m 0,0"
             id="path40" />
        </g>
      </g>
      <g
         fill="#000000"
         fill-opacity="1"
         id="g44"
         transform="matrix(0.352778,0,0,0.352778,-1.05035,-0.600604)">
        <g
           id="g43"
           transform="translate(14.748,20.858)">
          <path
             d="M 7.1875,-2.671875 H 6.875 c -0.171875,1.21875 -0.3125,1.4375 -0.390625,1.53125 C 6.40625,-1 5.171875,-1 4.921875,-1 H 1.625 c 0.609375,-0.671875 1.8125,-1.890625 3.28125,-3.3125 1.046875,-0.984375 2.28125,-2.15625 2.28125,-3.859375 0,-2.03125 -1.625,-3.203125 -3.4375,-3.203125 -1.890625,0 -3.046875,1.65625 -3.046875,3.21875 0,0.671875 0.5,0.75 0.703125,0.75 0.171875,0 0.6875,-0.09375 0.6875,-0.703125 0,-0.53125 -0.4375,-0.6875 -0.6875,-0.6875 -0.09375,0 -0.203125,0.015625 -0.265625,0.046875 0.328125,-1.453125 1.328125,-2.1875 2.375,-2.1875 1.5,0 2.46875,1.1875 2.46875,2.765625 0,1.484375 -0.875,2.78125 -1.859375,3.90625 l -3.421875,3.875 V 0 h 6.0625 z m 0,0"
             id="path42" />
        </g>
      </g>
    </g>
    <g
       inkscape:label=""
       transform="translate(93.423363,26.866484)"
       id="g50">
      <g
         fill="#000000"
         fill-opacity="1"
         id="g47"
         transform="matrix(0.352778,0,0,0.352778,-1.05035,-0.600604)">
        <g
           id="g46"
           transform="translate(1.993,17.139999)">
          <path
             d="m 11.75,-14.5 c 0,-0.390625 0,-0.9375 -0.703125,-0.9375 -0.4375,0 -0.5625,0.265625 -0.65625,0.4375 -0.07813,0.203125 -0.28125,0.65625 -0.359375,0.828125 C 9.015625,-15.0625 7.875,-15.4375 6.84375,-15.4375 c -3.203125,0 -5.859375,3.421875 -5.859375,7.859375 0,4.53125 2.734375,7.875 5.859375,7.875 C 9.734375,0.296875 11.75,-2 11.75,-4.1875 c 0,-0.765625 -0.53125,-0.765625 -0.828125,-0.765625 -0.34375,0 -0.734375,0.125 -0.78125,0.546875 -0.203125,3.09375 -2.703125,3.265625 -3.125,3.265625 -2.3125,0 -4.40625,-2.703125 -4.40625,-6.4375 0,-3.75 2.125,-6.421875 4.375,-6.421875 1.34375,0 2.796875,1.0625 3.15625,3.34375 0.0625,0.546875 0.296875,0.6875 0.78125,0.6875 0.828125,0 0.828125,-0.4375 0.828125,-0.9375 z m 0,0"
             id="path45" />
        </g>
      </g>
      <g
         fill="#000000"
         fill-opacity="1"
         id="g49"
         transform="matrix(0.352778,0,0,0.352778,-1.05035,-0.600604)">
        <g
           id="g48"
           transform="translate(14.748,20.858)">
          <path
             d="m 3.8125,-5.859375 c 1.53125,0 2.203125,1.328125 2.203125,2.859375 0,2.0625 -1.109375,2.859375 -2.109375,2.859375 C 3,-0.140625 1.515625,-0.578125 1.046875,-1.90625 1.140625,-1.875 1.21875,-1.875 1.3125,-1.875 c 0.40625,0 0.71875,-0.28125 0.71875,-0.71875 0,-0.5 -0.375,-0.734375 -0.71875,-0.734375 -0.296875,0 -0.75,0.140625 -0.75,0.78125 0,1.578125 1.5625,2.828125 3.375,2.828125 1.921875,0 3.375,-1.5 3.375,-3.265625 0,-1.671875 -1.375,-2.875 -3,-3.0625 1.296875,-0.265625 2.5625,-1.4375 2.5625,-3.015625 0,-1.34375 -1.359375,-2.3125 -2.921875,-2.3125 -1.5625,0 -2.9375,0.953125 -2.9375,2.328125 0,0.609375 0.453125,0.71875 0.671875,0.71875 0.359375,0 0.671875,-0.234375 0.671875,-0.671875 0,-0.453125 -0.3125,-0.671875 -0.671875,-0.671875 -0.0625,0 -0.15625,0 -0.21875,0.03125 0.5,-1.140625 1.859375,-1.34375 2.453125,-1.34375 0.609375,0 1.75,0.296875 1.75,1.9375 0,0.484375 -0.078125,1.34375 -0.65625,2.109375 C 4.5,-6.265625 3.90625,-6.234375 3.34375,-6.1875 c -0.09375,0 -0.484375,0.046875 -0.546875,0.046875 -0.125,0.015625 -0.203125,0.03125 -0.203125,0.15625 0,0.109375 0.03125,0.125 0.375,0.125 z m 0,0"
             id="path47" />
        </g>
      </g>
    </g>
    <g
       inkscape:label=""
       transform="translate(110.2006,76.24512)"
       id="g55">
      <g
         fill="#000000"
         fill-opacity="1"
         id="g52"
         transform="matrix(0.352778,0,0,0.352778,-1.05035,-0.600604)">
        <g
           id="g51"
           transform="translate(1.993,17.139999)">
          <path
             d="m 11.75,-14.5 c 0,-0.390625 0,-0.9375 -0.703125,-0.9375 -0.4375,0 -0.5625,0.265625 -0.65625,0.4375 -0.07813,0.203125 -0.28125,0.65625 -0.359375,0.828125 C 9.015625,-15.0625 7.875,-15.4375 6.84375,-15.4375 c -3.203125,0 -5.859375,3.421875 -5.859375,7.859375 0,4.53125 2.734375,7.875 5.859375,7.875 C 9.734375,0.296875 11.75,-2 11.75,-4.1875 c 0,-0.765625 -0.53125,-0.765625 -0.828125,-0.765625 -0.34375,0 -0.734375,0.125 -0.78125,0.546875 -0.203125,3.09375 -2.703125,3.265625 -3.125,3.265625 -2.3125,0 -4.40625,-2.703125 -4.40625,-6.4375 0,-3.75 2.125,-6.421875 4.375,-6.421875 1.34375,0 2.796875,1.0625 3.15625,3.34375 0.0625,0.546875 0.296875,0.6875 0.78125,0.6875 0.828125,0 0.828125,-0.4375 0.828125,-0.9375 z m 0,0"
             id="path50" />
        </g>
      </g>
      <g
         fill="#000000"
         fill-opacity="1"
         id="g54"
         transform="matrix(0.352778,0,0,0.352778,-1.05035,-0.600604)">
        <g
           id="g53"
           transform="translate(14.748,20.858)">
          <path
             d="m 5.78125,-11.140625 c 0,-0.359375 -0.015625,-0.375 -0.328125,-0.375 L 0.34375,-3.375 v 0.453125 h 4.4375 v 1.6875 c 0,0.609375 -0.03125,0.78125 -1.234375,0.78125 H 3.21875 V 0 c 0.546875,-0.03125 1.484375,-0.03125 2.0625,-0.03125 0.59375,0 1.515625,0 2.078125,0.03125 V -0.453125 H 7.03125 c -1.21875,0 -1.25,-0.171875 -1.25,-0.78125 v -1.6875 H 7.546875 V -3.375 H 5.78125 Z M 4.84375,-10 v 6.625 H 0.6875 Z m 0,0"
             id="path52" />
        </g>
      </g>
    </g>
    <path
       style="fill:none;fill-opacity:1;stroke:#22373b;stroke-width:0.25;stroke-linecap:round;stroke-dasharray:none;stroke-opacity:1"
       d="m 113.608,104.60025 c 2.74334,10.2383 5.09205,9.92725 8.59982,9.92725"
       id="path72"
       sodipodi:nodetypes="cc" />
    <path
       style="fill:none;stroke:#22373b;stroke-width:0.75;stroke-linecap:round;stroke-dasharray:none"
       d="M 155.61874,-37.078132 V 93.569616"
       id="path1"
       sodipodi:nodetypes="cc" />
    <path
       sodipodi:type="star"
       style="fill:#22373b;fill-opacity:1;stroke:none;stroke-width:0.748346;stroke-linecap:round;stroke-dasharray:none;stroke-opacity:1"
       id="path23"
       inkscape:flatsided="false"
       sodipodi:sides="3"
       sodipodi:cx="428.8862"
       sodipodi:cy="539.48114"
       sodipodi:r1="22.219374"
       sodipodi:r2="10.943967"
       sodipodi:arg1="1.5707963"
       sodipodi:arg2="2.6179939"
       inkscape:rounded="0"
       inkscape:randomized="0"
       d="m 426.9315,558.24651 -5.56835,-9.83939 a 460.83059,460.83059 59.999998 0 0 -3.9686,-6.87382 l -5.73699,-9.74202 a 2.2460116,2.2460116 120 0 1 1.9547,-3.38565 l 11.30534,0.0974 a 460.83059,460.83059 180 0 0 7.9372,-1e-5 l 11.30534,-0.0974 a 2.2460116,2.2460116 59.999998 0 1 1.9547,3.38564 l -5.73699,9.74203 a 460.83059,460.83059 120 0 0 -3.9686,6.87382 l -5.56835,9.83939 a 2.2460116,2.2460116 180 0 1 -3.9094,0 z"
       transform="matrix(0.13546666,0,0,0.13546666,97.518959,20.709551)"
       inkscape:transform-center-x="2.3039043e-06"
       inkscape:transform-center-y="0.75249254"
       inkscape:path-effect="#path-effect23" />
    <path
       sodipodi:type="star"
       style="fill:#21373a;fill-opacity:1;stroke-width:0.750001;stroke-linejoin:round;stroke-miterlimit:3.5;stroke-dasharray:0.750001, 1.5"
       id="path1-2"
       inkscape:flatsided="false"
       sodipodi:sides="3"
       sodipodi:cx="335.38342"
       sodipodi:cy="213.0182"
       sodipodi:r1="10.913819"
       sodipodi:r2="5.4569097"
       sodipodi:arg1="1.5707963"
       sodipodi:arg2="2.6179939"
       inkscape:rounded="0"
       inkscape:randomized="0"
       d="m 334.06051,221.64066 -2.07999,-3.60264 -4.72583,-8.18537 a 1.5275726,1.5275726 120 0 1 1.32292,-2.29136 l 4.15998,0 9.45164,0 a 1.5275726,1.5275726 59.999998 0 1 1.32292,2.29136 l -2.07999,3.60265 -4.72582,8.18536 a 1.5275726,1.5275726 180 0 1 -2.64583,0 z"
       transform="matrix(0.26458333,0,0,0.26458333,39.163798,4.6633329)"
       inkscape:transform-center-x="1.1179447e-06"
       inkscape:transform-center-y="0.72190296"
       inkscape:path-effect="#path-effect1-5" />
    <path
       sodipodi:type="star"
       style="fill:#21373a;fill-opacity:1;stroke-width:0.750001;stroke-linejoin:round;stroke-miterlimit:3.5;stroke-dasharray:0.750001, 1.5"
       id="path1-2-2"
       inkscape:flatsided="false"
       sodipodi:sides="3"
       sodipodi:cx="335.38342"
       sodipodi:cy="213.0182"
       sodipodi:r1="10.913819"
       sodipodi:r2="5.4569097"
       sodipodi:arg1="1.5707963"
       sodipodi:arg2="2.6179939"
       inkscape:rounded="0"
       inkscape:randomized="0"
       d="m 334.06051,221.64066 -2.07999,-3.60264 -4.72583,-8.18537 a 1.5275726,1.5275726 120 0 1 1.32292,-2.29136 l 4.15998,0 9.45164,0 a 1.5275726,1.5275726 59.999998 0 1 1.32292,2.29136 l -2.07999,3.60265 -4.72582,8.18536 a 1.5275726,1.5275726 180 0 1 -2.64583,0 z"
       transform="matrix(0.26458333,0,0,0.26458333,10.078493,4.6633329)"
       inkscape:transform-center-x="1.1179447e-06"
       inkscape:transform-center-y="0.72190296"
       inkscape:path-effect="#path-effect1-5-5" />
    <path
       sodipodi:type="star"
       style="fill:#21373a;fill-opacity:1;stroke-width:0.750001;stroke-linejoin:round;stroke-miterlimit:3.5;stroke-dasharray:0.750001, 1.5"
       id="path1-2-2-0"
       inkscape:flatsided="false"
       sodipodi:sides="3"
       sodipodi:cx="335.38342"
       sodipodi:cy="213.0182"
       sodipodi:r1="10.913819"
       sodipodi:r2="5.4569097"
       sodipodi:arg1="1.5707963"
       sodipodi:arg2="2.6179939"
       inkscape:rounded="0"
       inkscape:randomized="0"
       d="m 334.06051,221.64066 -2.07999,-3.60264 -4.72583,-8.18537 a 1.5275726,1.5275726 120 0 1 1.32292,-2.29136 l 4.15998,0 9.45164,0 a 1.5275726,1.5275726 59.999998 0 1 1.32292,2.29136 l -2.07999,3.60265 -4.72582,8.18536 a 1.5275726,1.5275726 180 0 1 -2.64583,0 z"
       transform="matrix(0.26458333,0,0,0.26458333,8.0528132,-44.678471)"
       inkscape:transform-center-x="1.1179447e-06"
       inkscape:transform-center-y="0.72190296"
       inkscape:path-effect="#path-effect1-5-5-2" />
    <path
       sodipodi:type="star"
       style="fill:#21373a;fill-opacity:1;stroke-width:0.750001;stroke-linejoin:round;stroke-miterlimit:3.5;stroke-dasharray:0.750001, 1.5"
       id="path1-2-2-0-6"
       inkscape:flatsided="false"
       sodipodi:sides="3"
       sodipodi:cx="335.38342"
       sodipodi:cy="213.0182"
       sodipodi:r1="10.913819"
       sodipodi:r2="5.4569097"
       sodipodi:arg1="1.5707963"
       sodipodi:arg2="2.6179939"
       inkscape:rounded="0"
       inkscape:randomized="0"
       d="m 334.06051,221.64066 -2.07999,-3.60264 -4.72583,-8.18537 a 1.5275726,1.5275726 120 0 1 1.32292,-2.29136 l 4.15998,0 9.45164,0 a 1.5275726,1.5275726 59.999998 0 1 1.32292,2.29136 l -2.07999,3.60265 -4.72582,8.18536 a 1.5275726,1.5275726 180 0 1 -2.64583,0 z"
       transform="matrix(0.26458333,0,0,0.26458333,41.18955,-44.665439)"
       inkscape:transform-center-x="1.1179447e-06"
       inkscape:transform-center-y="0.72190296"
       inkscape:path-effect="#path-effect1-5-5-2-6" />
    <text
       xml:space="preserve"
       style="font-size:8.46667px;font-family:Sans;-inkscape-font-specification:'Sans, Normal';text-align:center;text-anchor:middle;fill:#21373a;stroke-width:0.750001;stroke-linejoin:round;stroke-miterlimit:3.5;stroke-dasharray:0.750001, 1.5"
       x="178.26678"
       y="-31.873596"
       id="text1"><tspan
         sodipodi:role="line"
         id="tspan1"
         style="stroke-width:0.75"
         x="178.26678"
         y="-31.873596">upstream</tspan></text>
    <text
       xml:space="preserve"
       style="font-size:8.46667px;font-family:Sans;-inkscape-font-specification:'Sans, Normal';text-align:center;text-anchor:middle;fill:#21373a;stroke-width:0.750001;stroke-linejoin:round;stroke-miterlimit:3.5;stroke-dasharray:0.750001, 1.5"
       x="184.27388"
       y="91.912613"
       id="text1-2"><tspan
         sodipodi:role="line"
         id="tspan1-3"
         style="stroke-width:0.75"
         x="184.27388"
         y="91.912613">downstream</tspan></text>
    <text
       xml:space="preserve"
       style="font-size:8.46667px;font-family:Sans;-inkscape-font-specification:'Sans, Normal';text-align:center;text-anchor:middle;fill:#21373a;stroke-width:0.750001;stroke-linejoin:round;stroke-miterlimit:3.5;stroke-dasharray:0.750001, 1.5"
       x="57.989353"
       y="62.321117"
       id="text2"><tspan
         sodipodi:role="line"
         id="tspan2"
         style="stroke-width:0.75"
         x="57.989353"
         y="62.321117">binding</tspan></text>
    <text
       xml:space="preserve"
       style="font-size:8.46667px;font-family:Sans;-inkscape-font-specification:'Sans, Normal';text-align:center;text-anchor:middle;fill:#21373a;stroke-width:0.750001;stroke-linejoin:round;stroke-miterlimit:3.5;stroke-dasharray:0.750001, 1.5"
       x="160.93655"
       y="116.8548"
       id="text3"><tspan
         sodipodi:role="line"
         id="tspan3"
         style="stroke-width:0.75"
         x="160.93655"
         y="116.8548">global output port</tspan></text>
  </g>
  <g
     inkscape:label=""
     transform="translate(92.151777,43.442922)"
     id="g22">
    <g
       fill="#000000"
       fill-opacity="1"
       id="g2"
       transform="matrix(0.352778,0,0,0.352778,-0.835378,-0.647656)">
      <g
         id="use1"
         transform="translate(1.993,12.664)">
        <path
           d="m 5,5.5 c 0.359375,0 1,0 1,-0.71875 C 6,4.0625 5.359375,4.0625 5,4.0625 H 3.984375 V -1.234375 C 4.578125,-0.5625 5.5,0.15625 6.890625,0.15625 c 2.625,0 4.9375,-2.359375 4.9375,-5.515625 0,-3.046875 -2.09375,-5.46875 -4.671875,-5.46875 -1.796875,0 -2.9375,1.09375 -3.171875,1.34375 0,-0.828125 0,-1.203125 -0.984375,-1.203125 H 1.359375 c -0.34375,0 -0.984375,0 -0.984375,0.71875 C 0.375,-9.25 1.015625,-9.25 1.359375,-9.25 H 2.375 V 4.0625 H 1.359375 C 1.015625,4.0625 0.375,4.0625 0.375,4.78125 0.375,5.5 1.015625,5.5 1.359375,5.5 Z M 3.984375,-6.59375 c 0,-1.40625 1.390625,-2.796875 3,-2.796875 1.78125,0 3.21875,1.8125 3.21875,4.03125 0,2.390625 -1.671875,4.078125 -3.4375,4.078125 -1.859375,0 -2.78125,-2.109375 -2.78125,-3.359375 z m 0,0"
           id="path2" />
      </g>
    </g>
  </g>
  <path
     style="fill:none;fill-opacity:0.501961;stroke:#21373b;stroke-width:0.25;stroke-linecap:round;stroke-dasharray:none;stroke-opacity:1"
     d="m 94.171987,49.729711 c 0,4.078081 -1.78119,6.546812 -4.7534,9.519024"
     id="path75"
     sodipodi:nodetypes="cc" />
</svg>
