<?xml version="1.0" encoding="UTF-8" standalone="no"?>
<!-- Created with Inkscape (http://www.inkscape.org/) -->

<svg
   version="1.1"
   id="svg1"
   width="2517.7493"
   height="468.63583"
   viewBox="0 0 2517.7493 468.63583"
   xmlns="http://www.w3.org/2000/svg"
   xmlns:svg="http://www.w3.org/2000/svg">
  <defs
     id="defs1">
    <clipPath
       clipPathUnits="userSpaceOnUse"
       id="clipPath4">
      <path
         d="M 48.621875,54.575 H 605.23854 v 273.78 H 48.621875 Z"
         id="path4" />
    </clipPath>
    <clipPath
       clipPathUnits="userSpaceOnUse"
       id="clipPath6">
      <path
         d="M 48.621875,54.575 H 605.23854 v 273.78 H 48.621875 Z"
         id="path6" />
    </clipPath>
    <clipPath
       clipPathUnits="userSpaceOnUse"
       id="clipPath8">
      <path
         d="M 48.621875,54.575 H 605.23854 v 273.78 H 48.621875 Z"
         id="path8" />
    </clipPath>
    <clipPath
       clipPathUnits="userSpaceOnUse"
       id="clipPath10">
      <path
         d="M 48.621875,54.575 H 605.23854 v 273.78 H 48.621875 Z"
         id="path10" />
    </clipPath>
    <clipPath
       clipPathUnits="userSpaceOnUse"
       id="clipPath12">
      <path
         d="M 48.621875,54.575 H 605.23854 v 273.78 H 48.621875 Z"
         id="path12" />
    </clipPath>
    <clipPath
       clipPathUnits="userSpaceOnUse"
       id="clipPath14">
      <path
         d="M 48.621875,54.575 H 605.23854 v 273.78 H 48.621875 Z"
         id="path14" />
    </clipPath>
    <clipPath
       clipPathUnits="userSpaceOnUse"
       id="clipPath16">
      <path
         d="M 48.621875,54.575 H 605.23854 v 273.78 H 48.621875 Z"
         id="path16" />
    </clipPath>
    <clipPath
       clipPathUnits="userSpaceOnUse"
       id="clipPath18">
      <path
         d="M 48.621875,54.575 H 605.23854 v 273.78 H 48.621875 Z"
         id="path18" />
    </clipPath>
    <clipPath
       clipPathUnits="userSpaceOnUse"
       id="clipPath20">
      <path
         d="M 48.621875,54.575 H 605.23854 v 273.78 H 48.621875 Z"
         id="path20" />
    </clipPath>
    <clipPath
       clipPathUnits="userSpaceOnUse"
       id="clipPath22">
      <path
         d="M 48.621875,54.575 H 605.23854 v 273.78 H 48.621875 Z"
         id="path22" />
    </clipPath>
    <clipPath
       clipPathUnits="userSpaceOnUse"
       id="clipPath24">
      <path
         d="M 48.621875,54.575 H 605.23854 v 273.78 H 48.621875 Z"
         id="path24" />
    </clipPath>
    <clipPath
       clipPathUnits="userSpaceOnUse"
       id="clipPath26">
      <path
         d="M 48.621875,54.575 H 605.23854 v 273.78 H 48.621875 Z"
         id="path26" />
    </clipPath>
    <clipPath
       clipPathUnits="userSpaceOnUse"
       id="clipPath28">
      <path
         d="M 48.621875,54.575 H 605.23854 v 273.78 H 48.621875 Z"
         id="path28" />
    </clipPath>
    <clipPath
       clipPathUnits="userSpaceOnUse"
       id="clipPath31">
      <path
         d="M 48.621875,54.575 H 605.23854 v 273.78 H 48.621875 Z"
         id="path31" />
    </clipPath>
    <clipPath
       clipPathUnits="userSpaceOnUse"
       id="clipPath36">
      <path
         d="m 686.55854,54.575 h 556.61666 v 273.78 H 686.55854 Z"
         id="path36" />
    </clipPath>
    <clipPath
       clipPathUnits="userSpaceOnUse"
       id="clipPath38">
      <path
         d="m 686.55854,54.575 h 556.61666 v 273.78 H 686.55854 Z"
         id="path38" />
    </clipPath>
    <clipPath
       clipPathUnits="userSpaceOnUse"
       id="clipPath40">
      <path
         d="m 686.55854,54.575 h 556.61666 v 273.78 H 686.55854 Z"
         id="path40" />
    </clipPath>
    <clipPath
       clipPathUnits="userSpaceOnUse"
       id="clipPath42">
      <path
         d="m 686.55854,54.575 h 556.61666 v 273.78 H 686.55854 Z"
         id="path42" />
    </clipPath>
    <clipPath
       clipPathUnits="userSpaceOnUse"
       id="clipPath44">
      <path
         d="m 686.55854,54.575 h 556.61666 v 273.78 H 686.55854 Z"
         id="path44" />
    </clipPath>
    <clipPath
       clipPathUnits="userSpaceOnUse"
       id="clipPath46">
      <path
         d="m 686.55854,54.575 h 556.61666 v 273.78 H 686.55854 Z"
         id="path46" />
    </clipPath>
    <clipPath
       clipPathUnits="userSpaceOnUse"
       id="clipPath48">
      <path
         d="m 686.55854,54.575 h 556.61666 v 273.78 H 686.55854 Z"
         id="path48" />
    </clipPath>
    <clipPath
       clipPathUnits="userSpaceOnUse"
       id="clipPath50">
      <path
         d="m 686.55854,54.575 h 556.61666 v 273.78 H 686.55854 Z"
         id="path50" />
    </clipPath>
    <clipPath
       clipPathUnits="userSpaceOnUse"
       id="clipPath52">
      <path
         d="m 686.55854,54.575 h 556.61666 v 273.78 H 686.55854 Z"
         id="path52" />
    </clipPath>
    <clipPath
       clipPathUnits="userSpaceOnUse"
       id="clipPath54">
      <path
         d="m 686.55854,54.575 h 556.61666 v 273.78 H 686.55854 Z"
         id="path54" />
    </clipPath>
    <clipPath
       clipPathUnits="userSpaceOnUse"
       id="clipPath56">
      <path
         d="m 686.55854,54.575 h 556.61666 v 273.78 H 686.55854 Z"
         id="path56" />
    </clipPath>
    <clipPath
       clipPathUnits="userSpaceOnUse"
       id="clipPath58">
      <path
         d="m 686.55854,54.575 h 556.61666 v 273.78 H 686.55854 Z"
         id="path58" />
    </clipPath>
    <clipPath
       clipPathUnits="userSpaceOnUse"
       id="clipPath60">
      <path
         d="m 686.55854,54.575 h 556.61666 v 273.78 H 686.55854 Z"
         id="path60" />
    </clipPath>
    <clipPath
       clipPathUnits="userSpaceOnUse"
       id="clipPath62">
      <path
         d="m 686.55854,54.575 h 556.61666 v 273.78 H 686.55854 Z"
         id="path62" />
    </clipPath>
    <clipPath
       clipPathUnits="userSpaceOnUse"
       id="clipPath64">
      <path
         d="m 686.55854,54.575 h 556.61666 v 273.78 H 686.55854 Z"
         id="path64" />
    </clipPath>
    <clipPath
       clipPathUnits="userSpaceOnUse"
       id="clipPath69">
      <path
         d="m 1324.4952,54.575 h 556.6167 v 273.78 h -556.6167 z"
         id="path69" />
    </clipPath>
    <clipPath
       clipPathUnits="userSpaceOnUse"
       id="clipPath71">
      <path
         d="m 1324.4952,54.575 h 556.6167 v 273.78 h -556.6167 z"
         id="path71" />
    </clipPath>
    <clipPath
       clipPathUnits="userSpaceOnUse"
       id="clipPath73">
      <path
         d="m 1324.4952,54.575 h 556.6167 v 273.78 h -556.6167 z"
         id="path73" />
    </clipPath>
    <clipPath
       clipPathUnits="userSpaceOnUse"
       id="clipPath75">
      <path
         d="m 1324.4952,54.575 h 556.6167 v 273.78 h -556.6167 z"
         id="path75" />
    </clipPath>
    <clipPath
       clipPathUnits="userSpaceOnUse"
       id="clipPath77">
      <path
         d="m 1324.4952,54.575 h 556.6167 v 273.78 h -556.6167 z"
         id="path77" />
    </clipPath>
    <clipPath
       clipPathUnits="userSpaceOnUse"
       id="clipPath79">
      <path
         d="m 1324.4952,54.575 h 556.6167 v 273.78 h -556.6167 z"
         id="path79" />
    </clipPath>
    <clipPath
       clipPathUnits="userSpaceOnUse"
       id="clipPath81">
      <path
         d="m 1324.4952,54.575 h 556.6167 v 273.78 h -556.6167 z"
         id="path81" />
    </clipPath>
    <clipPath
       clipPathUnits="userSpaceOnUse"
       id="clipPath83">
      <path
         d="m 1324.4952,54.575 h 556.6167 v 273.78 h -556.6167 z"
         id="path83" />
    </clipPath>
    <clipPath
       clipPathUnits="userSpaceOnUse"
       id="clipPath85">
      <path
         d="m 1324.4952,54.575 h 556.6167 v 273.78 h -556.6167 z"
         id="path85" />
    </clipPath>
    <clipPath
       clipPathUnits="userSpaceOnUse"
       id="clipPath87">
      <path
         d="m 1324.4952,54.575 h 556.6167 v 273.78 h -556.6167 z"
         id="path87" />
    </clipPath>
    <clipPath
       clipPathUnits="userSpaceOnUse"
       id="clipPath89">
      <path
         d="m 1324.4952,54.575 h 556.6167 v 273.78 h -556.6167 z"
         id="path89" />
    </clipPath>
    <clipPath
       clipPathUnits="userSpaceOnUse"
       id="clipPath91">
      <path
         d="m 1324.4952,54.575 h 556.6167 v 273.78 h -556.6167 z"
         id="path91" />
    </clipPath>
    <clipPath
       clipPathUnits="userSpaceOnUse"
       id="clipPath93">
      <path
         d="m 1324.4952,54.575 h 556.6167 v 273.78 h -556.6167 z"
         id="path93" />
    </clipPath>
  </defs>
  <g
     id="g1">
    <path
       id="path2"
       d="M 48.621875,54.575 H 605.23854 v 273.78 H 48.621875 Z"
       style="fill:#ffffff;fill-opacity:1;fill-rule:nonzero;stroke:none"
       transform="matrix(1.3333333,0,0,-1.3333333,0,468.63583)" />
    <path
       id="path3"
       d="m 49.826673,54.575 v 273.78"
       style="fill:none;stroke:#cccccc;stroke-width:1;stroke-linecap:round;stroke-linejoin:round;stroke-miterlimit:10;stroke-dasharray:none;stroke-opacity:1"
       transform="matrix(1.3333333,0,0,-1.3333333,0,468.63583)"
       clip-path="url(#clipPath4)" />
    <text
       id="text4"
       xml:space="preserve"
       transform="matrix(1.3333333,0,0,1.3333333,59.435564,425.765)"><tspan
         style="font-variant:normal;font-weight:normal;font-size:16.5px;font-family:'DejaVu Sans';writing-mode:lr-tb;fill:#262626;fill-opacity:1;fill-rule:nonzero;stroke:none"
         x="0"
         y="0"
         id="tspan4">0</tspan></text>
    <path
       id="path5"
       d="m 146.21051,54.575 v 273.78"
       style="fill:none;stroke:#cccccc;stroke-width:1;stroke-linecap:round;stroke-linejoin:round;stroke-miterlimit:10;stroke-dasharray:none;stroke-opacity:1"
       transform="matrix(1.3333333,0,0,-1.3333333,0,468.63583)"
       clip-path="url(#clipPath6)" />
    <text
       id="text6"
       xml:space="preserve"
       transform="matrix(1.3333333,0,0,1.3333333,173.94735,425.765)"><tspan
         style="font-variant:normal;font-weight:normal;font-size:16.5px;font-family:'DejaVu Sans';writing-mode:lr-tb;fill:#262626;fill-opacity:1;fill-rule:nonzero;stroke:none"
         x="0 10.494 20.988001"
         y="0"
         id="tspan6">200</tspan></text>
    <path
       id="path7"
       d="m 242.59435,54.575 v 273.78"
       style="fill:none;stroke:#cccccc;stroke-width:1;stroke-linecap:round;stroke-linejoin:round;stroke-miterlimit:10;stroke-dasharray:none;stroke-opacity:1"
       transform="matrix(1.3333333,0,0,-1.3333333,0,468.63583)"
       clip-path="url(#clipPath8)" />
    <text
       id="text8"
       xml:space="preserve"
       transform="matrix(1.3333333,0,0,1.3333333,302.45913,425.765)"><tspan
         style="font-variant:normal;font-weight:normal;font-size:16.5px;font-family:'DejaVu Sans';writing-mode:lr-tb;fill:#262626;fill-opacity:1;fill-rule:nonzero;stroke:none"
         x="0 10.494 20.988001"
         y="0"
         id="tspan8">400</tspan></text>
    <path
       id="path9"
       d="m 338.97819,54.575 v 273.78"
       style="fill:none;stroke:#cccccc;stroke-width:1;stroke-linecap:round;stroke-linejoin:round;stroke-miterlimit:10;stroke-dasharray:none;stroke-opacity:1"
       transform="matrix(1.3333333,0,0,-1.3333333,0,468.63583)"
       clip-path="url(#clipPath10)" />
    <text
       id="text10"
       xml:space="preserve"
       transform="matrix(1.3333333,0,0,1.3333333,430.97092,425.765)"><tspan
         style="font-variant:normal;font-weight:normal;font-size:16.5px;font-family:'DejaVu Sans';writing-mode:lr-tb;fill:#262626;fill-opacity:1;fill-rule:nonzero;stroke:none"
         x="0 10.494 20.988001"
         y="0"
         id="tspan10">600</tspan></text>
    <path
       id="path11"
       d="m 435.36203,54.575 v 273.78"
       style="fill:none;stroke:#cccccc;stroke-width:1;stroke-linecap:round;stroke-linejoin:round;stroke-miterlimit:10;stroke-dasharray:none;stroke-opacity:1"
       transform="matrix(1.3333333,0,0,-1.3333333,0,468.63583)"
       clip-path="url(#clipPath12)" />
    <text
       id="text12"
       xml:space="preserve"
       transform="matrix(1.3333333,0,0,1.3333333,559.4827,425.765)"><tspan
         style="font-variant:normal;font-weight:normal;font-size:16.5px;font-family:'DejaVu Sans';writing-mode:lr-tb;fill:#262626;fill-opacity:1;fill-rule:nonzero;stroke:none"
         x="0 10.494 20.988001"
         y="0"
         id="tspan12">800</tspan></text>
    <path
       id="path13"
       d="m 531.74586,54.575 v 273.78"
       style="fill:none;stroke:#cccccc;stroke-width:1;stroke-linecap:round;stroke-linejoin:round;stroke-miterlimit:10;stroke-dasharray:none;stroke-opacity:1"
       transform="matrix(1.3333333,0,0,-1.3333333,0,468.63583)"
       clip-path="url(#clipPath14)" />
    <text
       id="text14"
       xml:space="preserve"
       transform="matrix(1.3333333,0,0,1.3333333,680.99449,425.765)"><tspan
         style="font-variant:normal;font-weight:normal;font-size:16.5px;font-family:'DejaVu Sans';writing-mode:lr-tb;fill:#262626;fill-opacity:1;fill-rule:nonzero;stroke:none"
         x="0 10.494 20.988001 31.482"
         y="0"
         id="tspan14">1000</tspan></text>
    <text
       id="text15"
       xml:space="preserve"
       transform="matrix(1.3333333,0,0,1.3333333,408.79236,454.03583)"><tspan
         style="font-variant:normal;font-weight:normal;font-size:18px;font-family:'DejaVu Sans';writing-mode:lr-tb;fill:#262626;fill-opacity:1;fill-rule:nonzero;stroke:none"
         x="0 7.0560002 12.06 29.591999"
         y="0"
         id="tspan15">time</tspan></text>
    <path
       id="path15"
       d="M 48.621875,67.019545 H 605.23854"
       style="fill:none;stroke:#cccccc;stroke-width:1;stroke-linecap:round;stroke-linejoin:round;stroke-miterlimit:10;stroke-dasharray:none;stroke-opacity:1"
       transform="matrix(1.3333333,0,0,-1.3333333,0,468.63583)"
       clip-path="url(#clipPath16)" />
    <text
       id="text16"
       xml:space="preserve"
       transform="matrix(1.3333333,0,0,1.3333333,38.1625,387.89102)"><tspan
         style="font-variant:normal;font-weight:normal;font-size:16.5px;font-family:'DejaVu Sans';writing-mode:lr-tb;fill:#262626;fill-opacity:1;fill-rule:nonzero;stroke:none"
         x="0"
         y="0"
         id="tspan16">0</tspan></text>
    <path
       id="path17"
       d="M 48.621875,109.27187 H 605.23854"
       style="fill:none;stroke:#cccccc;stroke-width:1;stroke-linecap:round;stroke-linejoin:round;stroke-miterlimit:10;stroke-dasharray:none;stroke-opacity:1"
       transform="matrix(1.3333333,0,0,-1.3333333,0,468.63583)"
       clip-path="url(#clipPath18)" />
    <text
       id="text18"
       xml:space="preserve"
       transform="matrix(1.3333333,0,0,1.3333333,38.1625,331.55459)"><tspan
         style="font-variant:normal;font-weight:normal;font-size:16.5px;font-family:'DejaVu Sans';writing-mode:lr-tb;fill:#262626;fill-opacity:1;fill-rule:nonzero;stroke:none"
         x="0"
         y="0"
         id="tspan18">1</tspan></text>
    <path
       id="path19"
       d="M 48.621875,151.5242 H 605.23854"
       style="fill:none;stroke:#cccccc;stroke-width:1;stroke-linecap:round;stroke-linejoin:round;stroke-miterlimit:10;stroke-dasharray:none;stroke-opacity:1"
       transform="matrix(1.3333333,0,0,-1.3333333,0,468.63583)"
       clip-path="url(#clipPath20)" />
    <text
       id="text20"
       xml:space="preserve"
       transform="matrix(1.3333333,0,0,1.3333333,38.1625,275.21815)"><tspan
         style="font-variant:normal;font-weight:normal;font-size:16.5px;font-family:'DejaVu Sans';writing-mode:lr-tb;fill:#262626;fill-opacity:1;fill-rule:nonzero;stroke:none"
         x="0"
         y="0"
         id="tspan20">2</tspan></text>
    <path
       id="path21"
       d="M 48.621875,193.77652 H 605.23854"
       style="fill:none;stroke:#cccccc;stroke-width:1;stroke-linecap:round;stroke-linejoin:round;stroke-miterlimit:10;stroke-dasharray:none;stroke-opacity:1"
       transform="matrix(1.3333333,0,0,-1.3333333,0,468.63583)"
       clip-path="url(#clipPath22)" />
    <text
       id="text22"
       xml:space="preserve"
       transform="matrix(1.3333333,0,0,1.3333333,38.1625,218.88172)"><tspan
         style="font-variant:normal;font-weight:normal;font-size:16.5px;font-family:'DejaVu Sans';writing-mode:lr-tb;fill:#262626;fill-opacity:1;fill-rule:nonzero;stroke:none"
         x="0"
         y="0"
         id="tspan22">3</tspan></text>
    <path
       id="path23"
       d="M 48.621875,236.02885 H 605.23854"
       style="fill:none;stroke:#cccccc;stroke-width:1;stroke-linecap:round;stroke-linejoin:round;stroke-miterlimit:10;stroke-dasharray:none;stroke-opacity:1"
       transform="matrix(1.3333333,0,0,-1.3333333,0,468.63583)"
       clip-path="url(#clipPath24)" />
    <text
       id="text24"
       xml:space="preserve"
       transform="matrix(1.3333333,0,0,1.3333333,38.1625,162.54528)"><tspan
         style="font-variant:normal;font-weight:normal;font-size:16.5px;font-family:'DejaVu Sans';writing-mode:lr-tb;fill:#262626;fill-opacity:1;fill-rule:nonzero;stroke:none"
         x="0"
         y="0"
         id="tspan24">4</tspan></text>
    <path
       id="path25"
       d="M 48.621875,278.28117 H 605.23854"
       style="fill:none;stroke:#cccccc;stroke-width:1;stroke-linecap:round;stroke-linejoin:round;stroke-miterlimit:10;stroke-dasharray:none;stroke-opacity:1"
       transform="matrix(1.3333333,0,0,-1.3333333,0,468.63583)"
       clip-path="url(#clipPath26)" />
    <text
       id="text26"
       xml:space="preserve"
       transform="matrix(1.3333333,0,0,1.3333333,38.1625,106.20885)"><tspan
         style="font-variant:normal;font-weight:normal;font-size:16.5px;font-family:'DejaVu Sans';writing-mode:lr-tb;fill:#262626;fill-opacity:1;fill-rule:nonzero;stroke:none"
         x="0"
         y="0"
         id="tspan26">5</tspan></text>
    <path
       id="path27"
       d="M 48.621875,320.5335 H 605.23854"
       style="fill:none;stroke:#cccccc;stroke-width:1;stroke-linecap:round;stroke-linejoin:round;stroke-miterlimit:10;stroke-dasharray:none;stroke-opacity:1"
       transform="matrix(1.3333333,0,0,-1.3333333,0,468.63583)"
       clip-path="url(#clipPath28)" />
    <text
       id="text28"
       xml:space="preserve"
       transform="matrix(1.3333333,0,0,1.3333333,38.1625,49.872415)"><tspan
         style="font-variant:normal;font-weight:normal;font-size:16.5px;font-family:'DejaVu Sans';writing-mode:lr-tb;fill:#262626;fill-opacity:1;fill-rule:nonzero;stroke:none"
         x="0"
         y="0"
         id="tspan28">6</tspan></text>
    <text
       id="text29"
       xml:space="preserve"
       transform="matrix(0,-1.3333333,1.3333333,0,27.829167,242.58875)"><tspan
         style="font-variant:normal;font-weight:normal;font-size:18px;font-family:'DejaVu Sans';writing-mode:lr-tb;fill:#262626;fill-opacity:1;fill-rule:nonzero;stroke:none"
         x="0 11.376 18.4615 25.468876 36.484875"
         y="0"
         id="tspan29">Error</tspan></text>
    <text
       id="text30"
       xml:space="preserve"
       transform="matrix(1.3333333,0,0,1.3333333,64.829167,26.829167)"><tspan
         style="font-variant:normal;font-weight:normal;font-size:16.5px;font-family:'DejaVu Sans';writing-mode:lr-tb;fill:#262626;fill-opacity:1;fill-rule:nonzero;stroke:none"
         x="0 10.494 20.6415"
         y="0"
         id="tspan30">1e3</tspan></text>
    <path
       id="path30"
       d="m 73.922633,134.63222 0.506521,-2.06844 0.506522,-4.10286 0.506522,-0.52414 0.506521,-2.02523 0.506522,-3.46871 0.506522,0.14212 0.506521,-0.44736 0.506522,-3.16053 0.506522,-1.25677 0.506521,-4.68012 0.506522,-0.55418 0.506522,-0.15095 0.506521,-2.49525 0.506522,-1.73468 0.506522,-1.32646 0.506521,-1.7385 0.506522,-0.79443 0.506522,-0.46396 0.506521,-1.99871 0.506522,-0.78623 1.013043,-2.985842 0.506522,-0.772742 0.506522,-0.555974 0.506521,-1.807865 1.013044,-2.217513 0.506521,-1.747998 0.506522,-0.821216 0.506522,-2.35803 1.013043,-2.132346 0.506522,-1.778606 1.013043,-1.329591 0.506522,-1.825546 0.506521,-1.019799 0.506522,-1.39612 0.506522,-1.040034 0.506522,-0.706304 0.506521,-0.489319 0.506522,-1.883127 0.506522,0.07709 0.506521,-1.316139 0.506522,-0.468989 0.506522,-0.809364 0.506521,-0.366961 0.506522,-2.018123 0.506522,-0.269758 0.506521,-1.121249 0.506522,-0.805296 0.506522,0.04649 0.50652,0.262311 0.50652,-0.265045 0.50653,-0.03881 1.51956,0.245144 4.05217,0.256349 0.50652,-0.134247 0.50653,0.139253 2.02608,0.03408 0.50652,0.212827 0.50653,-0.05686 1.01304,-0.343868 0.50652,0.167257 0.50652,-0.123249 1.01305,0.226126 2.5326,-0.04104 0.50653,0.160498 0.50652,-0.1301 0.50652,0.153581 0.50652,0.01727 0.50652,-0.185751 0.50653,0.06477 0.50652,-0.24223 2.02608,-0.0051 0.50652,0.297009 0.50653,-0.0082 0.50652,0.21058 0.50652,-0.143708 1.51957,0.144806 2.5326,-0.03399 0.50652,-0.184484 0.50653,31.240593 0.50652,68.909259 0.50652,-1.59047 1.01304,-35.94809 1.01305,-17.49099 0.50652,-11.04124 0.50652,-6.281806 0.50652,-12.118855 1.01304,-6.766931 0.50653,-3.242958 0.50652,-4.274455 0.50652,-1.153512 0.50652,-0.665704 0.50652,-0.249285 1.01305,0.200616 0.50652,-0.174161 0.50652,0.370089 0.50652,-0.294844 0.50652,0.353726 0.50652,-0.323884 0.50653,0.30168 0.50652,-0.326183 0.50652,0.253385 0.50652,-0.249781 0.50652,0.252208 0.50652,-0.195325 0.50653,0.175307 0.50652,-0.154446 0.50652,0.13197 0.50652,38.834469 0.50652,85.88238 0.50652,-7.70945 0.50653,-35.6809 0.50652,-66.712264 0.50652,5.153165 0.50652,35.828489 0.50652,-22.1059 0.50652,-10.404078 0.50653,-5.435987 0.50652,-10.84474 0.50652,-6.54314 0.50652,-0.399084 0.50652,-0.205279 0.50652,0.270186 0.50653,-0.17197 0.50652,0.19766 0.50652,-0.188547 3.54565,-0.09569 0.50652,0.225443 0.50652,-0.213992 0.50653,0.219447 0.50652,-0.191481 0.50652,0.198132 0.50652,-0.198871 0.50652,0.123758 0.50652,-0.144244 0.50653,0.0935 0.50652,-0.124276 0.50652,0.08447 0.50652,-0.08738 0.50652,0.07726 0.50652,-0.07969 0.50653,0.07742 0.50652,-0.06897 0.50652,0.0654 0.50652,-0.06444 1.01304,0.06142 1.51957,-0.07201 1.01304,0.04942 1.01305,0.0057 0.50652,0.125675 0.50652,-0.121081 0.50652,0.169037 0.50652,-0.135193 1.01305,0.03877 1.01304,-0.005 3.03913,-0.08156 0.50652,0.06096 1.01305,-0.01043 1.51956,-0.06695 1.51957,0.07978 0.50652,-0.08301 0.50652,0.06963 0.50652,-0.06331 0.50652,0.09597 0.50652,-0.08092 1.51957,0.01968 3.54565,0.122533 0.50652,0.169755 0.50652,4.5e-4 0.50653,0.151108 0.50652,-0.0074 0.50652,0.136253 0.50652,-0.01202 0.50652,0.111075 0.50652,-0.04419 1.01305,0.06215 1.01304,0.007 1.01304,-0.389476 0.50653,-0.331806 0.50652,0.07391 1.01304,-0.05873 4.5587,0.09158 0.50652,0.349647 0.50652,-0.330481 0.50652,-0.05763 0.50652,0.06794 0.50652,-0.179368 0.50653,-0.0028 0.50652,0.150372 2.02608,-0.09386 1.51957,0.352104 0.50652,-0.200405 0.50652,0.247346 0.50652,-0.327647 0.50653,0.207374 0.50652,-0.299586 0.50652,0.143654 1.01304,-0.04671 0.50652,0.12028 0.50653,-0.07402 1.01304,0.187775 0.50652,-0.298146 0.50652,0.466186 0.50652,-0.465471 0.50653,0.250341 0.50652,-0.209595 0.50652,0.329722 0.50652,-0.20144 0.50652,0.194898 0.50652,-0.299553 0.50653,0.178269 0.50652,-0.15486 0.50652,0.16627 0.50652,0.432516 1.01304,-0.606341 1.01305,0.980705 0.50652,-0.08825 0.50652,-0.459392 0.50652,0.133149 0.50652,-0.218903 0.50653,0.135549 1.01304,-0.544043 0.50652,0.288953 0.50652,-0.357405 0.50653,0.303373 0.50652,-0.1392 0.50652,0.09689 1.51956,-0.0645 1.51957,0.01767 2.02608,-0.141996 1.51957,0.01796 0.50652,-0.06672 0.50652,0.04836 0.50652,68.736732 0.50653,35.54536 0.50652,-7.23972 0.50652,-25.46369 0.50652,-19.21483 0.50652,0.23701 1.51957,-29.562251 1.01304,-14.482646 0.50652,-1.033805 1.01305,-7.110295 0.50652,0.283359 0.50652,-0.182002 0.50652,0.229762 0.50652,-0.116668 0.50652,0.150658 0.50653,-0.138054 0.50652,0.134072 0.50652,-0.194807 0.50652,0.09312 0.50652,-0.194726 0.50652,0.111898 0.50653,-0.07547 0.50652,0.08581 0.50652,-0.167793 1.01304,-0.06779 0.50652,-0.05587 0.50653,0.157608 0.50652,-0.07703 1.01304,50.62026 0.50652,64.42032 0.50653,9.78473 0.50652,-1.59254 0.50652,-58.1762 0.50652,-44.030959 0.50652,-20.989262 0.50652,-0.100413 0.50653,0.109129 0.50652,-0.121347 0.50652,0.06151 0.50652,-0.07286 1.01304,0.04241 0.50653,-0.09032 0.50652,18.342873 1.01304,58.824199 0.50652,63.66924 0.50652,40.43695 3.54565,49.2214 1.01305,11.58111 0.50652,3.57923 0.50652,2.23742 0.50652,0.45148 0.50652,0.19792 0.50653,-0.29787 0.50652,0.21056 0.50652,-0.31635 0.50652,0.20582 0.50652,-0.22256 1.01305,0.17152 0.50652,-0.17638 0.50652,0.058 0.50652,-0.16965 0.50652,0.0446 0.50652,-0.16639 0.50653,0.0776 0.50652,-0.11112 0.50652,0.11994 0.50652,-0.0742 1.01305,-202.43265 0.50652,16.77713 0.50652,49.04477 0.50652,23.62053 0.50652,-8.31512 0.50652,-4.5993 0.50652,-14.87894 0.50653,-3.89924 0.50652,-20.08287 0.50652,-6.57641 1.01304,-5.74789 1.01305,-11.10758 0.50652,-3.48991 0.50652,-6.20811 0.50652,-2.76357 0.50652,-2.09688 1.01305,-9.83292 0.50652,-3.202589 0.50652,-4.168367 1.01304,-1.859898 0.50652,-3.417849 1.01305,-3.11766 0.50652,-4.08316 0.50652,-0.947147 0.50652,-2.936943 0.50652,-2.136098 0.50653,-1.092076 0.50652,-3.198845 1.01304,-1.235936 0.50652,-2.239041 0.50653,-1.072971 1.01304,-0.70058 0.50652,0.03418 0.50652,-0.15698 0.50652,0.247578 0.50653,-0.20034 0.50652,0.221343 0.50652,-0.282137 0.50652,0.22412 0.50652,-0.291875 0.50652,-0.0016 0.50653,0.191154 0.50652,-0.227556 0.50652,0.252676 0.50652,-0.196494 0.50652,0.230506 0.50652,-0.179569 0.50653,0.288655 0.50652,-0.148435 0.50652,0.229124 0.50652,-0.28435 0.50652,0.152283 0.50652,-0.270051 0.50653,0.107851 0.50652,-0.134113 0.50652,0.24262 0.50652,-0.08457 0.50652,0.263768 0.50652,-0.117063 1.01305,0.186369 0.50652,-0.180444 0.50652,0.127907 0.50652,-0.204898 0.50652,0.101922 0.50653,-0.205242 0.50652,0.159626 0.50652,-0.243565 0.50652,0.212127 0.50652,-0.19813 0.50652,0.184663 0.50653,-0.145414 0.50652,0.162356 0.50652,-0.192687 0.50652,0.06199 0.50652,-0.103998 2.02609,0.139232 1.51956,-0.151008 0.50653,0.09895 0.50652,-0.124279 0.50652,0.08837 0.50652,-0.115659 0.50652,0.05985 1.01305,-0.02428 1.51956,-0.04671 0.50652,0.07295 0.50652,-0.06379 0.50653,0.08071 0.50652,-0.07779 0.50652,0.07804 1.01304,-0.05657 0.50652,0.101463 0.50653,-0.08576 0.50652,0.103839 0.50652,-0.102731 0.50652,0.09525 0.50652,-0.108535 0.50652,0.0953 0.50653,-0.09188 0.50652,0.107335 0.50652,-0.0593 0.50652,0.09902 0.50652,-0.107921 0.50652,0.09658 0.50653,-0.121375 0.50652,0.09834 0.50652,-0.107258 0.50652,0.116752 1.01304,-0.157302 1.01305,0.07827 1.01304,-0.02765 0.50652,-0.03786 1.01305,0.355227 0.50652,0.295615 1.01304,-0.605778 0.50652,0.138052 0.50652,-0.08748 0.50653,0.06622 0.50652,-0.142688 1.01304,0.273595 1.01304,-0.226412 1.01305,0.06049 0.50652,-0.05613 1.51956,0.07075 0.50653,-0.09526 0.50652,0.116016 0.50652,-0.120724 0.50652,0.129572 0.50652,-0.140357 0.50652,0.131088 0.50653,-0.140346 0.50652,0.154186 0.50652,-0.101872 0.50652,0.110021 0.50652,-0.121414 0.50652,0.123736 0.50653,-0.154406 0.50652,0.16776 0.50652,0.02824 0.50652,-0.240542 0.50652,0.271227 0.50652,-0.266681 0.50653,0.232076 1.01304,-0.14717 0.50652,0.0897 0.50652,-0.121439 0.50652,0.07931 1.51957,-0.130245 0.50652,0.19797 0.50652,-0.172165 0.50652,0.09051 0.50653,-0.129671 0.50652,0.151222 0.50652,-0.147427 0.50652,0.113906 1.51957,-0.0837 1.01304,0.04084 7.0913,0.05545 1.01305,1.074888 0.50652,-0.118943 1.01304,-1.010093 1.51957,0.04971 1.01304,0.20642 0.50652,0.119728 0.50652,0.25908 0.50652,-0.01136 0.50653,0.222798 0.50652,-0.112405 0.50652,0.103394 0.50652,-0.123185 0.50652,0.111242 0.50652,-0.09375 0.50653,0.135438 1.01304,-0.42984 1.01304,0.156697 0.50652,1.030337 0.50653,0.260765 2.02608,-0.236736 0.50652,-0.139927 4.5587,0.271053 0.50652,-0.309877 0.50652,-0.528384 0.50652,-0.06028 0.50653,-0.322234 0.50652,-0.05033 0.50652,0.615958 1.01304,0.565418 0.50652,0.269345 0.50653,45.425421 0.50652,21.87581 0.50652,-5.92101 0.50652,-32.414796 0.50652,60.116726 0.50652,32.3478 0.50653,-85.57142 0.50652,-27.803348 0.50652,3.930604 0.50652,8.314453 0.50652,-11.026901 0.50652,-2.94114 0.50653,-0.71248 0.50652,-5.455968 0.50652,-2.093492 0.50652,-0.03448 0.50652,0.133514 0.50652,-0.174388 0.50653,0.210008 0.50652,-0.183571 0.50652,0.168514 0.50652,-0.08205 0.50652,0.125017 3.03913,-0.133638 1.01305,0.04375 0.50652,-0.08068 0.50652,0.09095 0.50652,-0.110152 0.50652,0.109456 0.50652,-0.100445 0.50653,0.152428 0.50652,-0.15784 2.02609,0.02849 1.51956,0.231355 1.51957,-0.0666 0.50652,0.211118 1.01304,-0.08632 0.50652,0.536478 0.50652,-0.453599 0.50653,0.688713 0.50652,-0.390525 0.50652,0.431057 0.50652,-0.573871 0.50652,0.489836 0.50652,-0.469415 0.50653,0.318784 0.50652,-0.462278 0.50652,0.271499 0.50652,-0.444809 0.50652,0.226478 0.50652,-0.538721 0.50653,0.146449 1.51956,-0.163099 0.50652,0.174544 0.50652,0.308161 0.50653,-0.413514 0.50652,0.256963 0.50652,-0.283959 0.50652,0.342859 0.50652,-0.357805 0.50652,0.266537 0.50653,-0.250195 0.50652,0.262211 1.01304,-0.101652 1.51957,0.08522 0.50652,-0.143773 2.02608,-0.104829 0.50653,0.22918 0.50652,0.08725 0.50652,-0.07694 1.01304,0.02699 1.01305,-0.185796 0.50652,-0.100311 0.50652,0.154951 2.02609,1.414763 0.50652,-0.123747 1.01304,0.423718 0.50652,-0.224213 0.50652,0.139636 0.50653,-0.126416 1.01304,-0.55876 0.50652,-0.357691 1.51957,-0.506531 1.01304,-0.09779 3.03913,0.09892 1.51956,-0.262599 1.51957,0.123172 1.01304,-0.102299 0.50652,0.263728 0.50653,-0.174784 0.50652,0.226302 0.50652,-0.239232 0.50652,0.301359 0.50652,-0.265354 0.50652,0.234439 0.50653,-0.2517 0.50652,0.103711 0.50652,-0.184267 0.50652,0.157713 0.50652,-0.147135 0.50652,0.16093 0.50653,-0.114292 0.50652,0.178918 0.50652,-0.13713 0.50652,0.0346 0.50652,-0.145921 5.06522,-0.03386 h 89.14781 v 0"
       style="fill:none;stroke:#ff0000;stroke-width:2;stroke-linecap:round;stroke-linejoin:round;stroke-miterlimit:10;stroke-dasharray:none;stroke-opacity:1"
       transform="matrix(1.3333333,0,0,-1.3333333,0,468.63583)"
       clip-path="url(#clipPath31)" />
    <path
       id="path32"
       d="m 48.621875,54.575 v 273.78"
       style="fill:none;stroke:#cccccc;stroke-width:1.25;stroke-linecap:square;stroke-linejoin:miter;stroke-miterlimit:10;stroke-dasharray:none;stroke-opacity:1"
       transform="matrix(1.3333333,0,0,-1.3333333,0,468.63583)" />
    <path
       id="path33"
       d="M 48.621875,54.575 H 605.23854"
       style="fill:none;stroke:#cccccc;stroke-width:1.25;stroke-linecap:square;stroke-linejoin:miter;stroke-miterlimit:10;stroke-dasharray:none;stroke-opacity:1"
       transform="matrix(1.3333333,0,0,-1.3333333,0,468.63583)" />
    <path
       id="path34"
       d="m 686.55854,54.575 h 556.61666 v 273.78 H 686.55854 Z"
       style="fill:#ffffff;fill-opacity:1;fill-rule:nonzero;stroke:none"
       transform="matrix(1.3333333,0,0,-1.3333333,0,468.63583)" />
    <path
       id="path35"
       d="m 687.76334,54.575 v 273.78"
       style="fill:none;stroke:#cccccc;stroke-width:1;stroke-linecap:round;stroke-linejoin:round;stroke-miterlimit:10;stroke-dasharray:none;stroke-opacity:1"
       transform="matrix(1.3333333,0,0,-1.3333333,0,468.63583)"
       clip-path="url(#clipPath36)" />
    <text
       id="text36"
       xml:space="preserve"
       transform="matrix(1.3333333,0,0,1.3333333,910.01779,425.765)"><tspan
         style="font-variant:normal;font-weight:normal;font-size:16.5px;font-family:'DejaVu Sans';writing-mode:lr-tb;fill:#262626;fill-opacity:1;fill-rule:nonzero;stroke:none"
         x="0"
         y="0"
         id="tspan36">0</tspan></text>
    <path
       id="path37"
       d="m 784.14718,54.575 v 273.78"
       style="fill:none;stroke:#cccccc;stroke-width:1;stroke-linecap:round;stroke-linejoin:round;stroke-miterlimit:10;stroke-dasharray:none;stroke-opacity:1"
       transform="matrix(1.3333333,0,0,-1.3333333,0,468.63583)"
       clip-path="url(#clipPath38)" />
    <text
       id="text38"
       xml:space="preserve"
       transform="matrix(1.3333333,0,0,1.3333333,1024.5296,425.765)"><tspan
         style="font-variant:normal;font-weight:normal;font-size:16.5px;font-family:'DejaVu Sans';writing-mode:lr-tb;fill:#262626;fill-opacity:1;fill-rule:nonzero;stroke:none"
         x="0 10.494 20.988001"
         y="0"
         id="tspan38">200</tspan></text>
    <path
       id="path39"
       d="m 880.53102,54.575 v 273.78"
       style="fill:none;stroke:#cccccc;stroke-width:1;stroke-linecap:round;stroke-linejoin:round;stroke-miterlimit:10;stroke-dasharray:none;stroke-opacity:1"
       transform="matrix(1.3333333,0,0,-1.3333333,0,468.63583)"
       clip-path="url(#clipPath40)" />
    <text
       id="text40"
       xml:space="preserve"
       transform="matrix(1.3333333,0,0,1.3333333,1153.0414,425.765)"><tspan
         style="font-variant:normal;font-weight:normal;font-size:16.5px;font-family:'DejaVu Sans';writing-mode:lr-tb;fill:#262626;fill-opacity:1;fill-rule:nonzero;stroke:none"
         x="0 10.494 20.988001"
         y="0"
         id="tspan40">400</tspan></text>
    <path
       id="path41"
       d="m 976.91485,54.575 v 273.78"
       style="fill:none;stroke:#cccccc;stroke-width:1;stroke-linecap:round;stroke-linejoin:round;stroke-miterlimit:10;stroke-dasharray:none;stroke-opacity:1"
       transform="matrix(1.3333333,0,0,-1.3333333,0,468.63583)"
       clip-path="url(#clipPath42)" />
    <text
       id="text42"
       xml:space="preserve"
       transform="matrix(1.3333333,0,0,1.3333333,1281.5531,425.765)"><tspan
         style="font-variant:normal;font-weight:normal;font-size:16.5px;font-family:'DejaVu Sans';writing-mode:lr-tb;fill:#262626;fill-opacity:1;fill-rule:nonzero;stroke:none"
         x="0 10.494 20.988001"
         y="0"
         id="tspan42">600</tspan></text>
    <path
       id="path43"
       d="m 1073.2987,54.575 v 273.78"
       style="fill:none;stroke:#cccccc;stroke-width:1;stroke-linecap:round;stroke-linejoin:round;stroke-miterlimit:10;stroke-dasharray:none;stroke-opacity:1"
       transform="matrix(1.3333333,0,0,-1.3333333,0,468.63583)"
       clip-path="url(#clipPath44)" />
    <text
       id="text44"
       xml:space="preserve"
       transform="matrix(1.3333333,0,0,1.3333333,1410.0649,425.765)"><tspan
         style="font-variant:normal;font-weight:normal;font-size:16.5px;font-family:'DejaVu Sans';writing-mode:lr-tb;fill:#262626;fill-opacity:1;fill-rule:nonzero;stroke:none"
         x="0 10.494 20.988001"
         y="0"
         id="tspan44">800</tspan></text>
    <path
       id="path45"
       d="m 1169.6825,54.575 v 273.78"
       style="fill:none;stroke:#cccccc;stroke-width:1;stroke-linecap:round;stroke-linejoin:round;stroke-miterlimit:10;stroke-dasharray:none;stroke-opacity:1"
       transform="matrix(1.3333333,0,0,-1.3333333,0,468.63583)"
       clip-path="url(#clipPath46)" />
    <text
       id="text46"
       xml:space="preserve"
       transform="matrix(1.3333333,0,0,1.3333333,1531.5767,425.765)"><tspan
         style="font-variant:normal;font-weight:normal;font-size:16.5px;font-family:'DejaVu Sans';writing-mode:lr-tb;fill:#262626;fill-opacity:1;fill-rule:nonzero;stroke:none"
         x="0 10.494 20.988001 31.482"
         y="0"
         id="tspan46">1000</tspan></text>
    <text
       id="text47"
       xml:space="preserve"
       transform="matrix(1.3333333,0,0,1.3333333,1259.3746,454.03583)"><tspan
         style="font-variant:normal;font-weight:normal;font-size:18px;font-family:'DejaVu Sans';writing-mode:lr-tb;fill:#262626;fill-opacity:1;fill-rule:nonzero;stroke:none"
         x="0 7.0560002 12.06 29.591999"
         y="0"
         id="tspan47">time</tspan></text>
    <path
       id="path47"
       d="M 686.55854,67.019545 H 1243.1752"
       style="fill:none;stroke:#cccccc;stroke-width:1;stroke-linecap:round;stroke-linejoin:round;stroke-miterlimit:10;stroke-dasharray:none;stroke-opacity:1"
       transform="matrix(1.3333333,0,0,-1.3333333,0,468.63583)"
       clip-path="url(#clipPath48)" />
    <text
       id="text48"
       xml:space="preserve"
       transform="matrix(1.3333333,0,0,1.3333333,888.74472,387.89102)"><tspan
         style="font-variant:normal;font-weight:normal;font-size:16.5px;font-family:'DejaVu Sans';writing-mode:lr-tb;fill:#262626;fill-opacity:1;fill-rule:nonzero;stroke:none"
         x="0"
         y="0"
         id="tspan48">0</tspan></text>
    <path
       id="path49"
       d="M 686.55854,103.82763 H 1243.1752"
       style="fill:none;stroke:#cccccc;stroke-width:1;stroke-linecap:round;stroke-linejoin:round;stroke-miterlimit:10;stroke-dasharray:none;stroke-opacity:1"
       transform="matrix(1.3333333,0,0,-1.3333333,0,468.63583)"
       clip-path="url(#clipPath50)" />
    <text
       id="text50"
       xml:space="preserve"
       transform="matrix(1.3333333,0,0,1.3333333,888.74472,338.81358)"><tspan
         style="font-variant:normal;font-weight:normal;font-size:16.5px;font-family:'DejaVu Sans';writing-mode:lr-tb;fill:#262626;fill-opacity:1;fill-rule:nonzero;stroke:none"
         x="0"
         y="0"
         id="tspan50">1</tspan></text>
    <path
       id="path51"
       d="M 686.55854,140.63571 H 1243.1752"
       style="fill:none;stroke:#cccccc;stroke-width:1;stroke-linecap:round;stroke-linejoin:round;stroke-miterlimit:10;stroke-dasharray:none;stroke-opacity:1"
       transform="matrix(1.3333333,0,0,-1.3333333,0,468.63583)"
       clip-path="url(#clipPath52)" />
    <text
       id="text52"
       xml:space="preserve"
       transform="matrix(1.3333333,0,0,1.3333333,888.74472,289.73613)"><tspan
         style="font-variant:normal;font-weight:normal;font-size:16.5px;font-family:'DejaVu Sans';writing-mode:lr-tb;fill:#262626;fill-opacity:1;fill-rule:nonzero;stroke:none"
         x="0"
         y="0"
         id="tspan52">2</tspan></text>
    <path
       id="path53"
       d="M 686.55854,177.4438 H 1243.1752"
       style="fill:none;stroke:#cccccc;stroke-width:1;stroke-linecap:round;stroke-linejoin:round;stroke-miterlimit:10;stroke-dasharray:none;stroke-opacity:1"
       transform="matrix(1.3333333,0,0,-1.3333333,0,468.63583)"
       clip-path="url(#clipPath54)" />
    <text
       id="text54"
       xml:space="preserve"
       transform="matrix(1.3333333,0,0,1.3333333,888.74472,240.65869)"><tspan
         style="font-variant:normal;font-weight:normal;font-size:16.5px;font-family:'DejaVu Sans';writing-mode:lr-tb;fill:#262626;fill-opacity:1;fill-rule:nonzero;stroke:none"
         x="0"
         y="0"
         id="tspan54">3</tspan></text>
    <path
       id="path55"
       d="M 686.55854,214.25188 H 1243.1752"
       style="fill:none;stroke:#cccccc;stroke-width:1;stroke-linecap:round;stroke-linejoin:round;stroke-miterlimit:10;stroke-dasharray:none;stroke-opacity:1"
       transform="matrix(1.3333333,0,0,-1.3333333,0,468.63583)"
       clip-path="url(#clipPath56)" />
    <text
       id="text56"
       xml:space="preserve"
       transform="matrix(1.3333333,0,0,1.3333333,888.74472,191.58124)"><tspan
         style="font-variant:normal;font-weight:normal;font-size:16.5px;font-family:'DejaVu Sans';writing-mode:lr-tb;fill:#262626;fill-opacity:1;fill-rule:nonzero;stroke:none"
         x="0"
         y="0"
         id="tspan56">4</tspan></text>
    <path
       id="path57"
       d="M 686.55854,251.05996 H 1243.1752"
       style="fill:none;stroke:#cccccc;stroke-width:1;stroke-linecap:round;stroke-linejoin:round;stroke-miterlimit:10;stroke-dasharray:none;stroke-opacity:1"
       transform="matrix(1.3333333,0,0,-1.3333333,0,468.63583)"
       clip-path="url(#clipPath58)" />
    <text
       id="text58"
       xml:space="preserve"
       transform="matrix(1.3333333,0,0,1.3333333,888.74472,142.5038)"><tspan
         style="font-variant:normal;font-weight:normal;font-size:16.5px;font-family:'DejaVu Sans';writing-mode:lr-tb;fill:#262626;fill-opacity:1;fill-rule:nonzero;stroke:none"
         x="0"
         y="0"
         id="tspan58">5</tspan></text>
    <path
       id="path59"
       d="M 686.55854,287.86805 H 1243.1752"
       style="fill:none;stroke:#cccccc;stroke-width:1;stroke-linecap:round;stroke-linejoin:round;stroke-miterlimit:10;stroke-dasharray:none;stroke-opacity:1"
       transform="matrix(1.3333333,0,0,-1.3333333,0,468.63583)"
       clip-path="url(#clipPath60)" />
    <text
       id="text60"
       xml:space="preserve"
       transform="matrix(1.3333333,0,0,1.3333333,888.74472,93.426351)"><tspan
         style="font-variant:normal;font-weight:normal;font-size:16.5px;font-family:'DejaVu Sans';writing-mode:lr-tb;fill:#262626;fill-opacity:1;fill-rule:nonzero;stroke:none"
         x="0"
         y="0"
         id="tspan60">6</tspan></text>
    <path
       id="path61"
       d="M 686.55854,324.67613 H 1243.1752"
       style="fill:none;stroke:#cccccc;stroke-width:1;stroke-linecap:round;stroke-linejoin:round;stroke-miterlimit:10;stroke-dasharray:none;stroke-opacity:1"
       transform="matrix(1.3333333,0,0,-1.3333333,0,468.63583)"
       clip-path="url(#clipPath62)" />
    <text
       id="text62"
       xml:space="preserve"
       transform="matrix(1.3333333,0,0,1.3333333,888.74472,44.348906)"><tspan
         style="font-variant:normal;font-weight:normal;font-size:16.5px;font-family:'DejaVu Sans';writing-mode:lr-tb;fill:#262626;fill-opacity:1;fill-rule:nonzero;stroke:none"
         x="0"
         y="0"
         id="tspan62">7</tspan></text>
    <text
       id="text63"
       xml:space="preserve"
       transform="matrix(1.3333333,0,0,1.3333333,915.41139,26.829167)"><tspan
         style="font-variant:normal;font-weight:normal;font-size:16.5px;font-family:'DejaVu Sans';writing-mode:lr-tb;fill:#262626;fill-opacity:1;fill-rule:nonzero;stroke:none"
         x="0 10.494 20.6415"
         y="0"
         id="tspan63">1e3</tspan></text>
    <path
       id="path63"
       d="m 711.8593,162.84962 0.50652,29.83644 0.50652,4.89691 0.50652,7.13617 0.50653,30.57764 0.50652,-9.68975 0.50652,0.48783 1.01304,-15.06184 0.50652,3.30868 0.50653,-3.89294 0.50652,-0.45471 1.01304,-8.49689 0.50652,-0.12349 1.01305,-6.87834 0.50652,-0.83312 0.50652,-3.12618 0.50652,-4.07599 0.50652,0.55593 0.50652,-3.92106 0.50653,-2.4766 0.50652,-0.68245 1.01304,-6.63701 0.50652,-0.0345 0.50652,-3.56202 0.50653,-2.20258 0.50652,-0.63927 0.50652,-5.83327 0.50652,-0.0685 0.50652,-3.13002 0.50652,-1.87827 0.50653,-0.0798 1.01304,-5.96693 0.50652,-0.0543 0.50652,-2.98199 0.50652,-1.18331 0.50653,-0.29323 1.01304,-5.66789 0.50652,0.008 0.50652,-2.74173 0.50653,-1.06842 0.50652,-0.19364 1.01304,-5.51961 0.50652,-0.50198 0.50652,-3.16427 0.50653,-0.24281 0.50652,-2.8097 0.50652,-1.14018 0.50652,-0.0716 0.50652,-1.82445 0.50652,-0.64697 0.50653,0.30384 0.50652,-2.60967 0.50652,-0.84694 0.50652,-0.0562 0.50652,-1.82793 0.50652,-0.73825 0.50653,0.26078 0.50652,-1.99012 0.50652,-0.66969 0.50652,0.24132 0.50652,-4.11442 0.50652,1.78261 0.50652,-1.77607 0.50653,-0.78131 0.50652,0.34958 0.50652,-1.94358 0.50652,-0.48458 0.50652,0.56265 0.50652,-2.05828 0.50653,-0.38036 0.50652,0.21672 0.50652,-1.61893 0.50652,-0.5022 0.50652,0.5613 0.50652,-2.133646 0.50653,-0.399277 0.50652,-0.0261 0.50652,-1.491624 0.50652,-0.667576 0.50652,0.647548 0.50652,-2.229563 0.50653,-0.305902 0.50652,-1.35785 0.50652,-0.690572 0.50652,0.55512 0.50652,-2.300619 0.50652,-0.451373 0.50653,0.09045 0.50652,-1.436984 0.50652,-0.588701 0.50652,0.601555 0.50652,-2.084377 0.50653,-0.448452 0.50652,0.180162 0.50652,-1.737325 0.50652,-0.408152 0.50652,0.316822 0.50652,-2.010695 0.50653,-0.637266 0.50652,0.183761 0.50652,-1.692643 0.50652,-0.194946 0.50652,8.890688 0.50652,12.019207 1.01305,43.11825 1.01304,35.73088 0.50652,6.48821 0.50652,4.16094 0.50653,0.12633 0.50652,-1.56466 0.50652,-9.67031 0.50652,-3.4541 1.01304,-12.21322 0.50652,-3.55456 1.01305,-13.68209 0.50652,-3.83729 0.50652,-1.20151 0.50652,-4.29972 1.01305,-5.86597 0.50652,-0.83764 0.50652,0.75207 0.50652,-1.10254 0.50652,2.67727 0.50653,1.35636 3.54565,15.36771 0.50652,-24.95314 0.50652,-12.16592 0.50652,110.3595 0.50652,35.86114 0.50652,3.72038 0.50653,0.89834 0.50652,1.38088 0.50652,-6.32923 0.50652,-3.16498 0.50652,-4.43955 0.50652,-38.08908 0.50653,-24.60359 0.50652,-18.97987 0.50652,-49.04069 0.50652,-34.892181 0.50652,-14.719468 0.50652,-3.929339 2.53261,-0.149037 1.51957,-0.08802 0.50652,0.31407 0.50652,-0.08517 0.50652,0.158034 0.50653,-0.109194 0.50652,0.150087 0.50652,-0.153412 0.50652,0.07207 1.01304,-0.145255 2.02609,-0.09377 1.51956,0.09201 2.02609,-0.2079 0.50652,0.102971 0.50653,-0.0446 0.50652,0.10171 0.50652,5.917447 0.50652,-3.450127 1.01304,72.641844 1.01305,18.05166 0.50652,-14.86911 0.50652,-34.66875 1.51957,-25.559873 0.50652,-3.888433 0.50652,-1.338762 0.50652,-5.688877 0.50652,-2.393333 0.50652,-3.574213 0.50653,-0.71592 0.50652,-0.04617 0.50652,-0.384528 1.01304,-0.153875 0.50652,0.0352 0.50653,-0.08811 2.5326,0.23049 2.02609,-0.21563 3.03913,0.247758 1.01304,0.0025 1.01305,0.159172 0.50652,0.09804 0.50652,-0.102141 0.50652,0.169423 0.50652,-0.03788 0.50653,0.176155 0.50652,-0.04473 0.50652,0.15649 0.50652,-0.08935 0.50652,0.111799 0.50652,-0.152176 0.50653,0.14213 0.50652,-0.170672 0.50652,-0.0054 2.53261,-0.535942 0.50652,0.0013 2.53261,1.014572 0.50652,0.12032 0.50652,-0.06376 0.50652,0.0857 0.50652,-0.345999 1.01305,0.420057 0.50652,-0.401043 0.50652,0.422645 0.50652,-0.137746 0.50652,-0.670718 0.50653,0.147374 0.50652,-0.539219 0.50652,0.338564 0.50652,-0.368775 0.50652,-0.166654 0.50652,0.08835 0.50653,-0.09095 1.51956,0.110217 0.50652,0.515131 0.50652,0.02543 0.50653,0.435208 0.50652,-0.264971 0.50652,0.299359 0.50652,-0.415433 1.51957,-0.147957 0.50652,-0.55591 0.50652,0.523613 0.50652,-0.330846 0.50652,0.450644 0.50652,-0.205379 0.50653,0.266636 0.50652,-0.213397 0.50652,0.236163 0.50652,-0.231542 0.50652,0.215599 0.50653,-0.430699 0.50652,0.432565 0.50652,-0.369756 0.50652,0.419314 0.50652,-0.325451 0.50652,0.384188 0.50652,0.147544 0.50653,-0.14979 0.50652,0.005 0.50652,0.260794 0.50652,-0.217802 0.50652,0.150867 1.01305,-0.560424 0.50652,0.244729 0.50652,-0.50984 0.50652,0.405985 0.50652,-0.240241 0.50652,0.151549 0.50653,-0.09242 0.50652,0.0452 0.50652,-0.08592 0.50652,0.0636 0.50652,-0.08342 0.50652,0.03788 1.01305,-0.105795 0.50652,-0.04508 0.50652,-0.207891 1.51957,-0.02318 0.50652,11.635978 0.50652,6.228569 0.50652,15.926072 1.51957,61.30343 0.50652,13.83166 0.50652,7.38793 0.50652,3.82544 0.50652,9.87659 1.01305,7.25316 0.50652,3.1468 0.50652,5.48772 0.50652,1.97219 0.50652,6.2103 0.50652,-0.17733 1.01305,5.12579 0.50652,2.01994 0.50652,0.98262 0.50652,2.98122 0.50652,0.0437 0.50653,1.9975 1.51956,7.42366 0.50652,3.81967 1.01305,3.9148 0.50652,3.05858 0.50652,2.11197 1.01304,6.76384 0.50652,3.28411 0.50653,4.32311 1.01304,5.15853 0.50652,3.91896 0.50652,3.03901 1.51957,6.5656 0.50652,2.56245 0.50652,3.84105 0.50652,2.30849 1.01305,1.60331 0.50652,1.14245 0.50652,1.79982 0.50652,2.3841 0.50652,1.71484 0.50652,0.48391 0.50653,0.69554 0.50652,1.17607 0.50652,3.16827 0.50652,1.02769 0.50652,-0.0687 1.01305,-0.94471 1.01304,2.47396 0.50652,1.51269 0.50652,-0.36031 0.50652,0.32632 0.50653,-0.58505 0.50652,2.17348 1.01304,-1.29133 1.51957,-10.94718 0.50652,-2.12226 0.50652,-2.72093 0.50652,-7.08664 1.01304,-8.51474 1.01305,-6.26231 0.50652,-4.05766 1.51956,-15.49432 1.01305,-7.89099 0.50652,-4.60774 1.51956,-17.14284 1.01305,-8.46742 1.01304,-10.77496 0.50652,-6.32262 0.50652,-10.81197 1.01305,-10.95994 1.51956,-18.72391 0.50652,-3.99928 0.50653,-5.30752 1.01304,-12.45065 1.51957,-17.49055 0.50652,-5.19428 0.50652,-6.83282 1.51956,-15.326407 0.50653,-3.488659 0.50652,-8.57562 1.01304,-8.628395 0.50652,-3.578441 0.50652,-1.939832 0.50652,-1.24534 0.50653,-0.578942 0.50652,0.267447 0.50652,-0.110992 0.50652,0.403387 0.50652,-0.321563 0.50653,0.224271 0.50652,-0.363118 0.50652,0.231061 0.50652,-0.256355 0.50652,0.161955 0.50652,-0.212558 0.50653,0.165543 0.50652,-0.183185 1.51956,0.06617 0.50652,-0.05115 0.50653,0.192202 0.50652,-0.2658 0.50652,0.412577 0.50652,-0.35482 0.50652,0.427198 0.50652,-0.276749 0.50653,0.231981 0.50652,-0.2412 0.50652,0.142535 0.50652,-0.190653 0.50652,0.294387 1.01305,0.200998 0.50652,-0.179992 0.50652,0.09072 1.01304,-0.380662 0.50652,0.136783 0.50653,-0.136142 0.50652,0.05776 0.50652,-0.150302 1.01304,-0.05485 0.50652,-0.0131 0.50653,0.15066 0.50652,-0.153737 2.53261,0.212092 1.01304,0.380511 0.50652,-0.02148 0.50652,0.210996 0.50652,-7.09e-4 0.50653,0.410574 0.50652,0.08528 0.50652,0.254595 0.50652,-0.05391 0.50652,0.308945 0.50652,-0.217105 0.50653,0.228856 0.50652,-0.263721 0.50652,0.183519 0.50652,-0.291447 0.50652,0.148555 0.50652,-0.336628 0.50653,-0.01121 0.50652,-0.1991 0.50652,0.02404 0.50652,-0.164544 0.50652,0.12305 0.50652,-0.178217 0.50653,0.184996 0.50652,-0.183649 1.01304,0.178849 0.50652,0.129919 1.01305,0.577314 0.50652,0.837877 0.50652,0.194382 0.50652,0.39 0.50652,-0.854412 0.50652,0.155732 0.50653,-0.289754 0.50652,-0.08228 0.50652,-0.230672 1.01304,0.144924 0.50652,-0.09102 0.50653,0.115697 0.50652,-0.06185 0.50652,0.144654 1.01304,-0.226644 1.01305,-0.319955 1.01304,-0.07237 0.50652,0.306346 0.50652,0.0081 0.50652,0.447206 1.01305,-0.704111 0.50652,0.02676 0.50652,-0.447444 0.50652,0.197569 0.50652,-0.14952 0.50653,0.04278 0.50652,0.327165 0.50652,-0.353567 0.50652,0.09456 1.51957,-0.231707 0.50652,0.126219 0.50652,-0.114406 0.50652,0.165785 0.50652,-0.155626 0.50652,0.200143 0.50653,-0.08208 0.50652,0.06647 0.50652,-0.24182 0.50649,0.152489 0.5066,-0.264191 0.5065,0.08353 0.5065,-0.308866 0.5065,0.132014 0.5065,-0.32885 0.5066,0.226701 0.5065,-0.443759 0.5065,0.163177 0.5065,-0.383811 0.5065,0.277228 0.5066,-0.2426 0.5065,0.204072 0.5065,-0.190714 0.5065,0.248709 0.5066,-0.329657 0.5065,0.359441 0.5065,-0.32883 1.013,0.309889 0.5066,-0.256609 0.5065,0.159857 0.5065,-0.201036 1.0131,0.192741 0.5065,-0.04946 0.5065,0.210239 0.5065,-0.108023 0.5065,0.25679 0.5066,0.03584 0.5065,-0.229948 0.5065,0.373542 0.5065,-0.158044 0.5065,0.309854 0.5066,-0.136855 0.5065,0.17894 0.5065,-0.232854 0.5065,0.211984 1.0131,-0.116427 0.5065,-0.0566 0.5065,-0.195678 0.5065,0.06382 0.5066,-0.174285 0.5065,0.02452 0.5065,-0.09066 1.5196,0.777359 0.5065,0.452455 0.5065,-0.122123 1.0131,-0.982096 1.5195,0.01794 0.5065,-0.01158 2.0261,0.679089 0.5066,0.421152 0.5065,-0.147241 0.5065,0.276123 0.5065,-0.0714 0.5065,0.232765 0.5066,-0.261076 0.5065,0.335985 0.5065,-0.123417 0.5065,-0.582741 0.5065,0.126771 0.5066,-0.02317 0.5065,1.366544 1.013,0.549172 0.5066,-0.08987 0.5065,0.281404 0.5065,0.0785 2.5326,1.369878 2.5326,1.602505 0.5065,0.09712 0.5066,-0.639706 0.5065,-0.231259 0.5065,-0.562285 0.5065,-0.202024 0.5065,0.104422 1.0131,1.072254 0.5065,0.288372 0.5065,0.155566 0.5066,0.377271 0.5065,-0.124974 1.5195,-1.096666 0.5066,-0.885618 0.5065,-0.48791 0.5065,0.03298 0.5065,-0.302998 0.5066,-0.122243 1.5195,-1.025482 0.5065,-0.03395 1.5196,-0.949281 1.013,-0.902232 1.0131,-0.761235 1.5196,-0.29676 0.5065,0.229483 0.5065,-0.17242 0.5065,0.214604 0.5065,-0.281959 0.5066,0.296286 1.5195,0.360961 0.5065,-0.111996 0.5066,0.125334 0.5065,-0.187444 0.5065,0.210093 0.5065,-0.250573 0.5066,0.09356 1.013,-0.524215 1.013,0.214562 1.0131,0.922163 0.5065,0.092 1.0131,-0.135251 0.5065,0.176705 1.013,0.01625 0.5065,0.438272 0.5066,-0.457485 0.5065,0.729451 0.5065,-0.442089 0.5065,0.418177 0.5065,-0.484818 0.5066,0.398623 0.5065,-0.382365 0.5065,0.26837 0.5065,-0.398017 0.5066,0.197443 0.5065,-0.32554 0.5065,0.378772 0.5065,-0.338561 0.5065,0.312207 0.5066,-0.215406 0.5065,0.223738 0.5065,-0.04647 1.0131,0.267367 0.5065,-0.385027 0.5065,0.0066 0.5065,-0.209319 0.5065,0.158454 0.5066,-0.23183 0.5065,0.130228 0.5065,-0.217588 0.5065,0.123203 0.5065,-0.599936 0.5066,0.42622 0.5065,-0.397241 0.5065,0.322805 0.5065,-0.34661 0.5066,0.405643 0.5065,-0.307642 0.5065,0.311007 1.5196,0.198752 2.026,0.0072 2.0261,0.766179 1.5196,2.919972 0.5065,0.367668 0.5065,0.603584 0.5066,0.09189 0.5065,0.69396 0.5065,-0.333255 0.5065,0.524089 0.5066,-0.411238 1.013,-0.547632 0.5065,-0.727808 0.5065,-0.33499 1.0131,-1.406734 1.013,-1.016523 0.5065,-0.585597 0.5066,-0.06866 0.5065,-0.234393 0.5065,0.04034 0.5065,-0.255003 0.5066,0.162026 0.5065,-0.467709 0.5065,0.140019 0.5065,-0.264713 0.5065,0.0845 0.5066,-0.108533 1.013,-0.507908 0.5065,0.03893 0.5066,-0.234813 0.5065,0.143819 0.5065,-0.250641 0.5065,0.236735 0.5065,-0.27165 0.5066,0.211851 0.5065,-0.198456 0.5065,0.215815 0.5065,-0.09984 0.5065,0.150706 0.5066,-0.12357 0.5065,0.108658 0.5065,4.988658 0.5065,49.713453 0.5066,33.37285 0.5065,-8.36715 0.5065,42.88713 0.5065,96.70505 0.5065,-30.53799 1.0131,-89.63221 0.5065,-98.075819 0.5065,26.711812 1.0131,94.907787 0.5065,63.32838 0.5065,9.6202 0.5065,-7.29752 1.0131,-24.9386 0.5065,-2.43848 0.5065,-20.97894 0.5065,-5.42516 1.5196,-30.96539 0.5065,-2.53477 0.5066,-25.64652 0.5065,-10.7532 0.5065,-7.78328 0.5065,-11.17284 0.5065,-2.583 0.5066,-17.801864 1.013,-8.150499 0.5065,-6.289724 0.5065,-8.693118 0.5066,-0.392063 0.5065,-0.680678 0.5065,-1.384754 8.6109,-0.01011 h 69.3935 v 0"
       style="fill:none;stroke:#ff0000;stroke-width:2;stroke-linecap:round;stroke-linejoin:round;stroke-miterlimit:10;stroke-dasharray:none;stroke-opacity:1"
       transform="matrix(1.3333333,0,0,-1.3333333,0,468.63583)"
       clip-path="url(#clipPath64)" />
    <path
       id="path65"
       d="m 686.55854,54.575 v 273.78"
       style="fill:none;stroke:#cccccc;stroke-width:1.25;stroke-linecap:square;stroke-linejoin:miter;stroke-miterlimit:10;stroke-dasharray:none;stroke-opacity:1"
       transform="matrix(1.3333333,0,0,-1.3333333,0,468.63583)" />
    <path
       id="path66"
       d="M 686.55854,54.575 H 1243.1752"
       style="fill:none;stroke:#cccccc;stroke-width:1.25;stroke-linecap:square;stroke-linejoin:miter;stroke-miterlimit:10;stroke-dasharray:none;stroke-opacity:1"
       transform="matrix(1.3333333,0,0,-1.3333333,0,468.63583)" />
    <path
       id="path67"
       d="m 1324.4952,54.575 h 556.6167 v 273.78 h -556.6167 z"
       style="fill:#ffffff;fill-opacity:1;fill-rule:nonzero;stroke:none"
       transform="matrix(1.3333333,0,0,-1.3333333,0,468.63583)" />
    <path
       id="path68"
       d="m 1325.7,54.575 v 273.78"
       style="fill:none;stroke:#cccccc;stroke-width:1;stroke-linecap:round;stroke-linejoin:round;stroke-miterlimit:10;stroke-dasharray:none;stroke-opacity:1"
       transform="matrix(1.3333333,0,0,-1.3333333,0,468.63583)"
       clip-path="url(#clipPath69)" />
    <text
       id="text69"
       xml:space="preserve"
       transform="matrix(1.3333333,0,0,1.3333333,1760.6,425.765)"><tspan
         style="font-variant:normal;font-weight:normal;font-size:16.5px;font-family:'DejaVu Sans';writing-mode:lr-tb;fill:#262626;fill-opacity:1;fill-rule:nonzero;stroke:none"
         x="0"
         y="0"
         id="tspan69">0</tspan></text>
    <path
       id="path70"
       d="m 1422.0838,54.575 v 273.78"
       style="fill:none;stroke:#cccccc;stroke-width:1;stroke-linecap:round;stroke-linejoin:round;stroke-miterlimit:10;stroke-dasharray:none;stroke-opacity:1"
       transform="matrix(1.3333333,0,0,-1.3333333,0,468.63583)"
       clip-path="url(#clipPath71)" />
    <text
       id="text71"
       xml:space="preserve"
       transform="matrix(1.3333333,0,0,1.3333333,1875.1118,425.765)"><tspan
         style="font-variant:normal;font-weight:normal;font-size:16.5px;font-family:'DejaVu Sans';writing-mode:lr-tb;fill:#262626;fill-opacity:1;fill-rule:nonzero;stroke:none"
         x="0 10.494 20.988001"
         y="0"
         id="tspan71">200</tspan></text>
    <path
       id="path72"
       d="m 1518.4677,54.575 v 273.78"
       style="fill:none;stroke:#cccccc;stroke-width:1;stroke-linecap:round;stroke-linejoin:round;stroke-miterlimit:10;stroke-dasharray:none;stroke-opacity:1"
       transform="matrix(1.3333333,0,0,-1.3333333,0,468.63583)"
       clip-path="url(#clipPath73)" />
    <text
       id="text73"
       xml:space="preserve"
       transform="matrix(1.3333333,0,0,1.3333333,2003.6236,425.765)"><tspan
         style="font-variant:normal;font-weight:normal;font-size:16.5px;font-family:'DejaVu Sans';writing-mode:lr-tb;fill:#262626;fill-opacity:1;fill-rule:nonzero;stroke:none"
         x="0 10.494 20.988001"
         y="0"
         id="tspan73">400</tspan></text>
    <path
       id="path74"
       d="m 1614.8515,54.575 v 273.78"
       style="fill:none;stroke:#cccccc;stroke-width:1;stroke-linecap:round;stroke-linejoin:round;stroke-miterlimit:10;stroke-dasharray:none;stroke-opacity:1"
       transform="matrix(1.3333333,0,0,-1.3333333,0,468.63583)"
       clip-path="url(#clipPath75)" />
    <text
       id="text75"
       xml:space="preserve"
       transform="matrix(1.3333333,0,0,1.3333333,2132.1354,425.765)"><tspan
         style="font-variant:normal;font-weight:normal;font-size:16.5px;font-family:'DejaVu Sans';writing-mode:lr-tb;fill:#262626;fill-opacity:1;fill-rule:nonzero;stroke:none"
         x="0 10.494 20.988001"
         y="0"
         id="tspan75">600</tspan></text>
    <path
       id="path76"
       d="m 1711.2354,54.575 v 273.78"
       style="fill:none;stroke:#cccccc;stroke-width:1;stroke-linecap:round;stroke-linejoin:round;stroke-miterlimit:10;stroke-dasharray:none;stroke-opacity:1"
       transform="matrix(1.3333333,0,0,-1.3333333,0,468.63583)"
       clip-path="url(#clipPath77)" />
    <text
       id="text77"
       xml:space="preserve"
       transform="matrix(1.3333333,0,0,1.3333333,2260.6471,425.765)"><tspan
         style="font-variant:normal;font-weight:normal;font-size:16.5px;font-family:'DejaVu Sans';writing-mode:lr-tb;fill:#262626;fill-opacity:1;fill-rule:nonzero;stroke:none"
         x="0 10.494 20.988001"
         y="0"
         id="tspan77">800</tspan></text>
    <path
       id="path78"
       d="m 1807.6192,54.575 v 273.78"
       style="fill:none;stroke:#cccccc;stroke-width:1;stroke-linecap:round;stroke-linejoin:round;stroke-miterlimit:10;stroke-dasharray:none;stroke-opacity:1"
       transform="matrix(1.3333333,0,0,-1.3333333,0,468.63583)"
       clip-path="url(#clipPath79)" />
    <text
       id="text79"
       xml:space="preserve"
       transform="matrix(1.3333333,0,0,1.3333333,2382.1589,425.765)"><tspan
         style="font-variant:normal;font-weight:normal;font-size:16.5px;font-family:'DejaVu Sans';writing-mode:lr-tb;fill:#262626;fill-opacity:1;fill-rule:nonzero;stroke:none"
         x="0 10.494 20.988001 31.482"
         y="0"
         id="tspan79">1000</tspan></text>
    <text
       id="text80"
       xml:space="preserve"
       transform="matrix(1.3333333,0,0,1.3333333,2109.9568,454.03583)"><tspan
         style="font-variant:normal;font-weight:normal;font-size:18px;font-family:'DejaVu Sans';writing-mode:lr-tb;fill:#262626;fill-opacity:1;fill-rule:nonzero;stroke:none"
         x="0 7.0560002 12.06 29.591999"
         y="0"
         id="tspan80">time</tspan></text>
    <path
       id="path80"
       d="m 1324.4952,67.019545 h 556.6167"
       style="fill:none;stroke:#cccccc;stroke-width:1;stroke-linecap:round;stroke-linejoin:round;stroke-miterlimit:10;stroke-dasharray:none;stroke-opacity:1"
       transform="matrix(1.3333333,0,0,-1.3333333,0,468.63583)"
       clip-path="url(#clipPath81)" />
    <text
       id="text81"
       xml:space="preserve"
       transform="matrix(1.3333333,0,0,1.3333333,1718.3269,387.89102)"><tspan
         style="font-variant:normal;font-weight:normal;font-size:16.5px;font-family:'DejaVu Sans';writing-mode:lr-tb;fill:#262626;fill-opacity:1;fill-rule:nonzero;stroke:none"
         x="0 10.494 15.741"
         y="0"
         id="tspan81">0.0</tspan></text>
    <path
       id="path82"
       d="m 1324.4952,115.05623 h 556.6167"
       style="fill:none;stroke:#cccccc;stroke-width:1;stroke-linecap:round;stroke-linejoin:round;stroke-miterlimit:10;stroke-dasharray:none;stroke-opacity:1"
       transform="matrix(1.3333333,0,0,-1.3333333,0,468.63583)"
       clip-path="url(#clipPath83)" />
    <text
       id="text83"
       xml:space="preserve"
       transform="matrix(1.3333333,0,0,1.3333333,1718.3269,323.84212)"><tspan
         style="font-variant:normal;font-weight:normal;font-size:16.5px;font-family:'DejaVu Sans';writing-mode:lr-tb;fill:#262626;fill-opacity:1;fill-rule:nonzero;stroke:none"
         x="0 10.494 15.741"
         y="0"
         id="tspan83">0.5</tspan></text>
    <path
       id="path84"
       d="m 1324.4952,163.0929 h 556.6167"
       style="fill:none;stroke:#cccccc;stroke-width:1;stroke-linecap:round;stroke-linejoin:round;stroke-miterlimit:10;stroke-dasharray:none;stroke-opacity:1"
       transform="matrix(1.3333333,0,0,-1.3333333,0,468.63583)"
       clip-path="url(#clipPath85)" />
    <text
       id="text85"
       xml:space="preserve"
       transform="matrix(1.3333333,0,0,1.3333333,1718.3269,259.79321)"><tspan
         style="font-variant:normal;font-weight:normal;font-size:16.5px;font-family:'DejaVu Sans';writing-mode:lr-tb;fill:#262626;fill-opacity:1;fill-rule:nonzero;stroke:none"
         x="0 10.494 15.741"
         y="0"
         id="tspan85">1.0</tspan></text>
    <path
       id="path86"
       d="m 1324.4952,211.12958 h 556.6167"
       style="fill:none;stroke:#cccccc;stroke-width:1;stroke-linecap:round;stroke-linejoin:round;stroke-miterlimit:10;stroke-dasharray:none;stroke-opacity:1"
       transform="matrix(1.3333333,0,0,-1.3333333,0,468.63583)"
       clip-path="url(#clipPath87)" />
    <text
       id="text87"
       xml:space="preserve"
       transform="matrix(1.3333333,0,0,1.3333333,1718.3269,195.74431)"><tspan
         style="font-variant:normal;font-weight:normal;font-size:16.5px;font-family:'DejaVu Sans';writing-mode:lr-tb;fill:#262626;fill-opacity:1;fill-rule:nonzero;stroke:none"
         x="0 10.494 15.741"
         y="0"
         id="tspan87">1.5</tspan></text>
    <path
       id="path88"
       d="m 1324.4952,259.16626 h 556.6167"
       style="fill:none;stroke:#cccccc;stroke-width:1;stroke-linecap:round;stroke-linejoin:round;stroke-miterlimit:10;stroke-dasharray:none;stroke-opacity:1"
       transform="matrix(1.3333333,0,0,-1.3333333,0,468.63583)"
       clip-path="url(#clipPath89)" />
    <text
       id="text89"
       xml:space="preserve"
       transform="matrix(1.3333333,0,0,1.3333333,1718.3269,131.6954)"><tspan
         style="font-variant:normal;font-weight:normal;font-size:16.5px;font-family:'DejaVu Sans';writing-mode:lr-tb;fill:#262626;fill-opacity:1;fill-rule:nonzero;stroke:none"
         x="0 10.494 15.741"
         y="0"
         id="tspan89">2.0</tspan></text>
    <path
       id="path90"
       d="m 1324.4952,307.20294 h 556.6167"
       style="fill:none;stroke:#cccccc;stroke-width:1;stroke-linecap:round;stroke-linejoin:round;stroke-miterlimit:10;stroke-dasharray:none;stroke-opacity:1"
       transform="matrix(1.3333333,0,0,-1.3333333,0,468.63583)"
       clip-path="url(#clipPath91)" />
    <text
       id="text91"
       xml:space="preserve"
       transform="matrix(1.3333333,0,0,1.3333333,1718.3269,67.646494)"><tspan
         style="font-variant:normal;font-weight:normal;font-size:16.5px;font-family:'DejaVu Sans';writing-mode:lr-tb;fill:#262626;fill-opacity:1;fill-rule:nonzero;stroke:none"
         x="0 10.494 15.741"
         y="0"
         id="tspan91">2.5</tspan></text>
    <text
       id="text92"
       xml:space="preserve"
       transform="matrix(1.3333333,0,0,1.3333333,1765.9936,26.829167)"><tspan
         style="font-variant:normal;font-weight:normal;font-size:16.5px;font-family:'DejaVu Sans';writing-mode:lr-tb;fill:#262626;fill-opacity:1;fill-rule:nonzero;stroke:none"
         x="0 10.494 20.6415"
         y="0"
         id="tspan92">1e4</tspan></text>
    <path
       id="path92"
       d="m 1349.796,294.86607 0.5065,12.0223 0.5065,5.77117 0.5065,3.25091 0.5066,-4.79105 0.5065,-2.07753 0.5065,1.04039 0.5065,-3.24604 0.5065,0.0946 0.5066,0.81126 0.5065,-7.26442 0.5065,1.02491 0.5065,-2.49558 0.5065,-0.4604 0.5066,1.64292 0.5065,-4.76549 0.5065,-1.69861 0.5065,1.65017 0.5066,-2.06053 0.5065,-0.45067 0.5065,2.30422 0.5065,-4.01484 0.5065,-1.36249 0.5066,2.06489 0.5065,-1.45804 0.5065,0.006 0.5065,2.90702 0.5066,-3.19628 0.5065,-0.99177 0.5065,2.11637 0.5065,-0.80279 0.5065,2.75552 0.5066,-2.58235 0.5065,-0.86212 0.5065,1.8968 0.5065,-0.54915 0.5065,0.37404 0.5066,2.57122 0.5065,-2.05655 0.5065,-0.59069 0.5065,1.6457 0.5066,0.055 0.5065,0.27631 0.5065,2.31442 0.5065,-1.42507 0.5065,-0.36499 0.5066,1.70107 0.5065,0.76103 0.5065,0.46119 0.5065,1.55406 0.5066,0.99333 1.013,3.74931 0.5065,0.72777 0.5065,2.19957 0.5066,0.19645 0.5065,0.34598 0.5065,1.29587 0.5065,0.85883 0.5065,-0.41221 0.5066,0.20937 0.5065,-0.53414 1.5196,-3.63587 0.5065,-2.5277 0.5065,-1.46965 1.013,-5.09226 0.5066,-4.75589 1.013,-5.63055 4.5587,-23.48001 0.5065,-2.04478 0.5065,-2.72817 1.0131,-4.13496 1.013,-4.52653 0.5066,-1.52053 0.5065,-2.20045 0.5065,-3.11099 1.013,-3.38314 0.5066,-0.6969 1.013,-2.6012 1.013,-2.22958 0.5066,-1.23102 0.5065,-0.733 0.5065,-1.07516 1.0131,-1.65955 3.0391,-4.90356 0.5065,-1.6412 0.5065,-0.67098 2.0261,-4.17869 1.5196,-3.34233 1.5195,-3.9918 3.0392,-6.49995 1.013,-1.38841 0.5065,-1.30175 0.5066,-0.7913 0.5065,-0.56626 1.5195,-1.05785 0.5066,-0.13045 0.5065,-0.54794 1.5196,-0.55456 1.013,-0.30394 0.5065,-0.49163 0.5065,-0.23252 0.5066,-0.0773 1.013,-0.34122 0.5065,-0.0937 0.5066,-0.79573 0.5065,-0.1293 1.013,-0.42191 0.5065,-0.10326 1.0131,-0.76546 0.5065,-0.2294 1.5196,-1.11371 3.0391,-3.84787 1.5196,-2.30127 0.5065,-1.63191 2.0261,-3.50884 0.5065,-1.02845 1.013,-1.54385 1.0131,-1.69127 0.5065,-0.61281 0.5065,-0.78803 0.5065,-6.25116 0.5066,-2.65825 0.5065,-5.72877 0.5065,-2.24821 0.5065,1.46323 0.5066,6.73556 1.013,3.29332 0.5065,-1.58248 1.0131,-1.18036 0.5065,3.50985 0.5065,1.35052 0.5065,-1.2784 0.5065,1.59973 0.5066,5.10753 0.5065,24.43458 1.013,29.75421 0.5066,3.84331 0.5065,-11.68831 0.5065,-4.45932 0.5065,-6.94392 0.5065,-4.78444 1.0131,-20.32452 0.5065,-6.30715 0.5065,-15.7548 1.5196,-9.63365 0.5065,-1.18235 2.0261,-2.49104 1.5196,-2.53954 1.013,-1.70483 1.0131,-1.79631 0.5065,-1.14527 0.5065,-0.8076 0.5065,-1.03595 0.5065,-0.77376 0.5066,-1.85999 0.5065,-1.13579 0.5065,-0.81948 1.0131,-1.89497 1.013,-1.39532 1.5196,-2.49151 4.5587,-7.26362 0.5065,-15.1322 0.5065,-8.61759 0.5065,3.47404 0.5065,10.75998 1.0131,3.83268 0.5065,-0.60202 0.5065,-0.36722 0.5065,3.48911 0.5066,-0.74376 1.5195,11.52428 0.5066,-0.22938 0.5065,-2.16313 0.5065,-3.4343 0.5065,-1.06929 0.5065,-3.54737 1.0131,-3.99199 0.5065,-3.11689 0.5065,-1.31468 0.5066,-2.14794 1.013,-2.29054 1.013,-1.50825 3.0392,-3.38194 2.0261,-2.18511 1.5195,-2.100757 0.5065,-1.397291 0.5066,-0.814089 2.5326,-2.483237 1.5195,-1.473155 1.5196,-1.440911 0.5065,-0.716884 0.5065,-0.13797 1.0131,-0.937359 1.013,-0.928143 0.5066,-0.825706 0.5065,-0.258162 0.5065,-0.481588 0.5065,-0.272745 1.0131,-0.894718 0.5065,-0.243645 0.5065,-0.419131 0.5065,-0.194703 0.5066,-0.316815 3.0391,-0.869625 1.5195,-0.318499 0.5066,-0.171519 0.5065,-0.686906 1.013,-0.574735 3.0392,-1.064016 1.5195,0.0039 3.5457,-1.322923 0.5065,-0.463872 1.5196,-0.27961 1.5195,-0.459145 1.5196,-0.162921 4.0522,-1.177428 1.013,0.09647 1.0131,0.351808 1.013,0.20845 4.0522,0.482713 0.5065,-0.135544 0.5065,0.04931 2.0261,-0.390009 1.013,-0.749428 0.5066,-0.713976 1.5195,-1.184463 1.5196,-1.203605 0.5065,-0.216088 1.5196,-0.989699 0.5065,-0.215915 0.5065,-0.424675 0.5065,-0.159841 0.5066,-0.381726 0.5065,-0.21661 0.5065,-0.464456 1.5196,-0.636373 1.5195,-0.320724 2.5327,-0.575937 3.0391,-0.274486 1.013,0.105173 0.5065,0.08413 1.0131,-0.13789 0.5065,-0.312045 1.5196,-0.315125 7.5978,-0.820735 1.013,-0.429763 1.0131,-0.248435 2.0261,0.02364 1.5195,-0.03883 1.5196,0.04956 0.5065,0.09799 1.5196,0.001 0.5065,0.08963 1.0131,-0.04993 0.5065,0.08624 0.5065,-0.0527 0.5065,0.100926 0.5065,-0.07414 0.5066,0.11436 0.5065,-0.0974 0.5065,0.127078 0.5065,-0.06534 0.5066,0.08035 1.5195,-0.07195 1.0131,0.04791 0.5065,12.496062 0.5065,2.854292 0.5065,-7.921734 0.5065,-2.542848 0.5066,-1.194088 1.013,-3.768085 1.0131,-0.04373 0.5065,4.05815 0.5065,1.405052 0.5065,7.307492 0.5065,4.527571 0.5066,-0.142043 0.5065,-1.871102 0.5065,-1.021879 0.5065,-4.426377 0.5066,-0.377094 0.5065,-1.739632 1.013,-2.57857 0.5065,-1.016414 0.5066,-1.437218 0.5065,-0.316526 0.5065,-1.694742 0.5065,-0.348184 1.0131,0.122615 0.5065,0.226118 3.5456,0.368257 0.5066,0.06084 1.5195,-0.119474 1.5196,0.01077 1.013,-0.149864 1.0131,-0.01314 0.5065,3.317629 0.5065,1.844814 0.5065,4.681462 0.5066,1.312072 1.013,-9.033818 0.5065,6.457203 0.5066,8.245423 0.5065,-0.311756 0.5065,4.170753 0.5065,-1.454528 0.5065,-5.951746 0.5066,-0.674759 2.026,-9.246953 0.5066,-0.476847 0.5065,-1.212267 1.013,-1.25429 1.5196,-0.134433 0.5065,0.07337 3.5457,-0.659263 0.5065,0.02466 0.5065,-0.204596 1.0131,-0.06699 1.013,-0.106864 4.5587,0.02142 0.5065,-0.08935 0.5065,0.02566 0.5066,-0.08634 0.5065,0.03865 0.5065,-0.0989 0.5065,0.05026 1.0131,-0.02337 1.5195,0.08623 0.5066,-0.07339 0.5065,0.09718 0.5065,-0.114206 0.5065,0.04376 0.5065,-0.09261 0.5066,0.08908 0.5065,-0.03759 0.5065,0.143969 5.5717,0.10041 0.5066,0.123997 3.0391,0.02037 0.5065,0.124647 4.0522,-0.306593 0.5065,0.02253 1.0131,0.377178 1.013,-0.139836 0.5065,-0.196048 3.0392,0.07454 3.5456,0.275704 1.0131,-0.02255 0.5065,0.04971 1.013,-0.03069 0.5065,0.27247 0.5066,10.094595 0.5065,6.295122 0.5065,-4.982221 0.5065,-10.725488 0.5065,-1.556287 0.5066,2.618774 1.5195,0.403088 0.5066,0.160972 0.5065,4.175324 0.5065,1.184169 0.5065,6.995638 0.5065,4.625919 0.5066,0.398794 0.5065,-1.195648 0.5065,-5.581796 0.5065,-0.744341 1.0131,-3.786101 0.5065,-1.2626 0.5065,-0.733532 0.5065,-1.080233 0.5066,-0.01738 0.5065,-1.141166 0.5065,-0.727999 0.5065,-0.421038 1.0131,-0.179218 1.013,-0.2491 1.0131,-0.553165 1.013,-0.07431 0.5065,0.09441 1.5196,-0.517468 0.5065,-0.04142 2.0261,-0.801054 1.013,-0.671298 1.5196,-0.766327 1.5196,-0.268892 0.5065,-0.09454 3.0391,0.128942 0.5065,13.370969 0.5066,7.362569 0.5065,-4.413162 0.5065,-11.278481 1.013,-5.125484 1.0131,-0.08636 0.5065,0.04619 1.0131,0.365571 1.013,-0.0029 4.5587,0.188785 0.5065,-0.196464 0.5065,0.16531 0.5066,-0.146538 0.5065,4.163848 0.5065,-0.490258 0.5065,0.246663 0.5065,2.489551 0.5066,7.604239 0.5065,3.975484 0.5065,-1.505358 0.5065,-3.197791 0.5066,0.46553 0.5065,-4.587261 0.5065,-2.172262 1.013,-2.6269 0.5066,-0.628615 0.5065,-1.860484 0.5065,-0.193372 0.5065,-0.804138 1.0131,-0.922782 0.5065,0.08386 0.5065,-0.270652 0.5065,0.172046 0.5066,-0.128525 0.5065,0.125077 0.5065,-0.09763 0.5065,0.0968 0.5065,-0.04635 1.0131,0.356218 1.013,0.762144 0.5066,0.07156 0.5065,-0.0647 0.5065,-0.215253 0.5065,-0.627629 0.5065,-0.06575 1.5196,0.430074 1.5196,3.038008 0.5065,-0.08251 0.5065,-0.259018 0.5065,-0.0034 0.5066,0.339623 0.5065,0.143562 0.5065,0.856322 1.013,-0.178363 1.0131,-0.797713 0.5065,-0.576629 0.5065,-0.395201 0.5065,-0.578574 2.0261,-1.165096 4.0522,-0.885437 1.0131,-0.156712 0.5065,-0.08531 0.5065,0.02864 0.5065,-0.14209 0.5065,0.06797 0.5066,-0.125689 1.013,0.09384 0.5065,-0.08744 0.5065,0.130937 1.0131,-0.138581 0.5065,0.08253 1.0131,-0.01719 0.5065,4.09887 0.5065,5.743833 0.5065,-8.278022 0.5065,9.392435 0.5066,-8.959518 0.5065,59.848094 0.5065,20.60638 0.5065,0.64409 0.5066,-3.27308 2.026,-67.313567 0.5066,5.03049 0.5065,18.341947 0.5065,31.7143 1.013,30.58436 0.5066,-3.66369 0.5065,-7.90076 0.5065,-1.81765 0.5065,-4.53079 0.5066,-6.01673 0.5065,-11.17952 0.5065,-6.39915 0.5065,-12.53214 1.0131,-9.2643 0.5065,-9.513858 1.013,-7.718437 0.5066,-2.273615 1.013,-2.743323 0.5065,-2.298983 1.0131,-2.211742 1.013,-2.35836 1.013,-1.754382 2.5327,-3.620798 1.013,-0.366077 1.5196,-0.09865 h 71.4195 v 0"
       style="fill:none;stroke:#ff0000;stroke-width:2;stroke-linecap:round;stroke-linejoin:round;stroke-miterlimit:10;stroke-dasharray:none;stroke-opacity:1"
       transform="matrix(1.3333333,0,0,-1.3333333,0,468.63583)"
       clip-path="url(#clipPath93)" />
    <path
       id="path94"
       d="m 1324.4952,54.575 v 273.78"
       style="fill:none;stroke:#cccccc;stroke-width:1.25;stroke-linecap:square;stroke-linejoin:miter;stroke-miterlimit:10;stroke-dasharray:none;stroke-opacity:1"
       transform="matrix(1.3333333,0,0,-1.3333333,0,468.63583)" />
    <path
       id="path95"
       d="m 1324.4952,54.575 h 556.6167"
       style="fill:none;stroke:#cccccc;stroke-width:1.25;stroke-linecap:square;stroke-linejoin:miter;stroke-miterlimit:10;stroke-dasharray:none;stroke-opacity:1"
       transform="matrix(1.3333333,0,0,-1.3333333,0,468.63583)" />
  </g>
</svg>
