<?xml version="1.0" encoding="UTF-8" standalone="no"?>
<svg
   width="1888.30875pt"
   height="350.606953pt"
   viewBox="0 0 1888.30875 350.606953"
   version="1.1"
   id="svg122"
   sodipodi:docname="scr_convergence_error.svg"
   inkscape:version="1.3.2 (091e20ef0f, 2023-11-25, custom)"
   xmlns:inkscape="http://www.inkscape.org/namespaces/inkscape"
   xmlns:sodipodi="http://sodipodi.sourceforge.net/DTD/sodipodi-0.dtd"
   xmlns:xlink="http://www.w3.org/1999/xlink"
   xmlns="http://www.w3.org/2000/svg"
   xmlns:svg="http://www.w3.org/2000/svg"
   xmlns:rdf="http://www.w3.org/1999/02/22-rdf-syntax-ns#"
   xmlns:cc="http://creativecommons.org/ns#"
   xmlns:dc="http://purl.org/dc/elements/1.1/">
  <sodipodi:namedview
     id="namedview122"
     pagecolor="#ffffff"
     bordercolor="#999999"
     borderopacity="1"
     inkscape:showpageshadow="2"
     inkscape:pageopacity="0"
     inkscape:pagecheckerboard="0"
     inkscape:deskcolor="#d1d1d1"
     inkscape:document-units="pt"
     inkscape:zoom="1.1013824"
     inkscape:cx="1258.8725"
     inkscape:cy="233.34311"
     inkscape:window-width="3840"
     inkscape:window-height="2120"
     inkscape:window-x="3840"
     inkscape:window-y="0"
     inkscape:window-maximized="1"
     inkscape:current-layer="figure_1" />
  <metadata
     id="metadata1">
    <rdf:RDF>
      <cc:Work>
        <dc:type
           rdf:resource="http://purl.org/dc/dcmitype/StillImage" />
        <dc:date>2024-08-09T11:00:09.580085</dc:date>
        <dc:format>image/svg+xml</dc:format>
        <dc:creator>
          <cc:Agent>
            <dc:title>Matplotlib v3.8.4, https://matplotlib.org/</dc:title>
          </cc:Agent>
        </dc:creator>
      </cc:Work>
    </rdf:RDF>
  </metadata>
  <defs
     id="defs1">
    <style
       type="text/css"
       id="style1">*{stroke-linejoin: round; stroke-linecap: butt}</style>
  </defs>
  <g
     id="figure_1">
    <g
       id="axes_1">
      <g
         id="matplotlib.axis_1">
        <g
           id="xtick_1">
          <g
             id="line2d_1">
            <path
               d="M 49.823548 296.517422  L 49.823548 22.737422  "
               clip-path="url(#p8db9955221)"
               style="fill: none; stroke: #cccccc; stroke-linecap: round"
               id="path3" />
          </g>
          <g
             id="text_1">
            <!-- 0 -->
            <g
               style="fill: #262626"
               transform="translate(44.574485 318.554844) scale(0.165 -0.165)"
               id="g3">
              <defs
                 id="defs3">
                <path
                   id="DejaVuSans-30"
                   d="M 2034 4250  Q 1547 4250 1301 3770  Q 1056 3291 1056 2328  Q 1056 1369 1301 889  Q 1547 409 2034 409  Q 2525 409 2770 889  Q 3016 1369 3016 2328  Q 3016 3291 2770 3770  Q 2525 4250 2034 4250  z M 2034 4750  Q 2819 4750 3233 4129  Q 3647 3509 3647 2328  Q 3647 1150 3233 529  Q 2819 -91 2034 -91  Q 1250 -91 836 529  Q 422 1150 422 2328  Q 422 3509 836 4129  Q 1250 4750 2034 4750  z "
                   transform="scale(0.015625)" />
              </defs>
              <use
                 xlink:href="#DejaVuSans-30"
                 id="use3" />
            </g>
          </g>
        </g>
        <g
           id="xtick_2">
          <g
             id="line2d_2">
            <path
               d="M 146.207386 296.517422  L 146.207386 22.737422  "
               clip-path="url(#p8db9955221)"
               style="fill: none; stroke: #cccccc; stroke-linecap: round"
               id="path4" />
          </g>
          <g
             id="text_2">
            <!-- 200 -->
            <g
               style="fill: #262626"
               transform="translate(130.460199 318.554844) scale(0.165 -0.165)"
               id="g6">
              <defs
                 id="defs4">
                <path
                   id="DejaVuSans-32"
                   d="M 1228 531  L 3431 531  L 3431 0  L 469 0  L 469 531  Q 828 903 1448 1529  Q 2069 2156 2228 2338  Q 2531 2678 2651 2914  Q 2772 3150 2772 3378  Q 2772 3750 2511 3984  Q 2250 4219 1831 4219  Q 1534 4219 1204 4116  Q 875 4013 500 3803  L 500 4441  Q 881 4594 1212 4672  Q 1544 4750 1819 4750  Q 2544 4750 2975 4387  Q 3406 4025 3406 3419  Q 3406 3131 3298 2873  Q 3191 2616 2906 2266  Q 2828 2175 2409 1742  Q 1991 1309 1228 531  z "
                   transform="scale(0.015625)" />
              </defs>
              <use
                 xlink:href="#DejaVuSans-32"
                 id="use4" />
              <use
                 xlink:href="#DejaVuSans-30"
                 x="63.623047"
                 id="use5" />
              <use
                 xlink:href="#DejaVuSans-30"
                 x="127.246094"
                 id="use6" />
            </g>
          </g>
        </g>
        <g
           id="xtick_3">
          <g
             id="line2d_3">
            <path
               d="M 242.591225 296.517422  L 242.591225 22.737422  "
               clip-path="url(#p8db9955221)"
               style="fill: none; stroke: #cccccc; stroke-linecap: round"
               id="path6" />
          </g>
          <g
             id="text_3">
            <!-- 400 -->
            <g
               style="fill: #262626"
               transform="translate(226.844037 318.554844) scale(0.165 -0.165)"
               id="g9">
              <defs
                 id="defs6">
                <path
                   id="DejaVuSans-34"
                   d="M 2419 4116  L 825 1625  L 2419 1625  L 2419 4116  z M 2253 4666  L 3047 4666  L 3047 1625  L 3713 1625  L 3713 1100  L 3047 1100  L 3047 0  L 2419 0  L 2419 1100  L 313 1100  L 313 1709  L 2253 4666  z "
                   transform="scale(0.015625)" />
              </defs>
              <use
                 xlink:href="#DejaVuSans-34"
                 id="use7" />
              <use
                 xlink:href="#DejaVuSans-30"
                 x="63.623047"
                 id="use8" />
              <use
                 xlink:href="#DejaVuSans-30"
                 x="127.246094"
                 id="use9" />
            </g>
          </g>
        </g>
        <g
           id="xtick_4">
          <g
             id="line2d_4">
            <path
               d="M 338.975063 296.517422  L 338.975063 22.737422  "
               clip-path="url(#p8db9955221)"
               style="fill: none; stroke: #cccccc; stroke-linecap: round"
               id="path9" />
          </g>
          <g
             id="text_4">
            <!-- 600 -->
            <g
               style="fill: #262626"
               transform="translate(323.227876 318.554844) scale(0.165 -0.165)"
               id="g12">
              <defs
                 id="defs9">
                <path
                   id="DejaVuSans-36"
                   d="M 2113 2584  Q 1688 2584 1439 2293  Q 1191 2003 1191 1497  Q 1191 994 1439 701  Q 1688 409 2113 409  Q 2538 409 2786 701  Q 3034 994 3034 1497  Q 3034 2003 2786 2293  Q 2538 2584 2113 2584  z M 3366 4563  L 3366 3988  Q 3128 4100 2886 4159  Q 2644 4219 2406 4219  Q 1781 4219 1451 3797  Q 1122 3375 1075 2522  Q 1259 2794 1537 2939  Q 1816 3084 2150 3084  Q 2853 3084 3261 2657  Q 3669 2231 3669 1497  Q 3669 778 3244 343  Q 2819 -91 2113 -91  Q 1303 -91 875 529  Q 447 1150 447 2328  Q 447 3434 972 4092  Q 1497 4750 2381 4750  Q 2619 4750 2861 4703  Q 3103 4656 3366 4563  z "
                   transform="scale(0.015625)" />
              </defs>
              <use
                 xlink:href="#DejaVuSans-36"
                 id="use10" />
              <use
                 xlink:href="#DejaVuSans-30"
                 x="63.623047"
                 id="use11" />
              <use
                 xlink:href="#DejaVuSans-30"
                 x="127.246094"
                 id="use12" />
            </g>
          </g>
        </g>
        <g
           id="xtick_5">
          <g
             id="line2d_5">
            <path
               d="M 435.358902 296.517422  L 435.358902 22.737422  "
               clip-path="url(#p8db9955221)"
               style="fill: none; stroke: #cccccc; stroke-linecap: round"
               id="path12" />
          </g>
          <g
             id="text_5">
            <!-- 800 -->
            <g
               style="fill: #262626"
               transform="translate(419.611714 318.554844) scale(0.165 -0.165)"
               id="g15">
              <defs
                 id="defs12">
                <path
                   id="DejaVuSans-38"
                   d="M 2034 2216  Q 1584 2216 1326 1975  Q 1069 1734 1069 1313  Q 1069 891 1326 650  Q 1584 409 2034 409  Q 2484 409 2743 651  Q 3003 894 3003 1313  Q 3003 1734 2745 1975  Q 2488 2216 2034 2216  z M 1403 2484  Q 997 2584 770 2862  Q 544 3141 544 3541  Q 544 4100 942 4425  Q 1341 4750 2034 4750  Q 2731 4750 3128 4425  Q 3525 4100 3525 3541  Q 3525 3141 3298 2862  Q 3072 2584 2669 2484  Q 3125 2378 3379 2068  Q 3634 1759 3634 1313  Q 3634 634 3220 271  Q 2806 -91 2034 -91  Q 1263 -91 848 271  Q 434 634 434 1313  Q 434 1759 690 2068  Q 947 2378 1403 2484  z M 1172 3481  Q 1172 3119 1398 2916  Q 1625 2713 2034 2713  Q 2441 2713 2670 2916  Q 2900 3119 2900 3481  Q 2900 3844 2670 4047  Q 2441 4250 2034 4250  Q 1625 4250 1398 4047  Q 1172 3844 1172 3481  z "
                   transform="scale(0.015625)" />
              </defs>
              <use
                 xlink:href="#DejaVuSans-38"
                 id="use13" />
              <use
                 xlink:href="#DejaVuSans-30"
                 x="63.623047"
                 id="use14" />
              <use
                 xlink:href="#DejaVuSans-30"
                 x="127.246094"
                 id="use15" />
            </g>
          </g>
        </g>
        <g
           id="xtick_6">
          <g
             id="line2d_6">
            <path
               d="M 531.74274 296.517422  L 531.74274 22.737422  "
               clip-path="url(#p8db9955221)"
               style="fill: none; stroke: #cccccc; stroke-linecap: round"
               id="path15" />
          </g>
          <g
             id="text_6">
            <!-- 1000 -->
            <g
               style="fill: #262626"
               transform="translate(510.74649 318.554844) scale(0.165 -0.165)"
               id="g19">
              <defs
                 id="defs15">
                <path
                   id="DejaVuSans-31"
                   d="M 794 531  L 1825 531  L 1825 4091  L 703 3866  L 703 4441  L 1819 4666  L 2450 4666  L 2450 531  L 3481 531  L 3481 0  L 794 0  L 794 531  z "
                   transform="scale(0.015625)" />
              </defs>
              <use
                 xlink:href="#DejaVuSans-31"
                 id="use16" />
              <use
                 xlink:href="#DejaVuSans-30"
                 x="63.623047"
                 id="use17" />
              <use
                 xlink:href="#DejaVuSans-30"
                 x="127.246094"
                 id="use18" />
              <use
                 xlink:href="#DejaVuSans-30"
                 x="190.869141"
                 id="use19" />
            </g>
          </g>
        </g>
        <g
           id="text_7">
          <!-- time -->
          <g
             style="fill: #262626"
             transform="translate(306.594115 339.663516) scale(0.18 -0.18)"
             id="g23">
            <defs
               id="defs19">
              <path
                 id="DejaVuSans-74"
                 d="M 1172 4494  L 1172 3500  L 2356 3500  L 2356 3053  L 1172 3053  L 1172 1153  Q 1172 725 1289 603  Q 1406 481 1766 481  L 2356 481  L 2356 0  L 1766 0  Q 1100 0 847 248  Q 594 497 594 1153  L 594 3053  L 172 3053  L 172 3500  L 594 3500  L 594 4494  L 1172 4494  z "
                 transform="scale(0.015625)" />
              <path
                 id="DejaVuSans-69"
                 d="M 603 3500  L 1178 3500  L 1178 0  L 603 0  L 603 3500  z M 603 4863  L 1178 4863  L 1178 4134  L 603 4134  L 603 4863  z "
                 transform="scale(0.015625)" />
              <path
                 id="DejaVuSans-6d"
                 d="M 3328 2828  Q 3544 3216 3844 3400  Q 4144 3584 4550 3584  Q 5097 3584 5394 3201  Q 5691 2819 5691 2113  L 5691 0  L 5113 0  L 5113 2094  Q 5113 2597 4934 2840  Q 4756 3084 4391 3084  Q 3944 3084 3684 2787  Q 3425 2491 3425 1978  L 3425 0  L 2847 0  L 2847 2094  Q 2847 2600 2669 2842  Q 2491 3084 2119 3084  Q 1678 3084 1418 2786  Q 1159 2488 1159 1978  L 1159 0  L 581 0  L 581 3500  L 1159 3500  L 1159 2956  Q 1356 3278 1631 3431  Q 1906 3584 2284 3584  Q 2666 3584 2933 3390  Q 3200 3197 3328 2828  z "
                 transform="scale(0.015625)" />
              <path
                 id="DejaVuSans-65"
                 d="M 3597 1894  L 3597 1613  L 953 1613  Q 991 1019 1311 708  Q 1631 397 2203 397  Q 2534 397 2845 478  Q 3156 559 3463 722  L 3463 178  Q 3153 47 2828 -22  Q 2503 -91 2169 -91  Q 1331 -91 842 396  Q 353 884 353 1716  Q 353 2575 817 3079  Q 1281 3584 2069 3584  Q 2775 3584 3186 3129  Q 3597 2675 3597 1894  z M 3022 2063  Q 3016 2534 2758 2815  Q 2500 3097 2075 3097  Q 1594 3097 1305 2825  Q 1016 2553 972 2059  L 3022 2063  z "
                 transform="scale(0.015625)" />
            </defs>
            <use
               xlink:href="#DejaVuSans-74"
               id="use20" />
            <use
               xlink:href="#DejaVuSans-69"
               x="39.208984"
               id="use21" />
            <use
               xlink:href="#DejaVuSans-6d"
               x="66.992188"
               id="use22" />
            <use
               xlink:href="#DejaVuSans-65"
               x="164.404297"
               id="use23" />
          </g>
        </g>
      </g>
      <g
         id="matplotlib.axis_2">
        <g
           id="ytick_1">
          <g
             id="line2d_7">
            <path
               d="M 48.61875 284.072876  L 605.235417 284.072876  "
               clip-path="url(#p8db9955221)"
               style="fill: none; stroke: #cccccc; stroke-linecap: round"
               id="path23" />
          </g>
          <g
             id="text_8">
            <!-- 0 -->
            <g
               style="fill: #262626"
               transform="translate(28.620625 290.341587) scale(0.165 -0.165)"
               id="g24">
              <use
                 xlink:href="#DejaVuSans-30"
                 id="use24" />
            </g>
          </g>
        </g>
        <g
           id="ytick_2">
          <g
             id="line2d_8">
            <path
               d="M 48.61875 241.82055  L 605.235417 241.82055  "
               clip-path="url(#p8db9955221)"
               style="fill: none; stroke: #cccccc; stroke-linecap: round"
               id="path24" />
          </g>
          <g
             id="text_9">
            <!-- 1 -->
            <g
               style="fill: #262626"
               transform="translate(28.620625 248.089261) scale(0.165 -0.165)"
               id="g25">
              <use
                 xlink:href="#DejaVuSans-31"
                 id="use25" />
            </g>
          </g>
        </g>
        <g
           id="ytick_3">
          <g
             id="line2d_9">
            <path
               d="M 48.61875 199.568224  L 605.235417 199.568224  "
               clip-path="url(#p8db9955221)"
               style="fill: none; stroke: #cccccc; stroke-linecap: round"
               id="path25" />
          </g>
          <g
             id="text_10">
            <!-- 2 -->
            <g
               style="fill: #262626"
               transform="translate(28.620625 205.836935) scale(0.165 -0.165)"
               id="g26">
              <use
                 xlink:href="#DejaVuSans-32"
                 id="use26" />
            </g>
          </g>
        </g>
        <g
           id="ytick_4">
          <g
             id="line2d_10">
            <path
               d="M 48.61875 157.315898  L 605.235417 157.315898  "
               clip-path="url(#p8db9955221)"
               style="fill: none; stroke: #cccccc; stroke-linecap: round"
               id="path26" />
          </g>
          <g
             id="text_11">
            <!-- 3 -->
            <g
               style="fill: #262626"
               transform="translate(28.620625 163.584609) scale(0.165 -0.165)"
               id="g27">
              <defs
                 id="defs26">
                <path
                   id="DejaVuSans-33"
                   d="M 2597 2516  Q 3050 2419 3304 2112  Q 3559 1806 3559 1356  Q 3559 666 3084 287  Q 2609 -91 1734 -91  Q 1441 -91 1130 -33  Q 819 25 488 141  L 488 750  Q 750 597 1062 519  Q 1375 441 1716 441  Q 2309 441 2620 675  Q 2931 909 2931 1356  Q 2931 1769 2642 2001  Q 2353 2234 1838 2234  L 1294 2234  L 1294 2753  L 1863 2753  Q 2328 2753 2575 2939  Q 2822 3125 2822 3475  Q 2822 3834 2567 4026  Q 2313 4219 1838 4219  Q 1578 4219 1281 4162  Q 984 4106 628 3988  L 628 4550  Q 988 4650 1302 4700  Q 1616 4750 1894 4750  Q 2613 4750 3031 4423  Q 3450 4097 3450 3541  Q 3450 3153 3228 2886  Q 3006 2619 2597 2516  z "
                   transform="scale(0.015625)" />
              </defs>
              <use
                 xlink:href="#DejaVuSans-33"
                 id="use27" />
            </g>
          </g>
        </g>
        <g
           id="ytick_5">
          <g
             id="line2d_11">
            <path
               d="M 48.61875 115.063572  L 605.235417 115.063572  "
               clip-path="url(#p8db9955221)"
               style="fill: none; stroke: #cccccc; stroke-linecap: round"
               id="path27" />
          </g>
          <g
             id="text_12">
            <!-- 4 -->
            <g
               style="fill: #262626"
               transform="translate(28.620625 121.332283) scale(0.165 -0.165)"
               id="g28">
              <use
                 xlink:href="#DejaVuSans-34"
                 id="use28" />
            </g>
          </g>
        </g>
        <g
           id="ytick_6">
          <g
             id="line2d_12">
            <path
               d="M 48.61875 72.811246  L 605.235417 72.811246  "
               clip-path="url(#p8db9955221)"
               style="fill: none; stroke: #cccccc; stroke-linecap: round"
               id="path28" />
          </g>
          <g
             id="text_13">
            <!-- 5 -->
            <g
               style="fill: #262626"
               transform="translate(28.620625 79.079957) scale(0.165 -0.165)"
               id="g29">
              <defs
                 id="defs28">
                <path
                   id="DejaVuSans-35"
                   d="M 691 4666  L 3169 4666  L 3169 4134  L 1269 4134  L 1269 2991  Q 1406 3038 1543 3061  Q 1681 3084 1819 3084  Q 2600 3084 3056 2656  Q 3513 2228 3513 1497  Q 3513 744 3044 326  Q 2575 -91 1722 -91  Q 1428 -91 1123 -41  Q 819 9 494 109  L 494 744  Q 775 591 1075 516  Q 1375 441 1709 441  Q 2250 441 2565 725  Q 2881 1009 2881 1497  Q 2881 1984 2565 2268  Q 2250 2553 1709 2553  Q 1456 2553 1204 2497  Q 953 2441 691 2322  L 691 4666  z "
                   transform="scale(0.015625)" />
              </defs>
              <use
                 xlink:href="#DejaVuSans-35"
                 id="use29" />
            </g>
          </g>
        </g>
        <g
           id="ytick_7">
          <g
             id="line2d_13">
            <path
               d="M 48.61875 30.55892  L 605.235417 30.55892  "
               clip-path="url(#p8db9955221)"
               style="fill: none; stroke: #cccccc; stroke-linecap: round"
               id="path29" />
          </g>
          <g
             id="text_14">
            <!-- 6 -->
            <g
               style="fill: #262626"
               transform="translate(28.620625 36.827631) scale(0.165 -0.165)"
               id="g30">
              <use
                 xlink:href="#DejaVuSans-36"
                 id="use30" />
            </g>
          </g>
        </g>
        <g
           id="text_15">
          <!-- Error -->
          <g
             style="fill: #262626"
             transform="translate(20.877188 181.560703) rotate(-90) scale(0.18 -0.18)"
             id="g35">
            <defs
               id="defs30">
              <path
                 id="DejaVuSans-45"
                 d="M 628 4666  L 3578 4666  L 3578 4134  L 1259 4134  L 1259 2753  L 3481 2753  L 3481 2222  L 1259 2222  L 1259 531  L 3634 531  L 3634 0  L 628 0  L 628 4666  z "
                 transform="scale(0.015625)" />
              <path
                 id="DejaVuSans-72"
                 d="M 2631 2963  Q 2534 3019 2420 3045  Q 2306 3072 2169 3072  Q 1681 3072 1420 2755  Q 1159 2438 1159 1844  L 1159 0  L 581 0  L 581 3500  L 1159 3500  L 1159 2956  Q 1341 3275 1631 3429  Q 1922 3584 2338 3584  Q 2397 3584 2469 3576  Q 2541 3569 2628 3553  L 2631 2963  z "
                 transform="scale(0.015625)" />
              <path
                 id="DejaVuSans-6f"
                 d="M 1959 3097  Q 1497 3097 1228 2736  Q 959 2375 959 1747  Q 959 1119 1226 758  Q 1494 397 1959 397  Q 2419 397 2687 759  Q 2956 1122 2956 1747  Q 2956 2369 2687 2733  Q 2419 3097 1959 3097  z M 1959 3584  Q 2709 3584 3137 3096  Q 3566 2609 3566 1747  Q 3566 888 3137 398  Q 2709 -91 1959 -91  Q 1206 -91 779 398  Q 353 888 353 1747  Q 353 2609 779 3096  Q 1206 3584 1959 3584  z "
                 transform="scale(0.015625)" />
            </defs>
            <use
               xlink:href="#DejaVuSans-45"
               id="use31" />
            <use
               xlink:href="#DejaVuSans-72"
               x="63.183594"
               id="use32" />
            <use
               xlink:href="#DejaVuSans-72"
               x="102.546875"
               id="use33" />
            <use
               xlink:href="#DejaVuSans-6f"
               x="141.410156"
               id="use34" />
            <use
               xlink:href="#DejaVuSans-72"
               x="202.591797"
               id="use35" />
          </g>
        </g>
        <g
           id="text_16">
          <!-- 1e3 -->
          <g
             style="fill: #262626"
             transform="translate(48.61875 19.737422) scale(0.165 -0.165)"
             id="g38">
            <use
               xlink:href="#DejaVuSans-31"
               id="use36" />
            <use
               xlink:href="#DejaVuSans-65"
               x="63.623047"
               id="use37" />
            <use
               xlink:href="#DejaVuSans-33"
               x="125.146484"
               id="use38" />
          </g>
        </g>
      </g>
      <g
         id="PolyCollection_1" />
      <g
         id="line2d_14">
        <path
           d="M 73.919508 216.4602  L 74.426029 218.528637  L 74.932551 222.631506  L 75.439073 223.155644  L 75.945594 225.180871  L 76.452116 228.649581  L 76.958638 228.507461  L 77.465159 228.954824  L 77.971681 232.11535  L 78.478203 233.372118  L 78.984724 238.05224  L 79.491246 238.606424  L 79.997768 238.757373  L 80.504289 241.252617  L 81.010811 242.987304  L 81.517333 244.313762  L 82.023854 246.052258  L 82.530376 246.846692  L 83.036898 247.310652  L 83.543419 249.309359  L 84.049941 250.09559  L 85.062984 253.081434  L 85.569506 253.854176  L 86.076028 254.41015  L 86.582549 256.218015  L 87.595593 258.435528  L 88.102114 260.183526  L 88.608636 261.004741  L 89.115158 263.362772  L 90.128201 265.495118  L 90.634723 267.273724  L 91.647766 268.603315  L 92.154288 270.428861  L 92.660809 271.448659  L 93.167331 272.84478  L 93.673853 273.884814  L 94.180375 274.591118  L 94.686896 275.080437  L 95.193418 276.963564  L 95.69994 276.886474  L 96.206461 278.202613  L 96.712983 278.671601  L 97.219505 279.480966  L 97.726026 279.847927  L 98.232548 281.86605  L 98.73907 282.135808  L 99.245591 283.257057  L 99.752113 284.062353  L 100.258635 284.015864  L 100.765156 283.753553  L 101.271678 284.018598  L 101.7782 284.057406  L 103.297765 283.812262  L 107.349938 283.555913  L 107.85646 283.69016  L 108.362981 283.550907  L 110.389068 283.516822  L 110.89559 283.303995  L 111.402111 283.360854  L 112.415155 283.704722  L 112.921676 283.537465  L 113.428198 283.660714  L 114.441241 283.434588  L 116.97385 283.475625  L 117.480371 283.315127  L 117.986893 283.445227  L 118.493415 283.291646  L 118.999936 283.274375  L 119.506458 283.460126  L 120.01298 283.395358  L 120.519502 283.637587  L 122.545588 283.642667  L 123.05211 283.345659  L 123.558632 283.35388  L 124.065153 283.1433  L 124.571675 283.287008  L 126.09124 283.142202  L 128.623848 283.176189  L 129.13037 283.360673  L 129.636892 252.12008  L 130.143413 183.210824  L 130.649935 184.801292  L 131.662978 220.749379  L 132.676022 238.240371  L 133.182543 249.281615  L 133.689065 255.563416  L 134.195587 267.682272  L 135.20863 274.449202  L 135.715152 277.692161  L 136.221673 281.966616  L 136.728195 283.120128  L 137.234717 283.785832  L 137.741238 284.035117  L 138.754282 283.834501  L 139.260803 284.008662  L 139.767325 283.638573  L 140.273847 283.933417  L 140.780368 283.579691  L 141.28689 283.903575  L 141.793412 283.601895  L 142.299933 283.928078  L 142.806455 283.674693  L 143.312977 283.924474  L 143.819498 283.672266  L 144.32602 283.867591  L 144.832542 283.692284  L 145.339063 283.84673  L 145.845585 283.71476  L 146.352107 244.880289  L 146.858629 158.997909  L 147.36515 166.707357  L 147.871672 202.388259  L 148.378194 269.100525  L 148.884715 263.94736  L 149.391237 228.118868  L 149.897759 250.224769  L 150.40428 260.628848  L 150.910802 266.064835  L 151.417324 276.909576  L 151.923845 283.452716  L 152.430367 283.851799  L 152.936889 284.057079  L 153.44341 283.786893  L 153.949932 283.958863  L 154.456454 283.761203  L 154.962975 283.94975  L 158.508627 284.045436  L 159.015149 283.819993  L 159.52167 284.033985  L 160.028192 283.814538  L 160.534714 284.006019  L 161.041235 283.807887  L 161.547757 284.006758  L 162.054279 283.883  L 162.5608 284.027244  L 163.067322 283.933747  L 163.573844 284.058024  L 164.080365 283.973555  L 164.586887 284.060939  L 165.093409 283.983675  L 165.59993 284.063363  L 166.106452 283.985939  L 166.612974 284.054909  L 167.119495 283.989505  L 167.626017 284.053944  L 168.63906 283.99252  L 170.158625 284.064532  L 171.171669 284.015116  L 172.184712 284.009433  L 172.691234 283.883757  L 173.197756 284.004839  L 173.704277 283.835802  L 174.210799 283.970995  L 175.223842 283.932223  L 176.236886 283.937202  L 179.276016 284.018763  L 179.782537 283.9578  L 180.795581 283.96823  L 182.315146 284.035183  L 183.834711 283.955404  L 184.341232 284.038409  L 184.847754 283.968782  L 185.354276 284.032095  L 185.860797 283.936127  L 186.367319 284.01705  L 187.886884 283.997375  L 191.432536 283.874842  L 191.939057 283.705087  L 192.445579 283.704637  L 192.952101 283.553529  L 193.458622 283.560903  L 193.965144 283.42465  L 194.471666 283.436674  L 194.978187 283.325599  L 195.484709 283.369785  L 196.497752 283.307634  L 197.510796 283.300597  L 198.523839 283.690073  L 199.030361 284.021879  L 199.536883 283.947968  L 200.549926 284.006695  L 205.108621 283.915118  L 205.615143 283.565471  L 206.121664 283.895952  L 206.628186 283.953581  L 207.134708 283.885643  L 207.641229 284.065011  L 208.147751 284.067858  L 208.654273 283.917486  L 210.680359 284.011342  L 212.199924 283.659239  L 212.706446 283.859644  L 213.212968 283.612298  L 213.719489 283.939945  L 214.226011 283.732571  L 214.732533 284.032157  L 215.239054 283.888503  L 216.252098 283.935212  L 216.758619 283.814932  L 217.265141 283.888951  L 218.278184 283.701177  L 218.784706 283.999323  L 219.291228 283.533137  L 219.797749 283.998608  L 220.304271 283.748267  L 220.810793 283.957862  L 221.317314 283.62814  L 221.823836 283.82958  L 222.330358 283.634682  L 222.836879 283.934235  L 223.343401 283.755966  L 223.849923 283.910826  L 224.356445 283.744556  L 224.862966 283.31204  L 225.87601 283.918381  L 226.889053 282.937676  L 227.395575 283.025927  L 227.902096 283.485318  L 228.408618 283.35217  L 228.91514 283.571073  L 229.421661 283.435524  L 230.434705 283.979567  L 230.941226 283.690614  L 231.447748 284.048019  L 231.95427 283.744646  L 232.460791 283.883846  L 232.967313 283.786959  L 234.486878 283.851455  L 236.006443 283.833786  L 238.03253 283.975782  L 239.552095 283.957816  L 240.058616 284.024542  L 240.565138 283.976184  L 241.07166 215.239455  L 241.578181 179.69409  L 242.084703 186.933808  L 242.591225 212.397498  L 243.097746 231.612335  L 243.604268 231.37532  L 245.123833 260.937573  L 246.136876 275.420219  L 246.643398 276.454024  L 247.656441 283.564319  L 248.162963 283.28096  L 248.669485 283.462962  L 249.176006 283.2332  L 249.682528 283.349868  L 250.18905 283.19921  L 250.695572 283.337264  L 251.202093 283.203192  L 251.708615 283.397999  L 252.215137 283.30488  L 252.721658 283.499606  L 253.22818 283.387708  L 253.734702 283.463182  L 254.241223 283.377369  L 254.747745 283.545162  L 255.760788 283.61295  L 256.26731 283.668824  L 256.773832 283.511216  L 257.280353 283.588251  L 258.293397 232.967989  L 258.799918 168.547675  L 259.30644 158.762942  L 259.812962 160.355477  L 260.319483 218.531678  L 260.826005 262.56264  L 261.332527 283.551902  L 261.839048 283.652315  L 262.34557 283.543186  L 262.852092 283.664533  L 263.358613 283.603026  L 263.865135 283.675881  L 264.878178 283.633476  L 265.3847 283.723799  L 265.891222 265.380926  L 266.904265 206.556726  L 267.410787 142.887483  L 267.917308 102.450526  L 271.46296 53.229132  L 272.476003 41.648025  L 272.982525 38.068794  L 273.489047 35.831373  L 273.995568 35.379894  L 274.50209 35.181967  L 275.008612 35.479844  L 275.515134 35.269281  L 276.021655 35.585634  L 276.528177 35.379811  L 277.034699 35.602375  L 278.047742 35.430849  L 278.554264 35.607231  L 279.060785 35.549214  L 279.567307 35.718858  L 280.073829 35.674213  L 280.58035 35.840599  L 281.086872 35.763031  L 281.593394 35.874148  L 282.099915 35.754208  L 282.606437 35.828412  L 283.61948 238.261057  L 284.126002 221.483935  L 284.632524 172.439164  L 285.139045 148.818632  L 285.645567 157.133748  L 286.152089 161.733047  L 286.65861 176.61199  L 287.165132 180.511227  L 287.671654 200.594098  L 288.178175 207.170511  L 289.191219 212.918397  L 290.204262 224.025979  L 290.710784 227.51589  L 291.217305 233.724004  L 291.723827 236.487573  L 292.230349 238.584456  L 293.243392 248.417375  L 293.749914 251.619966  L 294.256435 255.788332  L 295.269479 257.648231  L 295.776 261.06608  L 296.789044 264.183739  L 297.295565 268.2669  L 297.802087 269.214047  L 298.308609 272.15099  L 298.81513 274.287088  L 299.321652 275.379164  L 299.828174 278.578008  L 300.841217 279.813944  L 301.347739 282.052986  L 301.854261 283.125957  L 302.867304 283.826537  L 303.373826 283.792355  L 303.880347 283.949335  L 304.386869 283.701757  L 304.893391 283.902097  L 305.399912 283.680754  L 305.906434 283.962891  L 306.412956 283.738771  L 306.919477 284.030646  L 307.425999 284.032271  L 307.932521 283.841117  L 308.439042 284.068673  L 308.945564 283.815997  L 309.452086 284.012491  L 309.958607 283.781985  L 310.465129 283.961554  L 310.971651 283.672899  L 311.478172 283.821334  L 311.984694 283.59221  L 312.491216 283.87656  L 312.997737 283.724277  L 313.504259 283.994328  L 314.010781 283.886477  L 314.517302 284.02059  L 315.023824 283.77797  L 315.530346 283.862542  L 316.036867 283.598774  L 316.543389 283.715836  L 317.556432 283.529468  L 318.062954 283.709911  L 318.569476 283.582005  L 319.075997 283.786903  L 319.582519 283.68498  L 320.089041 283.890223  L 320.595562 283.730597  L 321.102084 283.974162  L 321.608606 283.762035  L 322.115127 283.960165  L 322.621649 283.775501  L 323.128171 283.920916  L 323.634692 283.75856  L 324.141214 283.951247  L 324.647736 283.889253  L 325.154257 283.993251  L 327.180344 283.854019  L 328.699909 284.005027  L 329.206431 283.906082  L 329.712953 284.03036  L 330.219474 283.941991  L 330.725996 284.05765  L 331.232518 283.997799  L 332.245561 284.022079  L 333.765126 284.068785  L 334.271648 283.995832  L 334.778169 284.059623  L 335.284691 283.978912  L 335.791213 284.056704  L 336.297734 283.97866  L 337.310778 284.035229  L 337.817299 283.933766  L 338.323821 284.019523  L 338.830343 283.915685  L 339.336864 284.018416  L 339.843386 283.92317  L 340.349908 284.031705  L 340.856429 283.936406  L 341.362951 284.028289  L 341.869473 283.920954  L 342.375994 283.980252  L 342.882516 283.88123  L 343.389038 283.989152  L 343.895559 283.892572  L 344.402081 284.013947  L 344.908603 283.915612  L 345.415124 284.02287  L 345.921646 283.906118  L 346.934689 284.063419  L 347.947733 283.985145  L 348.960776 284.012797  L 349.467298 284.050658  L 350.480341 283.695431  L 350.986863 283.399816  L 351.999906 284.005594  L 352.506428 283.867542  L 353.01295 283.955018  L 353.519471 283.888796  L 354.025993 284.031484  L 355.039036 283.757889  L 356.05208 283.984301  L 357.065123 283.923806  L 357.571645 283.979939  L 359.09121 283.909189  L 359.597731 284.00445  L 360.104253 283.888434  L 360.610775 284.009158  L 361.117296 283.879586  L 361.623818 284.019943  L 362.13034 283.888855  L 362.636861 284.029201  L 363.143383 283.875015  L 363.649905 283.976887  L 364.156426 283.866865  L 364.662948 283.98828  L 365.16947 283.864544  L 365.675991 284.01895  L 366.182513 283.85119  L 366.689035 283.822953  L 367.195556 284.063495  L 367.702078 283.792268  L 368.2086 284.058949  L 368.715121 283.826873  L 369.728165 283.974043  L 370.234686 283.884341  L 370.741208 284.00578  L 371.24773 283.926467  L 372.767295 284.056712  L 373.273816 283.858742  L 373.780338 284.030906  L 374.28686 283.940395  L 374.793381 284.070066  L 375.299903 283.918843  L 375.806425 284.066271  L 376.312946 283.952365  L 377.832511 284.036061  L 378.845555 283.995221  L 385.936858 283.939772  L 386.949902 282.864885  L 387.456423 282.983828  L 388.469467 283.993921  L 389.989032 283.944207  L 391.002075 283.737787  L 391.508597 283.618059  L 392.015118 283.358979  L 392.52164 283.370339  L 393.028162 283.147541  L 393.534683 283.259946  L 394.041205 283.156551  L 394.547727 283.279737  L 395.054248 283.168495  L 395.56077 283.262241  L 396.067292 283.126803  L 397.080335 283.556643  L 398.093378 283.399946  L 398.5999 282.369609  L 399.106422 282.108844  L 401.132508 282.34558  L 401.63903 282.485507  L 406.197725 282.214453  L 406.704247 282.524331  L 407.210769 283.052715  L 407.71729 283.112992  L 408.223812 283.435226  L 408.730334 283.485558  L 409.236855 282.8696  L 410.249899 282.304181  L 410.75642 282.034836  L 411.262942 236.60941  L 411.769464 214.7336  L 412.275985 220.654615  L 412.782507 253.069412  L 413.289029 192.952681  L 413.79555 160.604882  L 414.302072 246.176303  L 414.808594 273.979654  L 415.315115 270.04905  L 415.821637 261.734597  L 416.328159 272.761498  L 416.83468 275.702638  L 417.341202 276.415118  L 417.847724 281.871086  L 418.354245 283.964578  L 418.860767 283.99906  L 419.367289 283.865546  L 419.87381 284.039934  L 420.380332 283.829926  L 420.886854 284.013497  L 421.393375 283.844982  L 421.899897 283.927031  L 422.406419 283.802014  L 425.445549 283.935652  L 426.458592 283.891905  L 426.965114 283.972585  L 427.471635 283.881634  L 427.978157 283.991786  L 428.484679 283.88233  L 428.9912 283.982775  L 429.497722 283.830347  L 430.004244 283.988186  L 432.030331 283.959701  L 433.549896 283.728346  L 435.069461 283.794944  L 435.575982 283.583826  L 436.589026 283.670144  L 437.095547 283.133666  L 437.602069 283.587265  L 438.108591 282.898551  L 438.615112 283.289077  L 439.121634 282.858019  L 439.628156 283.431891  L 440.134677 282.942054  L 440.641199 283.41147  L 441.147721 283.092686  L 441.654242 283.554964  L 442.160764 283.283465  L 442.667286 283.728273  L 443.173807 283.501796  L 443.680329 284.040517  L 444.186851 283.894068  L 445.706416 284.057166  L 446.212937 283.882623  L 446.719459 283.574462  L 447.225981 283.987975  L 447.732502 283.731012  L 448.239024 284.014972  L 448.745546 283.672113  L 449.252067 284.029918  L 449.758589 283.76338  L 450.265111 284.013576  L 450.771632 283.751365  L 451.784676 283.853017  L 453.304241 283.767799  L 453.810762 283.911572  L 455.836849 284.016401  L 456.343371 283.787221  L 456.849893 283.699966  L 457.356414 283.776904  L 458.369458 283.749917  L 459.382501 283.935713  L 459.889023 284.036024  L 460.395544 283.881073  L 462.421631 282.466309  L 462.928153 282.590057  L 463.941196 282.166338  L 464.447718 282.390552  L 464.954239 282.250916  L 465.460761 282.377332  L 466.473804 282.936091  L 466.980326 283.293783  L 468.499891 283.800314  L 469.512934 283.898103  L 472.552064 283.799179  L 474.071629 284.061778  L 475.591194 283.938606  L 476.604238 284.040905  L 477.110759 283.777176  L 477.617281 283.951961  L 478.123803 283.725658  L 478.630324 283.964891  L 479.136846 283.663532  L 479.643368 283.928886  L 480.149889 283.694447  L 480.656411 283.946147  L 481.162933 283.842435  L 481.669454 284.026703  L 482.175976 283.86899  L 482.682498 284.016125  L 483.18902 283.855195  L 483.695541 283.969487  L 484.202063 283.790569  L 484.708585 283.927699  L 485.215106 283.893094  L 485.721628 284.039015  L 490.786845 284.072876  L 579.934659 284.072876  L 579.934659 284.072876  "
           clip-path="url(#p8db9955221)"
           style="fill: none; stroke: #4c72b0; stroke-width: 2; stroke-linecap: round"
           id="path38" />
      </g>
      <g
         id="patch_3">
        <path
           d="M 48.61875 296.517422  L 48.61875 22.737422  "
           style="fill: none; stroke: #cccccc; stroke-width: 1.25; stroke-linejoin: miter; stroke-linecap: square"
           id="path39" />
      </g>
      <g
         id="patch_4">
        <path
           d="M 48.61875 296.517422  L 605.235417 296.517422  "
           style="fill: none; stroke: #cccccc; stroke-width: 1.25; stroke-linejoin: miter; stroke-linecap: square"
           id="path40" />
      </g>
    </g>
    <g
       id="axes_2">
      <g
         id="matplotlib.axis_3">
        <g
           id="xtick_7">
          <g
             id="line2d_15">
            <path
               d="M 687.760215 296.517422  L 687.760215 22.737422  "
               clip-path="url(#pb4aca069e2)"
               style="fill: none; stroke: #cccccc; stroke-linecap: round"
               id="path42" />
          </g>
          <g
             id="text_17">
            <!-- 0 -->
            <g
               style="fill: #262626"
               transform="translate(682.511152 318.554844) scale(0.165 -0.165)"
               id="g42">
              <use
                 xlink:href="#DejaVuSans-30"
                 id="use42" />
            </g>
          </g>
        </g>
        <g
           id="xtick_8">
          <g
             id="line2d_16">
            <path
               d="M 784.144053 296.517422  L 784.144053 22.737422  "
               clip-path="url(#pb4aca069e2)"
               style="fill: none; stroke: #cccccc; stroke-linecap: round"
               id="path43" />
          </g>
          <g
             id="text_18">
            <!-- 200 -->
            <g
               style="fill: #262626"
               transform="translate(768.396866 318.554844) scale(0.165 -0.165)"
               id="g45">
              <use
                 xlink:href="#DejaVuSans-32"
                 id="use43" />
              <use
                 xlink:href="#DejaVuSans-30"
                 x="63.623047"
                 id="use44" />
              <use
                 xlink:href="#DejaVuSans-30"
                 x="127.246094"
                 id="use45" />
            </g>
          </g>
        </g>
        <g
           id="xtick_9">
          <g
             id="line2d_17">
            <path
               d="M 880.527891 296.517422  L 880.527891 22.737422  "
               clip-path="url(#pb4aca069e2)"
               style="fill: none; stroke: #cccccc; stroke-linecap: round"
               id="path45" />
          </g>
          <g
             id="text_19">
            <!-- 400 -->
            <g
               style="fill: #262626"
               transform="translate(864.780704 318.554844) scale(0.165 -0.165)"
               id="g48">
              <use
                 xlink:href="#DejaVuSans-34"
                 id="use46" />
              <use
                 xlink:href="#DejaVuSans-30"
                 x="63.623047"
                 id="use47" />
              <use
                 xlink:href="#DejaVuSans-30"
                 x="127.246094"
                 id="use48" />
            </g>
          </g>
        </g>
        <g
           id="xtick_10">
          <g
             id="line2d_18">
            <path
               d="M 976.91173 296.517422  L 976.91173 22.737422  "
               clip-path="url(#pb4aca069e2)"
               style="fill: none; stroke: #cccccc; stroke-linecap: round"
               id="path48" />
          </g>
          <g
             id="text_20">
            <!-- 600 -->
            <g
               style="fill: #262626"
               transform="translate(961.164542 318.554844) scale(0.165 -0.165)"
               id="g51">
              <use
                 xlink:href="#DejaVuSans-36"
                 id="use49" />
              <use
                 xlink:href="#DejaVuSans-30"
                 x="63.623047"
                 id="use50" />
              <use
                 xlink:href="#DejaVuSans-30"
                 x="127.246094"
                 id="use51" />
            </g>
          </g>
        </g>
        <g
           id="xtick_11">
          <g
             id="line2d_19">
            <path
               d="M 1073.295568 296.517422  L 1073.295568 22.737422  "
               clip-path="url(#pb4aca069e2)"
               style="fill: none; stroke: #cccccc; stroke-linecap: round"
               id="path51" />
          </g>
          <g
             id="text_21">
            <!-- 800 -->
            <g
               style="fill: #262626"
               transform="translate(1057.548381 318.554844) scale(0.165 -0.165)"
               id="g54">
              <use
                 xlink:href="#DejaVuSans-38"
                 id="use52" />
              <use
                 xlink:href="#DejaVuSans-30"
                 x="63.623047"
                 id="use53" />
              <use
                 xlink:href="#DejaVuSans-30"
                 x="127.246094"
                 id="use54" />
            </g>
          </g>
        </g>
        <g
           id="xtick_12">
          <g
             id="line2d_20">
            <path
               d="M 1169.679407 296.517422  L 1169.679407 22.737422  "
               clip-path="url(#pb4aca069e2)"
               style="fill: none; stroke: #cccccc; stroke-linecap: round"
               id="path54" />
          </g>
          <g
             id="text_22">
            <!-- 1000 -->
            <g
               style="fill: #262626"
               transform="translate(1148.683157 318.554844) scale(0.165 -0.165)"
               id="g58">
              <use
                 xlink:href="#DejaVuSans-31"
                 id="use55" />
              <use
                 xlink:href="#DejaVuSans-30"
                 x="63.623047"
                 id="use56" />
              <use
                 xlink:href="#DejaVuSans-30"
                 x="127.246094"
                 id="use57" />
              <use
                 xlink:href="#DejaVuSans-30"
                 x="190.869141"
                 id="use58" />
            </g>
          </g>
        </g>
        <g
           id="text_23">
          <!-- time -->
          <g
             style="fill: #262626"
             transform="translate(944.530781 339.663516) scale(0.18 -0.18)"
             id="g62">
            <use
               xlink:href="#DejaVuSans-74"
               id="use59" />
            <use
               xlink:href="#DejaVuSans-69"
               x="39.208984"
               id="use60" />
            <use
               xlink:href="#DejaVuSans-6d"
               x="66.992188"
               id="use61" />
            <use
               xlink:href="#DejaVuSans-65"
               x="164.404297"
               id="use62" />
          </g>
        </g>
      </g>
      <g
         id="matplotlib.axis_4">
        <g
           id="ytick_8">
          <g
             id="line2d_21">
            <path
               d="M 686.555417 284.072876  L 1243.172083 284.072876  "
               clip-path="url(#pb4aca069e2)"
               style="fill: none; stroke: #cccccc; stroke-linecap: round"
               id="path62" />
          </g>
          <g
             id="text_24">
            <!-- 0 -->
            <g
               style="fill: #262626"
               transform="translate(666.557292 290.341587) scale(0.165 -0.165)"
               id="g63">
              <use
                 xlink:href="#DejaVuSans-30"
                 id="use63" />
            </g>
          </g>
        </g>
        <g
           id="ytick_9">
          <g
             id="line2d_22">
            <path
               d="M 686.555417 247.264792  L 1243.172083 247.264792  "
               clip-path="url(#pb4aca069e2)"
               style="fill: none; stroke: #cccccc; stroke-linecap: round"
               id="path63" />
          </g>
          <g
             id="text_25">
            <!-- 1 -->
            <g
               style="fill: #262626"
               transform="translate(666.557292 253.533503) scale(0.165 -0.165)"
               id="g64">
              <use
                 xlink:href="#DejaVuSans-31"
                 id="use64" />
            </g>
          </g>
        </g>
        <g
           id="ytick_10">
          <g
             id="line2d_23">
            <path
               d="M 686.555417 210.456708  L 1243.172083 210.456708  "
               clip-path="url(#pb4aca069e2)"
               style="fill: none; stroke: #cccccc; stroke-linecap: round"
               id="path64" />
          </g>
          <g
             id="text_26">
            <!-- 2 -->
            <g
               style="fill: #262626"
               transform="translate(666.557292 216.725419) scale(0.165 -0.165)"
               id="g65">
              <use
                 xlink:href="#DejaVuSans-32"
                 id="use65" />
            </g>
          </g>
        </g>
        <g
           id="ytick_11">
          <g
             id="line2d_24">
            <path
               d="M 686.555417 173.648625  L 1243.172083 173.648625  "
               clip-path="url(#pb4aca069e2)"
               style="fill: none; stroke: #cccccc; stroke-linecap: round"
               id="path65" />
          </g>
          <g
             id="text_27">
            <!-- 3 -->
            <g
               style="fill: #262626"
               transform="translate(666.557292 179.917335) scale(0.165 -0.165)"
               id="g66">
              <use
                 xlink:href="#DejaVuSans-33"
                 id="use66" />
            </g>
          </g>
        </g>
        <g
           id="ytick_12">
          <g
             id="line2d_25">
            <path
               d="M 686.555417 136.840541  L 1243.172083 136.840541  "
               clip-path="url(#pb4aca069e2)"
               style="fill: none; stroke: #cccccc; stroke-linecap: round"
               id="path66" />
          </g>
          <g
             id="text_28">
            <!-- 4 -->
            <g
               style="fill: #262626"
               transform="translate(666.557292 143.109252) scale(0.165 -0.165)"
               id="g67">
              <use
                 xlink:href="#DejaVuSans-34"
                 id="use67" />
            </g>
          </g>
        </g>
        <g
           id="ytick_13">
          <g
             id="line2d_26">
            <path
               d="M 686.555417 100.032457  L 1243.172083 100.032457  "
               clip-path="url(#pb4aca069e2)"
               style="fill: none; stroke: #cccccc; stroke-linecap: round"
               id="path67" />
          </g>
          <g
             id="text_29">
            <!-- 5 -->
            <g
               style="fill: #262626"
               transform="translate(666.557292 106.301168) scale(0.165 -0.165)"
               id="g68">
              <use
                 xlink:href="#DejaVuSans-35"
                 id="use68" />
            </g>
          </g>
        </g>
        <g
           id="ytick_14">
          <g
             id="line2d_27">
            <path
               d="M 686.555417 63.224373  L 1243.172083 63.224373  "
               clip-path="url(#pb4aca069e2)"
               style="fill: none; stroke: #cccccc; stroke-linecap: round"
               id="path68" />
          </g>
          <g
             id="text_30">
            <!-- 6 -->
            <g
               style="fill: #262626"
               transform="translate(666.557292 69.493084) scale(0.165 -0.165)"
               id="g69">
              <use
                 xlink:href="#DejaVuSans-36"
                 id="use69" />
            </g>
          </g>
        </g>
        <g
           id="ytick_15">
          <g
             id="line2d_28">
            <path
               d="M 686.555417 26.416289  L 1243.172083 26.416289  "
               clip-path="url(#pb4aca069e2)"
               style="fill: none; stroke: #cccccc; stroke-linecap: round"
               id="path69" />
          </g>
          <g
             id="text_31">
            <!-- 7 -->
            <g
               style="fill: #262626"
               transform="translate(666.557292 32.685) scale(0.165 -0.165)"
               id="g70">
              <defs
                 id="defs69">
                <path
                   id="DejaVuSans-37"
                   d="M 525 4666  L 3525 4666  L 3525 4397  L 1831 0  L 1172 0  L 2766 4134  L 525 4134  L 525 4666  z "
                   transform="scale(0.015625)" />
              </defs>
              <use
                 xlink:href="#DejaVuSans-37"
                 id="use70" />
            </g>
          </g>
        </g>
        <g
           id="text_32">
          <!-- 1e3 -->
          <g
             style="fill: #262626"
             transform="translate(686.555417 19.737422) scale(0.165 -0.165)"
             id="g73">
            <use
               xlink:href="#DejaVuSans-31"
               id="use71" />
            <use
               xlink:href="#DejaVuSans-65"
               x="63.623047"
               id="use72" />
            <use
               xlink:href="#DejaVuSans-33"
               x="125.146484"
               id="use73" />
          </g>
        </g>
      </g>
      <g
         id="PolyCollection_2" />
      <g
         id="line2d_29">
        <path
           d="M 711.856174 188.242805  L 712.362696 158.406357  L 712.869218 153.509448  L 713.375739 146.373279  L 713.882261 115.79564  L 714.388783 125.485388  L 714.895304 124.997566  L 715.908348 140.059402  L 716.414869 136.750725  L 716.921391 140.643664  L 717.427913 141.098367  L 718.440956 149.595261  L 718.947478 149.718748  L 719.960521 156.59709  L 720.467043 157.430212  L 720.973564 160.556393  L 721.480086 164.632378  L 721.986608 164.076452  L 722.493129 167.997507  L 722.999651 170.474115  L 723.506173 171.156565  L 724.519216 177.793569  L 725.025738 177.828116  L 725.532259 181.390146  L 726.038781 183.592723  L 726.545303 184.231993  L 727.051824 190.065259  L 727.558346 190.133784  L 728.064868 193.263803  L 728.571389 195.142069  L 729.077911 195.221916  L 730.090954 201.188846  L 730.597476 201.243128  L 731.103998 204.225123  L 731.610519 205.408429  L 732.117041 205.701662  L 733.130085 211.36955  L 733.636606 211.361727  L 734.143128 214.103466  L 734.64965 215.17188  L 735.156171 215.365526  L 736.169215 220.885129  L 736.675736 221.387107  L 737.182258 224.551378  L 737.68878 224.794196  L 738.195301 227.603892  L 738.701823 228.744075  L 739.208345 228.81567  L 739.714866 230.640123  L 740.221388 231.287087  L 740.72791 230.983253  L 741.234431 233.592922  L 741.740953 234.439863  L 742.247475 234.496115  L 742.753996 236.324037  L 743.260518 237.062297  L 743.76704 236.801517  L 744.273561 238.79163  L 744.780083 239.46132  L 745.286605 239.220001  L 745.793126 243.334421  L 746.299648 241.551814  L 746.80617 243.327878  L 747.312691 244.109197  L 747.819213 243.75961  L 748.325735 245.703196  L 748.832256 246.18777  L 749.338778 245.625127  L 749.8453 247.683398  L 750.351821 248.063759  L 750.858343 247.847042  L 751.364865 249.46597  L 751.871386 249.968177  L 752.377908 249.406868  L 752.88443 251.540518  L 753.390951 251.939795  L 753.897473 251.965892  L 754.403995 253.457516  L 754.910516 254.125092  L 755.417038 253.477544  L 755.92356 255.707106  L 756.430081 256.013009  L 756.936603 257.370859  L 757.443125 258.061431  L 757.949647 257.506311  L 758.456168 259.80693  L 758.96269 260.258303  L 759.469212 260.167852  L 759.975733 261.604836  L 760.482255 262.193537  L 760.988777 261.591982  L 761.495298 263.676359  L 762.00182 264.124811  L 762.508342 263.944649  L 763.014863 265.681974  L 763.521385 266.090126  L 764.027907 265.773304  L 764.534428 267.783999  L 765.04095 268.421264  L 765.547472 268.237504  L 766.053993 269.930147  L 766.560515 270.125093  L 767.067037 261.234405  L 767.573558 249.215198  L 768.586602 206.096947  L 769.599645 170.366067  L 770.106167 163.877858  L 770.612688 159.716917  L 771.11921 159.590593  L 771.625732 161.155249  L 772.132253 170.82556  L 772.638775 174.279663  L 773.651818 186.49288  L 774.15834 190.047438  L 775.171383 203.729528  L 775.677905 207.566824  L 776.184427 208.768336  L 776.690948 213.068049  L 777.703992 218.934021  L 778.210513 219.771659  L 778.717035 219.01959  L 779.223557 220.122136  L 779.730078 217.444861  L 780.2366 216.088501  L 783.782252 200.720794  L 784.288774 225.673933  L 784.795295 237.839848  L 785.301817 127.480349  L 785.808339 91.619211  L 786.31486 87.898833  L 786.821382 87.000492  L 787.327904 85.619613  L 787.834425 91.948838  L 788.340947 95.113821  L 788.847469 99.553374  L 789.35399 137.642456  L 789.860512 162.246039  L 790.367034 181.225907  L 790.873555 230.266604  L 791.380077 265.158779  L 791.886599 279.878246  L 792.39312 283.807586  L 794.925729 283.956623  L 796.445294 284.044638  L 796.951815 283.730568  L 797.458337 283.815738  L 797.964859 283.657703  L 798.47138 283.766898  L 798.977902 283.616811  L 799.484424 283.770223  L 799.990945 283.698151  L 801.003989 283.843405  L 803.030075 283.937175  L 804.54964 283.845162  L 806.575727 284.053062  L 807.082249 283.950091  L 807.58877 283.99469  L 808.095292 283.89298  L 808.601814 277.975533  L 809.108335 281.42566  L 810.121379 208.78381  L 811.134422 190.732155  L 811.640944 205.601263  L 812.147466 240.270008  L 813.667031 265.829889  L 814.173552 269.718322  L 814.680074 271.057084  L 815.186596 276.745961  L 815.693117 279.139294  L 816.199639 282.713506  L 816.706161 283.429427  L 817.212682 283.475596  L 817.719204 283.860124  L 818.732247 284.013998  L 819.238769 283.978799  L 819.745291 284.066907  L 822.277899 283.836417  L 824.303986 284.052046  L 827.343116 283.804289  L 828.356159 283.801806  L 829.369202 283.642634  L 829.875724 283.544591  L 830.382246 283.646732  L 830.888767 283.477309  L 831.395289 283.515194  L 831.901811 283.339039  L 832.408332 283.38377  L 832.914854 283.227279  L 833.421376 283.31663  L 833.927897 283.20483  L 834.434419 283.357007  L 834.940941 283.214877  L 835.447463 283.385549  L 835.953984 283.390906  L 838.486593 283.926848  L 838.993114 283.925596  L 841.525723 282.911024  L 842.032244 282.790704  L 842.538766 282.854464  L 843.045288 282.768762  L 843.551809 283.114761  L 844.564853 282.694704  L 845.071374 283.095746  L 845.577896 282.673102  L 846.084418 282.810848  L 846.590939 283.481566  L 847.097461 283.334192  L 847.603983 283.873411  L 848.110504 283.534847  L 848.617026 283.903622  L 849.123548 284.070276  L 849.630069 283.981923  L 850.136591 284.072869  L 851.656156 283.962652  L 852.162678 283.447521  L 852.669199 283.42209  L 853.175721 282.986881  L 853.682243 283.251853  L 854.188764 282.952494  L 854.695286 283.367927  L 856.214851 283.515884  L 856.721373 284.071794  L 857.227894 283.548181  L 857.734416 283.879027  L 858.240938 283.428383  L 858.747459 283.633762  L 859.253981 283.367126  L 859.760503 283.580523  L 860.267024 283.34436  L 860.773546 283.575902  L 861.280068 283.360303  L 861.78659 283.791002  L 862.293111 283.358437  L 862.799633 283.728193  L 863.306155 283.308879  L 863.812676 283.634329  L 864.319198 283.250142  L 864.82572 283.102598  L 865.332241 283.252387  L 865.838763 283.247424  L 866.345285 282.98663  L 866.851806 283.204432  L 867.358328 283.053565  L 868.371371 283.613989  L 868.877893 283.36926  L 869.384415 283.8791  L 869.890936 283.473115  L 870.397458 283.713356  L 870.90398 283.561807  L 871.410501 283.654224  L 871.917023 283.609022  L 872.423545 283.694944  L 872.930066 283.631348  L 873.436588 283.714766  L 873.94311 283.676889  L 874.956153 283.782684  L 875.462675 283.827762  L 875.969196 284.035653  L 877.488761 284.058836  L 877.995283 272.422858  L 878.501805 266.194289  L 879.008326 250.268217  L 880.527891 188.964785  L 881.034413 175.133117  L 881.540935 167.745194  L 882.047456 163.919749  L 882.553978 154.043157  L 883.567021 146.790002  L 884.073543 143.643204  L 884.580065 138.155484  L 885.086586 136.183294  L 885.593108 129.972992  L 886.09963 130.150323  L 887.112673 125.024533  L 887.619195 123.004594  L 888.125717 122.021976  L 888.632238 119.040749  L 889.13876 118.997001  L 889.645282 116.999503  L 891.164847 109.575839  L 891.671368 105.756174  L 892.684412 101.841375  L 893.190933 98.782789  L 893.697455 96.67082  L 894.710498 89.906981  L 895.21702 86.622876  L 895.723542 82.299757  L 896.736585 77.141236  L 897.243107 73.222276  L 897.749628 70.183262  L 899.269193 63.61766  L 899.775715 61.055207  L 900.282237 57.214163  L 900.788758 54.905676  L 901.801802 53.302357  L 902.308323 52.159913  L 902.814845 50.360088  L 903.321367 47.97599  L 903.827888 46.261147  L 904.33441 45.77724  L 904.840932 45.081699  L 905.347453 43.905627  L 905.853975 40.737362  L 906.360497 39.70967  L 906.867018 39.778357  L 907.880062 40.723063  L 908.893105 38.249099  L 909.399627 36.736407  L 909.906148 37.096726  L 910.41267 36.770397  L 910.919192 37.35545  L 911.425713 35.181967  L 912.438757 36.473301  L 913.958322 47.420481  L 914.464844 49.542743  L 914.971365 52.26367  L 915.477887 59.350315  L 916.49093 67.86505  L 917.503974 74.127361  L 918.010495 78.185017  L 919.53006 93.679343  L 920.543104 101.570336  L 921.049625 106.178076  L 922.56919 123.320915  L 923.582234 131.788336  L 924.595277 142.563295  L 925.101799 148.885914  L 925.60832 159.697886  L 926.621364 170.657822  L 928.140929 189.381736  L 928.64745 193.381009  L 929.153972 198.688529  L 930.167015 211.139177  L 931.68658 228.629731  L 932.193102 233.824008  L 932.699624 240.656833  L 934.219189 255.983244  L 934.72571 259.471903  L 935.232232 268.047523  L 936.245275 276.675918  L 936.751797 280.254358  L 937.258319 282.19419  L 937.76484 283.43953  L 938.271362 284.018473  L 938.777884 283.751025  L 939.284406 283.862018  L 939.790927 283.458631  L 940.297449 283.780194  L 940.803971 283.555923  L 941.310492 283.91904  L 941.817014 283.68798  L 942.323536 283.944335  L 942.830057 283.78238  L 943.336579 283.994938  L 943.843101 283.829395  L 944.349622 284.01258  L 945.869187 283.946413  L 946.375709 283.997562  L 946.882231 283.80536  L 947.388752 284.07116  L 947.895274 283.658583  L 948.401796 284.013402  L 948.908317 283.586204  L 949.414839 283.862954  L 949.921361 283.630972  L 950.427882 283.872173  L 950.934404 283.729638  L 951.440926 283.920291  L 951.947447 283.625903  L 952.960491 283.424906  L 953.467012 283.604898  L 953.973534 283.514175  L 954.986577 283.894837  L 955.493099 283.758054  L 955.999621 283.894196  L 956.506142 283.836431  L 957.012664 283.986733  L 958.025707 284.041582  L 958.532229 284.054687  L 959.038751 283.904027  L 959.545272 284.057764  L 962.077881 283.845672  L 963.090924 283.465161  L 963.597446 283.486643  L 964.103967 283.275647  L 964.610489 283.276356  L 965.117011 282.865782  L 965.623533 282.780501  L 966.130054 282.525906  L 966.636576 282.579819  L 967.143098 282.270874  L 967.649619 282.487979  L 968.156141 282.259123  L 968.662663 282.522844  L 969.169184 282.339325  L 969.675706 282.630772  L 970.182228 282.482217  L 970.688749 282.818845  L 971.195271 282.830053  L 971.701793 283.029153  L 972.208314 283.005111  L 972.714836 283.169655  L 973.221358 283.046605  L 973.727879 283.224822  L 974.234401 283.039826  L 974.740923 283.223475  L 975.753966 283.044626  L 976.260488 282.914707  L 977.273531 282.337393  L 977.780053 281.499516  L 978.286574 281.305134  L 978.793096 280.915134  L 979.299618 281.769546  L 979.806139 281.613814  L 980.312661 281.903567  L 980.819183 281.985842  L 981.325704 282.216515  L 982.338748 282.071591  L 982.845269 282.162615  L 983.351791 282.046918  L 983.858313 282.108773  L 984.364834 281.964119  L 985.377878 282.190763  L 986.390921 282.510718  L 987.403964 282.58309  L 987.910486 282.276743  L 988.417008 282.268679  L 988.923529 281.821473  L 989.936573 282.525584  L 990.443094 282.498818  L 990.949616 282.946263  L 991.456138 282.748694  L 991.96266 282.898214  L 992.469181 282.855434  L 992.975703 282.528269  L 993.482225 282.881836  L 993.988746 282.787277  L 995.508311 283.018985  L 996.014833 282.892766  L 996.521355 283.007172  L 997.027876 282.841387  L 997.534398 282.997012  L 998.04092 282.79687  L 998.547441 282.878946  L 999.053963 282.81247  L 999.560485 283.054291  L 1000.067006 282.901802  L 1000.573528 283.165993  L 1001.08005 283.082463  L 1001.586571 283.391329  L 1002.093093 283.259315  L 1002.599615 283.588164  L 1003.106136 283.361464  L 1003.612658 283.805222  L 1004.11918 283.642046  L 1004.625701 284.025857  L 1005.132223 283.748629  L 1005.638745 283.991229  L 1006.145266 283.787157  L 1006.651788 283.977871  L 1007.15831 283.729161  L 1007.664831 284.058819  L 1008.171353 283.699378  L 1008.677875 284.028207  L 1009.690918 283.718319  L 1010.19744 283.974928  L 1010.703961 283.815071  L 1011.210483 284.016107  L 1012.223526 283.823366  L 1012.730048 283.872826  L 1013.23657 283.662587  L 1013.743091 283.77061  L 1014.249613 283.513819  L 1014.756135 283.477976  L 1015.262656 283.707924  L 1015.769178 283.334382  L 1016.2757 283.492426  L 1016.782222 283.182571  L 1017.288743 283.319426  L 1017.795265 283.140487  L 1018.301787 283.373341  L 1018.808308 283.161357  L 1019.821352 283.277784  L 1020.327873 283.334386  L 1020.834395 283.530065  L 1021.340917 283.466247  L 1021.847438 283.640532  L 1022.35396 283.616007  L 1022.860482 283.706665  L 1024.380047 282.929306  L 1024.886568 282.47685  L 1025.39309 282.598974  L 1026.406133 283.581069  L 1027.925698 283.56313  L 1028.43222 283.574706  L 1030.458307 282.895616  L 1030.964828 282.474464  L 1031.47135 282.621706  L 1031.977872 282.345582  L 1032.484393 282.416983  L 1032.990915 282.184218  L 1033.497437 282.445294  L 1034.003958 282.109309  L 1034.51048 282.232725  L 1035.017002 282.815467  L 1035.523523 282.688696  L 1036.030045 282.711865  L 1036.536567 281.345321  L 1037.54961 280.796149  L 1038.056132 280.886019  L 1038.562653 280.604616  L 1039.069175 280.526112  L 1041.601783 279.156235  L 1044.134392 277.55373  L 1044.640914 277.456606  L 1045.147435 278.096313  L 1045.653957 278.327572  L 1046.160479 278.889857  L 1046.667 279.091881  L 1047.173522 278.987459  L 1048.186565 277.915205  L 1048.693087 277.626833  L 1049.199609 277.471267  L 1049.70613 277.093996  L 1050.212652 277.21897  L 1051.732217 278.315636  L 1052.238739 279.201254  L 1052.74526 279.689164  L 1053.251782 279.656188  L 1053.758304 279.959186  L 1054.264825 280.081429  L 1055.78439 281.106911  L 1056.290912 281.140865  L 1057.810477 282.090146  L 1058.82352 282.992378  L 1059.836564 283.753613  L 1061.356129 284.050373  L 1061.86265 283.82089  L 1062.369172 283.99331  L 1062.875694 283.778706  L 1063.382215 284.060665  L 1063.888737 283.764379  L 1065.408302 283.403418  L 1065.914824 283.515414  L 1066.421345 283.39008  L 1066.927867 283.577524  L 1067.434389 283.367431  L 1067.94091 283.618004  L 1068.447432 283.524448  L 1069.460476 284.048663  L 1070.473519 283.8341  L 1071.486562 282.911938  L 1071.993084 282.819938  L 1073.006127 282.955189  L 1073.512649 282.778484  L 1074.525692 282.762237  L 1075.032214 282.323965  L 1075.538736 282.78145  L 1076.045257 282.051999  L 1076.551779 282.494088  L 1077.058301 282.075911  L 1077.564822 282.560729  L 1078.071344 282.162106  L 1078.577866 282.544471  L 1079.084387 282.276101  L 1079.590909 282.674118  L 1080.097431 282.476674  L 1080.603952 282.802215  L 1081.110474 282.423443  L 1081.616996 282.762004  L 1082.123517 282.449797  L 1082.630039 282.665203  L 1083.136561 282.441465  L 1083.643082 282.48793  L 1084.656126 282.220562  L 1085.162647 282.60559  L 1085.669169 282.598974  L 1086.175691 282.808293  L 1086.682212 282.649839  L 1087.188734 282.881669  L 1087.695256 282.751441  L 1088.201777 282.969029  L 1088.708299 282.845826  L 1089.214821 283.445762  L 1089.721342 283.019542  L 1090.227864 283.416783  L 1090.734386 283.093978  L 1091.240907 283.440587  L 1091.747429 283.034945  L 1092.253951 283.342587  L 1092.760472 283.03158  L 1094.280037 282.832828  L 1096.306124 282.825588  L 1098.332211 282.05941  L 1099.851776 279.139438  L 1100.358298 278.77177  L 1100.864819 278.168186  L 1101.371341 278.076299  L 1101.877863 277.38234  L 1102.384384 277.715595  L 1102.890906 277.191506  L 1103.397428 277.602744  L 1104.410471 278.150376  L 1104.916993 278.878184  L 1105.423514 279.213174  L 1106.436558 280.619908  L 1107.449601 281.636431  L 1107.956123 282.222028  L 1108.462644 282.290691  L 1108.969166 282.525084  L 1109.475688 282.484745  L 1109.982209 282.739748  L 1110.488731 282.577722  L 1110.995253 283.045431  L 1111.501774 282.905411  L 1112.008296 283.170125  L 1112.514818 283.085628  L 1113.021339 283.194161  L 1114.034383 283.702069  L 1114.540904 283.663138  L 1115.047426 283.897951  L 1115.553948 283.754132  L 1116.060469 284.004773  L 1116.566991 283.768038  L 1117.073513 284.039687  L 1117.580034 283.827837  L 1118.086556 284.026293  L 1118.593078 283.810478  L 1119.099599 283.910316  L 1119.606121 283.75961  L 1120.112643 283.88318  L 1120.619165 283.774522  L 1121.125686 278.785863  L 1121.632208 229.072415  L 1122.13873 195.699563  L 1122.645251 204.066715  L 1123.151773 161.179581  L 1123.658295 64.474536  L 1124.164816 95.012519  L 1125.17786 184.644732  L 1125.684381 282.72055  L 1126.190903 256.008738  L 1127.203946 161.100951  L 1127.710468 97.772568  L 1128.21699 88.152375  L 1128.723511 95.449888  L 1129.736555 120.388496  L 1130.243076 122.826971  L 1130.749598 143.805907  L 1131.25612 149.231076  L 1132.775685 180.196466  L 1133.282206 182.731233  L 1133.788728 208.377756  L 1134.29525 219.13095  L 1134.801771 226.914233  L 1135.308293 238.087068  L 1135.814815 240.670075  L 1136.321336 258.471935  L 1137.33438 266.622434  L 1137.840901 272.912158  L 1138.347423 281.605276  L 1138.853945 281.997339  L 1139.360466 282.678016  L 1139.866988 284.062771  L 1148.477857 284.072876  L 1217.871326 284.072876  L 1217.871326 284.072876  "
           clip-path="url(#pb4aca069e2)"
           style="fill: none; stroke: #4c72b0; stroke-width: 2; stroke-linecap: round"
           id="path73" />
      </g>
      <g
         id="patch_6">
        <path
           d="M 686.555417 296.517422  L 686.555417 22.737422  "
           style="fill: none; stroke: #cccccc; stroke-width: 1.25; stroke-linejoin: miter; stroke-linecap: square"
           id="path74" />
      </g>
      <g
         id="patch_7">
        <path
           d="M 686.555417 296.517422  L 1243.172083 296.517422  "
           style="fill: none; stroke: #cccccc; stroke-width: 1.25; stroke-linejoin: miter; stroke-linecap: square"
           id="path75" />
      </g>
    </g>
    <g
       id="axes_3">
      <g
         id="matplotlib.axis_5">
        <g
           id="xtick_13">
          <g
             id="line2d_30">
            <path
               d="M 1325.696881 296.517422  L 1325.696881 22.737422  "
               clip-path="url(#pe695f3d45f)"
               style="fill: none; stroke: #cccccc; stroke-linecap: round"
               id="path77" />
          </g>
          <g
             id="text_33">
            <!-- 0 -->
            <g
               style="fill: #262626"
               transform="translate(1320.447819 318.554844) scale(0.165 -0.165)"
               id="g77">
              <use
                 xlink:href="#DejaVuSans-30"
                 id="use77" />
            </g>
          </g>
        </g>
        <g
           id="xtick_14">
          <g
             id="line2d_31">
            <path
               d="M 1422.08072 296.517422  L 1422.08072 22.737422  "
               clip-path="url(#pe695f3d45f)"
               style="fill: none; stroke: #cccccc; stroke-linecap: round"
               id="path78" />
          </g>
          <g
             id="text_34">
            <!-- 200 -->
            <g
               style="fill: #262626"
               transform="translate(1406.333532 318.554844) scale(0.165 -0.165)"
               id="g80">
              <use
                 xlink:href="#DejaVuSans-32"
                 id="use78" />
              <use
                 xlink:href="#DejaVuSans-30"
                 x="63.623047"
                 id="use79" />
              <use
                 xlink:href="#DejaVuSans-30"
                 x="127.246094"
                 id="use80" />
            </g>
          </g>
        </g>
        <g
           id="xtick_15">
          <g
             id="line2d_32">
            <path
               d="M 1518.464558 296.517422  L 1518.464558 22.737422  "
               clip-path="url(#pe695f3d45f)"
               style="fill: none; stroke: #cccccc; stroke-linecap: round"
               id="path80" />
          </g>
          <g
             id="text_35">
            <!-- 400 -->
            <g
               style="fill: #262626"
               transform="translate(1502.717371 318.554844) scale(0.165 -0.165)"
               id="g83">
              <use
                 xlink:href="#DejaVuSans-34"
                 id="use81" />
              <use
                 xlink:href="#DejaVuSans-30"
                 x="63.623047"
                 id="use82" />
              <use
                 xlink:href="#DejaVuSans-30"
                 x="127.246094"
                 id="use83" />
            </g>
          </g>
        </g>
        <g
           id="xtick_16">
          <g
             id="line2d_33">
            <path
               d="M 1614.848396 296.517422  L 1614.848396 22.737422  "
               clip-path="url(#pe695f3d45f)"
               style="fill: none; stroke: #cccccc; stroke-linecap: round"
               id="path83" />
          </g>
          <g
             id="text_36">
            <!-- 600 -->
            <g
               style="fill: #262626"
               transform="translate(1599.101209 318.554844) scale(0.165 -0.165)"
               id="g86">
              <use
                 xlink:href="#DejaVuSans-36"
                 id="use84" />
              <use
                 xlink:href="#DejaVuSans-30"
                 x="63.623047"
                 id="use85" />
              <use
                 xlink:href="#DejaVuSans-30"
                 x="127.246094"
                 id="use86" />
            </g>
          </g>
        </g>
        <g
           id="xtick_17">
          <g
             id="line2d_34">
            <path
               d="M 1711.232235 296.517422  L 1711.232235 22.737422  "
               clip-path="url(#pe695f3d45f)"
               style="fill: none; stroke: #cccccc; stroke-linecap: round"
               id="path86" />
          </g>
          <g
             id="text_37">
            <!-- 800 -->
            <g
               style="fill: #262626"
               transform="translate(1695.485047 318.554844) scale(0.165 -0.165)"
               id="g89">
              <use
                 xlink:href="#DejaVuSans-38"
                 id="use87" />
              <use
                 xlink:href="#DejaVuSans-30"
                 x="63.623047"
                 id="use88" />
              <use
                 xlink:href="#DejaVuSans-30"
                 x="127.246094"
                 id="use89" />
            </g>
          </g>
        </g>
        <g
           id="xtick_18">
          <g
             id="line2d_35">
            <path
               d="M 1807.616073 296.517422  L 1807.616073 22.737422  "
               clip-path="url(#pe695f3d45f)"
               style="fill: none; stroke: #cccccc; stroke-linecap: round"
               id="path89" />
          </g>
          <g
             id="text_38">
            <!-- 1000 -->
            <g
               style="fill: #262626"
               transform="translate(1786.619823 318.554844) scale(0.165 -0.165)"
               id="g93">
              <use
                 xlink:href="#DejaVuSans-31"
                 id="use90" />
              <use
                 xlink:href="#DejaVuSans-30"
                 x="63.623047"
                 id="use91" />
              <use
                 xlink:href="#DejaVuSans-30"
                 x="127.246094"
                 id="use92" />
              <use
                 xlink:href="#DejaVuSans-30"
                 x="190.869141"
                 id="use93" />
            </g>
          </g>
        </g>
        <g
           id="text_39">
          <!-- time -->
          <g
             style="fill: #262626"
             transform="translate(1582.467448 339.663516) scale(0.18 -0.18)"
             id="g97">
            <use
               xlink:href="#DejaVuSans-74"
               id="use94" />
            <use
               xlink:href="#DejaVuSans-69"
               x="39.208984"
               id="use95" />
            <use
               xlink:href="#DejaVuSans-6d"
               x="66.992188"
               id="use96" />
            <use
               xlink:href="#DejaVuSans-65"
               x="164.404297"
               id="use97" />
          </g>
        </g>
      </g>
      <g
         id="matplotlib.axis_6">
        <g
           id="ytick_16">
          <g
             id="line2d_36">
            <path
               d="M 1324.492083 284.072876  L 1881.10875 284.072876  "
               clip-path="url(#pe695f3d45f)"
               style="fill: none; stroke: #cccccc; stroke-linecap: round"
               id="path97" />
          </g>
          <g
             id="text_40">
            <!-- 0.0 -->
            <g
               style="fill: #262626"
               transform="translate(1288.751927 290.341587) scale(0.165 -0.165)"
               id="g100">
              <defs
                 id="defs97">
                <path
                   id="DejaVuSans-2e"
                   d="M 684 794  L 1344 794  L 1344 0  L 684 0  L 684 794  z "
                   transform="scale(0.015625)" />
              </defs>
              <use
                 xlink:href="#DejaVuSans-30"
                 id="use98" />
              <use
                 xlink:href="#DejaVuSans-2e"
                 x="63.623047"
                 id="use99" />
              <use
                 xlink:href="#DejaVuSans-30"
                 x="95.410156"
                 id="use100" />
            </g>
          </g>
        </g>
        <g
           id="ytick_17">
          <g
             id="line2d_37">
            <path
               d="M 1324.492083 236.036197  L 1881.10875 236.036197  "
               clip-path="url(#pe695f3d45f)"
               style="fill: none; stroke: #cccccc; stroke-linecap: round"
               id="path100" />
          </g>
          <g
             id="text_41">
            <!-- 0.5 -->
            <g
               style="fill: #262626"
               transform="translate(1288.751927 242.304908) scale(0.165 -0.165)"
               id="g103">
              <use
                 xlink:href="#DejaVuSans-30"
                 id="use101" />
              <use
                 xlink:href="#DejaVuSans-2e"
                 x="63.623047"
                 id="use102" />
              <use
                 xlink:href="#DejaVuSans-35"
                 x="95.410156"
                 id="use103" />
            </g>
          </g>
        </g>
        <g
           id="ytick_18">
          <g
             id="line2d_38">
            <path
               d="M 1324.492083 187.999518  L 1881.10875 187.999518  "
               clip-path="url(#pe695f3d45f)"
               style="fill: none; stroke: #cccccc; stroke-linecap: round"
               id="path103" />
          </g>
          <g
             id="text_42">
            <!-- 1.0 -->
            <g
               style="fill: #262626"
               transform="translate(1288.751927 194.268229) scale(0.165 -0.165)"
               id="g106">
              <use
                 xlink:href="#DejaVuSans-31"
                 id="use104" />
              <use
                 xlink:href="#DejaVuSans-2e"
                 x="63.623047"
                 id="use105" />
              <use
                 xlink:href="#DejaVuSans-30"
                 x="95.410156"
                 id="use106" />
            </g>
          </g>
        </g>
        <g
           id="ytick_19">
          <g
             id="line2d_39">
            <path
               d="M 1324.492083 139.962839  L 1881.10875 139.962839  "
               clip-path="url(#pe695f3d45f)"
               style="fill: none; stroke: #cccccc; stroke-linecap: round"
               id="path106" />
          </g>
          <g
             id="text_43">
            <!-- 1.5 -->
            <g
               style="fill: #262626"
               transform="translate(1288.751927 146.23155) scale(0.165 -0.165)"
               id="g109">
              <use
                 xlink:href="#DejaVuSans-31"
                 id="use107" />
              <use
                 xlink:href="#DejaVuSans-2e"
                 x="63.623047"
                 id="use108" />
              <use
                 xlink:href="#DejaVuSans-35"
                 x="95.410156"
                 id="use109" />
            </g>
          </g>
        </g>
        <g
           id="ytick_20">
          <g
             id="line2d_40">
            <path
               d="M 1324.492083 91.926159  L 1881.10875 91.926159  "
               clip-path="url(#pe695f3d45f)"
               style="fill: none; stroke: #cccccc; stroke-linecap: round"
               id="path109" />
          </g>
          <g
             id="text_44">
            <!-- 2.0 -->
            <g
               style="fill: #262626"
               transform="translate(1288.751927 98.19487) scale(0.165 -0.165)"
               id="g112">
              <use
                 xlink:href="#DejaVuSans-32"
                 id="use110" />
              <use
                 xlink:href="#DejaVuSans-2e"
                 x="63.623047"
                 id="use111" />
              <use
                 xlink:href="#DejaVuSans-30"
                 x="95.410156"
                 id="use112" />
            </g>
          </g>
        </g>
        <g
           id="ytick_21">
          <g
             id="line2d_41">
            <path
               d="M 1324.492083 43.88948  L 1881.10875 43.88948  "
               clip-path="url(#pe695f3d45f)"
               style="fill: none; stroke: #cccccc; stroke-linecap: round"
               id="path112" />
          </g>
          <g
             id="text_45">
            <!-- 2.5 -->
            <g
               style="fill: #262626"
               transform="translate(1288.751927 50.158191) scale(0.165 -0.165)"
               id="g115">
              <use
                 xlink:href="#DejaVuSans-32"
                 id="use113" />
              <use
                 xlink:href="#DejaVuSans-2e"
                 x="63.623047"
                 id="use114" />
              <use
                 xlink:href="#DejaVuSans-35"
                 x="95.410156"
                 id="use115" />
            </g>
          </g>
        </g>
        <g
           id="text_46">
          <!-- 1e4 -->
          <g
             style="fill: #262626"
             transform="translate(1324.492083 19.737422) scale(0.165 -0.165)"
             id="g118">
            <use
               xlink:href="#DejaVuSans-31"
               id="use116" />
            <use
               xlink:href="#DejaVuSans-65"
               x="63.623047"
               id="use117" />
            <use
               xlink:href="#DejaVuSans-34"
               x="125.146484"
               id="use118" />
          </g>
        </g>
      </g>
      <g
         id="PolyCollection_3" />
      <g
         id="line2d_42">
        <path
           d="M 1349.792841 56.226349  L 1350.299363 44.204047  L 1350.805884 38.432881  L 1351.312406 35.181967  L 1351.818928 39.973024  L 1352.325449 42.050554  L 1352.831971 41.010161  L 1353.338493 44.256201  L 1353.845014 44.161588  L 1354.351536 43.350328  L 1354.858058 50.614749  L 1355.364579 49.589836  L 1355.871101 52.085423  L 1356.377623 52.545826  L 1356.884144 50.902899  L 1357.390666 55.668388  L 1357.897188 57.366998  L 1358.403709 55.716835  L 1358.910231 57.777364  L 1359.416753 58.228031  L 1359.923274 55.923812  L 1360.429796 59.938652  L 1360.936318 61.301144  L 1361.442839 59.23625  L 1361.949361 60.694292  L 1362.455883 60.688189  L 1362.962404 57.781169  L 1363.468926 60.977454  L 1363.975448 61.969217  L 1364.481969 59.852855  L 1364.988491 60.655646  L 1365.495013 57.900121  L 1366.001534 60.482473  L 1366.508056 61.344595  L 1367.014578 59.447788  L 1367.521099 59.99694  L 1368.027621 59.622898  L 1368.534143 57.051684  L 1369.040664 59.108229  L 1369.547186 59.698924  L 1370.053708 58.05322  L 1370.56023 57.998188  L 1371.066751 57.721881  L 1371.573273 55.407461  L 1372.079795 56.832531  L 1372.586316 57.197521  L 1373.092838 55.496456  L 1373.59936 54.735419  L 1374.105881 54.274234  L 1374.612403 52.720171  L 1375.118925 51.726843  L 1376.131968 47.977531  L 1376.63849 47.249767  L 1377.145011 45.050197  L 1377.651533 44.853746  L 1378.158055 44.507761  L 1378.664576 43.211896  L 1379.171098 42.353063  L 1379.67762 42.765268  L 1380.184141 42.555905  L 1380.690663 43.090041  L 1382.210228 46.725915  L 1382.71675 49.253607  L 1383.223271 50.723264  L 1384.236315 55.815523  L 1384.742836 60.57141  L 1385.75588 66.201959  L 1390.314575 89.681975  L 1390.821096 91.726756  L 1391.327618 94.45492  L 1392.340661 98.58988  L 1393.353705 103.116416  L 1393.860226 104.636936  L 1394.366748 106.83739  L 1394.87327 109.948382  L 1395.886313 113.331519  L 1396.392835 114.028422  L 1397.405878 116.629619  L 1398.418922 118.859196  L 1398.925443 120.090219  L 1399.431965 120.823223  L 1399.938487 121.898383  L 1400.95153 123.557931  L 1403.99066 128.461487  L 1404.497182 130.102691  L 1405.003703 130.773672  L 1407.02979 134.95236  L 1408.549355 138.294691  L 1410.06892 142.286487  L 1413.10805 148.786439  L 1414.121093 150.174854  L 1414.627615 151.476597  L 1415.134137 152.267905  L 1415.640658 152.834165  L 1417.160223 153.892013  L 1417.666745 154.022465  L 1418.173267 154.570398  L 1419.692832 155.124965  L 1420.705875 155.428897  L 1421.212397 155.920529  L 1421.718919 156.15305  L 1422.22544 156.230379  L 1423.238484 156.5716  L 1423.745005 156.665311  L 1424.251527 157.461041  L 1424.758049 157.590337  L 1425.771092 158.012255  L 1426.277614 158.115515  L 1427.290657 158.880968  L 1427.797179 159.11037  L 1429.316744 160.224084  L 1432.355874 164.071954  L 1433.875439 166.373223  L 1434.38196 168.005131  L 1436.408047 171.513975  L 1436.914569 172.542426  L 1437.927612 174.086276  L 1438.940655 175.777545  L 1439.447177 176.390354  L 1439.953699 177.17838  L 1440.46022 183.42954  L 1440.966742 186.087789  L 1441.473264 191.816563  L 1441.979785 194.064772  L 1442.486307 192.601546  L 1442.992829 185.865981  L 1444.005872 182.572662  L 1444.512394 184.155145  L 1445.525437 185.335506  L 1446.031959 181.825648  L 1446.53848 180.475133  L 1447.045002 181.753528  L 1447.551524 180.153804  L 1448.058046 175.046276  L 1448.564567 150.611692  L 1449.577611 120.857479  L 1450.084132 117.014176  L 1450.590654 128.702482  L 1451.097176 133.1618  L 1451.603697 140.105722  L 1452.110219 144.890157  L 1453.123262 165.214678  L 1453.629784 171.521829  L 1454.136306 187.276634  L 1455.655871 196.91028  L 1456.162392 198.092636  L 1458.188479 200.583676  L 1459.708044 203.123211  L 1460.721087 204.828043  L 1461.734131 206.62435  L 1462.240652 207.769618  L 1462.747174 208.577225  L 1463.253696 209.61317  L 1463.760217 210.38693  L 1464.266739 212.246917  L 1464.773261 213.382714  L 1465.279782 214.202193  L 1466.292826 216.097166  L 1467.305869 217.492484  L 1468.825434 219.983989  L 1473.384129 227.247616  L 1473.890651 242.379809  L 1474.397173 250.997402  L 1474.903694 247.523359  L 1475.410216 236.763383  L 1476.423259 232.9307  L 1476.929781 233.532718  L 1477.436303 233.899942  L 1477.942824 230.410828  L 1478.449346 231.154596  L 1479.968911 219.630311  L 1480.475433 219.859696  L 1480.981954 222.022824  L 1481.488476 225.457117  L 1481.994998 226.526417  L 1482.501519 230.073787  L 1483.514563 234.065773  L 1484.021084 237.182662  L 1484.527606 238.497344  L 1485.034128 240.645282  L 1486.047171 242.935823  L 1487.060214 244.44407  L 1490.099344 247.826009  L 1492.125431 250.011124  L 1493.644996 252.111879  L 1494.151518 253.50917  L 1494.658039 254.323259  L 1497.190648 256.806496  L 1498.710213 258.279651  L 1500.229778 259.720562  L 1500.7363 260.437446  L 1501.242821 260.575416  L 1502.255865 261.512774  L 1503.268908 262.440918  L 1503.77543 263.266624  L 1504.281951 263.524786  L 1504.788473 264.006374  L 1505.294995 264.279119  L 1506.308038 265.173837  L 1506.81456 265.417482  L 1507.321081 265.836613  L 1507.827603 266.031316  L 1508.334125 266.348131  L 1511.373255 267.217755  L 1512.89282 267.536255  L 1513.399341 267.707774  L 1513.905863 268.39468  L 1514.918906 268.969415  L 1517.958036 270.03343  L 1519.477601 270.029537  L 1523.023253 271.35246  L 1523.529775 271.816333  L 1525.04934 272.095942  L 1526.568905 272.555087  L 1528.08847 272.718009  L 1532.140643 273.895437  L 1533.153687 273.798966  L 1534.16673 273.447158  L 1535.179773 273.238708  L 1539.231947 272.755995  L 1539.738468 272.891539  L 1540.24499 272.842227  L 1542.271077 273.232236  L 1543.28412 273.981664  L 1543.790642 274.69564  L 1545.310207 275.880103  L 1546.829772 277.083707  L 1547.336293 277.299796  L 1548.855858 278.289495  L 1549.36238 278.50541  L 1549.868902 278.930085  L 1550.375423 279.089926  L 1550.881945 279.471652  L 1551.388467 279.688262  L 1551.894989 280.152718  L 1553.414554 280.78909  L 1554.934119 281.109815  L 1557.466727 281.685752  L 1560.505857 281.960238  L 1561.5189 281.855065  L 1562.025422 281.770938  L 1563.038465 281.908828  L 1563.544987 282.220873  L 1565.064552 282.535998  L 1572.662377 283.356732  L 1573.67542 283.786496  L 1574.688464 284.03493  L 1576.71455 284.011295  L 1578.234116 284.050126  L 1579.753681 284.000569  L 1580.260202 283.902574  L 1581.779767 283.901574  L 1582.286289 283.811945  L 1583.299332 283.861874  L 1583.805854 283.775637  L 1584.312376 283.828336  L 1584.818897 283.727411  L 1585.325419 283.801549  L 1585.831941 283.687189  L 1586.338462 283.784593  L 1586.844984 283.657515  L 1587.351506 283.722856  L 1587.858027 283.642507  L 1589.377592 283.714456  L 1590.390636 283.66655  L 1590.897157 271.170488  L 1591.403679 268.316196  L 1591.910201 276.23793  L 1592.416722 278.780778  L 1592.923244 279.974866  L 1593.936287 283.742951  L 1594.949331 283.786677  L 1595.455852 279.728526  L 1595.962374 278.323475  L 1596.468896 271.015983  L 1596.975417 266.488412  L 1597.481939 266.630455  L 1597.988461 268.501557  L 1598.494982 269.523436  L 1599.001504 273.949813  L 1599.508026 274.326906  L 1600.014547 276.066539  L 1601.027591 278.645109  L 1601.534112 279.661523  L 1602.040634 281.098741  L 1602.547156 281.415267  L 1603.053678 283.110009  L 1603.560199 283.458193  L 1604.573243 283.335577  L 1605.079764 283.109459  L 1608.625416 282.741203  L 1609.131938 282.680361  L 1610.651503 282.799835  L 1612.171068 282.789069  L 1613.184111 282.938933  L 1614.197154 282.952072  L 1614.703676 279.634443  L 1615.210198 277.789629  L 1615.716719 273.108167  L 1616.223241 271.796095  L 1617.236284 280.829912  L 1617.742806 274.37271  L 1618.249328 266.127287  L 1618.755849 266.439043  L 1619.262371 262.26829  L 1619.768893 263.722818  L 1620.275414 269.674564  L 1620.781936 270.349323  L 1622.808023 279.596275  L 1623.314544 280.073122  L 1623.821066 281.28539  L 1624.834109 282.539679  L 1626.353674 282.674112  L 1626.860196 282.600747  L 1630.405848 283.26001  L 1630.91237 283.235351  L 1631.418891 283.439947  L 1632.431935 283.506936  L 1633.444978 283.6138  L 1638.003673 283.592382  L 1638.510195 283.681736  L 1639.016716 283.656076  L 1639.523238 283.742415  L 1640.02976 283.703768  L 1640.536281 283.802665  L 1641.042803 283.752406  L 1642.055846 283.775778  L 1643.575411 283.689545  L 1644.081933 283.76293  L 1644.588455 283.665745  L 1645.094976 283.779951  L 1645.601498 283.736196  L 1646.10802 283.828803  L 1646.614541 283.739723  L 1647.121063 283.777316  L 1647.627585 283.633347  L 1653.199323 283.532937  L 1653.705845 283.40894  L 1656.744975 283.388571  L 1657.251497 283.263924  L 1661.30367 283.570517  L 1661.810192 283.54799  L 1662.823235 283.170812  L 1663.836278 283.310648  L 1664.3428 283.506695  L 1667.38193 283.432156  L 1670.927582 283.156452  L 1671.940625 283.179006  L 1672.447147 283.129294  L 1673.46019 283.159982  L 1673.966712 282.887512  L 1674.473233 272.792917  L 1674.979755 266.497795  L 1675.486277 271.480016  L 1675.992798 282.205504  L 1676.49932 283.76179  L 1677.005842 281.143017  L 1678.525407 280.739929  L 1679.031928 280.578957  L 1679.53845 276.403633  L 1680.044972 275.219464  L 1680.551494 268.223826  L 1681.058015 263.597907  L 1681.564537 263.199113  L 1682.071059 264.394761  L 1682.57758 269.976557  L 1683.084102 270.720898  L 1684.097145 274.506999  L 1684.603667 275.769599  L 1685.110189 276.503131  L 1685.61671 277.583364  L 1686.123232 277.600749  L 1686.629754 278.741915  L 1687.136275 279.469913  L 1687.642797 279.890952  L 1688.65584 280.07017  L 1689.668884 280.31927  L 1690.681927 280.872435  L 1691.69497 280.94674  L 1692.201492 280.852331  L 1693.721057 281.369799  L 1694.227579 281.411218  L 1696.253665 282.212272  L 1697.266709 282.88357  L 1698.786274 283.649897  L 1700.305839 283.918789  L 1700.81236 284.013326  L 1703.85149 283.884384  L 1704.358012 270.513415  L 1704.864534 263.150846  L 1705.371055 267.564008  L 1705.877577 278.842489  L 1706.890621 283.967973  L 1707.903664 284.054332  L 1708.410186 284.008142  L 1709.423229 283.642571  L 1710.436272 283.645514  L 1714.994967 283.456729  L 1715.501489 283.653194  L 1716.008011 283.487883  L 1716.514532 283.634422  L 1717.021054 279.470574  L 1717.527576 279.960832  L 1718.034097 279.714169  L 1718.540619 277.224618  L 1719.047141 269.620379  L 1719.553662 265.644895  L 1720.060184 267.150253  L 1720.566706 270.348044  L 1721.073227 269.882514  L 1721.579749 274.469775  L 1722.086271 276.642037  L 1723.099314 279.268937  L 1723.605836 279.897552  L 1724.112357 281.758036  L 1724.618879 281.951408  L 1725.125401 282.755546  L 1726.138444 283.678327  L 1726.644966 283.594471  L 1727.151487 283.865123  L 1727.658009 283.693077  L 1728.164531 283.821602  L 1728.671052 283.696524  L 1729.177574 283.794158  L 1729.684096 283.697363  L 1730.190617 283.743714  L 1731.203661 283.387496  L 1732.216704 282.625352  L 1732.723226 282.553796  L 1733.229748 282.618496  L 1733.736269 282.833749  L 1734.242791 283.461379  L 1734.749313 283.527132  L 1736.268878 283.097058  L 1737.788443 280.05905  L 1738.294964 280.141563  L 1738.801486 280.400581  L 1739.308008 280.403932  L 1739.814529 280.06431  L 1740.321051 279.920748  L 1740.827573 279.064426  L 1741.840616 279.242789  L 1742.853659 280.040501  L 1743.360181 280.617131  L 1743.866703 281.012332  L 1744.373224 281.590906  L 1746.399311 282.756002  L 1750.451484 283.641439  L 1751.464528 283.798151  L 1751.971049 283.883464  L 1752.477571 283.85482  L 1752.984093 283.99691  L 1753.490614 283.928945  L 1753.997136 284.054633  L 1755.010179 283.960793  L 1755.516701 284.048231  L 1756.023223 283.917294  L 1757.036266 284.055875  L 1757.542788 283.973342  L 1758.555831 283.990531  L 1759.062353 279.891662  L 1759.568875 274.147829  L 1760.075396 282.425851  L 1760.581918 273.033416  L 1761.08844 281.992934  L 1761.594961 222.144842  L 1762.101483 201.538464  L 1762.608005 200.894368  L 1763.114526 204.16745  L 1765.140613 271.481017  L 1765.647135 266.450527  L 1766.153656 248.10858  L 1766.660178 216.394285  L 1767.673221 185.809924  L 1768.179743 189.473611  L 1768.686265 197.374376  L 1769.192786 199.192023  L 1769.699308 203.722816  L 1770.20583 209.739545  L 1770.712351 220.919058  L 1771.218873 227.318213  L 1771.725395 239.850353  L 1772.738438 249.114649  L 1773.24496 258.628508  L 1774.258003 266.346945  L 1774.764525 268.62056  L 1775.777568 271.363883  L 1776.28409 273.662866  L 1777.297133 275.874608  L 1778.310176 278.232968  L 1779.32322 279.98735  L 1781.855828 283.608148  L 1782.868871 283.974224  L 1784.388437 284.072876  L 1855.807992 284.072876  L 1855.807992 284.072876  "
           clip-path="url(#pe695f3d45f)"
           style="fill: none; stroke: #4c72b0; stroke-width: 2; stroke-linecap: round"
           id="path118" />
      </g>
      <g
         id="patch_9">
        <path
           d="M 1324.492083 296.517422  L 1324.492083 22.737422  "
           style="fill: none; stroke: #cccccc; stroke-width: 1.25; stroke-linejoin: miter; stroke-linecap: square"
           id="path119" />
      </g>
      <g
         id="patch_10">
        <path
           d="M 1324.492083 296.517422  L 1881.10875 296.517422  "
           style="fill: none; stroke: #cccccc; stroke-width: 1.25; stroke-linejoin: miter; stroke-linecap: square"
           id="path120" />
      </g>
    </g>
  </g>
  <defs
     id="defs122">
    <clipPath
       id="p8db9955221">
      <rect
         x="48.61875"
         y="22.737422"
         width="556.616667"
         height="273.78"
         id="rect120" />
    </clipPath>
    <clipPath
       id="pb4aca069e2">
      <rect
         x="686.555417"
         y="22.737422"
         width="556.616667"
         height="273.78"
         id="rect121" />
    </clipPath>
    <clipPath
       id="pe695f3d45f">
      <rect
         x="1324.492083"
         y="22.737422"
         width="556.616667"
         height="273.78"
         id="rect122" />
    </clipPath>
  </defs>
</svg>
